<svg id="Сгруппировать_68" data-name="Сгруппировать 68" xmlns="http://www.w3.org/2000/svg" width="44" height="44" viewBox="0 0 44 44">
  <g id="Компонент_39_8" data-name="Компонент 39 – 8">
    <circle id="Эллипс_3" data-name="Эллипс 3" cx="22" cy="22" r="22" fill="#f4f5f7" opacity="0.2"/>
  </g>
  <path id="Icon_awesome-twitter" data-name="Icon awesome-twitter" d="M18.707,7.6c.013.185.013.37.013.556A12.075,12.075,0,0,1,6.562,20.315,12.076,12.076,0,0,1,0,18.4a8.84,8.84,0,0,0,1.032.053,8.558,8.558,0,0,0,5.305-1.826,4.281,4.281,0,0,1-4-2.964,5.389,5.389,0,0,0,.807.066,4.52,4.52,0,0,0,1.125-.146A4.274,4.274,0,0,1,.847,9.387V9.334a4.3,4.3,0,0,0,1.932.542A4.28,4.28,0,0,1,1.455,4.161a12.147,12.147,0,0,0,8.811,4.472,4.824,4.824,0,0,1-.106-.979,4.277,4.277,0,0,1,7.4-2.924A8.413,8.413,0,0,0,20.269,3.7,4.262,4.262,0,0,1,18.39,6.053a8.567,8.567,0,0,0,2.461-.661A9.186,9.186,0,0,1,18.707,7.6Z" transform="translate(11.574 10.152)" fill="#fff"/>
</svg>
