<svg id="Сгруппировать_70" data-name="Сгруппировать 70" xmlns="http://www.w3.org/2000/svg" width="44" height="44" viewBox="0 0 44 44">
  <g id="Компонент_39_6" data-name="Компонент 39 – 6">
    <circle id="Эллипс_3" data-name="Эллипс 3" cx="22" cy="22" r="22" fill="#f4f5f7" opacity="0.2"/>
  </g>
  <path id="Icon_awesome-vk" data-name="Icon awesome-vk" d="M20.98,7.561c.138-.467,0-.811-.665-.811h-2.2a.945.945,0,0,0-.957.624,18.444,18.444,0,0,1-2.706,4.5c-.512.512-.747.676-1.028.676-.138,0-.351-.164-.351-.632V7.561c0-.561-.157-.811-.62-.811H8.991a.531.531,0,0,0-.561.5c0,.531.792.654.875,2.149v3.244c0,.71-.127.841-.407.841-.747,0-2.564-2.743-3.64-5.882C5.041,7,4.828,6.75,4.264,6.75h-2.2c-.628,0-.755.3-.755.624,0,.583.747,3.479,3.479,7.306A8.581,8.581,0,0,0,11.5,18.709c1.4,0,1.573-.314,1.573-.856,0-2.5-.127-2.732.576-2.732.325,0,.886.164,2.194,1.424,1.495,1.495,1.742,2.164,2.579,2.164h2.2c.628,0,.946-.314.762-.934-.419-1.3-3.248-3.988-3.375-4.167-.325-.419-.232-.605,0-.979,0,0,2.691-3.786,2.967-5.068Z" transform="translate(10.626 11.021)" fill="#fff"/>
</svg>
