<svg id="Сгруппировать_67" data-name="Сгруппировать 67" xmlns="http://www.w3.org/2000/svg" width="44" height="44" viewBox="0 0 44 44">
  <g id="Компонент_39_13" data-name="Компонент 39 – 13">
    <circle id="Эллипс_3" data-name="Эллипс 3" cx="22" cy="22" r="22" fill="red"/>
  </g>
  <path id="Icon_awesome-youtube" data-name="Icon awesome-youtube" d="M20.391,6.673a2.482,2.482,0,0,0-1.746-1.758C17.1,4.5,10.927,4.5,10.927,4.5s-6.177,0-7.718.415A2.482,2.482,0,0,0,1.463,6.673a26.038,26.038,0,0,0-.413,4.786,26.038,26.038,0,0,0,.413,4.786,2.445,2.445,0,0,0,1.746,1.73c1.541.415,7.718.415,7.718.415s6.177,0,7.718-.415a2.445,2.445,0,0,0,1.746-1.73,26.038,26.038,0,0,0,.413-4.786,26.038,26.038,0,0,0-.413-4.786ZM8.907,14.4V8.522l5.163,2.937L8.907,14.4Z" transform="translate(11.073 10.555)" fill="#fff"/>
</svg>
