<svg xmlns="http://www.w3.org/2000/svg" width="19.754" height="13.89" viewBox="0 0 19.754 13.89">
  <path id="Icon_awesome-youtube" data-name="Icon awesome-youtube" d="M20.391,6.673a2.482,2.482,0,0,0-1.746-1.758C17.1,4.5,10.927,4.5,10.927,4.5s-6.177,0-7.718.415A2.482,2.482,0,0,0,1.463,6.673a26.038,26.038,0,0,0-.413,4.786,26.038,26.038,0,0,0,.413,4.786,2.445,2.445,0,0,0,1.746,1.73c1.541.415,7.718.415,7.718.415s6.177,0,7.718-.415a2.445,2.445,0,0,0,1.746-1.73,26.038,26.038,0,0,0,.413-4.786,26.038,26.038,0,0,0-.413-4.786ZM8.907,14.4V8.522l5.163,2.937L8.907,14.4Z" transform="translate(-1.05 -4.5)" fill="#fff"/>
</svg>
