<svg xmlns="http://www.w3.org/2000/svg" width="53.843" height="28.151" viewBox="0 0 53.843 28.151">
  <g id="Сгруппировать_427" data-name="Сгруппировать 427" transform="translate(-27.913 -698.968)">
    <path id="Контур_4229" data-name="Контур 4229" d="M83.6,700.106h36.51V716H83.6Zm-.691,16.582H120.8V699.416H82.913Z" transform="translate(-55 0.131)" fill="#818386"/>
    <rect id="Прямоугольник_605" data-name="Прямоугольник 605" width="5.354" height="1.558" transform="translate(56.943 716.474)" fill="#818386"/>
    <rect id="Прямоугольник_606" data-name="Прямоугольник 606" width="5.354" height="1.558" transform="translate(34.182 716.474)" fill="#818386"/>
    <path id="Контур_4230" data-name="Контур 4230" d="M121.354,713.233H86.537v2.386h.385L86,716.44v-.524h-.8v2.043H86V717.4l1.536-1.028H90.02v-.748h2.937a1.747,1.747,0,0,1,2.2,0h5.889a1.748,1.748,0,0,1,2.2,0h17.676v-.573a4.069,4.069,0,0,1,.435-1.812" transform="translate(-54.333 4.162)" fill="#818386"/>
    <path id="Контур_4231" data-name="Контур 4231" d="M108.661,714.431h-6.268v1.948a.692.692,0,0,0,.691.691h4.887a.692.692,0,0,0,.69-.691v-.351h.491c0,.022,0,.044,0,.066a.92.92,0,0,0,1.765.364h1.115a.92.92,0,0,0,1.765-.364c0-.022,0-.044,0-.066h.3V717h1.816v-2.539h-1.816v.439h-5.432Z" transform="translate(-49.317 4.511)" fill="#818386"/>
    <path id="Контур_4097" data-name="Контур 4097" d="M173.008,699.505v-.466H166.74v3.383h.046l5.531-.745a.691.691,0,0,0,.69-.69v-1.482Z" transform="translate(-100.936 0.508)" fill="#152c73"/>
    <path id="Контур_4233" data-name="Контур 4233" d="M93.046,715.374a1.748,1.748,0,1,0,1.749,1.749,1.749,1.749,0,0,0-1.749-1.749m8.088,0a1.748,1.748,0,1,0,1.749,1.749,1.749,1.749,0,0,0-1.749-1.749m-10.627,4.289h0a3.587,3.587,0,0,1-1.035-2.2h-.813v-.345a4.446,4.446,0,0,1,1.2-3.211h0a4.91,4.91,0,0,1,6.379,0h0a3.916,3.916,0,0,1,.854,1.31,3.886,3.886,0,0,1,.853-1.31h0a4.909,4.909,0,0,1,6.377,0h0a4.45,4.45,0,0,1,1.2,3.211v.345h-.813a3.591,3.591,0,0,1-6.115,2.195h0a3.6,3.6,0,0,1-1.036-2.2h-.934a3.592,3.592,0,0,1-6.116,2.195" transform="translate(-53.324 4.016)" fill="#818386"/>
    <path id="Контур_4223" data-name="Контур 4223" d="M123.719,721.029h-2.744l-.1-.092a5.093,5.093,0,0,0-.465-.385l.407-.558c.139.1.28.216.426.345h2.385l1.842-.493v-2.563l-.608-1.761h.608v-3.262a27.856,27.856,0,0,0-1.378-5.693c-.191-.617-.363-1.175-.486-1.613-.231-.824-1.6-1.28-3.866-1.28h-5.008v10.768h-.69V702.985h5.7c2.675,0,4.2.6,4.531,1.784.121.433.292.986.479,1.6a27.358,27.358,0,0,1,1.411,5.9v3.95h-.331l.331,1.014v3.149Z" transform="translate(-45.918 1.172)" fill="#818386"/>
    <path id="Контур_4224" data-name="Контур 4224" d="M123.632,710.742a59.1,59.1,0,0,0-1.622-5.894h-.822l1.192,5.582a6,6,0,0,1,1.252.313" transform="translate(-43.833 1.715)" fill="#818386"/>
    <path id="Контур_4225" data-name="Контур 4225" d="M117.128,715.386a1.749,1.749,0,1,0,1.749,1.749,1.749,1.749,0,0,0-1.749-1.749m-3.629,2.466v-1.883a3.282,3.282,0,0,1,3.273-3.273h.612a3.9,3.9,0,0,1,3.886,3.886v1.271h-.621a3.59,3.59,0,0,1-.98,1.821v0a3.593,3.593,0,0,1-5.08,0h0a3.588,3.588,0,0,1-.98-1.824Z" transform="translate(-46.077 4.005)" fill="#818386"/>
    <path id="Контур_4226" data-name="Контур 4226" d="M121.793,718.019h.424V716.31a4.951,4.951,0,0,0-4.747-4.516h-.71a4.008,4.008,0,0,0-3.805,3.806v2.419h.607v-1.655a3.508,3.508,0,0,1,3.5-3.5h.612a4.119,4.119,0,0,1,4.116,4.114Zm.884.46h-1.345v-1.5a3.658,3.658,0,0,0-3.654-3.654h-.612a3.046,3.046,0,0,0-3.043,3.042v2.115h-1.528V715.6a4.434,4.434,0,0,1,4.265-4.265h.71a5.367,5.367,0,0,1,5.207,4.976Z" transform="translate(-46.37 3.608)" fill="#818386"/>
    <path id="Контур_4228" data-name="Контур 4228" d="M116.524,717.3a.955.955,0,1,0-.956-.956.958.958,0,0,0,.956.956" transform="translate(-45.473 4.792)" fill="#818386"/>
    <rect id="Прямоугольник_600" data-name="Прямоугольник 600" width="1.343" height="2.381" transform="translate(78.555 718.397)" fill="#818386"/>
    <rect id="Прямоугольник_603" data-name="Прямоугольник 603" width="2.945" height="0.46" transform="translate(76.065 719.203)" fill="#818386"/>
    <rect id="Прямоугольник_601" data-name="Прямоугольник 601" width="1.497" height="0.46" transform="translate(71.856 713.723)" fill="#818386"/>
    <rect id="Прямоугольник_604" data-name="Прямоугольник 604" width="2.945" height="0.46" transform="translate(76.065 720.318)" fill="#818386"/>
    <rect id="Прямоугольник_602" data-name="Прямоугольник 602" width="0.877" height="2.284" transform="translate(79.02 713.678)" fill="#818386"/>
    <path id="Контур_4227" data-name="Контур 4227" d="M121.888,705.308a.337.337,0,0,1,.336.336v3.089a.337.337,0,0,1-.336.336H121.7a.336.336,0,0,1-.336-.336v-3.089a.337.337,0,0,1,.336-.336Zm-.784.005h-4.079v3.195a.688.688,0,0,0,.575.682l4.794.809-.114-.709a.68.68,0,0,1-.391.125H121.7a.683.683,0,0,1-.682-.682v-3.089a.668.668,0,0,1,.087-.331" transform="translate(-45.048 1.85)" fill="#818386"/>
    <path id="Контур_4234" data-name="Контур 4234" d="M98.532,717.3a.955.955,0,1,0-.956-.956.958.958,0,0,0,.956.956" transform="translate(-50.722 4.792)" fill="#818386"/>
    <path id="Контур_4235" data-name="Контур 4235" d="M92.271,717.3a.955.955,0,1,0-.956-.956.958.958,0,0,0,.956.956" transform="translate(-52.549 4.792)" fill="#818386"/>
    <rect id="Прямоугольник_599" data-name="Прямоугольник 599" width="53.843" height="28.151" transform="translate(27.913 698.968)" fill="none"/>
  </g>
</svg>
