<svg xmlns="http://www.w3.org/2000/svg" width="40" height="40" viewBox="0 0 40 40">
  <g id="Сгруппировать_1140" data-name="Сгруппировать 1140" transform="translate(-752 -1876)">
    <rect id="Прямоугольник_88" data-name="Прямоугольник 88" width="40" height="40" transform="translate(752 1876)" fill="#fff" opacity="0"/>
    <path id="Объединение_6" data-name="Объединение 6" d="M1.309,39.994a.781.781,0,0,1-.449-.167A2.352,2.352,0,0,1,0,37.892c0-.348,0-.7,0-1.043Q0,21.6,0,6.346A2.912,2.912,0,0,1,.442,4.6a2.312,2.312,0,0,1,2.03-.969c.384,0,.769,0,1.194,0,0-.475-.014-.916,0-1.356A2.355,2.355,0,0,1,5,.126,1.172,1.172,0,0,1,5.514,0q11.1-.009,22.2,0A.737.737,0,0,1,28.178.2Q31,2.944,33.793,5.717a.721.721,0,0,1,.2.461q.014,13.974.006,27.949a2.351,2.351,0,0,1-2.527,2.492c-.544,0-1.087,0-1.69,0,0,.46.012.91,0,1.36a2.324,2.324,0,0,1-.851,1.866.73.73,0,0,1-.417.15Q21.86,40,15.208,40,8.258,40,1.309,39.994ZM1.19,5.111A2.514,2.514,0,0,0,.954,6.173q-.018,15.7-.009,31.4a1.888,1.888,0,0,0,.021.465,2.543,2.543,0,0,0,.254.7,1.418,1.418,0,0,0,1.357.582q8.623,0,17.246,0H24.45c.979,0,1.959.008,2.938,0a1.329,1.329,0,0,0,1.4-1.071,15.318,15.318,0,0,0,.178-1.758h-.555q-11.009,0-22.018-.01a3.213,3.213,0,0,1-1.333-.244,2.262,2.262,0,0,1-1.32-2.213q.005-14.533,0-29.066v-.5c-.514,0-.973.006-1.431,0H2.282A1.151,1.151,0,0,0,1.19,5.111ZM6.171.684A1.438,1.438,0,0,0,4.607,2.261q0,15.846-.011,31.692a1.556,1.556,0,0,0,1.618,1.61q12.623-.032,25.245,0a1.6,1.6,0,0,0,1.68-1.677q-.028-13.472-.011-26.943V6.536h-.442c-.979,0-1.959,0-2.938,0a2.349,2.349,0,0,1-2.513-2.469c-.006-.563,0-1.127,0-1.691s0-1.1,0-1.663C27.105.7,27.012.683,26.919.683H16.086Q11.129.681,6.171.684ZM28.108,4.143A1.409,1.409,0,0,0,29.56,5.607c.9.017,1.81,0,2.615,0L28.112,1.582C28.109,2.436,28.1,3.29,28.108,4.143Zm0-2.627c0-.007,0-.01,0-.01A.024.024,0,0,0,28.113,1.517ZM18.8,28.307a2.6,2.6,0,0,1-2.561-2.472,13.573,13.573,0,0,0-1.362-5.682c-.312-.641-.7-1.244-1.063-1.86a5.819,5.819,0,0,1,.149-6.663,5.829,5.829,0,0,1,4.658-2.587l.295-.018a5.978,5.978,0,0,1,4.416,1.855,6.017,6.017,0,0,1,.622,7.617A13.671,13.671,0,0,0,21.7,23.789a14.445,14.445,0,0,0-.221,1.973,2.639,2.639,0,0,1-2.652,2.545Zm-1.733-2.519a2.291,2.291,0,0,0,.283.871,1.783,1.783,0,0,0,3.247-.576c.11-.827.182-1.659.272-2.508a5.875,5.875,0,0,1-3.98,0C16.948,24.324,16.983,25.059,17.069,25.788ZM18.245,9.9a5.246,5.246,0,0,0-4.555,5.122,5.367,5.367,0,0,0,.929,3.009A15.021,15.021,0,0,1,16.6,22.39a.459.459,0,0,0,.222.263,4.96,4.96,0,0,0,4.1.026.405.405,0,0,0,.276-.289,15.482,15.482,0,0,1,2.139-4.455A4.985,4.985,0,0,0,24,13.6a5.254,5.254,0,0,0-5.047-3.773C18.716,9.852,18.48,9.867,18.245,9.9Z" transform="translate(755 1876)" fill="#152c73"/>
  </g>
</svg>
