<svg xmlns="http://www.w3.org/2000/svg" width="40" height="40" viewBox="0 0 40 40">
  <g id="Сгруппировать_1141" data-name="Сгруппировать 1141" transform="translate(-752 -1876)">
    <g id="Прямоугольник_89" data-name="Прямоугольник 89" transform="translate(752 1876)" fill="none" stroke="#152c73" stroke-width="1">
      <rect width="40" height="40" rx="4" stroke="none"/>
      <rect x="0.5" y="0.5" width="39" height="39" rx="3.5" fill="none"/>
    </g>
    <rect id="Прямоугольник_88" data-name="Прямоугольник 88" width="40" height="40" transform="translate(752 1876)" fill="#fff" opacity="0"/>
    <g id="Сгруппировать_179" data-name="Сгруппировать 179" transform="translate(459.302 1730.939)">
      <path id="Контур_119" data-name="Контур 119" d="M313.328,175.264c0,.66,0,1.258,0,1.856a1.265,1.265,0,0,1-.036.314c-.059.222-.2.294-.5.274a.323.323,0,0,1-.324-.317c-.023-.233-.021-.469-.022-.7,0-.469,0-.937,0-1.464-.3.244-.559.454-.818.666-.422.346-.842.694-1.265,1.039a.444.444,0,0,1-.664-.024.423.423,0,0,1,.086-.638c.836-.7,1.681-1.393,2.515-2.1a.419.419,0,0,0,.139-.28q.011-3.822.005-7.645c0-.05-.009-.1-.017-.179-.065.058-.11.095-.151.136q-2.754,2.812-5.5,5.629a.455.455,0,0,0-.116.312c.076,1.066.166,2.13.251,3.2a2.618,2.618,0,0,1,.008.273.431.431,0,0,1-.424.442.415.415,0,0,1-.443-.4c-.051-.543-.091-1.087-.135-1.631-.031-.389-.062-.779-.093-1.155l-1.166,1.115c-.066.063-.125.133-.2.19a.429.429,0,0,1-.561-.011.4.4,0,0,1-.091-.531,1.77,1.77,0,0,1,.247-.294c.284-.3.571-.587.856-.881a.262.262,0,0,0,.026-.062c-.372-.034-.736-.07-1.1-.1-.423-.035-.846-.064-1.269-.1a.472.472,0,0,1-.475-.5.465.465,0,0,1,.562-.394c.951.088,1.9.168,2.852.259a.532.532,0,0,0,.474-.186q2.793-2.87,5.6-5.728c.056-.057.11-.118.193-.207-.105-.005-.169-.011-.233-.011q-3.584,0-7.167-.007a.419.419,0,0,0-.368.165c-.711.877-1.429,1.749-2.145,2.622a.449.449,0,0,1-.657.116.457.457,0,0,1-.029-.684q.849-1.038,1.7-2.072c.027-.033.051-.07.1-.144h-.276c-.728,0-1.456,0-2.184,0a.436.436,0,0,1-.422-.639.454.454,0,0,1,.457-.234c.63,0,1.259,0,1.888,0h.278l-.742-.855c-.283-.326-.572-.648-.847-.981a.416.416,0,0,1,.033-.576.421.421,0,0,1,.576-.034,1.092,1.092,0,0,1,.162.158c.624.713,1.244,1.43,1.874,2.137a.458.458,0,0,0,.3.144q3.663.013,7.326.008c.05,0,.1,0,.187-.009-.072-.081-.118-.137-.169-.188q-2.562-2.618-5.123-5.237a.465.465,0,0,0-.415-.166c-.98.093-1.962.174-2.943.258-.136.012-.272.023-.408.024a.437.437,0,0,1-.06-.871c.694-.065,1.389-.12,2.083-.18l.741-.064c-.067-.078-.11-.133-.158-.182-.4-.408-.8-.81-1.19-1.223-.29-.307-.186-.736.2-.78a.661.661,0,0,1,.452.186c.366.34.706.709,1.056,1.067.051.052.107.1.19.179.039-.481.076-.923.112-1.364.029-.355.053-.71.086-1.065.028-.3.2-.461.465-.442a.43.43,0,0,1,.4.5c-.043.7-.1,1.39-.153,2.086a2.076,2.076,0,0,1-.035.429,1.182,1.182,0,0,0,.467,1.257c1.7,1.7,3.37,3.43,5.051,5.148.051.052.106.1.2.191V163.8c0-2.366,0-4.733.006-7.1a.611.611,0,0,0-.261-.532c-.826-.666-1.641-1.345-2.462-2.018a.433.433,0,0,1-.187-.531.426.426,0,0,1,.718-.173c.666.539,1.325,1.085,1.987,1.629.051.042.1.081.186.145.006-.106.013-.179.013-.251,0-.645,0-1.289,0-1.934a1.369,1.369,0,0,1,.024-.294.4.4,0,0,1,.385-.328.387.387,0,0,1,.423.274,1.073,1.073,0,0,1,.046.335c0,.659,0,1.317,0,2.028.294-.254.554-.478.813-.7.343-.3.685-.6,1.029-.9a.44.44,0,1,1,.59.651c-.7.621-1.392,1.241-2.106,1.841a.821.821,0,0,0-.335.706c.016,2.29.008,4.581.008,6.871v.311a1.805,1.805,0,0,0,.149-.12q2.444-2.495,4.883-5a.421.421,0,0,0,.108-.3c-.1-1.04-.221-2.078-.334-3.117-.012-.113-.024-.226-.027-.34a.433.433,0,0,1,.422-.467.422.422,0,0,1,.447.394c.066.556.123,1.114.184,1.671q.063.575.126,1.15l.1.082a.806.806,0,0,1,.108-.223c.468-.487.935-.974,1.419-1.444a.641.641,0,0,1,.427-.191.536.536,0,0,1,.348.269.412.412,0,0,1-.119.494c-.432.437-.86.878-1.289,1.317-.056.057-.107.118-.187.207l1.779.1c.212.012.424.022.635.04a.441.441,0,0,1,.426.466.43.43,0,0,1-.462.4c-.765-.031-1.529-.075-2.294-.114-.273-.014-.545-.034-.818-.038a.3.3,0,0,0-.2.083q-2.6,2.648-5.186,5.3a.453.453,0,0,0-.044.076c.078,0,.142.011.206.011q3.345,0,6.689,0a.384.384,0,0,0,.33-.143c.7-.809,1.4-1.612,2.111-2.414.229-.261.486-.294.688-.1a.439.439,0,0,1-.007.665q-.792.909-1.589,1.813c-.039.044-.076.09-.136.162.1.006.171.013.241.013.8,0,1.593,0,2.389,0,.371,0,.505.148.492.512a.347.347,0,0,1-.3.348,1.259,1.259,0,0,1-.294.024q-1.069,0-2.139,0h-.28l.8.982c.274.334.551.666.822,1a.445.445,0,0,1-.043.68.433.433,0,0,1-.636-.115c-.624-.753-1.248-1.505-1.859-2.268a.672.672,0,0,0-.587-.29c-2.268.01-4.535,0-6.8,0h-.289c.071.083.109.134.153.179q2.713,2.773,5.424,5.548a.433.433,0,0,0,.378.144c1.044-.068,2.088-.124,3.133-.184a.454.454,0,1,1,.055.9l-2.572.142c.072.079.116.132.164.181.371.38.748.754,1.113,1.139.294.31.2.726-.194.777a.62.62,0,0,1-.433-.168c-.361-.335-.7-.7-1.04-1.051a1.747,1.747,0,0,1-.147-.2l-.064.036c-.049.423-.1.846-.146,1.269s-.092.874-.141,1.31a.463.463,0,0,1-.473.428.424.424,0,0,1-.4-.489c.06-.679.136-1.356.207-2.034.042-.407.09-.813.124-1.22a.313.313,0,0,0-.071-.22q-2.71-2.776-5.428-5.544c-.008-.008-.025-.009-.065-.021v.224q0,3.64,0,7.281a.427.427,0,0,0,.165.366c.76.651,1.509,1.314,2.263,1.973a.522.522,0,0,1,.248.48.439.439,0,0,1-.742.264c-.443-.369-.871-.755-1.305-1.133Z" transform="translate(0 0)" fill="#152c73"/>
    </g>
  </g>
</svg>
