<svg xmlns="http://www.w3.org/2000/svg" width="40" height="40" viewBox="0 0 40 40">
  <g id="Сгруппировать_1142" data-name="Сгруппировать 1142" transform="translate(-752 -1876)">
    <rect id="Прямоугольник_88" data-name="Прямоугольник 88" width="40" height="40" transform="translate(752 1876)" fill="#fff" opacity="0"/>
    <path id="Объединение_7" data-name="Объединение 7" d="M15495.655-1887.86a4.454,4.454,0,0,1-1.654-3.723c.008-2.764,0-5.529,0-8.293q0-11.2,0-22.4a5,5,0,0,1,.4-2.243,4.171,4.171,0,0,1,4.069-2.479q7.043.006,14.087,0h8.453c.409,0,.821.015,1.228.04a4.1,4.1,0,0,1,3.746,4.025c.026,5.329.007,10.658.007,15.987,0,5.3.02,10.6-.007,15.9a4.09,4.09,0,0,1-3.874,4.024c-.151.005-.3.01-.451.01h-6.146q-8.568,0-17.135.007h-.012A4.173,4.173,0,0,1,15495.655-1887.86Zm2.723-38.163c-.151,0-.3,0-.453.01a2.973,2.973,0,0,0-1.708.647,3.466,3.466,0,0,0-1.285,2.945q.015,15.434.008,30.869c0,.2,0,.4.016.6a3.338,3.338,0,0,0,.627,1.688,3.225,3.225,0,0,0,2.8,1.324q8.407-.01,16.814-.005h6.47a2.108,2.108,0,0,0,.449-.014,4.918,4.918,0,0,0,1.14-.306,3.284,3.284,0,0,0,1.852-3.2q0-7.76,0-15.52v-9.364c0-2.166,0-4.332-.014-6.5a3.129,3.129,0,0,0-.9-2.182,3.29,3.29,0,0,0-2.529-1q-8.735.011-17.465.005h-5.819Zm18.1,31.425c-.336-.289-.632-.632-.94-.954-.9-.936-1.808-1.865-2.694-2.815a.519.519,0,0,0-.673-.16,5.413,5.413,0,0,1-4.272,0,.517.517,0,0,0-.672.153c-1.113,1.177-2.243,2.338-3.365,3.5-.069.07-.125.167-.207.2-.2.09-.445.258-.6.194a.757.757,0,0,1-.286-.574c-.034-.71-.014-1.424-.014-2.136v-.531h-1.535a7.349,7.349,0,0,1-1.024-.013.724.724,0,0,1-.521-.3.7.7,0,0,1,.153-.6c.616-.686,1.263-1.341,1.9-2.006.7-.736,1.406-1.476,2.12-2.2a.588.588,0,0,0,.167-.6,6.364,6.364,0,0,1,4.591-7.309,6.1,6.1,0,0,1,7.386,4.6,5.673,5.673,0,0,1,.092,2.66.664.664,0,0,0,.2.681c1.278,1.309,2.537,2.636,3.8,3.958.067.071.163.129.2.214.076.2.226.467.161.6a.771.771,0,0,1-.562.309c-.7.037-1.395.014-2.092.014h-.466c0,.777,0,1.487,0,2.2a2.4,2.4,0,0,1-.02.595c-.048.173-.155.411-.283.454a.386.386,0,0,1-.119.017A.715.715,0,0,1,15516.477-1894.6Zm-3.026-4.6,2.9,3.056c.01-.212.02-.349.02-.485,0-.47-.006-.94,0-1.41s.15-.606.6-.61c.423,0,.847,0,1.272,0h.523l-3.121-3.288A6.452,6.452,0,0,1,15513.45-1899.2Zm-9.79,1.819c-.008.389,0,.78,0,1.192.979-1.039,1.92-2.034,2.889-3.059a6.35,6.35,0,0,1-2.12-2.631c-1.078,1.087-2.118,2.139-3.2,3.229.415,0,.806,0,1.2,0,.133,0,.254,0,.361,0l.235,0C15503.621-1898.656,15503.679-1898.545,15503.66-1897.382Zm6.3-12.584a5.26,5.26,0,0,0-5.161,5.413,5.274,5.274,0,0,0,5.2,5.439,5.224,5.224,0,0,0,5.225-5.446,5.26,5.26,0,0,0-5.2-5.406Zm9.286-8.667h-18.466c-.136,0-.3.043-.4-.017-.159-.092-.388-.256-.388-.391a.852.852,0,0,1,.314-.507c.085-.073.265-.037.4-.037q9.316,0,18.63,0c.125,0,.284-.039.36.025.154.129.361.32.357.481s-.236.325-.4.429a.269.269,0,0,1-.149.034C15519.419-1918.617,15519.327-1918.633,15519.247-1918.633Z" transform="translate(-14738.001 3802.999)" fill="#152c73"/>
  </g>
</svg>
