<svg xmlns="http://www.w3.org/2000/svg" width="40" height="40.002" viewBox="0 0 40 40.002">
  <g id="Сгруппировать_1143" data-name="Сгруппировать 1143" transform="translate(-752 -1876)">
    <rect id="Прямоугольник_88" data-name="Прямоугольник 88" width="40" height="40" transform="translate(752 1876)" fill="#fff" opacity="0"/>
    <path id="Вычитание_5" data-name="Вычитание 5" d="M22309,23282a19.937,19.937,0,1,1,7.783-1.572A19.844,19.844,0,0,1,22309,23282Zm-.053-39.242a19.312,19.312,0,1,0,13.666,5.656,20.227,20.227,0,0,0-6.256-4.172A19.058,19.058,0,0,0,22308.947,23242.76Z" transform="translate(-21537 -21366)" fill="#152c73"/>
    <g id="Сгруппировать_178" data-name="Сгруппировать 178" transform="translate(425.216 1651.72)">
      <path id="Контур_117" data-name="Контур 117" d="M346.792,249.593c.227-.229.445-.432.639-.655a.489.489,0,0,0,.1-.3c.009-1.219-.022-2.439.018-3.657a7.967,7.967,0,0,1,6.428-7.513,10.116,10.116,0,0,1,1.7-.173c1.129-.026,2.259-.008,3.389-.008.446,0,.57.126.57.571,0,1.108,0,2.215,0,3.323a7.971,7.971,0,0,1-6.777,7.957,11.97,11.97,0,0,1-1.588.116c-.96.018-1.92,0-2.88.012a.639.639,0,0,0-.374.154c-.248.215-.467.463-.709.685a.456.456,0,0,0-.152.377c0,1.41,0,2.821,0,4.231a1.731,1.731,0,0,1-.007.239.365.365,0,0,1-.728-.027c-.005-.079,0-.159,0-.239,0-1.4,0-2.8-.006-4.207a.576.576,0,0,0-.144-.348,8.363,8.363,0,0,0-.718-.709.637.637,0,0,0-.374-.155c-1.194-.019-2.388-.007-3.582-.033a7.574,7.574,0,0,1-3.519-.991,7.866,7.866,0,0,1-3.761-4.55,7.777,7.777,0,0,1-.376-2.4c-.015-1.163,0-2.327,0-3.49,0-.387.131-.518.522-.519,1.154,0,2.308-.014,3.461,0a8.1,8.1,0,0,1,5.6,2.177,7.685,7.685,0,0,1,2.423,4.588,10,10,0,0,1,.1,1.355c.014,1.076,0,2.151.011,3.227a.6.6,0,0,0,.146.349C346.373,249.195,346.577,249.378,346.792,249.593ZM334.7,238.042c-.007.075-.014.115-.014.154,0,1.02-.016,2.039.006,3.058a8.571,8.571,0,0,0,.149,1.468,7.232,7.232,0,0,0,6.506,5.747c1.06.075,2.127.036,3.192.047.018,0,.036-.021.082-.049-.078-.067-.148-.121-.211-.183q-2.311-2.28-4.62-4.562c-.279-.276-.33-.5-.153-.673.195-.188.386-.149.68.141l4.757,4.7c.063.062.13.121.232.215,0-.286,0-.508,0-.731-.014-.963.025-1.931-.06-2.889a6.669,6.669,0,0,0-1.454-3.607,7.168,7.168,0,0,0-5.592-2.825c-.942-.034-1.887-.009-2.831-.01Zm14.234,10.474c.977,0,1.9.023,2.815,0a7.167,7.167,0,0,0,4.757-1.9,6.967,6.967,0,0,0,2.359-5.159c.026-1.067.017-2.135.023-3.2,0-.062-.008-.124-.013-.2-.072-.006-.135-.015-.2-.015-1.041,0-2.082-.013-3.122.006a8.279,8.279,0,0,0-1.344.129,7.094,7.094,0,0,0-4.259,2.485,6.751,6.751,0,0,0-1.64,3.978c-.071,1.119-.036,2.245-.046,3.368,0,.017.022.034.057.086.066-.08.116-.154.179-.216q2.38-2.348,4.763-4.693c.283-.278.478-.32.661-.142s.14.4-.139.677l-4.643,4.576C349.086,248.355,349.029,248.418,348.935,248.516Z" fill="#152c73"/>
    </g>
  </g>
</svg>
