<svg xmlns="http://www.w3.org/2000/svg" width="32.006" height="31.998" viewBox="0 0 32.006 31.998">
  <path id="Adress" d="M-30108.816-19204.186a15.937,15.937,0,0,1-4.686-11.322,15.9,15.9,0,0,1,4.686-11.3,15.9,15.9,0,0,1,11.313-4.686,15.9,15.9,0,0,1,11.322,4.686,15.874,15.874,0,0,1,4.686,11.3,15.9,15.9,0,0,1-4.686,11.322,15.937,15.937,0,0,1-11.322,4.686A15.928,15.928,0,0,1-30108.816-19204.186Zm.711-21.926a14.888,14.888,0,0,0-4.393,10.6,14.9,14.9,0,0,0,4.393,10.611,14.89,14.89,0,0,0,10.6,4.391,14.909,14.909,0,0,0,10.611-4.391,14.909,14.909,0,0,0,4.391-10.611,14.9,14.9,0,0,0-4.391-10.6,14.9,14.9,0,0,0-10.611-4.391A14.89,14.89,0,0,0-30108.105-19226.111Zm5.463,17.609a.6.6,0,0,1-.574-.627V-19216h-1.715a.545.545,0,0,1-.447-.25.662.662,0,0,1,.1-.877l7.428-6.25a.529.529,0,0,1,.7,0l7.438,6.25a.666.666,0,0,1,.219.5.6.6,0,0,1-.566.627h-1.717v6.869a.6.6,0,0,1-.574.627Zm6.855-6.25a.6.6,0,0,1,.574.627v4.377h2.281v-6.877a.6.6,0,0,1,.574-.629h.605l-5.752-4.836-5.742,4.836h.6a.6.6,0,0,1,.566.629v6.877h2.291v-4.377a.6.6,0,0,1,.574-.627Zm-2.857,5h2.289v-3.756h-2.289Z" transform="translate(30113.502 19231.498)" fill="#1d4ed8"/>
</svg>
