<svg xmlns="http://www.w3.org/2000/svg" width="32" height="32" viewBox="0 0 32 32">
  <path id="Mail" d="M-14938.315-7746.687A15.9,15.9,0,0,1-14943-7758a15.9,15.9,0,0,1,4.684-11.311A15.894,15.894,0,0,1-14927-7774a15.894,15.894,0,0,1,11.314,4.688A15.88,15.88,0,0,1-14911-7758a15.888,15.888,0,0,1-4.687,11.314A15.893,15.893,0,0,1-14927-7742,15.893,15.893,0,0,1-14938.315-7746.687Zm.709-21.92A14.894,14.894,0,0,0-14942-7758a14.894,14.894,0,0,0,4.4,10.606A14.886,14.886,0,0,0-14927-7743a14.893,14.893,0,0,0,10.605-4.4A14.894,14.894,0,0,0-14912-7758a14.894,14.894,0,0,0-4.4-10.605A14.905,14.905,0,0,0-14927-7773,14.9,14.9,0,0,0-14937.606-7768.607Zm4.129,16.085a.524.524,0,0,1-.525-.521v-10.433a.524.524,0,0,1,.525-.521h13.561a.52.52,0,0,1,.521.521v10.433a.52.52,0,0,1-.521.521Zm.648-1.174h12.26v-8.5l-5.573,4.328a.907.907,0,0,1-.559.191.917.917,0,0,1-.559-.191l-5.569-4.328Zm.889-9.128,5.243,4.073,5.243-4.073.7-.543.638.825-.45.349.454-.349-.642-.825-.7.543h-10.486l-.7-.543Zm-1.339.281.45.349-.448-.351Z" transform="translate(14942.999 7774)" fill="#1d4ed8"/>
</svg>
