<svg xmlns="http://www.w3.org/2000/svg" width="32" height="32.004" viewBox="0 0 32 32.004">
  <path id="Phone" d="M-14934.814-7703.684A15.888,15.888,0,0,1-14939.5-7715a15.9,15.9,0,0,1,4.687-11.315,15.887,15.887,0,0,1,11.315-4.69,15.889,15.889,0,0,1,11.315,4.69A15.91,15.91,0,0,1-14907.5-7715a15.908,15.908,0,0,1-4.683,11.312A15.9,15.9,0,0,1-14923.5-7699,15.9,15.9,0,0,1-14934.814-7703.684Zm.709-21.922a14.92,14.92,0,0,0-4.395,10.61,14.9,14.9,0,0,0,4.395,10.6,14.906,14.906,0,0,0,10.606,4.4,14.906,14.906,0,0,0,10.606-4.4,14.906,14.906,0,0,0,4.391-10.6,14.917,14.917,0,0,0-4.391-10.61A14.911,14.911,0,0,0-14923.5-7730,14.911,14.911,0,0,0-14934.105-7725.606Zm3.606,4.2a.911.911,0,0,1,.709-.892l2.954-.683a.915.915,0,0,1,1.046.533l1.365,3.176a.922.922,0,0,1-.263,1.072l-1.578,1.29a10.248,10.248,0,0,0,4.675,4.675l1.294-1.578a.92.92,0,0,1,1.068-.259l3.176,1.361a.91.91,0,0,1,.528,1.046l-.679,2.951a.914.914,0,0,1-.893.712A13.4,13.4,0,0,1-14930.5-7721.4Zm.941.019a12.459,12.459,0,0,0,12.443,12.448l.675-2.921-3.146-1.346-1.743,2.133a11.319,11.319,0,0,1-6.1-6.1l2.134-1.743-1.35-3.146Z" transform="translate(14939.501 7731.001)" fill="#1d4ed8"/>
</svg>
