<svg xmlns="http://www.w3.org/2000/svg" width="32.003" height="31.999" viewBox="0 0 32.003 31.999">
  <path id="Time" d="M-14932.314-7756.687A15.9,15.9,0,0,1-14937-7768a15.9,15.9,0,0,1,4.687-11.313A15.9,15.9,0,0,1-14921-7784a15.9,15.9,0,0,1,11.313,4.686A15.877,15.877,0,0,1-14905-7768a15.883,15.883,0,0,1-4.689,11.313A15.9,15.9,0,0,1-14921-7752,15.9,15.9,0,0,1-14932.314-7756.687Zm.7-21.918A14.889,14.889,0,0,0-14936-7768a14.9,14.9,0,0,0,4.394,10.6A14.9,14.9,0,0,0-14921-7753a14.893,14.893,0,0,0,10.6-4.394A14.9,14.9,0,0,0-14906-7768a14.889,14.889,0,0,0-4.394-10.6A14.888,14.888,0,0,0-14921-7783,14.9,14.9,0,0,0-14931.61-7778.605Zm1.612,10.6a9.01,9.01,0,0,1,9-9,9.007,9.007,0,0,1,9,9,9.007,9.007,0,0,1-9,9A9.01,9.01,0,0,1-14930-7768Zm1,0a8.007,8.007,0,0,0,8,8,8.009,8.009,0,0,0,8-8,8.012,8.012,0,0,0-8-8A8.009,8.009,0,0,0-14929-7768Zm3.5,3.6,4.5-2.7v-5.4h.934v5.9l-5.436,3.1Z" transform="translate(14937.001 7784)" fill="#1d4ed8"/>
</svg>
