<svg id="Компонент_293_2" data-name="Компонент 293 – 2" xmlns="http://www.w3.org/2000/svg" width="192" height="120" viewBox="0 0 192 120">
  <rect id="Прямоугольник_42" data-name="Прямоугольник 42" width="192" height="120" fill="#f4f5f7" opacity="0"/>
  <g id="Vezu" transform="translate(-1129.895 -423.289)">
    <path id="Контур_4583" data-name="Контур 4583" d="M1182.859,482.989a16.484,16.484,0,1,1-16.389-16.7A16.625,16.625,0,0,1,1182.859,482.989Zm-9.766-5.976c-1.232,0-2.187.062-3.142-.031a1.434,1.434,0,0,0-1.725,1.263c-.431,1.448-.955,2.865-1.54,4.652-.739-1.848-1.294-3.358-1.941-4.837-.185-.4-.616-.986-.955-1.017-1.294-.123-2.588-.062-4.159-.062,1.787,3.882,3.419,7.455,5.114,11.029.431.893,3.358.986,3.758.092C1170.013,484.53,1171.491,480.894,1173.093,477.013Z" transform="translate(0)"/>
    <path id="Контур_4584" data-name="Контур 4584" d="M1441.193,482.9a16.5,16.5,0,1,1-32.993-.031,16.5,16.5,0,1,1,32.993.031Zm-10.382-5.761h-11.491v3.142h4.867c-1.941,2.9-3.7,5.483-5.545,8.256H1430.2v-3.2h-5.021C1427.146,482.472,1428.9,479.915,1430.812,477.143Z" transform="translate(-178.732 -0.007)"/>
    <path id="Контур_4585" data-name="Контур 4585" d="M1570.507,482.361a16.455,16.455,0,0,1-32.87,1.633,16.384,16.384,0,0,1,16.081-17.529C1562.621,466.064,1570.2,473.4,1570.507,482.361Zm-22.365-5.145c0,2.434-.123,4.837.031,7.239a4.765,4.765,0,0,0,4.22,4.59c3.142.585,6.038-.493,7.116-2.711a1.349,1.349,0,0,0,.216-.585c.185-2.834.339-5.668.524-8.533h-4.5v1.756c-.031,1.633.031,3.3-.092,4.929-.093,1.355-1.048,2.064-2.187,1.479a2.55,2.55,0,0,1-1.047-1.787c-.123-2.095-.062-4.19-.062-6.346C1550.884,477.216,1549.59,477.216,1548.142,477.216Z" transform="translate(-268.275 -0.111)"/>
    <path id="Контур_4586" data-name="Контур 4586" d="M1311.893,482.9a16.5,16.5,0,1,1-16.481-16.6A16.526,16.526,0,0,1,1311.893,482.9Zm-10.258.893c.277-3.851-1.848-6.746-5.052-7.116-4-.431-6.993,1.6-7.455,5.114a6.037,6.037,0,0,0,4.991,7.116c3.7.585,6.808-1.078,7.3-3.912-.37-.031-.708-.062-1.078-.062-1.263.062-2.557-.277-3.635.986-.339.431-1.725.339-2.4.031-.616-.277-.955-1.232-1.633-2.187C1296.028,483.8,1298.77,483.8,1301.635,483.8Z" transform="translate(-89.263 -0.008)"/>
    <path id="Контур_4587" data-name="Контур 4587" d="M1194.893,501.065c-1.6,3.882-3.08,7.517-4.621,11.121-.4.893-3.327.8-3.758-.092-1.694-3.543-3.3-7.116-5.114-11.029,1.571,0,2.865-.062,4.159.062.339.031.77.585.955,1.017.647,1.479,1.232,2.988,1.941,4.837.585-1.787,1.109-3.2,1.54-4.652.277-.924.708-1.355,1.725-1.263C1192.675,501.127,1193.661,501.065,1194.893,501.065Z" transform="translate(-21.8 -24.053)" fill="#fff"/>
    <path id="Контур_4588" data-name="Контур 4588" d="M1454.268,501.5c-1.91,2.742-3.666,5.3-5.638,8.194h5.021v3.2H1442.1c1.879-2.773,3.6-5.36,5.545-8.256h-4.867V501.5Z" transform="translate(-202.188 -24.364)" fill="#fff"/>
    <path id="Контур_4589" data-name="Контур 4589" d="M1571.738,501.331h4.251c0,2.187-.092,4.282.062,6.346a2.449,2.449,0,0,0,1.047,1.787c1.14.585,2.126-.123,2.187-1.479.093-1.633.062-3.3.093-4.929V501.3h4.5c-.185,2.865-.339,5.7-.524,8.533a1.512,1.512,0,0,1-.216.585c-1.078,2.218-3.943,3.3-7.116,2.711a4.764,4.764,0,0,1-4.22-4.59C1571.646,506.167,1571.738,503.8,1571.738,501.331Z" transform="translate(-291.871 -24.225)" fill="#fff"/>
    <path id="Контур_4590" data-name="Контур 4590" d="M1324.6,507.041h-8.9c.678.955.986,1.91,1.633,2.187.678.308,2.064.4,2.4-.031,1.078-1.263,2.341-.924,3.635-.986.339,0,.709.031,1.078.062-.493,2.865-3.6,4.5-7.3,3.912a6.074,6.074,0,0,1-4.99-7.116c.462-3.512,3.45-5.576,7.455-5.114C1322.754,500.295,1324.88,503.19,1324.6,507.041Zm-4.22-2.5a1.757,1.757,0,0,0-1.941-1.91,1.913,1.913,0,0,0-2.126,1.91Z" transform="translate(-112.232 -23.251)" fill="#fff"/>
    <path id="Контур_4591" data-name="Контур 4591" d="M1329.936,510.707H1325.9a1.9,1.9,0,0,1,2.125-1.91A1.72,1.72,0,0,1,1329.936,510.707Z" transform="translate(-121.785 -29.413)"/>
  </g>
  <g id="Vezu-2" data-name="Vezu" transform="translate(-1129.895 -423.289)" opacity="0">
    <path id="Контур_4583-2" data-name="Контур 4583" d="M1182.859,482.989a16.484,16.484,0,1,1-16.389-16.7A16.625,16.625,0,0,1,1182.859,482.989Zm-9.766-5.976c-1.232,0-2.187.062-3.142-.031a1.434,1.434,0,0,0-1.725,1.263c-.431,1.448-.955,2.865-1.54,4.652-.739-1.848-1.294-3.358-1.941-4.837-.185-.4-.616-.986-.955-1.017-1.294-.123-2.588-.062-4.159-.062,1.787,3.882,3.419,7.455,5.114,11.029.431.893,3.358.986,3.758.092C1170.013,484.53,1171.491,480.894,1173.093,477.013Z" transform="translate(0)" fill="#8d98a7"/>
    <path id="Контур_4584-2" data-name="Контур 4584" d="M1441.193,482.9a16.5,16.5,0,1,1-32.993-.031,16.5,16.5,0,1,1,32.993.031Zm-10.382-5.761h-11.491v3.142h4.867c-1.941,2.9-3.7,5.483-5.545,8.256H1430.2v-3.2h-5.021C1427.146,482.472,1428.9,479.915,1430.812,477.143Z" transform="translate(-178.732 -0.007)" fill="#8d98a7"/>
    <path id="Контур_4585-2" data-name="Контур 4585" d="M1570.507,482.361a16.455,16.455,0,0,1-32.87,1.633,16.384,16.384,0,0,1,16.081-17.529C1562.621,466.064,1570.2,473.4,1570.507,482.361Zm-22.365-5.145c0,2.434-.123,4.837.031,7.239a4.765,4.765,0,0,0,4.22,4.59c3.142.585,6.038-.493,7.116-2.711a1.349,1.349,0,0,0,.216-.585c.185-2.834.339-5.668.524-8.533h-4.5v1.756c-.031,1.633.031,3.3-.092,4.929-.093,1.355-1.048,2.064-2.187,1.479a2.55,2.55,0,0,1-1.047-1.787c-.123-2.095-.062-4.19-.062-6.346C1550.884,477.216,1549.59,477.216,1548.142,477.216Z" transform="translate(-268.275 -0.111)" fill="#8d98a7"/>
    <path id="Контур_4586-2" data-name="Контур 4586" d="M1311.893,482.9a16.5,16.5,0,1,1-16.481-16.6A16.526,16.526,0,0,1,1311.893,482.9Zm-10.258.893c.277-3.851-1.848-6.746-5.052-7.116-4-.431-6.993,1.6-7.455,5.114a6.037,6.037,0,0,0,4.991,7.116c3.7.585,6.808-1.078,7.3-3.912-.37-.031-.708-.062-1.078-.062-1.263.062-2.557-.277-3.635.986-.339.431-1.725.339-2.4.031-.616-.277-.955-1.232-1.633-2.187C1296.028,483.8,1298.77,483.8,1301.635,483.8Z" transform="translate(-89.263 -0.008)" fill="#8d98a7"/>
    <path id="Контур_4587-2" data-name="Контур 4587" d="M1194.893,501.065c-1.6,3.882-3.08,7.517-4.621,11.121-.4.893-3.327.8-3.758-.092-1.694-3.543-3.3-7.116-5.114-11.029,1.571,0,2.865-.062,4.159.062.339.031.77.585.955,1.017.647,1.479,1.232,2.988,1.941,4.837.585-1.787,1.109-3.2,1.54-4.652.277-.924.708-1.355,1.725-1.263C1192.675,501.127,1193.661,501.065,1194.893,501.065Z" transform="translate(-21.8 -24.053)" fill="#f4f5f7"/>
    <path id="Контур_4588-2" data-name="Контур 4588" d="M1454.268,501.5c-1.91,2.742-3.666,5.3-5.638,8.194h5.021v3.2H1442.1c1.879-2.773,3.6-5.36,5.545-8.256h-4.867V501.5Z" transform="translate(-202.188 -24.364)" fill="#f4f5f7"/>
    <path id="Контур_4589-2" data-name="Контур 4589" d="M1571.738,501.331h4.251c0,2.187-.092,4.282.062,6.346a2.449,2.449,0,0,0,1.047,1.787c1.14.585,2.126-.123,2.187-1.479.093-1.633.062-3.3.093-4.929V501.3h4.5c-.185,2.865-.339,5.7-.524,8.533a1.512,1.512,0,0,1-.216.585c-1.078,2.218-3.943,3.3-7.116,2.711a4.764,4.764,0,0,1-4.22-4.59C1571.646,506.167,1571.738,503.8,1571.738,501.331Z" transform="translate(-291.871 -24.225)" fill="#f4f5f7"/>
    <path id="Контур_4590-2" data-name="Контур 4590" d="M1324.6,507.041h-8.9c.678.955.986,1.91,1.633,2.187.678.308,2.064.4,2.4-.031,1.078-1.263,2.341-.924,3.635-.986.339,0,.709.031,1.078.062-.493,2.865-3.6,4.5-7.3,3.912a6.074,6.074,0,0,1-4.99-7.116c.462-3.512,3.45-5.576,7.455-5.114C1322.754,500.295,1324.88,503.19,1324.6,507.041Zm-4.22-2.5a1.757,1.757,0,0,0-1.941-1.91,1.913,1.913,0,0,0-2.126,1.91Z" transform="translate(-112.232 -23.251)" fill="#f4f5f7"/>
    <path id="Контур_4591-2" data-name="Контур 4591" d="M1329.936,510.707H1325.9a1.9,1.9,0,0,1,2.125-1.91A1.72,1.72,0,0,1,1329.936,510.707Z" transform="translate(-121.785 -29.413)" fill="#8d98a7"/>
  </g>
</svg>
