<svg id="Компонент_287_2" data-name="Компонент 287 – 2" xmlns="http://www.w3.org/2000/svg" width="192" height="120" viewBox="0 0 192 120">
  <rect id="Прямоугольник_42" data-name="Прямоугольник 42" width="192" height="120" fill="#f4f5f7" opacity="0.005"/>
  <g id="x5" transform="translate(-260.5 -393.975)" opacity="0.998">
    <path id="Контур_4516" data-name="Контур 4516" d="M277.5,442.98c2.3,0,4.445-.02,6.59.019a1.218,1.218,0,0,1,.858.487c2.476,3.431,4.913,6.882,7.389,10.294a.854.854,0,0,1,.02,1.189c-2.417,3.353-4.815,6.707-7.194,10.1a1.6,1.6,0,0,1-1.521.741c-1.813-.039-3.626.02-5.439.039-.2,0-.37-.059-.682-.1,1.638-2.3,3.217-4.523,4.8-6.746.955-1.345,1.891-2.69,2.885-4a.871.871,0,0,0-.02-1.248c-2.476-3.392-4.913-6.785-7.369-10.2A6.492,6.492,0,0,0,277.5,442.98Z" transform="translate(0 0)" fill="#f49023"/>
    <path id="Контур_4517" data-name="Контур 4517" d="M371.163,469c-1.482,2.184-2.846,4.25-4.289,6.375,1.5,2.262,3.041,4.543,4.679,6.98-1.17,0-2.184.039-3.2-.02-.234-.019-.526-.331-.682-.585-.858-1.287-1.677-2.612-2.573-4.016-.877,1.345-1.716,2.554-2.476,3.841a1.388,1.388,0,0,1-1.482.78c-.7-.059-1.423-.019-2.242-.019a3.424,3.424,0,0,1,.312-.6c1.248-1.852,2.456-3.743,3.763-5.556a1.212,1.212,0,0,0-.039-1.677c-1.248-1.755-2.456-3.568-3.763-5.5,1.131,0,2.086-.039,3.041.02a1.208,1.208,0,0,1,.76.6c.76,1.17,1.462,2.359,2.242,3.626.819-1.287,1.6-2.437,2.3-3.626a1.14,1.14,0,0,1,1.17-.643C369.447,469.06,370.208,469,371.163,469Z" transform="translate(-65.53 -20.933)" fill="#080808"/>
    <path id="Контур_4518" data-name="Контур 4518" d="M423.4,478.6c1.072,0,1.755-.039,2.417.02a.908.908,0,0,1,.6.429,2.14,2.14,0,0,0,2.963,1.326,2.657,2.657,0,0,0,1.053-3.607,2.174,2.174,0,0,0-3.1-.819c-1.014.877-2.067.663-3.256.7.429-2.4.838-4.757,1.267-7.155h7.311v2.125H427.28c-.156.916-.292,1.755-.448,2.671a11.052,11.052,0,0,1,1.969-.6c3.373-.37,5.615,2.9,4.27,6.161-1.326,3.2-6.3,3.977-8.481,1.287A13.5,13.5,0,0,1,423.4,478.6Zm3.607-4.211a.408.408,0,0,0-.078-.117c-.02.02-.059.039-.059.059a.947.947,0,0,1,.059.136Z" transform="translate(-117.456 -21.354)" fill="#090909"/>
    <path id="Контур_4519" data-name="Контур 4519" d="M495.537,476.35c1.482.39,1.93,1.482,2.047,2.846.078,1.15.234,2.3.37,3.47-1.209.273-1.326.175-1.443-1.131-.1-.994-.175-2.008-.37-2.983a1.93,1.93,0,0,0-1.891-1.677c-1.735-.058-3.49-.019-5.3-.019v5.849H487.7V469.526c2.378,0,4.737-.117,7.077.039a3.1,3.1,0,0,1,3.061,2.885,3.4,3.4,0,0,1-2.125,3.743C495.654,476.194,495.615,476.272,495.537,476.35Zm-6.57-.7c1.891,0,3.724.117,5.517-.039a2.361,2.361,0,0,0,2.067-2.729,2.28,2.28,0,0,0-2.3-2.3c-1.735-.078-3.49-.019-5.264-.019C488.967,472.295,488.967,473.971,488.967,475.648Z" transform="translate(-169.22 -21.341)" fill="#0f0f0f"/>
    <path id="Контур_4520" data-name="Контур 4520" d="M551.167,476.321v5.264h7.993c.02.351.039.663.059,1.053H549.9V469.4h9.163v1.053h-7.9v4.737h7.389c.019.409.039.721.078,1.131Z" transform="translate(-219.293 -21.273)" fill="#0f0f0f"/>
    <path id="Контур_4521" data-name="Контур 4521" d="M797.335,480.657c-.273-.019-.507-.019-.819-.039v-2.281a6,6,0,0,1-5.439,2.632,6.078,6.078,0,0,1-5.732-4.192c-1.248-3.568-.078-7.545,2.71-9.28,2.866-1.774,8.481-1.072,9.124,4.25-.409-.292-.78-.409-.877-.624-1.131-2.768-2.593-3.782-5.361-3.646a5.367,5.367,0,0,0-4.991,4.309,7.887,7.887,0,0,0,.468,5.42,5.406,5.406,0,0,0,6.3,2.827,4.756,4.756,0,0,0,3.763-5.166h-4.445c-.682,0-.682-.019-.643-.838h5.049c.292,0,.565.02.877.039C797.335,476.251,797.335,478.415,797.335,480.657Z" transform="translate(-408.436 -19.039)" fill="#141414"/>
    <path id="Контур_4522" data-name="Контур 4522" d="M657.09,482.385c-1.053.331-1.482-.039-1.755-.916-.331-1.033-.565-2.417-1.326-2.924-.76-.526-2.125-.195-3.217-.195-2.788-.019-2.788,0-3.763,2.554a3.612,3.612,0,0,0-.234.643c-.214.936-.78,1.17-1.7.858,1.267-3.119,2.515-6.239,3.782-9.339.37-.936.819-1.833,1.111-2.807.292-1.033.916-1.306,1.93-1.014C653.62,473.553,655.355,477.94,657.09,482.385Zm-3.392-5.166c-.858-2.262-1.7-4.445-2.593-6.824-.936,2.4-1.774,4.562-2.651,6.824Z" transform="translate(-295.933 -21.059)" fill="#0c0c0c"/>
    <path id="Контур_4523" data-name="Контур 4523" d="M855.4,475.668v6.1c-.078.058-.136.136-.214.195-.214-.195-.585-.37-.585-.565-.039-4.406-.019-8.812-.019-13.257,2.3,0,4.5-.1,6.707.02a3.124,3.124,0,0,1,3.236,2.573c.448,1.852-.117,3.139-1.969,4.426,1.618.663,1.813,2.028,1.852,3.509.039,1.053.156,2.106.253,3.178-.663.253-.916-.195-.975-.819-.078-.975-.078-1.95-.156-2.924-.137-1.677-.78-2.378-2.437-2.437C859.22,475.61,857.368,475.668,855.4,475.668Zm.058-.955c1.93,0,3.782.1,5.615-.02a2.857,2.857,0,0,0,2.71-3,2.515,2.515,0,0,0-2.671-2.71c-1.872-.117-3.743-.02-5.654-.02Z" transform="translate(-464.57 -20.23)" fill="#161616"/>
    <path id="Контур_4524" data-name="Контур 4524" d="M922.609,473.591c-.078,3.217-1.618,5.81-4.094,6.765a6.225,6.225,0,0,1-8.6-5.088,11.6,11.6,0,0,1,.312-4.484,5.823,5.823,0,0,1,6.024-4.387,6.036,6.036,0,0,1,5.868,4.523A24.771,24.771,0,0,1,922.609,473.591Zm-12.107-.039c.117.8.2,1.579.37,2.32a5.215,5.215,0,0,0,4.932,4.094,4.985,4.985,0,0,0,5.381-3.7,11.359,11.359,0,0,0,.292-4.289,5.385,5.385,0,0,0-10.528-.8A17.013,17.013,0,0,0,910.5,473.552Z" transform="translate(-509.048 -18.855)" fill="#131313"/>
    <path id="Контур_4525" data-name="Контур 4525" d="M1039.8,481.773V468.126c2.184,0,4.328-.117,6.434.039a3.444,3.444,0,0,1,3.47,3.685,3.546,3.546,0,0,1-3.373,3.8c-1.852.175-3.743.039-5.751.039,0,1.93-.019,3.7.02,5.478C1040.619,481.793,1040.443,482.007,1039.8,481.773Zm.858-6.863c1.852,0,3.665.078,5.459-.02a2.773,2.773,0,0,0,2.749-2.924c.02-1.794-.78-2.827-2.632-2.963s-3.724-.039-5.6-.039C1040.658,470.972,1040.658,472.922,1040.658,474.911Z" transform="translate(-613.683 -20.214)" fill="#151515"/>
    <path id="Контур_4526" data-name="Контур 4526" d="M990.984,468.044c0,3.217.1,6.375-.039,9.514-.117,2.924-1.989,4.465-5.049,4.465-3.041,0-4.952-1.56-5.069-4.445-.136-3.178-.02-6.356-.02-9.572h.78v4.737c0,1.365-.02,2.729.019,4.094.078,3.041,1.579,4.465,4.582,4.387,2.515-.078,3.919-1.443,4-4.055.078-2.827.039-5.654.019-8.481C990.185,468.121,990.282,467.79,990.984,468.044Z" transform="translate(-566.154 -20.112)" fill="#101010"/>
    <path id="Контур_4527" data-name="Контур 4527" d="M605.718,470.553h-4.659c-.02-.37-.039-.682-.059-1.053h10.586v1.053h-4.62v12.185h-1.248C605.718,478.7,605.718,474.705,605.718,470.553Z" transform="translate(-260.431 -21.354)" fill="#151515"/>
    <path id="Контур_4528" data-name="Контур 4528" d="M743.315,481.546v1.131H734.6V469.4h1.248v12.165C738.343,481.546,740.78,481.546,743.315,481.546Z" transform="translate(-367.985 -21.273)" fill="#151515"/>
    <path id="Контур_4529" data-name="Контур 4529" d="M714.809,482.677H713.6V469.4h1.209Z" transform="translate(-351.079 -21.273)" fill="#161616"/>
    <path id="Контур_4530" data-name="Контур 4530" d="M441.336,494.117l-.078.078a.292.292,0,0,1-.059-.136c0-.02.039-.039.059-.058A.408.408,0,0,0,441.336,494.117Z" transform="translate(-131.785 -41.077)" fill="#fefefe"/>
  </g>
  <g id="x5-2" data-name="x5" transform="translate(-260.5 -393.848)" opacity="0">
    <path id="Контур_4516-2" data-name="Контур 4516" d="M277.5,442.98c2.3,0,4.445-.02,6.59.019a1.218,1.218,0,0,1,.858.487c2.476,3.431,4.913,6.882,7.389,10.294a.854.854,0,0,1,.02,1.189c-2.417,3.353-4.815,6.707-7.194,10.1a1.6,1.6,0,0,1-1.521.741c-1.813-.039-3.626.02-5.439.039-.2,0-.37-.059-.682-.1,1.638-2.3,3.217-4.523,4.8-6.746.955-1.345,1.891-2.69,2.885-4a.871.871,0,0,0-.02-1.248c-2.476-3.392-4.913-6.785-7.369-10.2A6.492,6.492,0,0,0,277.5,442.98Z" transform="translate(0 0)" fill="#8d98a7"/>
    <path id="Контур_4517-2" data-name="Контур 4517" d="M371.163,469c-1.482,2.184-2.846,4.25-4.289,6.375,1.5,2.262,3.041,4.543,4.679,6.98-1.17,0-2.184.039-3.2-.02-.234-.019-.526-.331-.682-.585-.858-1.287-1.677-2.612-2.573-4.016-.877,1.345-1.716,2.554-2.476,3.841a1.388,1.388,0,0,1-1.482.78c-.7-.059-1.423-.019-2.242-.019a3.424,3.424,0,0,1,.312-.6c1.248-1.852,2.456-3.743,3.763-5.556a1.212,1.212,0,0,0-.039-1.677c-1.248-1.755-2.456-3.568-3.763-5.5,1.131,0,2.086-.039,3.041.02a1.208,1.208,0,0,1,.76.6c.76,1.17,1.462,2.359,2.242,3.626.819-1.287,1.6-2.437,2.3-3.626a1.14,1.14,0,0,1,1.17-.643C369.447,469.06,370.208,469,371.163,469Z" transform="translate(-65.53 -20.933)" fill="#8d98a7"/>
    <path id="Контур_4518-2" data-name="Контур 4518" d="M423.4,478.6c1.072,0,1.755-.039,2.417.02a.908.908,0,0,1,.6.429,2.14,2.14,0,0,0,2.963,1.326,2.657,2.657,0,0,0,1.053-3.607,2.174,2.174,0,0,0-3.1-.819c-1.014.877-2.067.663-3.256.7.429-2.4.838-4.757,1.267-7.155h7.311v2.125H427.28c-.156.916-.292,1.755-.448,2.671a11.052,11.052,0,0,1,1.969-.6c3.373-.37,5.615,2.9,4.27,6.161-1.326,3.2-6.3,3.977-8.481,1.287A13.5,13.5,0,0,1,423.4,478.6Zm3.607-4.211a.408.408,0,0,0-.078-.117c-.02.02-.059.039-.059.059a.947.947,0,0,1,.059.136Z" transform="translate(-117.456 -21.354)" fill="#8d98a7"/>
    <path id="Контур_4519-2" data-name="Контур 4519" d="M495.537,476.35c1.482.39,1.93,1.482,2.047,2.846.078,1.15.234,2.3.37,3.47-1.209.273-1.326.175-1.443-1.131-.1-.994-.175-2.008-.37-2.983a1.93,1.93,0,0,0-1.891-1.677c-1.735-.058-3.49-.019-5.3-.019v5.849H487.7V469.526c2.378,0,4.737-.117,7.077.039a3.1,3.1,0,0,1,3.061,2.885,3.4,3.4,0,0,1-2.125,3.743C495.654,476.194,495.615,476.272,495.537,476.35Zm-6.57-.7c1.891,0,3.724.117,5.517-.039a2.361,2.361,0,0,0,2.067-2.729,2.28,2.28,0,0,0-2.3-2.3c-1.735-.078-3.49-.019-5.264-.019C488.967,472.295,488.967,473.971,488.967,475.648Z" transform="translate(-169.22 -21.341)" fill="#8d98a7"/>
    <path id="Контур_4520-2" data-name="Контур 4520" d="M551.167,476.321v5.264h7.993c.02.351.039.663.059,1.053H549.9V469.4h9.163v1.053h-7.9v4.737h7.389c.019.409.039.721.078,1.131Z" transform="translate(-219.293 -21.273)" fill="#8d98a7"/>
    <path id="Контур_4521-2" data-name="Контур 4521" d="M797.335,480.657c-.273-.019-.507-.019-.819-.039v-2.281a6,6,0,0,1-5.439,2.632,6.078,6.078,0,0,1-5.732-4.192c-1.248-3.568-.078-7.545,2.71-9.28,2.866-1.774,8.481-1.072,9.124,4.25-.409-.292-.78-.409-.877-.624-1.131-2.768-2.593-3.782-5.361-3.646a5.367,5.367,0,0,0-4.991,4.309,7.887,7.887,0,0,0,.468,5.42,5.406,5.406,0,0,0,6.3,2.827,4.756,4.756,0,0,0,3.763-5.166h-4.445c-.682,0-.682-.019-.643-.838h5.049c.292,0,.565.02.877.039C797.335,476.251,797.335,478.415,797.335,480.657Z" transform="translate(-408.436 -19.039)" fill="#8d98a7"/>
    <path id="Контур_4522-2" data-name="Контур 4522" d="M657.09,482.385c-1.053.331-1.482-.039-1.755-.916-.331-1.033-.565-2.417-1.326-2.924-.76-.526-2.125-.195-3.217-.195-2.788-.019-2.788,0-3.763,2.554a3.612,3.612,0,0,0-.234.643c-.214.936-.78,1.17-1.7.858,1.267-3.119,2.515-6.239,3.782-9.339.37-.936.819-1.833,1.111-2.807.292-1.033.916-1.306,1.93-1.014C653.62,473.553,655.355,477.94,657.09,482.385Zm-3.392-5.166c-.858-2.262-1.7-4.445-2.593-6.824-.936,2.4-1.774,4.562-2.651,6.824Z" transform="translate(-295.933 -21.059)" fill="#8d98a7"/>
    <path id="Контур_4523-2" data-name="Контур 4523" d="M855.4,475.668v6.1c-.078.058-.136.136-.214.195-.214-.195-.585-.37-.585-.565-.039-4.406-.019-8.812-.019-13.257,2.3,0,4.5-.1,6.707.02a3.124,3.124,0,0,1,3.236,2.573c.448,1.852-.117,3.139-1.969,4.426,1.618.663,1.813,2.028,1.852,3.509.039,1.053.156,2.106.253,3.178-.663.253-.916-.195-.975-.819-.078-.975-.078-1.95-.156-2.924-.137-1.677-.78-2.378-2.437-2.437C859.22,475.61,857.368,475.668,855.4,475.668Zm.058-.955c1.93,0,3.782.1,5.615-.02a2.857,2.857,0,0,0,2.71-3,2.515,2.515,0,0,0-2.671-2.71c-1.872-.117-3.743-.02-5.654-.02Z" transform="translate(-464.57 -20.23)" fill="#8d98a7"/>
    <path id="Контур_4524-2" data-name="Контур 4524" d="M922.609,473.591c-.078,3.217-1.618,5.81-4.094,6.765a6.225,6.225,0,0,1-8.6-5.088,11.6,11.6,0,0,1,.312-4.484,5.823,5.823,0,0,1,6.024-4.387,6.036,6.036,0,0,1,5.868,4.523A24.771,24.771,0,0,1,922.609,473.591Zm-12.107-.039c.117.8.2,1.579.37,2.32a5.215,5.215,0,0,0,4.932,4.094,4.985,4.985,0,0,0,5.381-3.7,11.359,11.359,0,0,0,.292-4.289,5.385,5.385,0,0,0-10.528-.8A17.013,17.013,0,0,0,910.5,473.552Z" transform="translate(-509.048 -18.855)" fill="#8d98a7"/>
    <path id="Контур_4525-2" data-name="Контур 4525" d="M1039.8,481.773V468.126c2.184,0,4.328-.117,6.434.039a3.444,3.444,0,0,1,3.47,3.685,3.546,3.546,0,0,1-3.373,3.8c-1.852.175-3.743.039-5.751.039,0,1.93-.019,3.7.02,5.478C1040.619,481.793,1040.443,482.007,1039.8,481.773Zm.858-6.863c1.852,0,3.665.078,5.459-.02a2.773,2.773,0,0,0,2.749-2.924c.02-1.794-.78-2.827-2.632-2.963s-3.724-.039-5.6-.039C1040.658,470.972,1040.658,472.922,1040.658,474.911Z" transform="translate(-613.683 -20.214)" fill="#8d98a7"/>
    <path id="Контур_4526-2" data-name="Контур 4526" d="M990.984,468.044c0,3.217.1,6.375-.039,9.514-.117,2.924-1.989,4.465-5.049,4.465-3.041,0-4.952-1.56-5.069-4.445-.136-3.178-.02-6.356-.02-9.572h.78v4.737c0,1.365-.02,2.729.019,4.094.078,3.041,1.579,4.465,4.582,4.387,2.515-.078,3.919-1.443,4-4.055.078-2.827.039-5.654.019-8.481C990.185,468.121,990.282,467.79,990.984,468.044Z" transform="translate(-566.154 -20.112)" fill="#8d98a7"/>
    <path id="Контур_4527-2" data-name="Контур 4527" d="M605.718,470.553h-4.659c-.02-.37-.039-.682-.059-1.053h10.586v1.053h-4.62v12.185h-1.248C605.718,478.7,605.718,474.705,605.718,470.553Z" transform="translate(-260.431 -21.354)" fill="#8d98a7"/>
    <path id="Контур_4528-2" data-name="Контур 4528" d="M743.315,481.546v1.131H734.6V469.4h1.248v12.165C738.343,481.546,740.78,481.546,743.315,481.546Z" transform="translate(-367.985 -21.273)" fill="#8d98a7"/>
    <path id="Контур_4529-2" data-name="Контур 4529" d="M714.809,482.677H713.6V469.4h1.209Z" transform="translate(-351.079 -21.273)" fill="#8d98a7"/>
    <path id="Контур_4530-2" data-name="Контур 4530" d="M441.336,494.117l-.078.078a.292.292,0,0,1-.059-.136c0-.02.039-.039.059-.058A.408.408,0,0,0,441.336,494.117Z" transform="translate(-131.785 -41.077)" fill="#8d98a7"/>
  </g>
</svg>
