<svg id="Компонент_291_2" data-name="Компонент 291 – 2" xmlns="http://www.w3.org/2000/svg" width="192" height="120" viewBox="0 0 192 120">
  <rect id="Прямоугольник_42" data-name="Прямоугольник 42" width="192" height="120" fill="#f4f5f7" opacity="0"/>
  <g id="Сгруппировать_845" data-name="Сгруппировать 845" transform="translate(1408.601 371.365)">
    <path id="Контур_4464" data-name="Контур 4464" d="M-1286.621-82.069c1.856-.041,3.712-.119,5.568-.115,4.968.01,9.937.054,14.905.087a2.521,2.521,0,0,1,.319.041c-.056.236-.251.112-.356.138,2.2-.132,4.43.012,6.659.071,1.515-.048,3.023.1,4.534.168,4.731.228,9.457.591,14.2.619h.463a2.565,2.565,0,0,1-1.4,1.315,7.192,7.192,0,0,1-3.592.7c-3.718-.132-7.434-.344-11.152-.449-8.915-.251-17.827-.045-26.734.32q-11.669.478-23.312,1.439c-5.085.418-10.169.845-15.239,1.406-5.973.661-11.906,1.622-17.829,2.637-5.814,1-11.587,2.192-17.339,3.493-7.207,1.631-14.342,3.533-21.378,5.8-.74.238-1.469.506-2.2.76a5.078,5.078,0,0,0-.648.245l-.009,0c-.525.043-.3-.288-.264-.527v0c.2-.113.156-.356.278-.51a7.6,7.6,0,0,1,1.027-1.553,2.281,2.281,0,0,0,.939-.948,3.63,3.63,0,0,1,.816-.912,4.271,4.271,0,0,0,.844-1.057,15.99,15.99,0,0,1,6.2-3.514,55.984,55.984,0,0,1,6.81-1.591c4.133-.818,8.274-1.591,12.431-2.282,3.837-.638,7.685-1.2,11.539-1.734,6.426-.887,12.874-1.576,19.333-2.169,6.182-.568,12.376-.971,18.575-1.288,2.765-.142,5.531-.26,8.3-.383.3-.013.6.01.905.016a1.79,1.79,0,0,1,.7-.052c1.849.024,3.7-.117,5.544-.071A.9.9,0,0,0-1286.621-82.069Z" transform="translate(-1.822 -222.037)" fill="#d3161e"/>
    <path id="Контур_4465" data-name="Контур 4465" d="M-1316.529-295.772c2.03-3.034,1.444-8.358-4.065-8.549-2.9-.1-5.8-.157-8.694,0a7.879,7.879,0,0,0-2.414.448,4.48,4.48,0,0,0-2.661,3.3c-.609,2.23-.934,4.524-1.383,6.79-.826,4.154-1.668,8.3-2.38,12.482-.136.794-.143.805.659.788,2.595-.053,5.191-.174,7.788-.109,1.538.039,3.073.031,4.607-.062a8.861,8.861,0,0,0,3.829-.874,8.065,8.065,0,0,0,4.216-6.6,3.879,3.879,0,0,0-2.482-4.446c-.171-.084-.386-.086-.543-.321A7.009,7.009,0,0,0-1316.529-295.772Zm-8.1,8.833a2.511,2.511,0,0,1-1.7.966,12.384,12.384,0,0,1-2.482.081c-.255,0-.73-.012-1.205,0-.36.01-.5-.078-.406-.486.247-1.092.444-2.2.666-3.3.047-.226.061-.466.416-.452,1.057.044,2.115-.147,3.17,0a2.356,2.356,0,0,1,1.741.718A2.052,2.052,0,0,1-1324.63-286.939Zm.023-8.434a12.493,12.493,0,0,1-2.068.135c-.495-.027-.99-.069-1.484-.077-.314,0-.433-.118-.37-.431a12.349,12.349,0,0,1,.423-2.022,1.636,1.636,0,0,1,.995-1.125,5.547,5.547,0,0,1,3.613.012,1.2,1.2,0,0,1,.8,1.209A2.4,2.4,0,0,1-1324.606-295.373Z" transform="translate(-39.507 -28.667)" fill="#d2171e"/>
    <path id="Контур_4466" data-name="Контур 4466" d="M-994.61-254.943a4.481,4.481,0,0,0-1.644-3.074,5.8,5.8,0,0,0-5.346-.93,7,7,0,0,0-3.418,2.1,5.7,5.7,0,0,1,.253-1.42c-.027-.523-.435-.557-.782-.514a12.684,12.684,0,0,0-4.245.819l-.023.007c-.336.394-.791.657-1.135,1.043a4.338,4.338,0,0,0-.718,1.365,41.88,41.88,0,0,0-1.124,5.176q-1.42,7.341-2.865,14.679c-.081.4.065.5.422.5.842-.014,1.689.03,2.527-.03a4.547,4.547,0,0,0,4.472-3.381c.178-.6.321-1.208.479-1.812.118-.513.236-1.026.308-1.549.048-.353.212-.391.456-.142a5.786,5.786,0,0,0,2.042,1.191,6.2,6.2,0,0,0,6.249-1.533C-995.094-245.851-994.114-250.188-994.61-254.943Zm-8.416,8.5a2.254,2.254,0,0,1-1.439,1.291,1.344,1.344,0,0,1-1.892-1.272,24.359,24.359,0,0,1,1.433-7.115,3.522,3.522,0,0,1,1.026-.843,1.355,1.355,0,0,1,1.986.447.859.859,0,0,1,.247.705A14.822,14.822,0,0,1-1003.026-246.443Z" transform="translate(-320.136 -68.007)" fill="#d2171e"/>
    <path id="Контур_4467" data-name="Контур 4467" d="M-468.731-252.784a8.936,8.936,0,0,1,3.058-3.011,9.61,9.61,0,0,1,4.06-.683c1.386-.01,1.422,0,1.158,1.34-.779,3.966-1.55,7.934-2.4,11.886-.622,2.894-1.972,4.049-4.9,4.4a17.9,17.9,0,0,1-2.333.068c-.4,0-.521-.11-.453-.525.384-2.325.911-4.62,1.387-6.926.065-.315.109-.635.165-.966-.3-.05-.331.2-.429.329-1.341,1.8-2.565,3.678-3.952,5.447a6.5,6.5,0,0,1-5.372,2.627c-.628,0-1.257-.008-1.882.033-.536.035-.72-.1-.6-.683.54-2.623,1.04-5.255,1.561-7.882.362-1.822.663-3.655,1.153-5.451a4.658,4.658,0,0,1,4.517-3.607c.817-.074,1.643-.047,2.463-.1.522-.032.649.193.55.663-.348,1.65-.681,3.3-1.028,4.953a35.131,35.131,0,0,0-.641,3.582l2.562-3.62A5.048,5.048,0,0,0-468.731-252.784Z" transform="translate(-785.145 -70.376)" fill="#d2171e"/>
    <path id="Контур_4468" data-name="Контур 4468" d="M-1142.672-253.277a6.094,6.094,0,0,0-2.351-4.1,10.916,10.916,0,0,0-3.063-1.281,14.332,14.332,0,0,0-4.494-.044,19.487,19.487,0,0,0-3.363,1.062,11.323,11.323,0,0,0-6.111,10.262,6.576,6.576,0,0,0,4.633,6.359,12.348,12.348,0,0,0,8.508-.392,9.657,9.657,0,0,0,5.166-4.589c.361-.71.348-.718-.425-.72-1.408,0-2.814.03-4.221-.012a2.359,2.359,0,0,0-1.926.738,3.232,3.232,0,0,1-2.987.871,1.628,1.628,0,0,1-1.62-1.929,5.213,5.213,0,0,0,.03-.647c-.059-.533.192-.635.677-.633,2.62.016,5.238-.007,7.858,0a5.585,5.585,0,0,0,1.909-.33,2.522,2.522,0,0,0,1.814-2.22A8.378,8.378,0,0,0-1142.672-253.277Zm-6.764,1.326a.363.363,0,0,1-.212.126,18.2,18.2,0,0,1-3.872,0c-.551-.014-.606-.256-.413-.735.425-1.047.973-1.983,2.191-2.156,1.49-.213,2.6.208,2.576,2.23C-1149.269-252.314-1149.235-252.071-1149.436-251.95Z" transform="translate(-192.773 -68.309)" fill="#d2171e"/>
    <path id="Контур_4469" data-name="Контур 4469" d="M-840.107-255.59c-.314,1.634-.614,3.27-.951,4.9-.1.467.013.613.49.586a15.82,15.82,0,0,1,1.881,0c.453.028.649-.113.731-.575a12.468,12.468,0,0,1,.865-3.045,4.325,4.325,0,0,1,3.32-2.509,18.8,18.8,0,0,1,3.228-.222c.643-.018.771.191.645.773-.3,1.392-.569,2.791-.849,4.187q-.784,3.907-1.57,7.813a6.122,6.122,0,0,1-1.97,3.83,5.089,5.089,0,0,1-2.454.929,18.324,18.324,0,0,1-2.91.173c-.386,0-.521-.111-.46-.533.277-1.926.677-3.829,1.066-5.733.187-.918.219-.914-.69-.915-.433,0-.865,0-1.3,0-1.159.019-.957-.162-1.2,1.02a16.751,16.751,0,0,1-.884,3.306,4.357,4.357,0,0,1-3.439,2.643,19.989,19.989,0,0,1-3.23.212c-.45.011-.6-.116-.5-.594.423-2.14.8-4.289,1.218-6.43.409-2.1.849-4.191,1.266-6.288a5.965,5.965,0,0,1,.6-1.7,2.446,2.446,0,0,0,.316-.407,4.921,4.921,0,0,1,3.832-2.068,21.338,21.338,0,0,1,2.457-.019C-840.169-256.24-839.947-256.053-840.107-255.59Z" transform="translate(-464.018 -70.402)" fill="#d2171e"/>
    <path id="Контур_4470" data-name="Контур 4470" d="M-677.314-245.462c-.314-2.1-1.831-3.347-4.29-3.605-1.274-.134-2.549-.051-3.825-.06-.764-.005-.753-.012-.6-.766.305-1.457.67-2.9.84-4.386.078-.4-.1-.657-.492-.665a10.443,10.443,0,0,0-3.909.34,5.827,5.827,0,0,0-.747.345l-.108.058a7.163,7.163,0,0,1-.927.445,5.6,5.6,0,0,0-1.492,3.091,10.026,10.026,0,0,0-.3,2.266c.032.183-.123.258-.222.364h0c-.139.753-.183,1.518-.343,2.276a7.9,7.9,0,0,0-.31,1.824v.009l-.012.042a11.388,11.388,0,0,0-.466,1.965,27.036,27.036,0,0,0-.575,3.621.284.284,0,0,1-.035.147c-.2.379-.19.386.164.66.474.012.949.042,1.424.032,3.264-.064,6.536.2,9.792-.166,2.713-.3,4.852-1.459,5.9-4.157A7.162,7.162,0,0,0-677.314-245.462Zm-6.3,2.36c-.06.205-.107.413-.16.621a1.426,1.426,0,0,1-1.3.856,13.442,13.442,0,0,1-2.817.065,17.041,17.041,0,0,1,.438-2.338,1.578,1.578,0,0,1,1.665-1.325,5.87,5.87,0,0,1,.709.012C-683.518-245.127-683.168-244.621-683.615-243.1Z" transform="translate(-598.942 -71.691)" fill="#d2161f"/>
    <path id="Контур_4471" data-name="Контур 4471" d="M-546.932-254.009c-.314,2.336-.912,4.617-1.337,6.932-.289,1.571-.569,3.147-.936,4.7-.844,3.573-2.133,4.5-5.057,4.777-.816.077-1.64.056-2.461.087-.353.014-.437-.134-.37-.471.669-3.366,1.323-6.736,1.993-10.1a23.626,23.626,0,0,1,.617-2.84,7.24,7.24,0,0,1,1.146-2.352,4.4,4.4,0,0,1,2.087-1.419,10.409,10.409,0,0,1,3.456-.325C-546.855-255.012-546.813-254.96-546.932-254.009Z" transform="translate(-719.142 -71.642)" fill="#d2171e"/>
    <path id="Контур_4472" data-name="Контур 4472" d="M-395.744-337.365a2.489,2.489,0,0,1-.709,1.6,22.346,22.346,0,0,1-6.962,5.4c-3.157,1.485-6.291-.425-6.6-3.913-.022-.245-.111-.577.354-.413,3.719,1.309,7.144.132,10.542-1.253C-398.009-336.4-396.907-336.875-395.744-337.365Z" transform="translate(-847.116)" fill="#d21720"/>
    <path id="Контур_4473" data-name="Контур 4473" d="M-1136.623-318.411a.933.933,0,0,0-.783-1.547c-.387-.034-.779.008-1.166-.018a.589.589,0,0,0-.729.6c-.083.752-.2,1.5-.316,2.247-.19,1.227-.194,1.226,1.073,1.222.13,0,.26,0,.39,0,1.4-.026,1.913-.759,1.423-2.052C-1136.812-318.172-1136.715-318.263-1136.623-318.411Zm-1.624,1.69c-.305,0-.464-.043-.456-.422.009-.49.236-.591.584-.523.336.01.684-.053.682.36C-1137.44-316.784-1137.826-316.725-1138.247-316.721Zm.869-2.1c-.02.336-.316.417-.686.362-.122-.051-.457.162-.442-.266.014-.373.24-.456.56-.432C-1137.693-319.138-1137.356-319.186-1137.378-318.822Z" transform="translate(-212.215 -15.127)" fill="#c6202b"/>
    <path id="Контур_4474" data-name="Контур 4474" d="M-734.613-318.4a.913.913,0,0,0-.7-1.511c-.427-.051-.864-.012-1.294-.04-.456-.03-.669.151-.714.616-.074.751-.2,1.5-.295,2.246-.16,1.208-.16,1.209,1.036,1.208.195,0,.388.005.583,0a1.321,1.321,0,0,0,1.258-2.031C-734.861-318.18-734.71-318.251-734.613-318.4Zm-1.695,1.713c-.216-.008-.516.077-.475-.319s.087-.813.547-.668c.427.022.808-.026.8.4C-735.439-316.725-735.879-316.677-736.308-316.691Zm.914-2.086c-.043.412-.408.348-.7.351-.24,0-.47.013-.443-.355.032-.439.339-.358.6-.353S-735.354-319.147-735.393-318.777Z" transform="translate(-562.017 -15.146)" fill="#c91c28"/>
    <path id="Контур_4475" data-name="Контур 4475" d="M-852.125-312.563a6.269,6.269,0,0,0,1.925.016c.863-.077,1.263.411,1.177,1.288-.046.472-.145.939-.185,1.411-.036.417-.3.391-.6.385-.411-.009-.29-.264-.255-.5q.089-.608.158-1.22c.039-.353-.079-.583-.479-.611s-.461.183-.485.512c-.034.472-.141.94-.176,1.412-.026.349-.2.426-.507.416-.388-.013-.392-.24-.356-.527.055-.428.106-.857.14-1.287.022-.278-.037-.517-.39-.554s-.447.156-.482.453c-.059.493-.159.981-.2,1.475-.031.395-.26.441-.571.431-.417-.012-.347-.3-.312-.552.066-.491.147-.981.214-1.472C-853.364-312.507-853.322-312.547-852.125-312.563Z" transform="translate(-461.036 -21.581)" fill="#c71d2a"/>
    <path id="Контур_4476" data-name="Контур 4476" d="M-1085.712-311.291c-.057-.844-.426-1.19-1.281-1.2-1.165-.01-1.327.136-1.477,1.27-.114.856-.248,1.709-.365,2.565-.03.219-.042.447.295.444.24,0,.488.044.529-.3.018-.149.077-.295.084-.444.014-.3.148-.378.453-.383A1.626,1.626,0,0,0-1085.712-311.291Zm-1.235,1.049a.672.672,0,0,1-.677.079c-.272-.122-.064-.338-.061-.51s.034-.343.049-.516c.03-.339.139-.57.553-.538s.47.305.492.571A1.015,1.015,0,0,1-1086.948-310.242Z" transform="translate(-256.469 -21.646)" fill="#c91c26"/>
    <path id="Контур_4477" data-name="Контур 4477" d="M-684.109-311.269c-.032-.866-.412-1.221-1.313-1.226-1.118-.005-1.272.139-1.414,1.246-.1.79-.251,1.574-.351,2.364-.03.234-.249.577.222.662.405.075.612-.095.63-.5.02-.448.151-.635.7-.614C-684.678-309.3-684.069-310.147-684.109-311.269Zm-.877.231a.924.924,0,0,1-.352.791.613.613,0,0,1-.667.073c-.235-.117-.1-.335-.079-.516a3.807,3.807,0,0,0,.061-.445c0-.375.112-.636.549-.595S-684.98-311.388-684.986-311.038Z" transform="translate(-605.895 -21.64)" fill="#c51f2a"/>
    <path id="Контур_4478" data-name="Контур 4478" d="M-559.75-308.46c.131-.577-.094-.63-.618-.476-1.088.319-1.683-.181-1.605-1.3.03-.43.127-.855.167-1.285.037-.394.246-.5.61-.465.456.045.269.363.251.584-.033.408-.1.814-.16,1.219a.412.412,0,0,0,.409.535c.29.021.546-.022.559-.439.015-.495.118-.986.158-1.481.032-.4.276-.425.586-.408.381.021.313.294.291.519-.034.343-.1.683-.147,1.024s-.083.669.28.921c.214.148-.044,1.461-.283,1.6a.4.4,0,0,1-.434.015C-559.867-308.04-559.745-308.259-559.75-308.46Z" transform="translate(-714.908 -22.074)" fill="#c41f2b"/>
    <path id="Контур_4479" data-name="Контур 4479" d="M-1109.83-310.573a1.671,1.671,0,0,1,.257-.022c.692-.094,1.038-.486.98-1.116-.049-.562-.387-.81-1.1-.813a1.408,1.408,0,0,0-1.491,1,1.792,1.792,0,0,0,.155,1.84,1.665,1.665,0,0,0,1.762.207c.228-.1.36-.208.272-.484-.079-.251-.2-.368-.469-.275a1.2,1.2,0,0,1-.317.062c-.229.01-.569.082-.571-.23S-1110.015-310.523-1109.83-310.573Zm-.437-.874c.032-.255.256-.306.472-.352s.314.064.347.275c-.027.281-.253.3-.464.3C-1110.061-311.221-1110.3-311.172-1110.266-311.447Z" transform="translate(-236.876 -21.615)" fill="#c12127"/>
    <path id="Контур_4480" data-name="Контур 4480" d="M-811.129-310.97c-.078-.127-.162-.2-.094-.39.3-.848.012-1.239-.886-1.244s-1.239.273-1.392,1.164c-.075.444-.149.89-.21,1.338-.026.183-.073.37.159.5a2.439,2.439,0,0,0,2.174-.119A.882.882,0,0,0-811.129-310.97Zm-.729.535a.609.609,0,0,1-.712.316c-.291-.036-.248-.243-.247-.287.069-.486.109-.829.17-1.166a.423.423,0,0,1,.4-.36.312.312,0,0,1,.356.221c.055.231-.166.251-.309.336-.327.2-.395.409.04.557C-811.96-310.752-811.745-310.689-811.858-310.435Z" transform="translate(-495.852 -21.545)" fill="#c42027"/>
    <path id="Контур_4481" data-name="Контур 4481" d="M-787.652-312.574a1.705,1.705,0,0,0-1.7,1.866,1.164,1.164,0,0,0,1.234,1.33,1.66,1.66,0,0,0,1.681-1.87C-786.437-312.138-786.829-312.568-787.652-312.574Zm.334,1.518c-.077.395-.144.885-.7.881-.455,0-.4-.425-.378-.74.03-.417.092-.861.639-.874C-787.289-311.8-787.32-311.418-787.319-311.056Z" transform="translate(-517.062 -21.571)" fill="#c42029"/>
    <path id="Контур_4482" data-name="Контур 4482" d="M-946.393-312.657a2.177,2.177,0,0,0-2.425.613c-.109.313-.152.643-.255.957l0,0a1.255,1.255,0,0,0,.523,1.322,2.326,2.326,0,0,0,1.812.017.279.279,0,0,0,.246-.255c.095-.766.195-1.531.291-2.3A.3.3,0,0,0-946.393-312.657Zm-.756,1.251c-.022.17-.066.338-.078.508-.022.33-.077.626-.512.561a.545.545,0,0,1-.5-.636,1.465,1.465,0,0,1,.3-.836.665.665,0,0,1,.717-.168C-946.958-311.868-947.123-311.607-947.149-311.407Z" transform="translate(-378.071 -21.368)" fill="#c61d2a"/>
    <path id="Контур_4483" data-name="Контур 4483" d="M-897.794-310.667c.277-.038.556-.056.827-.116a.872.872,0,0,0,.719-1.051c-.041-.531-.386-.729-.859-.79-1.148-.148-1.861.564-1.89,1.885-.023,1.1.913,1.626,2.047,1.148.187-.079.379-.151.294-.41-.079-.236-.179-.432-.511-.331a2.21,2.21,0,0,1-.638.052.252.252,0,0,1-.269-.23C-898.083-310.71-897.908-310.652-897.794-310.667Zm.3-1.251c.2,0,.365.064.36.277-.007.294-.26.305-.469.323-.162.016-.379.043-.352-.229S-897.687-311.846-897.493-311.918Z" transform="translate(-421.664 -21.512)" fill="#c92029"/>
    <path id="Контур_4484" data-name="Контур 4484" d="M-533.9-310.59a2.855,2.855,0,0,0,.895-.11.927.927,0,0,0,.639-1.069.848.848,0,0,0-.884-.774c-1.16-.095-1.835.574-1.852,1.986a.977.977,0,0,0,.468,1,1.851,1.851,0,0,0,1.566.052c.242-.078.382-.17.286-.458-.087-.264-.193-.405-.51-.3a1.831,1.831,0,0,1-.638.049.216.216,0,0,1-.225-.255C-534.133-310.62-534-310.582-533.9-310.59Zm.351-1.274a.3.3,0,0,1,.347.3c-.033.3-.3.32-.542.331-.14-.012-.365.04-.342-.173A.519.519,0,0,1-533.549-311.864Z" transform="translate(-738.289 -21.59)" fill="#c51f28"/>
    <path id="Контур_4485" data-name="Контур 4485" d="M-597.686-310.585c.187-.044.392-.013.575-.065a.948.948,0,0,0,.757-1.113c-.062-.543-.431-.744-.946-.777-1.136-.071-1.763.573-1.783,1.909.013.375-.034.827.44,1.077a2.007,2.007,0,0,0,1.75-.013c.183-.073.173-.209.139-.373-.123-.582-.513-.256-.813-.248-.208.005-.507.065-.544-.2C-598.156-310.7-597.84-310.548-597.686-310.585Zm.09-1.233a.279.279,0,0,1,.378.234c-.01.255-.2.318-.392.331-.153.01-.39.081-.41-.164C-598.042-311.679-597.8-311.757-597.6-311.818Z" transform="translate(-682.624 -21.596)" fill="#c4212a"/>
    <path id="Контур_4486" data-name="Контур 4486" d="M-1033.746-312.6a1.5,1.5,0,0,0-1.646.63,2.118,2.118,0,0,0-.174,2.037.823.823,0,0,0,.487.4c1.152.457,2.2-.34,2.229-1.712C-1032.83-312.044-1033.132-312.515-1033.746-312.6Zm-.677,2.4c-.353-.048-.421-.322-.424-.662.092-.394.043-.938.672-.983.427-.032.456.32.455.633C-1033.724-310.649-1034.066-310.153-1034.423-310.2Z" transform="translate(-302.671 -21.518)" fill="#c11f2c"/>
    <path id="Контур_4487" data-name="Контур 4487" d="M-1009.021-310.686a7.628,7.628,0,0,0,.83-.1.9.9,0,0,0,.713-1.014c-.018-.514-.343-.755-.826-.831-1.135-.178-1.89.542-1.938,1.978a1.038,1.038,0,0,0,.523,1.035,1.967,1.967,0,0,0,1.688-.053.242.242,0,0,0,.127-.373c-.086-.152-.105-.4-.4-.318a1.4,1.4,0,0,1-.764.053c-.131-.038-.247-.112-.217-.27S-1009.117-310.674-1009.021-310.686Zm.5-1.218c.135.048.282.184.169.344-.222.313-.543.245-.924.171C-1009.086-311.767-1008.926-312.047-1008.524-311.9Z" transform="translate(-324.866 -21.497)" fill="#c1202d"/>
    <path id="Контур_4488" data-name="Контур 4488" d="M-708.177-310.588a5.635,5.635,0,0,0,.895-.108.945.945,0,0,0,.7-1.042.861.861,0,0,0-.873-.795c-1.151-.122-1.826.517-1.894,1.825-.058,1.125.936,1.7,2.066,1.194.187-.083.381-.166.269-.42-.09-.205-.152-.462-.5-.314a1.042,1.042,0,0,1-.7.032c-.129-.039-.252-.109-.225-.265S-708.274-310.577-708.177-310.588Zm-.148-.817a.527.527,0,0,1,.493-.439c.187-.026.379.062.368.268-.017.309-.29.322-.521.349C-708.121-311.26-708.354-311.169-708.325-311.405Z" transform="translate(-586.677 -21.594)" fill="#ca1c28"/>
    <path id="Контур_4489" data-name="Контур 4489" d="M-658.213-309.54c-.011-.28.208-.616-.273-.606-.333.007-.732-.092-.687.482a1.258,1.258,0,0,1-.106.569c-.124.29-.4.2-.627.174-.244-.024-.214-.2-.185-.389.115-.747.23-1.5.311-2.247.047-.438.347-.364.617-.365.358,0,.24.267.256.467.019.227-.276.595.269.6.375,0,.711-.015.692-.519-.015-.4.148-.6.579-.548.5.061.263.431.248.648-.042.58-.169,1.153-.226,1.733-.038.375-.063.693-.577.635C-658.46-308.965-658.166-309.347-658.213-309.54Z" transform="translate(-629.522 -22.133)" fill="#c61f29"/>
    <path id="Контур_4490" data-name="Контур 4490" d="M-1058.691-311.552c-.111.766-.234,1.49-.314,2.22-.05.455-.351.436-.655.4-.391-.043-.215-.331-.215-.549,0-.247.344-.6-.208-.691-.474-.074-.755.068-.746.6a1.029,1.029,0,0,1-.081.5c-.128.228-.381.157-.59.128-.237-.033-.233-.219-.209-.4.1-.77.211-1.539.316-2.309.047-.344.309-.293.545-.3.279-.006.281.164.294.383.016.268-.232.665.359.7.49.027.586-.225.615-.6.026-.327.15-.511.529-.479C-1058.75-311.918-1058.593-311.842-1058.691-311.552Z" transform="translate(-280.074 -22.116)" fill="#c7202b"/>
    <path id="Контур_4491" data-name="Контур 4491" d="M-511.547-309.639c.087-.573.217-1.253.284-1.939.039-.4.283-.347.541-.367.367-.029.281.219.293.427.015.258-.223.621.323.656.475.03.685-.127.658-.61-.023-.419.247-.5.6-.469.463.037.265.362.241.58-.075.663-.2,1.322-.262,1.986-.034.377-.207.468-.545.451-.422-.021-.367-.3-.3-.549.131-.512.032-.785-.573-.7-.264.039-.388.147-.395.407,0,.108-.022.215-.023.323,0,.371-.162.548-.557.525C-511.786-308.945-511.532-309.287-511.547-309.639Z" transform="translate(-758.748 -22.117)" fill="#c71f2a"/>
    <path id="Контур_4492" data-name="Контур 4492" d="M-972.865-311.446c.042.149-.157.407.126.477.243.06.376-.143.5-.336.188-.3.2-.794.763-.714.234.033.43.084.249.335a2.515,2.515,0,0,0-.171,2.249c.047.19.077.42-.212.438-.246.016-.544.073-.619-.293a3.127,3.127,0,0,1-.068-.447c-.017-.294-.123-.5-.451-.517-.376-.015-.27.3-.351.5-.107.264.111.707-.392.762-.345.037-.6-.017-.522-.475.113-.679.214-1.361.286-2.045.04-.376.193-.527.575-.508C-972.709-312-972.858-311.7-972.865-311.446Z" transform="translate(-356.375 -22.047)" fill="#c3232c"/>
    <path id="Контур_4493" data-name="Контур 4493" d="M-632.493-311.1c-.3-.023-.373-.14-.331-.4.047-.3-.064-.436-.386-.434s-.475.091-.51.43c-.065.623-.148,1.246-.258,1.861-.083.468.086.7.548.742.214.021.426.068.59.095l.246-.023c.866-.086,1.336-.533,1.344-1.279S-631.442-311.016-632.493-311.1Zm.352,1.061c-.036.34-.273.451-.571.477-.279.017-.38-.11-.366-.384.018-.36.222-.475.542-.465C-632.3-310.4-632.111-310.326-632.141-310.037Z" transform="translate(-652.242 -22.128)" fill="#c9202b"/>
    <path id="Контур_4494" data-name="Контур 4494" d="M-484.126-311.093c-.3-.032-.308-.171-.275-.378.045-.279.005-.465-.342-.46-.269.005-.456.056-.495.371-.09.705-.195,1.408-.3,2.112-.038.248.025.42.3.475s.543.126.686.16c1.125.014,1.669-.474,1.73-1.429C-482.79-310.793-483.029-310.968-484.126-311.093Zm-.157,1.539c-.221.008-.4-.065-.356-.326.042-.278.081-.582.388-.536.331,0,.562.051.559.329C-483.7-309.732-483.938-309.566-484.284-309.554Z" transform="translate(-781.413 -22.131)" fill="#c91d28"/>
    <path id="Контур_4495" data-name="Контур 4495" d="M-922.058-309.57c.11-.34-.05-.431-.426-.437a1.163,1.163,0,0,1-1.054-1.825c.158-.3.411-.176.63-.171.257.006.223.212.2.385-.01.086-.039.169-.049.254-.035.315-.065.624.385.664.4.036.511-.178.558-.536.039-.3-.1-.743.449-.781.346-.024.545.058.478.461-.116.7-.236,1.406-.313,2.114-.04.366-.2.466-.543.455C-922.162-309-922.1-309.263-922.058-309.57Z" transform="translate(-400.143 -22.044)" fill="#c42832"/>
    <path id="Контур_4496" data-name="Контур 4496" d="M-873.8-312.623a2.893,2.893,0,0,1,.451.047c.233.06.443.12.355.473-.075.3-.207.367-.5.348-.774-.052-.975.121-1.008.8-.027.561.173.758.731.661.3-.052.548-.131.644.278.105.444-.229.443-.486.512a1.33,1.33,0,0,1-1.547-.331,1.993,1.993,0,0,1-.029-2.04A1.282,1.282,0,0,1-873.8-312.623Z" transform="translate(-442.149 -21.523)" fill="#c2232f"/>
    <path id="Контур_4497" data-name="Контур 4497" d="M-819.255-255.687c.016-.346-.121-.5-.5-.49a18.49,18.49,0,0,0-2.849.048,4.065,4.065,0,0,0-2.506,1.09,5.629,5.629,0,0,1-1.248,1.189,4.049,4.049,0,0,1,3.171-2.467,12.663,12.663,0,0,1,3.287-.239C-819.054-256.537-819.054-256.535-819.255-255.687Z" transform="translate(-484.871 -70.305)" fill="#9f363d"/>
    <path id="Контур_4498" data-name="Контур 4498" d="M-463.26-309.551c.1-.727.214-1.453.3-2.182.045-.392.282-.424.594-.408.373.019.335.274.3.51-.1.727-.243,1.45-.322,2.18-.048.443-.338.37-.61.366C-463.347-309.09-463.278-309.337-463.26-309.551Z" transform="translate(-800.79 -21.945)" fill="#be3941"/>
    <path id="Контур_4499" data-name="Контур 4499" d="M-610.406-311.374c-.1.741-.205,1.464-.3,2.189-.045.339-.289.316-.53.315-.3,0-.354-.179-.317-.429q.167-1.149.331-2.3c.051-.356.327-.278.549-.28C-610.245-311.882-610.474-311.548-610.406-311.374Z" transform="translate(-671.763 -22.171)" fill="#c4212b"/>
    <path id="Контур_4500" data-name="Контур 4500" d="M-659.15-255.591a.562.562,0,0,0-.674-.517c-.84.029-1.684.042-2.523,0a2.1,2.1,0,0,0-1.012.346,1.606,1.606,0,0,1-.661.187c-.146,0-.361-.047-.412.108-.16.49-.539.41-.9.4a4.968,4.968,0,0,1,3.26-1.333,19.849,19.849,0,0,1,2.316-.08C-658.9-256.478-658.893-256.446-659.15-255.591Z" transform="translate(-624.977 -70.38)" fill="#a1353d"/>
    <path id="Контур_4501" data-name="Контур 4501" d="M-448.463-317.5c.063-.665.141-1.266.169-1.868.02-.442.3-.385.584-.383.406,0,.3.266.255.5-.105.594-.212,1.188-.314,1.783-.047.273-.106.528-.471.473C-448.624-317.056-448.437-317.356-448.463-317.5Z" transform="translate(-813.661 -15.325)" fill="#c32735"/>
    <path id="Контур_4502" data-name="Контур 4502" d="M-694.931-169.94a2.733,2.733,0,0,1-.286,1.213,16.738,16.738,0,0,1-.69,3.114c-.1.211-.019.511-.054.765s.116.519-.185.752c-.22.171.088.363.169.543-.322.071-.506.012-.427-.385.4-2,.681-4.031,1.191-6.013A.211.211,0,0,1-694.931-169.94Z" transform="translate(-597.927 -145.628)" fill="#a43d40"/>
    <path id="Контур_4503" data-name="Контур 4503" d="M-1368.243,20.069a9.261,9.261,0,0,1-2.405,2.907.939.939,0,0,1-.194.01A11.025,11.025,0,0,1-1368.243,20.069Z" transform="translate(-11.101 -311.01)" fill="#a4353c"/>
    <path id="Контур_4504" data-name="Контур 4504" d="M-696.559-81.329c-.043.3-.281.216-.456.217q-3.176.008-6.352,0a34.691,34.691,0,0,1,3.785-.2C-698.576-81.352-697.566-81.326-696.559-81.329Z" transform="translate(-591.884 -222.777)" fill="#823d3c"/>
    <path id="Контур_4505" data-name="Контур 4505" d="M-490.981-81.036h-7.263c.346-.233.7,0,.959-.21A59.577,59.577,0,0,1-490.981-81.036Z" transform="translate(-770.365 -222.849)" fill="#793533"/>
    <path id="Контур_4506" data-name="Контур 4506" d="M-686.828-197.406l-.281-.011c.212-1.394.467-2.78.816-4.148a9.827,9.827,0,0,1-.477,3.524A3.152,3.152,0,0,0-686.828-197.406Z" transform="translate(-606.03 -118.162)" fill="#983940"/>
    <path id="Контур_4507" data-name="Контур 4507" d="M-763.014-295.864a.594.594,0,0,1-.631.587.418.418,0,0,1-.448-.5.549.549,0,0,1,.582-.557A.449.449,0,0,1-763.014-295.864Z" transform="translate(-539.044 -35.704)" fill="#b03137"/>
    <path id="Контур_4508" data-name="Контур 4508" d="M-449.975-295.593c-.008.206-.2.408-.552.422a.417.417,0,0,1-.489-.457.53.53,0,0,1,.55-.581C-450.2-296.217-449.962-296.086-449.975-295.593Z" transform="translate(-811.459 -35.811)" fill="#b9303d"/>
    <path id="Контур_4509" data-name="Контур 4509" d="M-393.9-227.991c-.058.786-.814,1.835-1.356,1.881A10.548,10.548,0,0,1-393.9-227.991Z" transform="translate(-859.98 -95.168)" fill="#964042"/>
    <path id="Контур_4510" data-name="Контур 4510" d="M-680.32-221.8a2.457,2.457,0,0,1-.2,1.492.573.573,0,0,0,.058.61c.31.476.021.549-.379.53A10.9,10.9,0,0,1-680.32-221.8Z" transform="translate(-611.483 -100.556)" fill="#983940"/>
    <path id="Контур_4511" data-name="Контур 4511" d="M-1383.248,58.426c.057.191-.074.476.263.527a.974.974,0,0,1-.615.24A.951.951,0,0,1-1383.248,58.426Z" transform="translate(0 -344.385)" fill="#af4d56"/>
    <path id="Контур_4512" data-name="Контур 4512" d="M-1380.611,54.488c-.024.207.089.49-.278.51A.663.663,0,0,1-1380.611,54.488Z" transform="translate(-2.358 -340.959)" fill="#af4d56"/>
    <path id="Контур_4513" data-name="Контур 4513" d="M-1378.788,60.754a.646.646,0,0,1,.648-.245A.836.836,0,0,1-1378.788,60.754Z" transform="translate(-4.187 -346.19)" fill="#af4d56"/>
    <path id="Контур_4514" data-name="Контур 4514" d="M-634.445-158.794a1.056,1.056,0,0,1-.964.953,11.9,11.9,0,0,1-3,.078c-.066,0-.108-.065-.153-.11a13.441,13.441,0,0,0,2.817-.065A1.426,1.426,0,0,0-634.445-158.794Z" transform="translate(-648.272 -155.378)" fill="#fcfcfc"/>
    <path id="Контур_4515" data-name="Контур 4515" d="M-634.463-158.794a1.049,1.049,0,0,1-1.1,1.178c-.895.058-1.8.023-2.7.026-.186,0-.348-.036-.322-.283a13.442,13.442,0,0,0,2.817-.065A1.426,1.426,0,0,0-634.463-158.794Z" transform="translate(-648.254 -155.378)" fill="#953d3f"/>
  </g>
  <g id="Сгруппировать_868" data-name="Сгруппировать 868" transform="translate(1408.601 371.279)" opacity="0">
    <path id="Контур_4464-2" data-name="Контур 4464" d="M-1286.621-82.069c1.856-.041,3.712-.119,5.568-.115,4.968.01,9.937.054,14.905.087a2.521,2.521,0,0,1,.319.041c-.056.236-.251.112-.356.138,2.2-.132,4.43.012,6.659.071,1.515-.048,3.023.1,4.534.168,4.731.228,9.457.591,14.2.619h.463a2.565,2.565,0,0,1-1.4,1.315,7.192,7.192,0,0,1-3.592.7c-3.718-.132-7.434-.344-11.152-.449-8.915-.251-17.827-.045-26.734.32q-11.669.478-23.312,1.439c-5.085.418-10.169.845-15.239,1.406-5.973.661-11.906,1.622-17.829,2.637-5.814,1-11.587,2.192-17.339,3.493-7.207,1.631-14.342,3.533-21.378,5.8-.74.238-1.469.506-2.2.76a5.078,5.078,0,0,0-.648.245l-.009,0c-.525.043-.3-.288-.264-.527v0c.2-.113.156-.356.278-.51a7.6,7.6,0,0,1,1.027-1.553,2.281,2.281,0,0,0,.939-.948,3.63,3.63,0,0,1,.816-.912,4.271,4.271,0,0,0,.844-1.057,15.99,15.99,0,0,1,6.2-3.514,55.984,55.984,0,0,1,6.81-1.591c4.133-.818,8.274-1.591,12.431-2.282,3.837-.638,7.685-1.2,11.539-1.734,6.426-.887,12.874-1.576,19.333-2.169,6.182-.568,12.376-.971,18.575-1.288,2.765-.142,5.531-.26,8.3-.383.3-.013.6.01.905.016a1.79,1.79,0,0,1,.7-.052c1.849.024,3.7-.117,5.544-.071A.9.9,0,0,0-1286.621-82.069Z" transform="translate(-1.822 -222.037)" fill="#8d98a7"/>
    <path id="Контур_4465-2" data-name="Контур 4465" d="M-1316.529-295.772c2.03-3.034,1.444-8.358-4.065-8.549-2.9-.1-5.8-.157-8.694,0a7.879,7.879,0,0,0-2.414.448,4.48,4.48,0,0,0-2.661,3.3c-.609,2.23-.934,4.524-1.383,6.79-.826,4.154-1.668,8.3-2.38,12.482-.136.794-.143.805.659.788,2.595-.053,5.191-.174,7.788-.109,1.538.039,3.073.031,4.607-.062a8.861,8.861,0,0,0,3.829-.874,8.065,8.065,0,0,0,4.216-6.6,3.879,3.879,0,0,0-2.482-4.446c-.171-.084-.386-.086-.543-.321A7.009,7.009,0,0,0-1316.529-295.772Zm-8.1,8.833a2.511,2.511,0,0,1-1.7.966,12.384,12.384,0,0,1-2.482.081c-.255,0-.73-.012-1.205,0-.36.01-.5-.078-.406-.486.247-1.092.444-2.2.666-3.3.047-.226.061-.466.416-.452,1.057.044,2.115-.147,3.17,0a2.356,2.356,0,0,1,1.741.718A2.052,2.052,0,0,1-1324.63-286.939Zm.023-8.434a12.493,12.493,0,0,1-2.068.135c-.495-.027-.99-.069-1.484-.077-.314,0-.433-.118-.37-.431a12.349,12.349,0,0,1,.423-2.022,1.636,1.636,0,0,1,.995-1.125,5.547,5.547,0,0,1,3.613.012,1.2,1.2,0,0,1,.8,1.209A2.4,2.4,0,0,1-1324.606-295.373Z" transform="translate(-39.507 -28.667)" fill="#8d98a7"/>
    <path id="Контур_4466-2" data-name="Контур 4466" d="M-994.61-254.943a4.481,4.481,0,0,0-1.644-3.074,5.8,5.8,0,0,0-5.346-.93,7,7,0,0,0-3.418,2.1,5.7,5.7,0,0,1,.253-1.42c-.027-.523-.435-.557-.782-.514a12.684,12.684,0,0,0-4.245.819l-.023.007c-.336.394-.791.657-1.135,1.043a4.338,4.338,0,0,0-.718,1.365,41.88,41.88,0,0,0-1.124,5.176q-1.42,7.341-2.865,14.679c-.081.4.065.5.422.5.842-.014,1.689.03,2.527-.03a4.547,4.547,0,0,0,4.472-3.381c.178-.6.321-1.208.479-1.812.118-.513.236-1.026.308-1.549.048-.353.212-.391.456-.142a5.786,5.786,0,0,0,2.042,1.191,6.2,6.2,0,0,0,6.249-1.533C-995.094-245.851-994.114-250.188-994.61-254.943Zm-8.416,8.5a2.254,2.254,0,0,1-1.439,1.291,1.344,1.344,0,0,1-1.892-1.272,24.359,24.359,0,0,1,1.433-7.115,3.522,3.522,0,0,1,1.026-.843,1.355,1.355,0,0,1,1.986.447.859.859,0,0,1,.247.705A14.822,14.822,0,0,1-1003.026-246.443Z" transform="translate(-320.136 -68.007)" fill="#8d98a7"/>
    <path id="Контур_4467-2" data-name="Контур 4467" d="M-468.731-252.784a8.936,8.936,0,0,1,3.058-3.011,9.61,9.61,0,0,1,4.06-.683c1.386-.01,1.422,0,1.158,1.34-.779,3.966-1.55,7.934-2.4,11.886-.622,2.894-1.972,4.049-4.9,4.4a17.9,17.9,0,0,1-2.333.068c-.4,0-.521-.11-.453-.525.384-2.325.911-4.62,1.387-6.926.065-.315.109-.635.165-.966-.3-.05-.331.2-.429.329-1.341,1.8-2.565,3.678-3.952,5.447a6.5,6.5,0,0,1-5.372,2.627c-.628,0-1.257-.008-1.882.033-.536.035-.72-.1-.6-.683.54-2.623,1.04-5.255,1.561-7.882.362-1.822.663-3.655,1.153-5.451a4.658,4.658,0,0,1,4.517-3.607c.817-.074,1.643-.047,2.463-.1.522-.032.649.193.55.663-.348,1.65-.681,3.3-1.028,4.953a35.131,35.131,0,0,0-.641,3.582l2.562-3.62A5.048,5.048,0,0,0-468.731-252.784Z" transform="translate(-785.145 -70.376)" fill="#8d98a7"/>
    <path id="Контур_4468-2" data-name="Контур 4468" d="M-1142.672-253.277a6.094,6.094,0,0,0-2.351-4.1,10.916,10.916,0,0,0-3.063-1.281,14.332,14.332,0,0,0-4.494-.044,19.487,19.487,0,0,0-3.363,1.062,11.323,11.323,0,0,0-6.111,10.262,6.576,6.576,0,0,0,4.633,6.359,12.348,12.348,0,0,0,8.508-.392,9.657,9.657,0,0,0,5.166-4.589c.361-.71.348-.718-.425-.72-1.408,0-2.814.03-4.221-.012a2.359,2.359,0,0,0-1.926.738,3.232,3.232,0,0,1-2.987.871,1.628,1.628,0,0,1-1.62-1.929,5.213,5.213,0,0,0,.03-.647c-.059-.533.192-.635.677-.633,2.62.016,5.238-.007,7.858,0a5.585,5.585,0,0,0,1.909-.33,2.522,2.522,0,0,0,1.814-2.22A8.378,8.378,0,0,0-1142.672-253.277Zm-6.764,1.326a.363.363,0,0,1-.212.126,18.2,18.2,0,0,1-3.872,0c-.551-.014-.606-.256-.413-.735.425-1.047.973-1.983,2.191-2.156,1.49-.213,2.6.208,2.576,2.23C-1149.269-252.314-1149.235-252.071-1149.436-251.95Z" transform="translate(-192.773 -68.309)" fill="#8d98a7"/>
    <path id="Контур_4469-2" data-name="Контур 4469" d="M-840.107-255.59c-.314,1.634-.614,3.27-.951,4.9-.1.467.013.613.49.586a15.82,15.82,0,0,1,1.881,0c.453.028.649-.113.731-.575a12.468,12.468,0,0,1,.865-3.045,4.325,4.325,0,0,1,3.32-2.509,18.8,18.8,0,0,1,3.228-.222c.643-.018.771.191.645.773-.3,1.392-.569,2.791-.849,4.187q-.784,3.907-1.57,7.813a6.122,6.122,0,0,1-1.97,3.83,5.089,5.089,0,0,1-2.454.929,18.324,18.324,0,0,1-2.91.173c-.386,0-.521-.111-.46-.533.277-1.926.677-3.829,1.066-5.733.187-.918.219-.914-.69-.915-.433,0-.865,0-1.3,0-1.159.019-.957-.162-1.2,1.02a16.751,16.751,0,0,1-.884,3.306,4.357,4.357,0,0,1-3.439,2.643,19.989,19.989,0,0,1-3.23.212c-.45.011-.6-.116-.5-.594.423-2.14.8-4.289,1.218-6.43.409-2.1.849-4.191,1.266-6.288a5.965,5.965,0,0,1,.6-1.7,2.446,2.446,0,0,0,.316-.407,4.921,4.921,0,0,1,3.832-2.068,21.338,21.338,0,0,1,2.457-.019C-840.169-256.24-839.947-256.053-840.107-255.59Z" transform="translate(-464.018 -70.402)" fill="#8d98a7"/>
    <path id="Контур_4470-2" data-name="Контур 4470" d="M-677.314-245.462c-.314-2.1-1.831-3.347-4.29-3.605-1.274-.134-2.549-.051-3.825-.06-.764-.005-.753-.012-.6-.766.305-1.457.67-2.9.84-4.386.078-.4-.1-.657-.492-.665a10.443,10.443,0,0,0-3.909.34,5.827,5.827,0,0,0-.747.345l-.108.058a7.163,7.163,0,0,1-.927.445,5.6,5.6,0,0,0-1.492,3.091,10.026,10.026,0,0,0-.3,2.266c.032.183-.123.258-.222.364h0c-.139.753-.183,1.518-.343,2.276a7.9,7.9,0,0,0-.31,1.824v.009l-.012.042a11.388,11.388,0,0,0-.466,1.965,27.036,27.036,0,0,0-.575,3.621.284.284,0,0,1-.035.147c-.2.379-.19.386.164.66.474.012.949.042,1.424.032,3.264-.064,6.536.2,9.792-.166,2.713-.3,4.852-1.459,5.9-4.157A7.162,7.162,0,0,0-677.314-245.462Zm-6.3,2.36c-.06.205-.107.413-.16.621a1.426,1.426,0,0,1-1.3.856,13.442,13.442,0,0,1-2.817.065,17.041,17.041,0,0,1,.438-2.338,1.578,1.578,0,0,1,1.665-1.325,5.87,5.87,0,0,1,.709.012C-683.518-245.127-683.168-244.621-683.615-243.1Z" transform="translate(-598.942 -71.691)" fill="#8d98a7"/>
    <path id="Контур_4471-2" data-name="Контур 4471" d="M-546.932-254.009c-.314,2.336-.912,4.617-1.337,6.932-.289,1.571-.569,3.147-.936,4.7-.844,3.573-2.133,4.5-5.057,4.777-.816.077-1.64.056-2.461.087-.353.014-.437-.134-.37-.471.669-3.366,1.323-6.736,1.993-10.1a23.626,23.626,0,0,1,.617-2.84,7.24,7.24,0,0,1,1.146-2.352,4.4,4.4,0,0,1,2.087-1.419,10.409,10.409,0,0,1,3.456-.325C-546.855-255.012-546.813-254.96-546.932-254.009Z" transform="translate(-719.142 -71.642)" fill="#8d98a7"/>
    <path id="Контур_4472-2" data-name="Контур 4472" d="M-395.744-337.365a2.489,2.489,0,0,1-.709,1.6,22.346,22.346,0,0,1-6.962,5.4c-3.157,1.485-6.291-.425-6.6-3.913-.022-.245-.111-.577.354-.413,3.719,1.309,7.144.132,10.542-1.253C-398.009-336.4-396.907-336.875-395.744-337.365Z" transform="translate(-847.116)" fill="#8d98a7"/>
    <path id="Контур_4473-2" data-name="Контур 4473" d="M-1136.623-318.411a.933.933,0,0,0-.783-1.547c-.387-.034-.779.008-1.166-.018a.589.589,0,0,0-.729.6c-.083.752-.2,1.5-.316,2.247-.19,1.227-.194,1.226,1.073,1.222.13,0,.26,0,.39,0,1.4-.026,1.913-.759,1.423-2.052C-1136.812-318.172-1136.715-318.263-1136.623-318.411Zm-1.624,1.69c-.305,0-.464-.043-.456-.422.009-.49.236-.591.584-.523.336.01.684-.053.682.36C-1137.44-316.784-1137.826-316.725-1138.247-316.721Zm.869-2.1c-.02.336-.316.417-.686.362-.122-.051-.457.162-.442-.266.014-.373.24-.456.56-.432C-1137.693-319.138-1137.356-319.186-1137.378-318.822Z" transform="translate(-212.215 -15.127)" fill="#8d98a7"/>
    <path id="Контур_4474-2" data-name="Контур 4474" d="M-734.613-318.4a.913.913,0,0,0-.7-1.511c-.427-.051-.864-.012-1.294-.04-.456-.03-.669.151-.714.616-.074.751-.2,1.5-.295,2.246-.16,1.208-.16,1.209,1.036,1.208.195,0,.388.005.583,0a1.321,1.321,0,0,0,1.258-2.031C-734.861-318.18-734.71-318.251-734.613-318.4Zm-1.695,1.713c-.216-.008-.516.077-.475-.319s.087-.813.547-.668c.427.022.808-.026.8.4C-735.439-316.725-735.879-316.677-736.308-316.691Zm.914-2.086c-.043.412-.408.348-.7.351-.24,0-.47.013-.443-.355.032-.439.339-.358.6-.353S-735.354-319.147-735.393-318.777Z" transform="translate(-562.017 -15.146)" fill="#8d98a7"/>
    <path id="Контур_4475-2" data-name="Контур 4475" d="M-852.125-312.563a6.269,6.269,0,0,0,1.925.016c.863-.077,1.263.411,1.177,1.288-.046.472-.145.939-.185,1.411-.036.417-.3.391-.6.385-.411-.009-.29-.264-.255-.5q.089-.608.158-1.22c.039-.353-.079-.583-.479-.611s-.461.183-.485.512c-.034.472-.141.94-.176,1.412-.026.349-.2.426-.507.416-.388-.013-.392-.24-.356-.527.055-.428.106-.857.14-1.287.022-.278-.037-.517-.39-.554s-.447.156-.482.453c-.059.493-.159.981-.2,1.475-.031.395-.26.441-.571.431-.417-.012-.347-.3-.312-.552.066-.491.147-.981.214-1.472C-853.364-312.507-853.322-312.547-852.125-312.563Z" transform="translate(-461.036 -21.581)" fill="#8d98a7"/>
    <path id="Контур_4476-2" data-name="Контур 4476" d="M-1085.712-311.291c-.057-.844-.426-1.19-1.281-1.2-1.165-.01-1.327.136-1.477,1.27-.114.856-.248,1.709-.365,2.565-.03.219-.042.447.295.444.24,0,.488.044.529-.3.018-.149.077-.295.084-.444.014-.3.148-.378.453-.383A1.626,1.626,0,0,0-1085.712-311.291Zm-1.235,1.049a.672.672,0,0,1-.677.079c-.272-.122-.064-.338-.061-.51s.034-.343.049-.516c.03-.339.139-.57.553-.538s.47.305.492.571A1.015,1.015,0,0,1-1086.948-310.242Z" transform="translate(-256.469 -21.646)" fill="#8d98a7"/>
    <path id="Контур_4477-2" data-name="Контур 4477" d="M-684.109-311.269c-.032-.866-.412-1.221-1.313-1.226-1.118-.005-1.272.139-1.414,1.246-.1.79-.251,1.574-.351,2.364-.03.234-.249.577.222.662.405.075.612-.095.63-.5.02-.448.151-.635.7-.614C-684.678-309.3-684.069-310.147-684.109-311.269Zm-.877.231a.924.924,0,0,1-.352.791.613.613,0,0,1-.667.073c-.235-.117-.1-.335-.079-.516a3.807,3.807,0,0,0,.061-.445c0-.375.112-.636.549-.595S-684.98-311.388-684.986-311.038Z" transform="translate(-605.895 -21.64)" fill="#8d98a7"/>
    <path id="Контур_4478-2" data-name="Контур 4478" d="M-559.75-308.46c.131-.577-.094-.63-.618-.476-1.088.319-1.683-.181-1.605-1.3.03-.43.127-.855.167-1.285.037-.394.246-.5.61-.465.456.045.269.363.251.584-.033.408-.1.814-.16,1.219a.412.412,0,0,0,.409.535c.29.021.546-.022.559-.439.015-.495.118-.986.158-1.481.032-.4.276-.425.586-.408.381.021.313.294.291.519-.034.343-.1.683-.147,1.024s-.083.669.28.921c.214.148-.044,1.461-.283,1.6a.4.4,0,0,1-.434.015C-559.867-308.04-559.745-308.259-559.75-308.46Z" transform="translate(-714.908 -22.074)" fill="#8d98a7"/>
    <path id="Контур_4479-2" data-name="Контур 4479" d="M-1109.83-310.573a1.671,1.671,0,0,1,.257-.022c.692-.094,1.038-.486.98-1.116-.049-.562-.387-.81-1.1-.813a1.408,1.408,0,0,0-1.491,1,1.792,1.792,0,0,0,.155,1.84,1.665,1.665,0,0,0,1.762.207c.228-.1.36-.208.272-.484-.079-.251-.2-.368-.469-.275a1.2,1.2,0,0,1-.317.062c-.229.01-.569.082-.571-.23S-1110.015-310.523-1109.83-310.573Zm-.437-.874c.032-.255.256-.306.472-.352s.314.064.347.275c-.027.281-.253.3-.464.3C-1110.061-311.221-1110.3-311.172-1110.266-311.447Z" transform="translate(-236.876 -21.615)" fill="#8d98a7"/>
    <path id="Контур_4480-2" data-name="Контур 4480" d="M-811.129-310.97c-.078-.127-.162-.2-.094-.39.3-.848.012-1.239-.886-1.244s-1.239.273-1.392,1.164c-.075.444-.149.89-.21,1.338-.026.183-.073.37.159.5a2.439,2.439,0,0,0,2.174-.119A.882.882,0,0,0-811.129-310.97Zm-.729.535a.609.609,0,0,1-.712.316c-.291-.036-.248-.243-.247-.287.069-.486.109-.829.17-1.166a.423.423,0,0,1,.4-.36.312.312,0,0,1,.356.221c.055.231-.166.251-.309.336-.327.2-.395.409.04.557C-811.96-310.752-811.745-310.689-811.858-310.435Z" transform="translate(-495.852 -21.545)" fill="#8d98a7"/>
    <path id="Контур_4481-2" data-name="Контур 4481" d="M-787.652-312.574a1.705,1.705,0,0,0-1.7,1.866,1.164,1.164,0,0,0,1.234,1.33,1.66,1.66,0,0,0,1.681-1.87C-786.437-312.138-786.829-312.568-787.652-312.574Zm.334,1.518c-.077.395-.144.885-.7.881-.455,0-.4-.425-.378-.74.03-.417.092-.861.639-.874C-787.289-311.8-787.32-311.418-787.319-311.056Z" transform="translate(-517.062 -21.571)" fill="#8d98a7"/>
    <path id="Контур_4482-2" data-name="Контур 4482" d="M-946.393-312.657a2.177,2.177,0,0,0-2.425.613c-.109.313-.152.643-.255.957l0,0a1.255,1.255,0,0,0,.523,1.322,2.326,2.326,0,0,0,1.812.017.279.279,0,0,0,.246-.255c.095-.766.195-1.531.291-2.3A.3.3,0,0,0-946.393-312.657Zm-.756,1.251c-.022.17-.066.338-.078.508-.022.33-.077.626-.512.561a.545.545,0,0,1-.5-.636,1.465,1.465,0,0,1,.3-.836.665.665,0,0,1,.717-.168C-946.958-311.868-947.123-311.607-947.149-311.407Z" transform="translate(-378.071 -21.368)" fill="#8d98a7"/>
    <path id="Контур_4483-2" data-name="Контур 4483" d="M-897.794-310.667c.277-.038.556-.056.827-.116a.872.872,0,0,0,.719-1.051c-.041-.531-.386-.729-.859-.79-1.148-.148-1.861.564-1.89,1.885-.023,1.1.913,1.626,2.047,1.148.187-.079.379-.151.294-.41-.079-.236-.179-.432-.511-.331a2.21,2.21,0,0,1-.638.052.252.252,0,0,1-.269-.23C-898.083-310.71-897.908-310.652-897.794-310.667Zm.3-1.251c.2,0,.365.064.36.277-.007.294-.26.305-.469.323-.162.016-.379.043-.352-.229S-897.687-311.846-897.493-311.918Z" transform="translate(-421.664 -21.512)" fill="#8d98a7"/>
    <path id="Контур_4484-2" data-name="Контур 4484" d="M-533.9-310.59a2.855,2.855,0,0,0,.895-.11.927.927,0,0,0,.639-1.069.848.848,0,0,0-.884-.774c-1.16-.095-1.835.574-1.852,1.986a.977.977,0,0,0,.468,1,1.851,1.851,0,0,0,1.566.052c.242-.078.382-.17.286-.458-.087-.264-.193-.405-.51-.3a1.831,1.831,0,0,1-.638.049.216.216,0,0,1-.225-.255C-534.133-310.62-534-310.582-533.9-310.59Zm.351-1.274a.3.3,0,0,1,.347.3c-.033.3-.3.32-.542.331-.14-.012-.365.04-.342-.173A.519.519,0,0,1-533.549-311.864Z" transform="translate(-738.289 -21.59)" fill="#8d98a7"/>
    <path id="Контур_4485-2" data-name="Контур 4485" d="M-597.686-310.585c.187-.044.392-.013.575-.065a.948.948,0,0,0,.757-1.113c-.062-.543-.431-.744-.946-.777-1.136-.071-1.763.573-1.783,1.909.013.375-.034.827.44,1.077a2.007,2.007,0,0,0,1.75-.013c.183-.073.173-.209.139-.373-.123-.582-.513-.256-.813-.248-.208.005-.507.065-.544-.2C-598.156-310.7-597.84-310.548-597.686-310.585Zm.09-1.233a.279.279,0,0,1,.378.234c-.01.255-.2.318-.392.331-.153.01-.39.081-.41-.164C-598.042-311.679-597.8-311.757-597.6-311.818Z" transform="translate(-682.624 -21.596)" fill="#8d98a7"/>
    <path id="Контур_4486-2" data-name="Контур 4486" d="M-1033.746-312.6a1.5,1.5,0,0,0-1.646.63,2.118,2.118,0,0,0-.174,2.037.823.823,0,0,0,.487.4c1.152.457,2.2-.34,2.229-1.712C-1032.83-312.044-1033.132-312.515-1033.746-312.6Zm-.677,2.4c-.353-.048-.421-.322-.424-.662.092-.394.043-.938.672-.983.427-.032.456.32.455.633C-1033.724-310.649-1034.066-310.153-1034.423-310.2Z" transform="translate(-302.671 -21.518)" fill="#8d98a7"/>
    <path id="Контур_4487-2" data-name="Контур 4487" d="M-1009.021-310.686a7.628,7.628,0,0,0,.83-.1.9.9,0,0,0,.713-1.014c-.018-.514-.343-.755-.826-.831-1.135-.178-1.89.542-1.938,1.978a1.038,1.038,0,0,0,.523,1.035,1.967,1.967,0,0,0,1.688-.053.242.242,0,0,0,.127-.373c-.086-.152-.105-.4-.4-.318a1.4,1.4,0,0,1-.764.053c-.131-.038-.247-.112-.217-.27S-1009.117-310.674-1009.021-310.686Zm.5-1.218c.135.048.282.184.169.344-.222.313-.543.245-.924.171C-1009.086-311.767-1008.926-312.047-1008.524-311.9Z" transform="translate(-324.866 -21.497)" fill="#8d98a7"/>
    <path id="Контур_4488-2" data-name="Контур 4488" d="M-708.177-310.588a5.635,5.635,0,0,0,.895-.108.945.945,0,0,0,.7-1.042.861.861,0,0,0-.873-.795c-1.151-.122-1.826.517-1.894,1.825-.058,1.125.936,1.7,2.066,1.194.187-.083.381-.166.269-.42-.09-.205-.152-.462-.5-.314a1.042,1.042,0,0,1-.7.032c-.129-.039-.252-.109-.225-.265S-708.274-310.577-708.177-310.588Zm-.148-.817a.527.527,0,0,1,.493-.439c.187-.026.379.062.368.268-.017.309-.29.322-.521.349C-708.121-311.26-708.354-311.169-708.325-311.405Z" transform="translate(-586.677 -21.594)" fill="#8d98a7"/>
    <path id="Контур_4489-2" data-name="Контур 4489" d="M-658.213-309.54c-.011-.28.208-.616-.273-.606-.333.007-.732-.092-.687.482a1.258,1.258,0,0,1-.106.569c-.124.29-.4.2-.627.174-.244-.024-.214-.2-.185-.389.115-.747.23-1.5.311-2.247.047-.438.347-.364.617-.365.358,0,.24.267.256.467.019.227-.276.595.269.6.375,0,.711-.015.692-.519-.015-.4.148-.6.579-.548.5.061.263.431.248.648-.042.58-.169,1.153-.226,1.733-.038.375-.063.693-.577.635C-658.46-308.965-658.166-309.347-658.213-309.54Z" transform="translate(-629.522 -22.133)" fill="#8d98a7"/>
    <path id="Контур_4490-2" data-name="Контур 4490" d="M-1058.691-311.552c-.111.766-.234,1.49-.314,2.22-.05.455-.351.436-.655.4-.391-.043-.215-.331-.215-.549,0-.247.344-.6-.208-.691-.474-.074-.755.068-.746.6a1.029,1.029,0,0,1-.081.5c-.128.228-.381.157-.59.128-.237-.033-.233-.219-.209-.4.1-.77.211-1.539.316-2.309.047-.344.309-.293.545-.3.279-.006.281.164.294.383.016.268-.232.665.359.7.49.027.586-.225.615-.6.026-.327.15-.511.529-.479C-1058.75-311.918-1058.593-311.842-1058.691-311.552Z" transform="translate(-280.074 -22.116)" fill="#8d98a7"/>
    <path id="Контур_4491-2" data-name="Контур 4491" d="M-511.547-309.639c.087-.573.217-1.253.284-1.939.039-.4.283-.347.541-.367.367-.029.281.219.293.427.015.258-.223.621.323.656.475.03.685-.127.658-.61-.023-.419.247-.5.6-.469.463.037.265.362.241.58-.075.663-.2,1.322-.262,1.986-.034.377-.207.468-.545.451-.422-.021-.367-.3-.3-.549.131-.512.032-.785-.573-.7-.264.039-.388.147-.395.407,0,.108-.022.215-.023.323,0,.371-.162.548-.557.525C-511.786-308.945-511.532-309.287-511.547-309.639Z" transform="translate(-758.748 -22.117)" fill="#8d98a7"/>
    <path id="Контур_4492-2" data-name="Контур 4492" d="M-972.865-311.446c.042.149-.157.407.126.477.243.06.376-.143.5-.336.188-.3.2-.794.763-.714.234.033.43.084.249.335a2.515,2.515,0,0,0-.171,2.249c.047.19.077.42-.212.438-.246.016-.544.073-.619-.293a3.127,3.127,0,0,1-.068-.447c-.017-.294-.123-.5-.451-.517-.376-.015-.27.3-.351.5-.107.264.111.707-.392.762-.345.037-.6-.017-.522-.475.113-.679.214-1.361.286-2.045.04-.376.193-.527.575-.508C-972.709-312-972.858-311.7-972.865-311.446Z" transform="translate(-356.375 -22.047)" fill="#8d98a7"/>
    <path id="Контур_4493-2" data-name="Контур 4493" d="M-632.493-311.1c-.3-.023-.373-.14-.331-.4.047-.3-.064-.436-.386-.434s-.475.091-.51.43c-.065.623-.148,1.246-.258,1.861-.083.468.086.7.548.742.214.021.426.068.59.095l.246-.023c.866-.086,1.336-.533,1.344-1.279S-631.442-311.016-632.493-311.1Zm.352,1.061c-.036.34-.273.451-.571.477-.279.017-.38-.11-.366-.384.018-.36.222-.475.542-.465C-632.3-310.4-632.111-310.326-632.141-310.037Z" transform="translate(-652.242 -22.128)" fill="#8d98a7"/>
    <path id="Контур_4494-2" data-name="Контур 4494" d="M-484.126-311.093c-.3-.032-.308-.171-.275-.378.045-.279.005-.465-.342-.46-.269.005-.456.056-.495.371-.09.705-.195,1.408-.3,2.112-.038.248.025.42.3.475s.543.126.686.16c1.125.014,1.669-.474,1.73-1.429C-482.79-310.793-483.029-310.968-484.126-311.093Zm-.157,1.539c-.221.008-.4-.065-.356-.326.042-.278.081-.582.388-.536.331,0,.562.051.559.329C-483.7-309.732-483.938-309.566-484.284-309.554Z" transform="translate(-781.413 -22.131)" fill="#8d98a7"/>
    <path id="Контур_4495-2" data-name="Контур 4495" d="M-922.058-309.57c.11-.34-.05-.431-.426-.437a1.163,1.163,0,0,1-1.054-1.825c.158-.3.411-.176.63-.171.257.006.223.212.2.385-.01.086-.039.169-.049.254-.035.315-.065.624.385.664.4.036.511-.178.558-.536.039-.3-.1-.743.449-.781.346-.024.545.058.478.461-.116.7-.236,1.406-.313,2.114-.04.366-.2.466-.543.455C-922.162-309-922.1-309.263-922.058-309.57Z" transform="translate(-400.143 -22.044)" fill="#8d98a7"/>
    <path id="Контур_4496-2" data-name="Контур 4496" d="M-873.8-312.623a2.893,2.893,0,0,1,.451.047c.233.06.443.12.355.473-.075.3-.207.367-.5.348-.774-.052-.975.121-1.008.8-.027.561.173.758.731.661.3-.052.548-.131.644.278.105.444-.229.443-.486.512a1.33,1.33,0,0,1-1.547-.331,1.993,1.993,0,0,1-.029-2.04A1.282,1.282,0,0,1-873.8-312.623Z" transform="translate(-442.149 -21.523)" fill="#8d98a7"/>
    <path id="Контур_4497-2" data-name="Контур 4497" d="M-819.255-255.687c.016-.346-.121-.5-.5-.49a18.49,18.49,0,0,0-2.849.048,4.065,4.065,0,0,0-2.506,1.09,5.629,5.629,0,0,1-1.248,1.189,4.049,4.049,0,0,1,3.171-2.467,12.663,12.663,0,0,1,3.287-.239C-819.054-256.537-819.054-256.535-819.255-255.687Z" transform="translate(-484.871 -70.305)" fill="#8d98a7"/>
    <path id="Контур_4498-2" data-name="Контур 4498" d="M-463.26-309.551c.1-.727.214-1.453.3-2.182.045-.392.282-.424.594-.408.373.019.335.274.3.51-.1.727-.243,1.45-.322,2.18-.048.443-.338.37-.61.366C-463.347-309.09-463.278-309.337-463.26-309.551Z" transform="translate(-800.79 -21.945)" fill="#8d98a7"/>
    <path id="Контур_4499-2" data-name="Контур 4499" d="M-610.406-311.374c-.1.741-.205,1.464-.3,2.189-.045.339-.289.316-.53.315-.3,0-.354-.179-.317-.429q.167-1.149.331-2.3c.051-.356.327-.278.549-.28C-610.245-311.882-610.474-311.548-610.406-311.374Z" transform="translate(-671.763 -22.171)" fill="#8d98a7"/>
    <path id="Контур_4500-2" data-name="Контур 4500" d="M-659.15-255.591a.562.562,0,0,0-.674-.517c-.84.029-1.684.042-2.523,0a2.1,2.1,0,0,0-1.012.346,1.606,1.606,0,0,1-.661.187c-.146,0-.361-.047-.412.108-.16.49-.539.41-.9.4a4.968,4.968,0,0,1,3.26-1.333,19.849,19.849,0,0,1,2.316-.08C-658.9-256.478-658.893-256.446-659.15-255.591Z" transform="translate(-624.977 -70.38)" fill="#8d98a7"/>
    <path id="Контур_4501-2" data-name="Контур 4501" d="M-448.463-317.5c.063-.665.141-1.266.169-1.868.02-.442.3-.385.584-.383.406,0,.3.266.255.5-.105.594-.212,1.188-.314,1.783-.047.273-.106.528-.471.473C-448.624-317.056-448.437-317.356-448.463-317.5Z" transform="translate(-813.661 -15.325)" fill="#8d98a7"/>
    <path id="Контур_4502-2" data-name="Контур 4502" d="M-694.931-169.94a2.733,2.733,0,0,1-.286,1.213,16.738,16.738,0,0,1-.69,3.114c-.1.211-.019.511-.054.765s.116.519-.185.752c-.22.171.088.363.169.543-.322.071-.506.012-.427-.385.4-2,.681-4.031,1.191-6.013A.211.211,0,0,1-694.931-169.94Z" transform="translate(-597.927 -145.628)" fill="#8d98a7"/>
    <path id="Контур_4503-2" data-name="Контур 4503" d="M-1368.243,20.069a9.261,9.261,0,0,1-2.405,2.907.939.939,0,0,1-.194.01A11.025,11.025,0,0,1-1368.243,20.069Z" transform="translate(-11.101 -311.01)" fill="#8d98a7"/>
    <path id="Контур_4504-2" data-name="Контур 4504" d="M-696.559-81.329c-.043.3-.281.216-.456.217q-3.176.008-6.352,0a34.691,34.691,0,0,1,3.785-.2C-698.576-81.352-697.566-81.326-696.559-81.329Z" transform="translate(-591.884 -222.777)" fill="#8d98a7"/>
    <path id="Контур_4505-2" data-name="Контур 4505" d="M-490.981-81.036h-7.263c.346-.233.7,0,.959-.21A59.577,59.577,0,0,1-490.981-81.036Z" transform="translate(-770.365 -222.849)" fill="#8d98a7"/>
    <path id="Контур_4506-2" data-name="Контур 4506" d="M-686.828-197.406l-.281-.011c.212-1.394.467-2.78.816-4.148a9.827,9.827,0,0,1-.477,3.524A3.152,3.152,0,0,0-686.828-197.406Z" transform="translate(-606.03 -118.162)" fill="#8d98a7"/>
    <path id="Контур_4507-2" data-name="Контур 4507" d="M-763.014-295.864a.594.594,0,0,1-.631.587.418.418,0,0,1-.448-.5.549.549,0,0,1,.582-.557A.449.449,0,0,1-763.014-295.864Z" transform="translate(-539.044 -35.704)" fill="#8d98a7"/>
    <path id="Контур_4508-2" data-name="Контур 4508" d="M-449.975-295.593c-.008.206-.2.408-.552.422a.417.417,0,0,1-.489-.457.53.53,0,0,1,.55-.581C-450.2-296.217-449.962-296.086-449.975-295.593Z" transform="translate(-811.459 -35.811)" fill="#8d98a7"/>
    <path id="Контур_4509-2" data-name="Контур 4509" d="M-393.9-227.991c-.058.786-.814,1.835-1.356,1.881A10.548,10.548,0,0,1-393.9-227.991Z" transform="translate(-859.98 -95.168)" fill="#8d98a7"/>
    <path id="Контур_4510-2" data-name="Контур 4510" d="M-680.32-221.8a2.457,2.457,0,0,1-.2,1.492.573.573,0,0,0,.058.61c.31.476.021.549-.379.53A10.9,10.9,0,0,1-680.32-221.8Z" transform="translate(-611.483 -100.556)" fill="#8d98a7"/>
    <path id="Контур_4511-2" data-name="Контур 4511" d="M-1383.248,58.426c.057.191-.074.476.263.527a.974.974,0,0,1-.615.24A.951.951,0,0,1-1383.248,58.426Z" transform="translate(0 -344.385)" fill="#8d98a7"/>
    <path id="Контур_4512-2" data-name="Контур 4512" d="M-1380.611,54.488c-.024.207.089.49-.278.51A.663.663,0,0,1-1380.611,54.488Z" transform="translate(-2.358 -340.959)" fill="#8d98a7"/>
    <path id="Контур_4513-2" data-name="Контур 4513" d="M-1378.788,60.754a.646.646,0,0,1,.648-.245A.836.836,0,0,1-1378.788,60.754Z" transform="translate(-4.187 -346.19)" fill="#8d98a7"/>
    <path id="Контур_4514-2" data-name="Контур 4514" d="M-634.445-158.794a1.056,1.056,0,0,1-.964.953,11.9,11.9,0,0,1-3,.078c-.066,0-.108-.065-.153-.11a13.441,13.441,0,0,0,2.817-.065A1.426,1.426,0,0,0-634.445-158.794Z" transform="translate(-648.272 -155.378)" fill="#8d98a7"/>
    <path id="Контур_4515-2" data-name="Контур 4515" d="M-634.463-158.794a1.049,1.049,0,0,1-1.1,1.178c-.895.058-1.8.023-2.7.026-.186,0-.348-.036-.322-.283a13.442,13.442,0,0,0,2.817-.065A1.426,1.426,0,0,0-634.463-158.794Z" transform="translate(-648.254 -155.378)" fill="#8d98a7"/>
  </g>
</svg>
