<svg xmlns="http://www.w3.org/2000/svg" width="192" height="120" viewBox="0 0 192 120">
  <g id="Компонент_294_2" data-name="Компонент 294 – 2" opacity="0.998">
    <rect id="Прямоугольник_42" data-name="Прямоугольник 42" width="192" height="120" fill="#f4f5f7" opacity="0.004"/>
    <g id="Souz" transform="translate(-1304.4 -474)">
      <path id="Контур_4592" data-name="Контур 4592" d="M1558.546,513.1c.393.039.747.118,1.14.157a9.084,9.084,0,0,1,7.073,4.362,11.044,11.044,0,0,1,1.651,7.035,9.979,9.979,0,0,1-1.965,5.7,9.314,9.314,0,0,1-6.877,3.694,15.536,15.536,0,0,1-5.384-.393,8.663,8.663,0,0,1-6.484-6.484c-.118-.393-.118-.982-.354-1.179-.314-.2-.825-.079-1.3-.079h-.629c0,1.022-.04,2,0,2.987,0,.432.314.668.747.707.2.039.393.039.629.079v3.969h-10.3v-4.008a9.554,9.554,0,0,0,1.061,0c.59-.039.825-.275.825-.865V518.6c0-.629-.236-.865-.865-.943a2.241,2.241,0,0,0-.511-.039h-.511v-3.93h10.3v3.891c-1.375.2-1.375.236-1.375,1.651V521h1.925c.118,0,.236-.157.275-.275.2-.55.354-1.14.589-1.69a9.013,9.013,0,0,1,7.231-5.62c.589-.118,1.179-.2,1.768-.275C1557.682,513.1,1558.114,513.1,1558.546,513.1Zm1.886,10.571h-.118c0-.432.039-.865,0-1.336-.079-.9-.2-1.847-.354-2.751a1.718,1.718,0,0,0-1.14-1.336,2.191,2.191,0,0,0-3.1,1.651,1.413,1.413,0,0,0-.079.432,25.825,25.825,0,0,0-.118,5.777,8.5,8.5,0,0,0,.432,1.926,1.559,1.559,0,0,0,1.14,1.061c1.533.393,2.672-.2,2.948-1.768C1560.276,526.108,1560.315,524.89,1560.433,523.671Z" transform="translate(-123.285 -0.061)" fill="#e21f25"/>
      <path id="Контур_4593" data-name="Контур 4593" d="M1486.894,513.039l1.532.236a9.783,9.783,0,0,1,8.292,8.96,14.472,14.472,0,0,1-.59,5.5,8.511,8.511,0,0,1-5.5,5.541,12.49,12.49,0,0,1-9.157-.157,8.414,8.414,0,0,1-5.266-5.816,11.729,11.729,0,0,1,.2-7.86,9.714,9.714,0,0,1,8.685-6.327,1.767,1.767,0,0,0,.432-.118C1485.95,513.039,1486.422,513.039,1486.894,513.039Zm1.886,10.532h-.118c0-.472.039-.943,0-1.415a21.463,21.463,0,0,0-.393-2.712,1.673,1.673,0,0,0-1.376-1.336,2.13,2.13,0,0,0-2.869,1.729,21.2,21.2,0,0,0-.2,5.895,10.531,10.531,0,0,0,.432,2.161,1.585,1.585,0,0,0,1.218,1.1,2.1,2.1,0,0,0,2.869-1.729A27.923,27.923,0,0,0,1488.78,523.571Z" transform="translate(-86.332 0)" fill="#e21f25"/>
      <path id="Контур_4594" data-name="Контур 4594" d="M1636.511,513.1c.471.079.982.118,1.454.2a8.9,8.9,0,0,1,4.166,1.493,4.226,4.226,0,0,1,1.808,4.2,3.906,3.906,0,0,1-2.83,3.38c-.55.2-1.14.275-1.69.472-.118.039-.2.157-.314.236.118.039.236.118.354.157.55.118,1.1.118,1.611.275a4.848,4.848,0,0,1,2.28,7.624,6.6,6.6,0,0,1-3.733,2.4,17.083,17.083,0,0,1-10.021-.236,7.153,7.153,0,0,1-4.755-5.856,3.605,3.605,0,0,1-.039-.668h7.781c.078.393.078.825.2,1.218a1.952,1.952,0,0,0,2.24,1.218c.865-.118,1.258-.629,1.258-1.611,0-1.3-.472-1.847-1.729-1.965-.629-.079-1.258-.079-1.926-.118v-4.205c.472,0,.943.039,1.415,0a6.9,6.9,0,0,0,1.533-.236c.668-.2.943-.747.9-1.611a1.221,1.221,0,0,0-1.061-1.218,1.927,1.927,0,0,0-2.594,1.493l-.118.471h-7.82a6.312,6.312,0,0,1,2.554-5.148,9.776,9.776,0,0,1,5.07-1.808.752.752,0,0,0,.314-.118C1634.035,513.1,1635.253,513.1,1636.511,513.1Z" transform="translate(-176.884 -0.061)" fill="#e21f25"/>
      <path id="Контур_4595" data-name="Контур 4595" d="M1427.76,513.039c.589.079,1.179.157,1.768.275a8.97,8.97,0,0,1,7.624,7.31c.039.2.039.354.078.589h-7.624c-.078-.511-.118-1.061-.236-1.533a2.138,2.138,0,0,0-2.044-1.651,1.887,1.887,0,0,0-2.122,1.533,6.42,6.42,0,0,0-.314,1.454,27.236,27.236,0,0,0,.118,5.934,4.748,4.748,0,0,0,.2.707,1.79,1.79,0,0,0,1.926,1.415,2.03,2.03,0,0,0,2.083-1.336,8.343,8.343,0,0,0,.275-1.061,5.008,5.008,0,0,0,.079-1.1h7.9a10.6,10.6,0,0,1-.275,1.611,8.351,8.351,0,0,1-5.541,6.091,12.485,12.485,0,0,1-9.589-.314,8.384,8.384,0,0,1-4.873-5.541,12.111,12.111,0,0,1,.118-7.82,9.363,9.363,0,0,1,8.174-6.406,7.831,7.831,0,0,0,1.022-.2C1426.974,513.039,1427.367,513.039,1427.76,513.039Z" transform="translate(-50.503)" fill="#e21f25"/>
      <path id="Контур_4596" data-name="Контур 4596" d="M1373.364,543.99c3.34,5.7,6.641,11.4,9.982,17.134h-16.112c1.061-.275,2.476-.589,3.851-1.022a13,13,0,0,0,2.633-1.14,7.535,7.535,0,0,0,4.126-5.973,3.877,3.877,0,0,0-.157-1.179c-.039-.118-.236-.157-.393-.236a1.5,1.5,0,0,0-.118.393,3.4,3.4,0,0,1-1.3,3.537,8.265,8.265,0,0,1-3.891,1.69,26.662,26.662,0,0,1-9.825.236,8.01,8.01,0,0,1-5.148-3.065,5.441,5.441,0,0,1-.511-5.934,10.427,10.427,0,0,1,3.1-3.694,18.679,18.679,0,0,1,9.353-4.008c.511-.079,1.061-.118,1.375.393a1.277,1.277,0,0,1-.314,1.415,7.02,7.02,0,0,1-.982.865c-1.336.943-2.712,1.808-4.009,2.79a6.145,6.145,0,0,0-1.965,2.279,2.163,2.163,0,0,0,.472,2.712,1.231,1.231,0,0,0,1.533.314,4.973,4.973,0,0,0,1.218-.786,14.1,14.1,0,0,0,1.533-1.533,36.092,36.092,0,0,1,4.519-4.323A9.941,9.941,0,0,0,1373.364,543.99Z" transform="translate(-13.633 -16.803)" fill="#e21f25"/>
      <path id="Контур_4597" data-name="Контур 4597" d="M1333.4,600.461v-.786a.767.767,0,0,1,.039-.275h134.008v1.061Z" transform="translate(0 -52.446)" fill="#e3262c"/>
      <path id="Контур_4598" data-name="Контур 4598" d="M1357.2,528.748c.039-.118.039-.236.079-.314,2.829-4.912,5.7-9.785,8.528-14.7a2.356,2.356,0,0,1,.157-.236c2,3.419,3.969,6.838,5.973,10.257-.471-.079-.9-.157-1.3-.2a15.253,15.253,0,0,0-5.777,1.1,27.3,27.3,0,0,0-7.467,3.969.361.361,0,0,0-.2.118Z" transform="translate(-14.447 -0.304)" fill="#e21f25"/>
      <path id="Контур_4599" data-name="Контур 4599" d="M1333.5,578.314c1.847-3.183,3.655-6.288,5.384-9.314a32.956,32.956,0,0,0,.511,3.262,7.078,7.078,0,0,0,5.659,5.305c1.218.314,2.476.511,3.694.747Z" transform="translate(-0.061 -33.993)" fill="#e22026"/>
      <path id="Контур_4600" data-name="Контур 4600" d="M1524.7,584.153v-.982a.977.977,0,0,0,.354-.039c.118-.079.314-.236.314-.354.039-.943,0-1.886,0-2.829,0-.511-.432-.275-.668-.393v-.943h3.655v.9c-.59.2-.59.2-.59.865v1.1c.118-.157.2-.236.275-.354.472-.747.9-1.493,1.375-2.24a.894.894,0,0,1,.354-.314c.865-.039,1.729,0,2.594,0v.982c-.707.079-.707.079-.707.825v1.965c0,.707,0,.707.747.786v.943h-3.733v-.982c.589.079.629-.275.629-.707a5.1,5.1,0,0,0-.118-1.022c-.236.393-.472.786-.747,1.179-.314.511-.55,1.218-1.022,1.493s-1.179.079-1.808.079A6.1,6.1,0,0,1,1524.7,584.153Z" transform="translate(-116.122 -39.793)" fill="#0349ba"/>
      <path id="Контур_4601" data-name="Контур 4601" d="M1585.24,583.128c.707-.118.707-.118.707-.825v-2.043c0-.668,0-.668-.747-.747v-.982h3.694v.982c-.55-.079-.629.275-.59.707a5.892,5.892,0,0,0,.118,1.14c.472-.786.982-1.572,1.415-2.358a.848.848,0,0,1,.9-.511c.707.039,1.454,0,2.161,0v.982c-.118,0-.2.039-.314.039-.314-.039-.393.157-.393.432v2.594c0,.472,0,.472.708.511v.982h-3.655v-.982c.55.079.589-.236.55-.629a10.4,10.4,0,0,0-.079-1.061c-.275.432-.55.865-.825,1.336s-.511,1.1-.9,1.336a3.631,3.631,0,0,1-1.611.079h-1.14Z" transform="translate(-152.846 -39.75)" fill="#0248ba"/>
      <path id="Контур_4602" data-name="Контур 4602" d="M1609.865,581.7c-.118,1.1-.079,1.179.55,1.258a1.612,1.612,0,0,0,.039.432v.55H1606.8V583c.668-.2.668-.2.668-.943v-1.965c0-.629,0-.629-.668-.707V578.4h3.655v.943c-.668.2-.668.2-.589,1.1a.557.557,0,0,0,.707-.354,9.382,9.382,0,0,1,.472-.865,2.139,2.139,0,0,1,2.594-.865.4.4,0,0,1,.157.275,8.8,8.8,0,0,1,0,1.022c-.864.236-1.1,1.415-2.161,1.375.157.039.314.039.472.079a1.018,1.018,0,0,1,.9.707c.157.432.393.668.9.55a8.186,8.186,0,0,0,0,.982c.079.511-.118.668-.629.707a2.113,2.113,0,0,1-2.437-1.336c-.118-.2-.2-.432-.314-.629A.508.508,0,0,0,1609.865,581.7Z" transform="translate(-165.958 -39.584)" fill="#0349ba"/>
      <path id="Контур_4603" data-name="Контур 4603" d="M1467.74,582.691a1.475,1.475,0,0,0,.393.039c.55.079.9-.118.982-.668a10.791,10.791,0,0,0,.118-1.965c0-.118-.2-.275-.354-.314a2.563,2.563,0,0,0-.55,0V578.8h7.113v.943c-.707.157-.707.157-.707.943v1.926c0,.668,0,.668.707.747v.982h-3.615V583.4c.55.039.55-.314.55-.747-.039-.865,0-1.69,0-2.594H1471.2c-.039.747-.078,1.493-.157,2.279a4.341,4.341,0,0,1-.2.982,1.783,1.783,0,0,1-1.69,1.218c-1.3.118-1.454,0-1.454-1.258A3.177,3.177,0,0,0,1467.74,582.691Z" transform="translate(-81.522 -39.942)" fill="#0248ba"/>
      <path id="Контур_4604" data-name="Контур 4604" d="M1492.788,584.287a16.57,16.57,0,0,1-1.926-.354,2.587,2.587,0,0,1-1.965-2.515,2.7,2.7,0,0,1,1.847-2.672,5.053,5.053,0,0,1,3.93.079,2.754,2.754,0,0,1,1.69,2.712,2.5,2.5,0,0,1-1.886,2.437C1493.967,584.051,1493.417,584.13,1492.788,584.287Zm.786-3.065a5.315,5.315,0,0,0-.157-1.1.75.75,0,0,0-.825-.589.67.67,0,0,0-.747.589,21.423,21.423,0,0,0,0,2.24.7.7,0,0,0,.747.629.748.748,0,0,0,.825-.629A9.989,9.989,0,0,0,1493.574,581.222Z" transform="translate(-94.388 -39.691)" fill="#0349ba"/>
      <path id="Контур_4605" data-name="Контур 4605" d="M1553.057,580.438h-2.672c-.118-.432-.118-.9-.668-1.022a.8.8,0,0,0-1.061.786,12.61,12.61,0,0,0,0,1.729c.039.589.314.865.786.865a.879.879,0,0,0,.9-.865c0-.079.039-.157.039-.275h2.869a1.792,1.792,0,0,1-.668,1.375,3.781,3.781,0,0,1-1.886.865,5.377,5.377,0,0,1-3.144-.236,2.569,2.569,0,0,1-1.768-2.319,2.734,2.734,0,0,1,1.336-2.594,4.988,4.988,0,0,1,5.069.157A2.41,2.41,0,0,1,1553.057,580.438Z" transform="translate(-128.917 -39.536)" fill="#064bbb"/>
      <path id="Контур_4606" data-name="Контур 4606" d="M1567.393,584.18v-.943c.039-.039.079-.039.079-.079.747-.039.747-.039.747-.825v-2.476c-.825-.118-.825-.118-1.179.668h-1.14V578.6h7.035v1.886h-1.179c-.275-.747-.275-.747-1.179-.668,0,.982-.039,2,0,2.987,0,.511.511.2.786.354v.982h-2C1568.73,584.18,1568.061,584.18,1567.393,584.18Z" transform="translate(-141.131 -39.82)" fill="#0349ba"/>
      <path id="Контур_4607" data-name="Контур 4607" d="M1515.02,578.639v1.926h-1.1c-.315-.825-.354-.825-1.454-.707v2.947c0,.118.2.275.354.314a1.587,1.587,0,0,0,.432,0v1.022H1509.4V583.2c.668-.118.668-.118.668-.825V580.29c0-.668,0-.668-.668-.707V578.6C1511.247,578.639,1513.133,578.639,1515.02,578.639Z" transform="translate(-106.834 -39.82)" fill="#0449ba"/>
      <path id="Контур_4608" data-name="Контур 4608" d="M1582.1,613.194h-.865v-3.34h-.118c-.236.865-.432,1.69-.668,2.554s-.236.865-1.14.786c-.275-1.14-.589-2.319-.864-3.458h-.079v3.458h-.865V608.4h1.218c.118,0,.236.157.275.275.236.825.432,1.651.668,2.515.039.118.079.2.157.393.314-1.1.55-2.122.825-3.183h1.454Z" transform="translate(-148.172 -57.909)" fill="#054bbb"/>
      <path id="Контур_4609" data-name="Контур 4609" d="M1517.954,611.2c-.825-.275-1.14-.668-1.061-1.454a1.079,1.079,0,0,1,.982-1.1c.983-.079,1.926,0,2.908,0v4.716h-.943v-1.926a.991.991,0,0,0-1.179.472,4.433,4.433,0,0,0-.472.707,1.22,1.22,0,0,1-1.69.707C1516.972,612.576,1517.443,611.869,1517.954,611.2Zm1.847-1.847h-1.454a.444.444,0,0,0-.472.511c.039.236.236.55.393.589a6.687,6.687,0,0,0,1.533.079C1519.8,610.139,1519.8,609.786,1519.8,609.353Z" transform="translate(-111.144 -58.037)" fill="#054bbb"/>
      <path id="Контур_4610" data-name="Контур 4610" d="M1667.823,608.585V613.3h-.943v-1.926a.991.991,0,0,0-1.179.471l-.472.707c-.55.825-.55.825-1.729.786.511-.747,1.022-1.415,1.454-2.083a2.591,2.591,0,0,1-.786-.55,1.593,1.593,0,0,1-.236-.982,1.047,1.047,0,0,1,.943-1.1C1665.858,608.546,1666.84,608.585,1667.823,608.585Zm-.982,1.926v-1.14h-1.375a.527.527,0,0,0-.55.589.537.537,0,0,0,.511.59C1665.9,610.51,1666.369,610.51,1666.84,610.51Z" transform="translate(-200.375 -58.015)" fill="#054bbb"/>
      <path id="Контур_4611" data-name="Контур 4611" d="M1433.5,610.921c0-2.083,1.3-3.1,3.065-2.672a1.376,1.376,0,0,1,.55.236,2.8,2.8,0,0,1,.708,3.615,2.5,2.5,0,0,1-3.3.707A2.177,2.177,0,0,1,1433.5,610.921Zm1.022-.314c0,.982.432,1.611,1.218,1.69s1.336-.432,1.454-1.336c.118-1.022-.275-1.808-1.061-1.926h-.079C1435.072,608.917,1434.522,609.507,1434.522,610.607Z" transform="translate(-60.762 -57.758)" fill="#064bbb"/>
      <path id="Контур_4612" data-name="Контур 4612" d="M1563.573,610.36c0,1.965-1.3,2.987-3.026,2.594a1.379,1.379,0,0,1-.55-.236,2.816,2.816,0,0,1-.707-3.694,2.466,2.466,0,0,1,3.34-.629A2.523,2.523,0,0,1,1563.573,610.36Zm-1.022.157c0-.943-.393-1.533-1.1-1.611a1.317,1.317,0,0,0-1.532,1.3c-.157,1.061.314,1.886,1.1,2h.157C1562.041,612.246,1562.552,611.617,1562.552,610.517Z" transform="translate(-136.879 -57.668)" fill="#064bbb"/>
      <path id="Контур_4613" data-name="Контур 4613" d="M1650.769,613.158V610.25c-.039,0-.078,0-.078-.039-.472.786-1.022,1.533-1.454,2.358a1.029,1.029,0,0,1-1.336.59V608.4h.865v2.987a.144.144,0,0,1,.118.039c.393-.668.825-1.336,1.218-2.044a2.085,2.085,0,0,0,.236-.393c.236-.629.707-.747,1.336-.59v4.755Z" transform="translate(-190.906 -57.873)" fill="#0248ba"/>
      <path id="Контур_4614" data-name="Контур 4614" d="M1417.1,608.4h3.773v4.755h-.943v-3.93h-1.847v3.93h-.983Z" transform="translate(-50.807 -57.909)" fill="#0e51bd"/>
      <path id="Контур_4615" data-name="Контур 4615" d="M1600.312,608.5v4.755h-.983v-3.93h-1.847v3.969h-.983v-4.755C1597.8,608.5,1599.015,608.5,1600.312,608.5Z" transform="translate(-159.705 -57.97)" fill="#0a4ebc"/>
      <path id="Контур_4616" data-name="Контур 4616" d="M1633.63,613.255v-2.044h-1.886v2.044h-.943V608.5h.943v1.808h1.886V608.5h.943v4.755Z" transform="translate(-180.526 -57.97)" fill="#084cbb"/>
      <path id="Контур_4617" data-name="Контур 4617" d="M1386.673,613.255h-.9v-2.044h-1.886v2.044h-.983V608.5h.943v1.847h1.886V608.5h.943Z" transform="translate(-30.047 -57.97)" fill="#0349ba"/>
      <path id="Контур_4618" data-name="Контур 4618" d="M1487.312,613.194h-.943v-2.044h-1.886v2h-.982V608.4h.943v1.847h1.926V608.4h.943Z" transform="translate(-91.113 -57.909)" fill="#0449ba"/>
      <path id="Контур_4619" data-name="Контур 4619" d="M1504.134,613.194h-1.022c-.157-.354-.236-.9-.511-1.022a4.653,4.653,0,0,0-1.493-.079c-.747,0-.432.747-.865,1.061h-.943c.354-.865.668-1.69.982-2.515.275-.668.511-1.336.786-2a.452.452,0,0,1,.354-.236c.275,0,.747,0,.786.157C1502.915,610.09,1503.5,611.623,1504.134,613.194ZM1501.7,609.5c-.236.629-.432,1.179-.629,1.768h1.3C1502.13,610.719,1501.933,610.169,1501.7,609.5Z" transform="translate(-100.704 -57.909)" fill="#054bbb"/>
      <path id="Контур_4620" data-name="Контур 4620" d="M1545.283,611.2v2h-.983v-4.755h.943v1.965c.039.039.079.039.118.079a1.4,1.4,0,0,0,.432-.393,5.249,5.249,0,0,0,.354-.825,1.235,1.235,0,0,1,1.572-.825v.668c-.668-.118-.825.354-1.022.865a8.281,8.281,0,0,1-.432.825c.786.55.983,1.572,1.533,2.476a8.847,8.847,0,0,1-1.022,0c-.118,0-.236-.157-.275-.275-.236-.472-.472-.982-.707-1.415a4.483,4.483,0,0,0-.432-.432C1545.361,611.123,1545.322,611.163,1545.283,611.2Z" transform="translate(-128.019 -57.921)" fill="#0b4ebc"/>
      <path id="Контур_4621" data-name="Контур 4621" d="M1367.369,608.4c.629,1.611,1.258,3.183,1.926,4.794-.118,0-.2.039-.314.039-.747,0-.786,0-1.022-.707a.551.551,0,0,0-.589-.432c-.472.039-.9,0-1.375,0a.145.145,0,0,0-.118.039c-.157.668-.354,1.375-1.375.982.589-1.493,1.179-3.026,1.769-4.559a.4.4,0,0,1,.275-.157Zm-1.179,2.869h1.3c-.2-.59-.432-1.1-.668-1.768A18.531,18.531,0,0,1,1366.19,611.269Z" transform="translate(-18.878 -57.909)" fill="#054abb"/>
      <path id="Контур_4622" data-name="Контур 4622" d="M1617.134,613.063h-.314c-.747,0-.786,0-1.022-.668-.118-.314-.236-.472-.589-.432a2.222,2.222,0,0,1-.511,0c-.9,0-.9,0-1.3.865a.452.452,0,0,1-.354.236,4.728,4.728,0,0,1-.747,0c.511-1.3.982-2.554,1.454-3.812.039-.118.118-.275.157-.393.236-.668.393-.747,1.1-.629.078,0,.2.118.236.2C1615.876,610,1616.5,611.492,1617.134,613.063Zm-3.1-1.926h1.3c-.236-.589-.432-1.1-.668-1.768C1614.422,610.077,1614.225,610.588,1614.029,611.138Z" transform="translate(-169.296 -57.778)" fill="#054abb"/>
      <path id="Контур_4623" data-name="Контур 4623" d="M1453.143,611.447v1.729h-.943V608.46a20.136,20.136,0,0,1,2.672.039c.629.079.982.707.982,1.454a1.366,1.366,0,0,1-1.14,1.375C1454.2,611.408,1453.693,611.408,1453.143,611.447Zm0-.825a5.823,5.823,0,0,0,1.218-.118.82.82,0,0,0,.432-.629.878.878,0,0,0-.472-.589,5.714,5.714,0,0,0-1.179-.039Z" transform="translate(-72.113 -57.93)" fill="#0a4ebc"/>
      <path id="Контур_4624" data-name="Контур 4624" d="M1349.6,608.373c.786,0,1.572-.039,2.319,0a1.468,1.468,0,0,1,.118,2.908c-.471.039-.943.079-1.493.118v1.768h-.943Zm.943,2.2c.432-.039.825-.039,1.218-.079a.538.538,0,0,0,.472-.668.547.547,0,0,0-.55-.59,11.031,11.031,0,0,0-1.14,0Z" transform="translate(-9.834 -57.882)" fill="#044aba"/>
      <path id="Контур_4625" data-name="Контур 4625" d="M1403.6,609.5c-.314.079-.59.157-.786.2a4.4,4.4,0,0,0-.825-.707,1.051,1.051,0,0,0-1.454.786,6.269,6.269,0,0,0-.039,1.493,1.055,1.055,0,0,0,1.022.943,1.029,1.029,0,0,0,1.1-.786c.039-.039.039-.118.079-.236.314.079.589.2.865.275a1.674,1.674,0,0,1-1.336,1.493,2.051,2.051,0,0,1-2.319-.747,3.02,3.02,0,0,1,.039-3.419,2.182,2.182,0,0,1,2.122-.747A1.993,1.993,0,0,1,1403.6,609.5Z" transform="translate(-40.062 -57.677)" fill="#084cbb"/>
      <path id="Контур_4626" data-name="Контур 4626" d="M1468.815,609.286H1467.4V608.5h3.773v.786H1469.8v3.969h-.983Z" transform="translate(-81.34 -57.97)" fill="#084cbb"/>
      <path id="Контур_4627" data-name="Контур 4627" d="M1337.333,608.5v.786h-1.375v3.969h-.982v-3.969H1333.6V608.5Z" transform="translate(-0.121 -57.97)" fill="#044aba"/>
      <path id="Контур_4628" data-name="Контур 4628" d="M1395.168,541.9c.314.55.589,1.022.864,1.493-.511.039-1.022.079-1.532.079C1394.736,543,1394.932,542.49,1395.168,541.9Z" transform="translate(-37.089 -17.543)" fill="#e3262c"/>
      <path id="Контур_4629" data-name="Контур 4629" d="M1357.139,552.2c0,.039-.039.039-.039.079v-.039c0-.039.039,0,.039-.039Z" transform="translate(-14.386 -23.795)" fill="#e21f25"/>
      <path id="Контур_4630" data-name="Контур 4630" d="M1618.3,611.3" transform="translate(-172.938 -59.67)" fill="#f0f4fa"/>
      <path id="Контур_4631" data-name="Контур 4631" d="M1616.7,615.7" transform="translate(-171.967 -62.34)" fill="#f0f4fa"/>
    </g>
    <g id="Souz-2" data-name="Souz" transform="translate(-1304.4 -474)" opacity="0">
      <path id="Контур_4592-2" data-name="Контур 4592" d="M1558.546,513.1c.393.039.747.118,1.14.157a9.084,9.084,0,0,1,7.073,4.362,11.044,11.044,0,0,1,1.651,7.035,9.979,9.979,0,0,1-1.965,5.7,9.314,9.314,0,0,1-6.877,3.694,15.536,15.536,0,0,1-5.384-.393,8.663,8.663,0,0,1-6.484-6.484c-.118-.393-.118-.982-.354-1.179-.314-.2-.825-.079-1.3-.079h-.629c0,1.022-.04,2,0,2.987,0,.432.314.668.747.707.2.039.393.039.629.079v3.969h-10.3v-4.008a9.554,9.554,0,0,0,1.061,0c.59-.039.825-.275.825-.865V518.6c0-.629-.236-.865-.865-.943a2.241,2.241,0,0,0-.511-.039h-.511v-3.93h10.3v3.891c-1.375.2-1.375.236-1.375,1.651V521h1.925c.118,0,.236-.157.275-.275.2-.55.354-1.14.589-1.69a9.013,9.013,0,0,1,7.231-5.62c.589-.118,1.179-.2,1.768-.275C1557.682,513.1,1558.114,513.1,1558.546,513.1Zm1.886,10.571h-.118c0-.432.039-.865,0-1.336-.079-.9-.2-1.847-.354-2.751a1.718,1.718,0,0,0-1.14-1.336,2.191,2.191,0,0,0-3.1,1.651,1.413,1.413,0,0,0-.079.432,25.825,25.825,0,0,0-.118,5.777,8.5,8.5,0,0,0,.432,1.926,1.559,1.559,0,0,0,1.14,1.061c1.533.393,2.672-.2,2.948-1.768C1560.276,526.108,1560.315,524.89,1560.433,523.671Z" transform="translate(-123.285 -0.061)" fill="#8d98a7"/>
      <path id="Контур_4593-2" data-name="Контур 4593" d="M1486.894,513.039l1.532.236a9.783,9.783,0,0,1,8.292,8.96,14.472,14.472,0,0,1-.59,5.5,8.511,8.511,0,0,1-5.5,5.541,12.49,12.49,0,0,1-9.157-.157,8.414,8.414,0,0,1-5.266-5.816,11.729,11.729,0,0,1,.2-7.86,9.714,9.714,0,0,1,8.685-6.327,1.767,1.767,0,0,0,.432-.118C1485.95,513.039,1486.422,513.039,1486.894,513.039Zm1.886,10.532h-.118c0-.472.039-.943,0-1.415a21.463,21.463,0,0,0-.393-2.712,1.673,1.673,0,0,0-1.376-1.336,2.13,2.13,0,0,0-2.869,1.729,21.2,21.2,0,0,0-.2,5.895,10.531,10.531,0,0,0,.432,2.161,1.585,1.585,0,0,0,1.218,1.1,2.1,2.1,0,0,0,2.869-1.729A27.923,27.923,0,0,0,1488.78,523.571Z" transform="translate(-86.332 0)" fill="#8d98a7"/>
      <path id="Контур_4594-2" data-name="Контур 4594" d="M1636.511,513.1c.471.079.982.118,1.454.2a8.9,8.9,0,0,1,4.166,1.493,4.226,4.226,0,0,1,1.808,4.2,3.906,3.906,0,0,1-2.83,3.38c-.55.2-1.14.275-1.69.472-.118.039-.2.157-.314.236.118.039.236.118.354.157.55.118,1.1.118,1.611.275a4.848,4.848,0,0,1,2.28,7.624,6.6,6.6,0,0,1-3.733,2.4,17.083,17.083,0,0,1-10.021-.236,7.153,7.153,0,0,1-4.755-5.856,3.605,3.605,0,0,1-.039-.668h7.781c.078.393.078.825.2,1.218a1.952,1.952,0,0,0,2.24,1.218c.865-.118,1.258-.629,1.258-1.611,0-1.3-.472-1.847-1.729-1.965-.629-.079-1.258-.079-1.926-.118v-4.205c.472,0,.943.039,1.415,0a6.9,6.9,0,0,0,1.533-.236c.668-.2.943-.747.9-1.611a1.221,1.221,0,0,0-1.061-1.218,1.927,1.927,0,0,0-2.594,1.493l-.118.471h-7.82a6.312,6.312,0,0,1,2.554-5.148,9.776,9.776,0,0,1,5.07-1.808.752.752,0,0,0,.314-.118C1634.035,513.1,1635.253,513.1,1636.511,513.1Z" transform="translate(-176.884 -0.061)" fill="#8d98a7"/>
      <path id="Контур_4595-2" data-name="Контур 4595" d="M1427.76,513.039c.589.079,1.179.157,1.768.275a8.97,8.97,0,0,1,7.624,7.31c.039.2.039.354.078.589h-7.624c-.078-.511-.118-1.061-.236-1.533a2.138,2.138,0,0,0-2.044-1.651,1.887,1.887,0,0,0-2.122,1.533,6.42,6.42,0,0,0-.314,1.454,27.236,27.236,0,0,0,.118,5.934,4.748,4.748,0,0,0,.2.707,1.79,1.79,0,0,0,1.926,1.415,2.03,2.03,0,0,0,2.083-1.336,8.343,8.343,0,0,0,.275-1.061,5.008,5.008,0,0,0,.079-1.1h7.9a10.6,10.6,0,0,1-.275,1.611,8.351,8.351,0,0,1-5.541,6.091,12.485,12.485,0,0,1-9.589-.314,8.384,8.384,0,0,1-4.873-5.541,12.111,12.111,0,0,1,.118-7.82,9.363,9.363,0,0,1,8.174-6.406,7.831,7.831,0,0,0,1.022-.2C1426.974,513.039,1427.367,513.039,1427.76,513.039Z" transform="translate(-50.503)" fill="#8d98a7"/>
      <path id="Контур_4596-2" data-name="Контур 4596" d="M1373.364,543.99c3.34,5.7,6.641,11.4,9.982,17.134h-16.112c1.061-.275,2.476-.589,3.851-1.022a13,13,0,0,0,2.633-1.14,7.535,7.535,0,0,0,4.126-5.973,3.877,3.877,0,0,0-.157-1.179c-.039-.118-.236-.157-.393-.236a1.5,1.5,0,0,0-.118.393,3.4,3.4,0,0,1-1.3,3.537,8.265,8.265,0,0,1-3.891,1.69,26.662,26.662,0,0,1-9.825.236,8.01,8.01,0,0,1-5.148-3.065,5.441,5.441,0,0,1-.511-5.934,10.427,10.427,0,0,1,3.1-3.694,18.679,18.679,0,0,1,9.353-4.008c.511-.079,1.061-.118,1.375.393a1.277,1.277,0,0,1-.314,1.415,7.02,7.02,0,0,1-.982.865c-1.336.943-2.712,1.808-4.009,2.79a6.145,6.145,0,0,0-1.965,2.279,2.163,2.163,0,0,0,.472,2.712,1.231,1.231,0,0,0,1.533.314,4.973,4.973,0,0,0,1.218-.786,14.1,14.1,0,0,0,1.533-1.533,36.092,36.092,0,0,1,4.519-4.323A9.941,9.941,0,0,0,1373.364,543.99Z" transform="translate(-13.633 -16.803)" fill="#8d98a7"/>
      <path id="Контур_4597-2" data-name="Контур 4597" d="M1333.4,600.461v-.786a.767.767,0,0,1,.039-.275h134.008v1.061Z" transform="translate(0 -52.446)" fill="#8d98a7"/>
      <path id="Контур_4598-2" data-name="Контур 4598" d="M1357.2,528.748c.039-.118.039-.236.079-.314,2.829-4.912,5.7-9.785,8.528-14.7a2.356,2.356,0,0,1,.157-.236c2,3.419,3.969,6.838,5.973,10.257-.471-.079-.9-.157-1.3-.2a15.253,15.253,0,0,0-5.777,1.1,27.3,27.3,0,0,0-7.467,3.969.361.361,0,0,0-.2.118Z" transform="translate(-14.447 -0.304)" fill="#8d98a7"/>
      <path id="Контур_4599-2" data-name="Контур 4599" d="M1333.5,578.314c1.847-3.183,3.655-6.288,5.384-9.314a32.956,32.956,0,0,0,.511,3.262,7.078,7.078,0,0,0,5.659,5.305c1.218.314,2.476.511,3.694.747Z" transform="translate(-0.061 -33.993)" fill="#8d98a7"/>
      <path id="Контур_4600-2" data-name="Контур 4600" d="M1524.7,584.153v-.982a.977.977,0,0,0,.354-.039c.118-.079.314-.236.314-.354.039-.943,0-1.886,0-2.829,0-.511-.432-.275-.668-.393v-.943h3.655v.9c-.59.2-.59.2-.59.865v1.1c.118-.157.2-.236.275-.354.472-.747.9-1.493,1.375-2.24a.894.894,0,0,1,.354-.314c.865-.039,1.729,0,2.594,0v.982c-.707.079-.707.079-.707.825v1.965c0,.707,0,.707.747.786v.943h-3.733v-.982c.589.079.629-.275.629-.707a5.1,5.1,0,0,0-.118-1.022c-.236.393-.472.786-.747,1.179-.314.511-.55,1.218-1.022,1.493s-1.179.079-1.808.079A6.1,6.1,0,0,1,1524.7,584.153Z" transform="translate(-116.122 -39.793)" fill="#8d98a7"/>
      <path id="Контур_4601-2" data-name="Контур 4601" d="M1585.24,583.128c.707-.118.707-.118.707-.825v-2.043c0-.668,0-.668-.747-.747v-.982h3.694v.982c-.55-.079-.629.275-.59.707a5.892,5.892,0,0,0,.118,1.14c.472-.786.982-1.572,1.415-2.358a.848.848,0,0,1,.9-.511c.707.039,1.454,0,2.161,0v.982c-.118,0-.2.039-.314.039-.314-.039-.393.157-.393.432v2.594c0,.472,0,.472.708.511v.982h-3.655v-.982c.55.079.589-.236.55-.629a10.4,10.4,0,0,0-.079-1.061c-.275.432-.55.865-.825,1.336s-.511,1.1-.9,1.336a3.631,3.631,0,0,1-1.611.079h-1.14Z" transform="translate(-152.846 -39.75)" fill="#8d98a7"/>
      <path id="Контур_4602-2" data-name="Контур 4602" d="M1609.865,581.7c-.118,1.1-.079,1.179.55,1.258a1.612,1.612,0,0,0,.039.432v.55H1606.8V583c.668-.2.668-.2.668-.943v-1.965c0-.629,0-.629-.668-.707V578.4h3.655v.943c-.668.2-.668.2-.589,1.1a.557.557,0,0,0,.707-.354,9.382,9.382,0,0,1,.472-.865,2.139,2.139,0,0,1,2.594-.865.4.4,0,0,1,.157.275,8.8,8.8,0,0,1,0,1.022c-.864.236-1.1,1.415-2.161,1.375.157.039.314.039.472.079a1.018,1.018,0,0,1,.9.707c.157.432.393.668.9.55a8.186,8.186,0,0,0,0,.982c.079.511-.118.668-.629.707a2.113,2.113,0,0,1-2.437-1.336c-.118-.2-.2-.432-.314-.629A.508.508,0,0,0,1609.865,581.7Z" transform="translate(-165.958 -39.584)" fill="#8d98a7"/>
      <path id="Контур_4603-2" data-name="Контур 4603" d="M1467.74,582.691a1.475,1.475,0,0,0,.393.039c.55.079.9-.118.982-.668a10.791,10.791,0,0,0,.118-1.965c0-.118-.2-.275-.354-.314a2.563,2.563,0,0,0-.55,0V578.8h7.113v.943c-.707.157-.707.157-.707.943v1.926c0,.668,0,.668.707.747v.982h-3.615V583.4c.55.039.55-.314.55-.747-.039-.865,0-1.69,0-2.594H1471.2c-.039.747-.078,1.493-.157,2.279a4.341,4.341,0,0,1-.2.982,1.783,1.783,0,0,1-1.69,1.218c-1.3.118-1.454,0-1.454-1.258A3.177,3.177,0,0,0,1467.74,582.691Z" transform="translate(-81.522 -39.942)" fill="#8d98a7"/>
      <path id="Контур_4604-2" data-name="Контур 4604" d="M1492.788,584.287a16.57,16.57,0,0,1-1.926-.354,2.587,2.587,0,0,1-1.965-2.515,2.7,2.7,0,0,1,1.847-2.672,5.053,5.053,0,0,1,3.93.079,2.754,2.754,0,0,1,1.69,2.712,2.5,2.5,0,0,1-1.886,2.437C1493.967,584.051,1493.417,584.13,1492.788,584.287Zm.786-3.065a5.315,5.315,0,0,0-.157-1.1.75.75,0,0,0-.825-.589.67.67,0,0,0-.747.589,21.423,21.423,0,0,0,0,2.24.7.7,0,0,0,.747.629.748.748,0,0,0,.825-.629A9.989,9.989,0,0,0,1493.574,581.222Z" transform="translate(-94.388 -39.691)" fill="#8d98a7"/>
      <path id="Контур_4605-2" data-name="Контур 4605" d="M1553.057,580.438h-2.672c-.118-.432-.118-.9-.668-1.022a.8.8,0,0,0-1.061.786,12.61,12.61,0,0,0,0,1.729c.039.589.314.865.786.865a.879.879,0,0,0,.9-.865c0-.079.039-.157.039-.275h2.869a1.792,1.792,0,0,1-.668,1.375,3.781,3.781,0,0,1-1.886.865,5.377,5.377,0,0,1-3.144-.236,2.569,2.569,0,0,1-1.768-2.319,2.734,2.734,0,0,1,1.336-2.594,4.988,4.988,0,0,1,5.069.157A2.41,2.41,0,0,1,1553.057,580.438Z" transform="translate(-128.917 -39.536)" fill="#8d98a7"/>
      <path id="Контур_4606-2" data-name="Контур 4606" d="M1567.393,584.18v-.943c.039-.039.079-.039.079-.079.747-.039.747-.039.747-.825v-2.476c-.825-.118-.825-.118-1.179.668h-1.14V578.6h7.035v1.886h-1.179c-.275-.747-.275-.747-1.179-.668,0,.982-.039,2,0,2.987,0,.511.511.2.786.354v.982h-2C1568.73,584.18,1568.061,584.18,1567.393,584.18Z" transform="translate(-141.131 -39.82)" fill="#8d98a7"/>
      <path id="Контур_4607-2" data-name="Контур 4607" d="M1515.02,578.639v1.926h-1.1c-.315-.825-.354-.825-1.454-.707v2.947c0,.118.2.275.354.314a1.587,1.587,0,0,0,.432,0v1.022H1509.4V583.2c.668-.118.668-.118.668-.825V580.29c0-.668,0-.668-.668-.707V578.6C1511.247,578.639,1513.133,578.639,1515.02,578.639Z" transform="translate(-106.834 -39.82)" fill="#8d98a7"/>
      <path id="Контур_4608-2" data-name="Контур 4608" d="M1582.1,613.194h-.865v-3.34h-.118c-.236.865-.432,1.69-.668,2.554s-.236.865-1.14.786c-.275-1.14-.589-2.319-.864-3.458h-.079v3.458h-.865V608.4h1.218c.118,0,.236.157.275.275.236.825.432,1.651.668,2.515.039.118.079.2.157.393.314-1.1.55-2.122.825-3.183h1.454Z" transform="translate(-148.172 -57.909)" fill="#8d98a7"/>
      <path id="Контур_4609-2" data-name="Контур 4609" d="M1517.954,611.2c-.825-.275-1.14-.668-1.061-1.454a1.079,1.079,0,0,1,.982-1.1c.983-.079,1.926,0,2.908,0v4.716h-.943v-1.926a.991.991,0,0,0-1.179.472,4.433,4.433,0,0,0-.472.707,1.22,1.22,0,0,1-1.69.707C1516.972,612.576,1517.443,611.869,1517.954,611.2Zm1.847-1.847h-1.454a.444.444,0,0,0-.472.511c.039.236.236.55.393.589a6.687,6.687,0,0,0,1.533.079C1519.8,610.139,1519.8,609.786,1519.8,609.353Z" transform="translate(-111.144 -58.037)" fill="#8d98a7"/>
      <path id="Контур_4610-2" data-name="Контур 4610" d="M1667.823,608.585V613.3h-.943v-1.926a.991.991,0,0,0-1.179.471l-.472.707c-.55.825-.55.825-1.729.786.511-.747,1.022-1.415,1.454-2.083a2.591,2.591,0,0,1-.786-.55,1.593,1.593,0,0,1-.236-.982,1.047,1.047,0,0,1,.943-1.1C1665.858,608.546,1666.84,608.585,1667.823,608.585Zm-.982,1.926v-1.14h-1.375a.527.527,0,0,0-.55.589.537.537,0,0,0,.511.59C1665.9,610.51,1666.369,610.51,1666.84,610.51Z" transform="translate(-200.375 -58.015)" fill="#8d98a7"/>
      <path id="Контур_4611-2" data-name="Контур 4611" d="M1433.5,610.921c0-2.083,1.3-3.1,3.065-2.672a1.376,1.376,0,0,1,.55.236,2.8,2.8,0,0,1,.708,3.615,2.5,2.5,0,0,1-3.3.707A2.177,2.177,0,0,1,1433.5,610.921Zm1.022-.314c0,.982.432,1.611,1.218,1.69s1.336-.432,1.454-1.336c.118-1.022-.275-1.808-1.061-1.926h-.079C1435.072,608.917,1434.522,609.507,1434.522,610.607Z" transform="translate(-60.762 -57.758)" fill="#8d98a7"/>
      <path id="Контур_4612-2" data-name="Контур 4612" d="M1563.573,610.36c0,1.965-1.3,2.987-3.026,2.594a1.379,1.379,0,0,1-.55-.236,2.816,2.816,0,0,1-.707-3.694,2.466,2.466,0,0,1,3.34-.629A2.523,2.523,0,0,1,1563.573,610.36Zm-1.022.157c0-.943-.393-1.533-1.1-1.611a1.317,1.317,0,0,0-1.532,1.3c-.157,1.061.314,1.886,1.1,2h.157C1562.041,612.246,1562.552,611.617,1562.552,610.517Z" transform="translate(-136.879 -57.668)" fill="#8d98a7"/>
      <path id="Контур_4613-2" data-name="Контур 4613" d="M1650.769,613.158V610.25c-.039,0-.078,0-.078-.039-.472.786-1.022,1.533-1.454,2.358a1.029,1.029,0,0,1-1.336.59V608.4h.865v2.987a.144.144,0,0,1,.118.039c.393-.668.825-1.336,1.218-2.044a2.085,2.085,0,0,0,.236-.393c.236-.629.707-.747,1.336-.59v4.755Z" transform="translate(-190.906 -57.873)" fill="#8d98a7"/>
      <path id="Контур_4614-2" data-name="Контур 4614" d="M1417.1,608.4h3.773v4.755h-.943v-3.93h-1.847v3.93h-.983Z" transform="translate(-50.807 -57.909)" fill="#8d98a7"/>
      <path id="Контур_4615-2" data-name="Контур 4615" d="M1600.312,608.5v4.755h-.983v-3.93h-1.847v3.969h-.983v-4.755C1597.8,608.5,1599.015,608.5,1600.312,608.5Z" transform="translate(-159.705 -57.97)" fill="#8d98a7"/>
      <path id="Контур_4616-2" data-name="Контур 4616" d="M1633.63,613.255v-2.044h-1.886v2.044h-.943V608.5h.943v1.808h1.886V608.5h.943v4.755Z" transform="translate(-180.526 -57.97)" fill="#8d98a7"/>
      <path id="Контур_4617-2" data-name="Контур 4617" d="M1386.673,613.255h-.9v-2.044h-1.886v2.044h-.983V608.5h.943v1.847h1.886V608.5h.943Z" transform="translate(-30.047 -57.97)" fill="#8d98a7"/>
      <path id="Контур_4618-2" data-name="Контур 4618" d="M1487.312,613.194h-.943v-2.044h-1.886v2h-.982V608.4h.943v1.847h1.926V608.4h.943Z" transform="translate(-91.113 -57.909)" fill="#8d98a7"/>
      <path id="Контур_4619-2" data-name="Контур 4619" d="M1504.134,613.194h-1.022c-.157-.354-.236-.9-.511-1.022a4.653,4.653,0,0,0-1.493-.079c-.747,0-.432.747-.865,1.061h-.943c.354-.865.668-1.69.982-2.515.275-.668.511-1.336.786-2a.452.452,0,0,1,.354-.236c.275,0,.747,0,.786.157C1502.915,610.09,1503.5,611.623,1504.134,613.194ZM1501.7,609.5c-.236.629-.432,1.179-.629,1.768h1.3C1502.13,610.719,1501.933,610.169,1501.7,609.5Z" transform="translate(-100.704 -57.909)" fill="#8d98a7"/>
      <path id="Контур_4620-2" data-name="Контур 4620" d="M1545.283,611.2v2h-.983v-4.755h.943v1.965c.039.039.079.039.118.079a1.4,1.4,0,0,0,.432-.393,5.249,5.249,0,0,0,.354-.825,1.235,1.235,0,0,1,1.572-.825v.668c-.668-.118-.825.354-1.022.865a8.281,8.281,0,0,1-.432.825c.786.55.983,1.572,1.533,2.476a8.847,8.847,0,0,1-1.022,0c-.118,0-.236-.157-.275-.275-.236-.472-.472-.982-.707-1.415a4.483,4.483,0,0,0-.432-.432C1545.361,611.123,1545.322,611.163,1545.283,611.2Z" transform="translate(-128.019 -57.921)" fill="#8d98a7"/>
      <path id="Контур_4621-2" data-name="Контур 4621" d="M1367.369,608.4c.629,1.611,1.258,3.183,1.926,4.794-.118,0-.2.039-.314.039-.747,0-.786,0-1.022-.707a.551.551,0,0,0-.589-.432c-.472.039-.9,0-1.375,0a.145.145,0,0,0-.118.039c-.157.668-.354,1.375-1.375.982.589-1.493,1.179-3.026,1.769-4.559a.4.4,0,0,1,.275-.157Zm-1.179,2.869h1.3c-.2-.59-.432-1.1-.668-1.768A18.531,18.531,0,0,1,1366.19,611.269Z" transform="translate(-18.878 -57.909)" fill="#8d98a7"/>
      <path id="Контур_4622-2" data-name="Контур 4622" d="M1617.134,613.063h-.314c-.747,0-.786,0-1.022-.668-.118-.314-.236-.472-.589-.432a2.222,2.222,0,0,1-.511,0c-.9,0-.9,0-1.3.865a.452.452,0,0,1-.354.236,4.728,4.728,0,0,1-.747,0c.511-1.3.982-2.554,1.454-3.812.039-.118.118-.275.157-.393.236-.668.393-.747,1.1-.629.078,0,.2.118.236.2C1615.876,610,1616.5,611.492,1617.134,613.063Zm-3.1-1.926h1.3c-.236-.589-.432-1.1-.668-1.768C1614.422,610.077,1614.225,610.588,1614.029,611.138Z" transform="translate(-169.296 -57.778)" fill="#8d98a7"/>
      <path id="Контур_4623-2" data-name="Контур 4623" d="M1453.143,611.447v1.729h-.943V608.46a20.136,20.136,0,0,1,2.672.039c.629.079.982.707.982,1.454a1.366,1.366,0,0,1-1.14,1.375C1454.2,611.408,1453.693,611.408,1453.143,611.447Zm0-.825a5.823,5.823,0,0,0,1.218-.118.82.82,0,0,0,.432-.629.878.878,0,0,0-.472-.589,5.714,5.714,0,0,0-1.179-.039Z" transform="translate(-72.113 -57.93)" fill="#8d98a7"/>
      <path id="Контур_4624-2" data-name="Контур 4624" d="M1349.6,608.373c.786,0,1.572-.039,2.319,0a1.468,1.468,0,0,1,.118,2.908c-.471.039-.943.079-1.493.118v1.768h-.943Zm.943,2.2c.432-.039.825-.039,1.218-.079a.538.538,0,0,0,.472-.668.547.547,0,0,0-.55-.59,11.031,11.031,0,0,0-1.14,0Z" transform="translate(-9.834 -57.882)" fill="#8d98a7"/>
      <path id="Контур_4625-2" data-name="Контур 4625" d="M1403.6,609.5c-.314.079-.59.157-.786.2a4.4,4.4,0,0,0-.825-.707,1.051,1.051,0,0,0-1.454.786,6.269,6.269,0,0,0-.039,1.493,1.055,1.055,0,0,0,1.022.943,1.029,1.029,0,0,0,1.1-.786c.039-.039.039-.118.079-.236.314.079.589.2.865.275a1.674,1.674,0,0,1-1.336,1.493,2.051,2.051,0,0,1-2.319-.747,3.02,3.02,0,0,1,.039-3.419,2.182,2.182,0,0,1,2.122-.747A1.993,1.993,0,0,1,1403.6,609.5Z" transform="translate(-40.062 -57.677)" fill="#8d98a7"/>
      <path id="Контур_4626-2" data-name="Контур 4626" d="M1468.815,609.286H1467.4V608.5h3.773v.786H1469.8v3.969h-.983Z" transform="translate(-81.34 -57.97)" fill="#8d98a7"/>
      <path id="Контур_4627-2" data-name="Контур 4627" d="M1337.333,608.5v.786h-1.375v3.969h-.982v-3.969H1333.6V608.5Z" transform="translate(-0.121 -57.97)" fill="#8d98a7"/>
      <path id="Контур_4628-2" data-name="Контур 4628" d="M1395.168,541.9c.314.55.589,1.022.864,1.493-.511.039-1.022.079-1.532.079C1394.736,543,1394.932,542.49,1395.168,541.9Z" transform="translate(-37.089 -17.543)" fill="#8d98a7"/>
      <path id="Контур_4629-2" data-name="Контур 4629" d="M1357.139,552.2c0,.039-.039.039-.039.079v-.039c0-.039.039,0,.039-.039Z" transform="translate(-14.386 -23.795)" fill="#8d98a7"/>
      <path id="Контур_4630-2" data-name="Контур 4630" d="M1618.3,611.3" transform="translate(-172.938 -59.67)" fill="#8d98a7"/>
      <path id="Контур_4631-2" data-name="Контур 4631" d="M1616.7,615.7" transform="translate(-171.967 -62.34)" fill="#8d98a7"/>
    </g>
  </g>
</svg>
