<svg id="Компонент_295_2" data-name="Компонент 295 – 2" xmlns="http://www.w3.org/2000/svg" width="192" height="120" viewBox="0 0 192 120">
  <rect id="Прямоугольник_42" data-name="Прямоугольник 42" width="192" height="120" fill="#f4f5f7" opacity="0"/>
  <g id="Сгруппировать_869" data-name="Сгруппировать 869" transform="translate(-2555.551 -3024.194)" opacity="0">
    <g id="Сгруппировать_268" data-name="Сгруппировать 268" transform="translate(2582.553 3102.353)">
      <path id="Контур_3343" data-name="Контур 3343" d="M2612.643,3110.744c.2-.3.353-.521.5-.74a171.842,171.842,0,0,1,11.169-15.612,51.741,51.741,0,0,1,4.01-4.1,4.524,4.524,0,0,1,1.514-.862c1.1-.42,1.973-.009,2.106,1.143a8.2,8.2,0,0,1-.152,3.261c-2.1,6.862-3.824,13.848-6.495,20.526a15.224,15.224,0,0,1-1.665,2.838,3.315,3.315,0,0,1-1.138.931,1.357,1.357,0,0,1-2.167-.954,7.564,7.564,0,0,1,.194-3.609,114.764,114.764,0,0,1,4.757-14.911,24.548,24.548,0,0,0,1.043-3.438c-.477.611-.984,1.2-1.425,1.837-2.784,4.021-5.545,8.058-8.333,12.076-.847,1.222-1.7,2.445-2.648,3.591a9.955,9.955,0,0,1-2.1,1.974c-1.4.93-2.734.43-3.379-1.134a8.717,8.717,0,0,1-.229-4.4c.413-3.806.823-7.612,1.247-11.526-.157.292-.274.5-.382.714q-4.656,9.189-9.313,18.377a15.788,15.788,0,0,1-.967,1.624,4.967,4.967,0,0,1-.757.86,2.19,2.19,0,0,1-2.517.627,2.041,2.041,0,0,1-.889-2.366,15.3,15.3,0,0,1,.865-2.762,108.865,108.865,0,0,1,10.542-19.6,26.29,26.29,0,0,1,2.931-3.44,6.282,6.282,0,0,1,3.005-1.745,2.661,2.661,0,0,1,3.519,2.03,8.772,8.772,0,0,1-.09,4.15q-1.385,7.163-2.769,14.327A1.923,1.923,0,0,0,2612.643,3110.744Z" transform="translate(-2594.553 -3089.268)" fill="#67a728"/>
      <path id="Контур_3344" data-name="Контур 3344" d="M2674.138,3115.8c-.661.826-1.264,1.707-2,2.461a8.156,8.156,0,0,1-2.147,1.695,2.109,2.109,0,0,1-3.208-1.975,18.51,18.51,0,0,1,.579-3.431,2.22,2.22,0,0,0,.1-.884c-.169.2-.34.392-.505.591a25.4,25.4,0,0,1-4.9,4.836,10.364,10.364,0,0,1-2.682,1.379,2.629,2.629,0,0,1-3.6-2.364,11.375,11.375,0,0,1,.93-5.739,16.708,16.708,0,0,1,5.479-7.566,8.477,8.477,0,0,1,6.132-1.816,6.783,6.783,0,0,1,1.893.679.615.615,0,0,0,.812-.158,3.742,3.742,0,0,1,1.154-.789,1.077,1.077,0,0,1,1.586.982,5.785,5.785,0,0,1-.238,1.922c-.93,3.058-1.913,6.1-2.868,9.15a12.9,12.9,0,0,0-.355,1.441,4.085,4.085,0,0,0-.008.756l.189.092a8.154,8.154,0,0,0,.886-.65,19.156,19.156,0,0,0,5.094-7.384,32.135,32.135,0,0,1,2.156-4.423,5.64,5.64,0,0,1,1.311-1.524c.646-.549,1.348-.284,1.4.56a7.542,7.542,0,0,1-.223,2.729c-1.036,3.164-2.2,6.287-3.311,9.425-.238.672-.471,1.346-.707,2.02l.175.1c.136-.205.29-.4.406-.616,1.278-2.381,2.491-4.8,3.841-7.138,1.021-1.77,2.16-3.479,3.35-5.141a6.728,6.728,0,0,1,2.926-2.34,2.884,2.884,0,0,1,4.027,1.579,6.879,6.879,0,0,1,.2,4.963,17.6,17.6,0,0,1-5.775,8.87,7.185,7.185,0,0,1-3.291,1.487,1.126,1.126,0,0,1-.467.045c-.389-.107-.9-.159-1.1-.429-.132-.182.117-.753.334-1.048a9.072,9.072,0,0,1,1.145-1.142,19.9,19.9,0,0,0,5.878-10.278,8.919,8.919,0,0,0,.087-1.207,5.439,5.439,0,0,0-1.28.687,22.384,22.384,0,0,0-2.337,2.609,84.556,84.556,0,0,0-6.255,10.889c-.69,1.341-1.308,2.726-2.082,4.016a9.776,9.776,0,0,1-1.9,2.338c-1.127.982-2.242.562-2.4-.917a10.867,10.867,0,0,1,.211-3.27c.413-2,.977-3.978,1.478-5.964.009-.077.02-.153.03-.23Zm-4.786-9.316a2.354,2.354,0,0,0-2.216-.29,8.859,8.859,0,0,0-2.443,1.376,18.045,18.045,0,0,0-5.429,8.627,2.772,2.772,0,0,0-.106.6c-.041.523.221.686.656.437a9.336,9.336,0,0,0,1.446-.986,44.773,44.773,0,0,0,7.905-9.373A3.389,3.389,0,0,0,2669.352,3106.48Z" transform="translate(-2621.213 -3094.981)" fill="#68a728"/>
      <path id="Контур_3345" data-name="Контур 3345" d="M2784.072,3106.234a11.726,11.726,0,0,0,7.657-4.522,9.051,9.051,0,0,0,2.193-5.07,3.294,3.294,0,0,0-3.461-3.827,15.621,15.621,0,0,0-6.59,1.55c-.915.377-1.8.823-2.73,1.169a4.392,4.392,0,0,1-1.45.256c-.874.012-1.248-.6-.8-1.353a4.395,4.395,0,0,1,1.181-1.368c3.2-2.223,6.663-3.8,10.65-3.773,4.777.035,7.651,3.8,6.987,8.259-.927,6.222-4.92,9.812-10.713,11.608a20.274,20.274,0,0,1-3.652.639.863.863,0,0,0-.845.683c-.54,1.671-1.044,3.355-1.656,5a9.487,9.487,0,0,1-1.218,2.161,1.479,1.479,0,0,1-2.772-.9,15,15,0,0,1,.291-3.214,70.738,70.738,0,0,1,4.434-13.449,27.883,27.883,0,0,1,1.775-3.02,2.183,2.183,0,0,1,.518-.532c.461-.363.938-.775,1.582-.491a1.448,1.448,0,0,1,.834,1.506,16,16,0,0,1-.453,3.048c-.455,1.671-1.046,3.3-1.577,4.955C2784.2,3105.736,2784.154,3105.928,2784.072,3106.234Z" transform="translate(-2674.034 -3089.28)" fill="#ffbf00"/>
      <path id="Контур_3346" data-name="Контур 3346" d="M2819.8,3113.628c-1.015,1.115-1.972,2.289-3.058,3.329a33.072,33.072,0,0,1-3.614,3.031,3.091,3.091,0,0,1-3.55.425c-1.222-.74-1.37-2.028-1.3-3.288a16.634,16.634,0,0,1,3.37-8.706,12.483,12.483,0,0,1,5.38-4.6c2-.82,4.031-1.177,6.042,0,.34.2.539.108.8-.169.766-.817,1.554-1.073,2.137-.765s.859,1.157.531,2.263c-.671,2.265-1.436,4.5-2.135,6.759-.659,2.128-1.279,4.269-1.926,6.4a8.191,8.191,0,0,1-.472,1.263c-.271.55-.6,1.147-1.3,1.133-.729-.015-1.059-.629-1.31-1.217a4.761,4.761,0,0,1-.223-3.175c.238-.885.5-1.764.754-2.646Zm2.468-6.842-.107-.243a8.081,8.081,0,0,0-1.218-.282,4.124,4.124,0,0,0-2.865,1.02,18.506,18.506,0,0,0-6.267,9.4,2.655,2.655,0,0,0,.048.908,5.382,5.382,0,0,0,.874-.22,3.144,3.144,0,0,0,.666-.458,36.343,36.343,0,0,0,5.688-5.948C2820.186,3109.6,2821.213,3108.182,2822.271,3106.786Z" transform="translate(-2687.731 -3095.153)" fill="#ffbf00"/>
      <path id="Контур_3347" data-name="Контур 3347" d="M2730.667,3109.613c-.266.3-.552.584-.8.9a65.744,65.744,0,0,1-7.42,8.322,10.464,10.464,0,0,1-1.827,1.383c-1.37.789-2.446.271-2.448-1.291a14.174,14.174,0,0,1,.568-3.919c.746-2.57,1.717-5.073,2.483-7.637a38.589,38.589,0,0,0,.759-3.971c1.2-.442,2.655.616,2.866,2.247a8.917,8.917,0,0,1-.642,4.3c-.6,1.6-1.251,3.184-1.853,4.784-.187.5-.285,1.028-.424,1.544l.169.111a17.877,17.877,0,0,0,1.467-1.443c2.006-2.466,3.971-4.964,5.969-7.437.736-.911,1.479-1.824,2.3-2.657a4.311,4.311,0,0,1,1.518-.954,1.3,1.3,0,0,1,1.886,1.181,5.377,5.377,0,0,1-.212,1.923c-1.137,3.794-2.32,7.574-3.492,11.358a10.629,10.629,0,0,1-.5,1.465c-.338.708-.853.813-1.482.333a2.994,2.994,0,0,1-1.266-2.942,22.859,22.859,0,0,1,1.768-5.793c.242-.59.4-1.214.6-1.823h.094l-.005-.06Z" transform="translate(-2648.452 -3095.385)" fill="#68a728"/>
      <path id="Контур_3348" data-name="Контур 3348" d="M2758.348,3111.269a2.968,2.968,0,0,0-1.909,1.377c-.827,1.315-1.646,2.637-2.534,3.912a10.566,10.566,0,0,1-3.394,3.247,5.179,5.179,0,0,1-3.495.755,2.48,2.48,0,0,1-2.148-2.128,4.356,4.356,0,0,1,.947-3.61,2.6,2.6,0,0,1,2.787-.912.922.922,0,0,1,.779,1.3c-.16.562-.4,1.1-.574,1.657a3.648,3.648,0,0,0-.171.99c-.007.411.238.573.629.415a2.707,2.707,0,0,0,.649-.354,15.767,15.767,0,0,0,3.8-4.355,1.947,1.947,0,0,0,.123-.36c-.541-.032-1.029-.05-1.517-.089-2.782-.221-4.28-2.534-3.183-5.095a7.808,7.808,0,0,1,6.506-5.132c1.914-.226,3.158.809,3.089,2.731a20.683,20.683,0,0,1-.665,3.5,11.776,11.776,0,0,1-.4,1.178c.572-.277,1.016-.5,1.47-.708.68-.3,1.4-.691,2.1-.164a1.926,1.926,0,0,1,.57,2.165c-.535,1.927-1.161,3.829-1.792,5.727a13.3,13.3,0,0,1-.945,2.223c-.325.59-.8,1.176-1.588,1.045-.8-.133-1.073-.838-1.262-1.522a4.656,4.656,0,0,1,.236-3.1C2757.089,3114.439,2757.687,3112.913,2758.348,3111.269Zm-1.788-4.578c-.008-.089-.02-.291-.046-.49-.117-.875-.293-1.007-1.078-.624a5.184,5.184,0,0,0-2.967,4.07,1.366,1.366,0,0,0,.993,1.563,1.5,1.5,0,0,0,1.825-.611A8.428,8.428,0,0,0,2756.56,3106.691Z" transform="translate(-2660.059 -3095.192)" fill="#68a729"/>
    </g>
    <g id="Сгруппировать_269" data-name="Сгруппировать 269" transform="translate(2620.93 3035.194)">
      <path id="Контур_3342" data-name="Контур 3342" d="M2520.24,3123.634c.057-.04.149-.067.166-.119a12.858,12.858,0,0,1,6.837-8.271c-1.589-1.034-3.543-1.571-4.164-3.556a17.3,17.3,0,0,1-.4-2.547h4.536l.184-.215c-4.236-1.913-5.809-5.292-5.612-9.877,2.924.977,5.778,1.927,8.907,1.674-.157-3.165-2.329-5.5-3.473-8.528,4.851-.993,9.446-1.1,14.067.767a14.514,14.514,0,0,1,2.458-7.647c.551.568,1.053,1.012,1.465,1.526.658.822,1.188,1.756,1.9,2.517a11.118,11.118,0,0,0,1.916,1.333c.909-3.294,2.211-6.014,4.671-7.886,1.822,1.8,3.547,3.438,5.2,5.152a11.107,11.107,0,0,1,2.529,5.606c1.837-1.72,3.465-3.651,5.992-3.838,2.335-.172,4.693-.036,7.124-.036-1.286,2.846-3.633,5.392-2.6,9.052,2.675-1.35,5.054-.4,7.448.91-1.745,2.842-4.34,5.065-5.708,8.252.374.1.547.208.7.184a4.274,4.274,0,0,1,4.112,1.73,11.563,11.563,0,0,0,6.944,3.916c-2.293,5.473-6.056,8.858-12.044,9.764,2.547,3.3,2.861,6.885,1.665,10.8a14.282,14.282,0,0,1-6.314-1.91c-.165,1.465-.246,2.877-.492,4.259-.653,3.673-3.253,5.692-6.353,7.236-.545.272-.939.038-.944-.6s.068-1.306.085-1.959a4.486,4.486,0,0,0-2.013-4.116,12.184,12.184,0,0,1-4.615-4.939c-.688-1.452-2.224-1.651-3.712-1.43a4,4,0,0,0-3.584,2.763,21.026,21.026,0,0,0-.585,8c.044.574.1,1.147.171,1.882-.513-.128-.923-.2-1.313-.332a10.412,10.412,0,0,1-7.6-10.172,1.223,1.223,0,0,0-1.12-1.395,3.432,3.432,0,0,0-3.694,1.519c-.626.838-1.145,1.755-1.8,2.765-1.488-2.986-.279-5.677.57-8.519-2.194-.009-3.764-1.255-5.423-2.357a4.994,4.994,0,0,0-5.084-.421c-.328.147-.673.253-1.01.378Zm15.287-20.528c-1.833-.07-3.667-.1-5.5-.221-2-.127-3.992-.33-6.049-.5.029-.126-.018-.022-.013.078a2.065,2.065,0,0,0,.084.424,5.7,5.7,0,0,0,2.756,3.507c1.6.935,3.257,1.762,4.851,2.7.347.2.525.7.782,1.055-.363.2-.713.54-1.094.578a21.937,21.937,0,0,1-2.8.051c-1.258-.037-2.514-.125-4.118-.208a15.013,15.013,0,0,0,1.721,1.913,7.646,7.646,0,0,0,5.641,1.532c.742-.075,1.316.086,1.339.991.019.76.122,1.39-.967,1.706a43.574,43.574,0,0,0-5.991,2.251,3.847,3.847,0,0,0-2.378,3.111c.316-.024.558-.059.8-.061,1.941-.024,3.862-.024,5.146,1.84a3.256,3.256,0,0,0,2.63,1.324c.954.068,1.905.2,2.986.314-1.054,1.675-2.406,3.038-2.72,5.26,2.016-1.816,4.07-1.511,6.171-.98.787.2,1.027.584,1.107,1.423a26.305,26.305,0,0,0,.918,5.312,6.731,6.731,0,0,0,3.842,4.169c-.463-3.731-1.186-7.358,1.189-10.43-1.474-1.2-2.96-2.35-4.35-3.6a1.687,1.687,0,0,1-.345-1.4c.407-1.691.9-3.363,1.455-5.011a1.384,1.384,0,0,1,.938-.765,16.377,16.377,0,0,0,7.84-3.015c3.092-2.349,5.4-5.168,5.314-9.346a6.084,6.084,0,0,0-5.722-5.769c-3.54-.16-6.492,1.3-9.3,3.2a2.584,2.584,0,0,0-.856,1.1c-.39.919.139,1.549,1.105,1.329a10.616,10.616,0,0,0,1.735-.621c2.075-.876,4.124-1.8,6.462-1.735,2.411.062,3.6,1.462,2.917,3.788a10.654,10.654,0,0,1-7.749,7.541,4.969,4.969,0,0,1-1.188.012,39.065,39.065,0,0,0,1.624-4.116,12.7,12.7,0,0,0,.432-3.7c-.03-.927-.851-1.2-1.571-.574a7.693,7.693,0,0,0-1.564,1.927,58.481,58.481,0,0,0-4.908,11.965c-.111.354-.228.708-.4,1.249-.25-.432-.387-.641-.5-.863A16.188,16.188,0,0,1,2540.01,3104a16.249,16.249,0,0,1,26.283,3.676,17.021,17.021,0,0,1,1.453,11.233,10.569,10.569,0,0,1-2.366,5.418,3.1,3.1,0,0,1-2.614,1.433,10.725,10.725,0,0,1,.241-1.052c.514-1.474,1.047-2.941,1.568-4.412.7-1.983,1.442-3.954,2.081-5.957.227-.714.357-1.669-.5-2.021-.473-.194-1.175.187-1.777.289a7.152,7.152,0,0,1-1.29.157,18.715,18.715,0,0,0-3.862-.072c-2.785.567-4.7,2.483-6.266,4.743-1.85,2.671-3.214,5.52-3.053,8.894.09,1.882,1.383,2.937,3.141,2.274a11.015,11.015,0,0,0,3.1-1.946c1.461-1.233,2.791-2.621,4.179-3.947a26.634,26.634,0,0,0-.719,2.616,3.241,3.241,0,0,0,.068,1.913c.247.473.99.686,1.65,1.1l-5.187,2.512c.7,1.029,1.383,2.142,2.189,3.153a4.063,4.063,0,0,0,1.6,1.245,4.134,4.134,0,0,1,2.7,3.284c.151.75.209,1.518.309,2.277l.352.188a13.91,13.91,0,0,0,2.4-2.964,19.275,19.275,0,0,0,1.234-4.9,30.374,30.374,0,0,0,.038-4.192,2.253,2.253,0,0,1,.368.283,7.383,7.383,0,0,0,5.393,2.907c.59.076,1.191.125,1.212-.785.081-3.59-.957-6.648-4.054-8.769a8.614,8.614,0,0,1-1-1.008,5.621,5.621,0,0,1,1.46-.247c4.637.764,8.094-1.287,11.016-4.592a11.862,11.862,0,0,0,1.034-1.671,12.341,12.341,0,0,1-5.2-3.089c-1.59-1.464-2.72-1.58-4.662-.628-.284.139-.579.255-.942.414-.176-4.462.558-8.428,4.854-11-3.057-1.175-4.979.471-6.95,2.188-1.3-4.049-.483-7.724,1.531-11.334-5,.111-8.479,1.89-9.378,6.768l-4.424-1.2a5.162,5.162,0,0,1,.35-.8,5.143,5.143,0,0,0-.126-5.855c-.978-1.542-2.227-2.912-3.435-4.459a6.656,6.656,0,0,0-2.115,4.185c-.039.908,0,1.819-.012,2.729a2.073,2.073,0,0,1-1.046,2.014,1.777,1.777,0,0,1-2.22-.287,44.623,44.623,0,0,1-2.936-3.6c-.552-.734-.979-1.563-1.5-2.416a8.12,8.12,0,0,0,1.042,8.863l-2.836,1.719a10.452,10.452,0,0,0-4.648-4.351c-2.008-.823-3.99-1.432-5.96-.415.432.944.835,1.78,1.2,2.631.856,1.992,1.694,3.992,2.54,5.988Z" transform="translate(-2520.24 -3082.804)" fill="#eb6012"/>
      <path id="Контур_3349" data-name="Контур 3349" d="M2535.869,3103.439c-.846-2-1.684-4-2.54-5.988-.365-.852-.769-1.687-1.2-2.631,1.97-1.017,3.952-.408,5.96.415a10.446,10.446,0,0,1,4.648,4.351l2.836-1.719a8.119,8.119,0,0,1-1.042-8.863c.524.852.951,1.681,1.5,2.416a44.446,44.446,0,0,0,2.936,3.6,1.776,1.776,0,0,0,2.22.287,2.071,2.071,0,0,0,1.046-2.013c.008-.91-.027-1.82.012-2.728a6.649,6.649,0,0,1,2.115-4.185c1.208,1.547,2.457,2.917,3.435,4.458a5.143,5.143,0,0,1,.126,5.855,5.106,5.106,0,0,0-.35.8l4.424,1.2c.9-4.878,4.377-6.657,9.378-6.768-2.014,3.61-2.834,7.285-1.531,11.334,1.97-1.717,3.892-3.364,6.949-2.189-4.3,2.577-5.03,6.542-4.854,11,.362-.158.657-.275.942-.414,1.941-.952,3.072-.835,4.662.629a12.331,12.331,0,0,0,5.2,3.088,11.784,11.784,0,0,1-1.034,1.671c-2.923,3.306-6.38,5.356-11.016,4.593a5.622,5.622,0,0,0-1.46.247,8.6,8.6,0,0,0,1,1.008c3.1,2.121,4.134,5.18,4.054,8.77-.021.91-.622.86-1.212.785a7.383,7.383,0,0,1-5.393-2.907,2.312,2.312,0,0,0-.368-.283,30.372,30.372,0,0,1-.038,4.192,19.268,19.268,0,0,1-1.234,4.9,13.91,13.91,0,0,1-2.4,2.964l-.352-.188c-.1-.759-.158-1.528-.309-2.277a4.133,4.133,0,0,0-2.7-3.284,4.065,4.065,0,0,1-1.6-1.244c-.806-1.012-1.486-2.125-2.189-3.154l5.187-2.511c-.66-.413-1.4-.626-1.65-1.1a3.241,3.241,0,0,1-.068-1.913,26.672,26.672,0,0,1,.719-2.616c-1.388,1.327-2.718,2.714-4.178,3.947a11.019,11.019,0,0,1-3.1,1.946c-1.758.663-3.051-.392-3.141-2.274-.161-3.375,1.2-6.224,3.053-8.895,1.565-2.259,3.481-4.175,6.266-4.743a18.75,18.75,0,0,1,3.862.073,7.109,7.109,0,0,0,1.29-.157c.6-.1,1.3-.483,1.777-.289.859.352.729,1.307.5,2.021-.64,2-1.378,3.974-2.081,5.957-.521,1.471-1.054,2.938-1.568,4.412a10.744,10.744,0,0,0-.241,1.052,3.1,3.1,0,0,0,2.614-1.432,10.57,10.57,0,0,0,2.366-5.419,17.018,17.018,0,0,0-1.453-11.232,16.248,16.248,0,0,0-26.283-3.677,16.187,16.187,0,0,0-2.776,17.836c.112.223.249.432.5.863.175-.541.292-.894.4-1.249a58.5,58.5,0,0,1,4.908-11.964,7.693,7.693,0,0,1,1.564-1.927c.719-.628,1.541-.353,1.571.574a12.707,12.707,0,0,1-.432,3.7,39.137,39.137,0,0,1-1.624,4.116,5,5,0,0,0,1.188-.012,10.655,10.655,0,0,0,7.749-7.542c.682-2.325-.506-3.726-2.917-3.787-2.338-.06-4.387.859-6.462,1.735a10.627,10.627,0,0,1-1.735.621c-.966.221-1.5-.409-1.105-1.329a2.591,2.591,0,0,1,.856-1.1c2.806-1.9,5.758-3.364,9.3-3.2a6.084,6.084,0,0,1,5.722,5.768c.089,4.178-2.222,7-5.314,9.346a16.382,16.382,0,0,1-7.84,3.015,1.384,1.384,0,0,0-.938.765c-.552,1.649-1.048,3.321-1.455,5.012a1.687,1.687,0,0,0,.345,1.4c1.39,1.252,2.875,2.4,4.35,3.6-2.375,3.072-1.653,6.7-1.189,10.43a6.733,6.733,0,0,1-3.842-4.169,26.312,26.312,0,0,1-.918-5.311c-.08-.839-.32-1.225-1.107-1.424-2.1-.531-4.155-.836-6.171.98.315-2.222,1.667-3.584,2.721-5.26-1.081-.117-2.032-.246-2.987-.315a3.252,3.252,0,0,1-2.629-1.324c-1.285-1.863-3.206-1.863-5.147-1.84-.242,0-.484.037-.8.061a3.847,3.847,0,0,1,2.378-3.111,43.643,43.643,0,0,1,5.991-2.251c1.088-.317.986-.946.967-1.706-.023-.906-.6-1.067-1.339-.991a7.645,7.645,0,0,1-5.641-1.533,15.008,15.008,0,0,1-1.721-1.913c1.6.084,2.86.172,4.118.208a21.759,21.759,0,0,0,2.8-.051,3.374,3.374,0,0,0,1.094-.578c-.256-.359-.435-.851-.782-1.055-1.594-.942-3.254-1.769-4.851-2.7a5.7,5.7,0,0,1-2.756-3.507,2.123,2.123,0,0,1-.084-.424c-.005-.1.042-.2.013-.077,2.057.175,4.051.377,6.049.5,1.83.115,3.665.15,5.5.22l.076.06Zm26.706,12.61a3.056,3.056,0,0,0-3.416.258,14.89,14.89,0,0,0-5.51,7.517,5.367,5.367,0,0,0-.085,1.523,5.608,5.608,0,0,0,1.419-.608A41.051,41.051,0,0,0,2562.575,3116.049Zm.56,13.485a12.262,12.262,0,0,0,.594,6.127,7.943,7.943,0,0,0,1.168,1.276C2566.537,3134.751,2565.541,3131.038,2563.135,3129.534Zm2.09-27.862c.874-1.618,1.615-2.939,2.3-4.288a1.245,1.245,0,0,0-.44-1.8c-.755-.458-1.327.025-1.822.5a1.993,1.993,0,0,0-.494.957A7.74,7.74,0,0,0,2565.225,3101.672Zm-31.264,19.636-1.763.937c.559.5,1.04,1.218,1.691,1.439,1.1.371,2.344-.219,2.41-.869S2535.29,3121.534,2533.961,3121.308Z" transform="translate(-2520.594 -3083.127)" fill="#ffbe00"/>
      <path id="Контур_3350" data-name="Контур 3350" d="M2565.5,3118.957a41.032,41.032,0,0,1-7.592,8.689,5.612,5.612,0,0,1-1.419.609,5.367,5.367,0,0,1,.085-1.523,14.893,14.893,0,0,1,5.509-7.517A3.056,3.056,0,0,1,2565.5,3118.957Z" transform="translate(-2523.515 -3086.035)" fill="#eb5f11"/>
      <path id="Контур_3351" data-name="Контур 3351" d="M2566.993,3133.822c2.406,1.5,3.4,5.217,1.762,7.4a7.947,7.947,0,0,1-1.168-1.276A12.265,12.265,0,0,1,2566.993,3133.822Z" transform="translate(-2524.452 -3087.415)" fill="#eb6110"/>
      <path id="Контур_3352" data-name="Контур 3352" d="M2569.243,3102.569a7.742,7.742,0,0,1-.454-4.63,1.993,1.993,0,0,1,.494-.957c.495-.475,1.067-.958,1.822-.5a1.245,1.245,0,0,1,.44,1.8C2570.858,3099.63,2570.117,3100.951,2569.243,3102.569Z" transform="translate(-2524.612 -3084.024)" fill="#eb6010"/>
      <path id="Контур_3353" data-name="Контур 3353" d="M2534.761,3124.779c1.329.226,2.4.848,2.338,1.507s-1.313,1.24-2.41.869c-.651-.221-1.133-.943-1.691-1.439Z" transform="translate(-2521.393 -3086.598)" fill="#eb5f11"/>
      <path id="Контур_3354" data-name="Контур 3354" d="M2537.033,3105.134l.087.048-.075-.06Z" transform="translate(-2521.758 -3084.821)" fill="#eb6012"/>
    </g>
  </g>
  <g id="Сгруппировать_267" data-name="Сгруппировать 267" transform="translate(-2555.551 -3024.194)">
    <g id="Сгруппировать_268-2" data-name="Сгруппировать 268" transform="translate(2582.553 3102.353)">
      <path id="Контур_3343-2" data-name="Контур 3343" d="M2612.643,3110.744c.2-.3.353-.521.5-.74a171.842,171.842,0,0,1,11.169-15.612,51.741,51.741,0,0,1,4.01-4.1,4.524,4.524,0,0,1,1.514-.862c1.1-.42,1.973-.009,2.106,1.143a8.2,8.2,0,0,1-.152,3.261c-2.1,6.862-3.824,13.848-6.495,20.526a15.224,15.224,0,0,1-1.665,2.838,3.315,3.315,0,0,1-1.138.931,1.357,1.357,0,0,1-2.167-.954,7.564,7.564,0,0,1,.194-3.609,114.764,114.764,0,0,1,4.757-14.911,24.548,24.548,0,0,0,1.043-3.438c-.477.611-.984,1.2-1.425,1.837-2.784,4.021-5.545,8.058-8.333,12.076-.847,1.222-1.7,2.445-2.648,3.591a9.955,9.955,0,0,1-2.1,1.974c-1.4.93-2.734.43-3.379-1.134a8.717,8.717,0,0,1-.229-4.4c.413-3.806.823-7.612,1.247-11.526-.157.292-.274.5-.382.714q-4.656,9.189-9.313,18.377a15.788,15.788,0,0,1-.967,1.624,4.967,4.967,0,0,1-.757.86,2.19,2.19,0,0,1-2.517.627,2.041,2.041,0,0,1-.889-2.366,15.3,15.3,0,0,1,.865-2.762,108.865,108.865,0,0,1,10.542-19.6,26.29,26.29,0,0,1,2.931-3.44,6.282,6.282,0,0,1,3.005-1.745,2.661,2.661,0,0,1,3.519,2.03,8.772,8.772,0,0,1-.09,4.15q-1.385,7.163-2.769,14.327A1.923,1.923,0,0,0,2612.643,3110.744Z" transform="translate(-2594.553 -3089.268)" fill="#8d98a7"/>
      <path id="Контур_3344-2" data-name="Контур 3344" d="M2674.138,3115.8c-.661.826-1.264,1.707-2,2.461a8.156,8.156,0,0,1-2.147,1.695,2.109,2.109,0,0,1-3.208-1.975,18.51,18.51,0,0,1,.579-3.431,2.22,2.22,0,0,0,.1-.884c-.169.2-.34.392-.505.591a25.4,25.4,0,0,1-4.9,4.836,10.364,10.364,0,0,1-2.682,1.379,2.629,2.629,0,0,1-3.6-2.364,11.375,11.375,0,0,1,.93-5.739,16.708,16.708,0,0,1,5.479-7.566,8.477,8.477,0,0,1,6.132-1.816,6.783,6.783,0,0,1,1.893.679.615.615,0,0,0,.812-.158,3.742,3.742,0,0,1,1.154-.789,1.077,1.077,0,0,1,1.586.982,5.785,5.785,0,0,1-.238,1.922c-.93,3.058-1.913,6.1-2.868,9.15a12.9,12.9,0,0,0-.355,1.441,4.085,4.085,0,0,0-.008.756l.189.092a8.154,8.154,0,0,0,.886-.65,19.156,19.156,0,0,0,5.094-7.384,32.135,32.135,0,0,1,2.156-4.423,5.64,5.64,0,0,1,1.311-1.524c.646-.549,1.348-.284,1.4.56a7.542,7.542,0,0,1-.223,2.729c-1.036,3.164-2.2,6.287-3.311,9.425-.238.672-.471,1.346-.707,2.02l.175.1c.136-.205.29-.4.406-.616,1.278-2.381,2.491-4.8,3.841-7.138,1.021-1.77,2.16-3.479,3.35-5.141a6.728,6.728,0,0,1,2.926-2.34,2.884,2.884,0,0,1,4.027,1.579,6.879,6.879,0,0,1,.2,4.963,17.6,17.6,0,0,1-5.775,8.87,7.185,7.185,0,0,1-3.291,1.487,1.126,1.126,0,0,1-.467.045c-.389-.107-.9-.159-1.1-.429-.132-.182.117-.753.334-1.048a9.072,9.072,0,0,1,1.145-1.142,19.9,19.9,0,0,0,5.878-10.278,8.919,8.919,0,0,0,.087-1.207,5.439,5.439,0,0,0-1.28.687,22.384,22.384,0,0,0-2.337,2.609,84.556,84.556,0,0,0-6.255,10.889c-.69,1.341-1.308,2.726-2.082,4.016a9.776,9.776,0,0,1-1.9,2.338c-1.127.982-2.242.562-2.4-.917a10.867,10.867,0,0,1,.211-3.27c.413-2,.977-3.978,1.478-5.964.009-.077.02-.153.03-.23Zm-4.786-9.316a2.354,2.354,0,0,0-2.216-.29,8.859,8.859,0,0,0-2.443,1.376,18.045,18.045,0,0,0-5.429,8.627,2.772,2.772,0,0,0-.106.6c-.041.523.221.686.656.437a9.336,9.336,0,0,0,1.446-.986,44.773,44.773,0,0,0,7.905-9.373A3.389,3.389,0,0,0,2669.352,3106.48Z" transform="translate(-2621.213 -3094.981)" fill="#8d98a7"/>
      <path id="Контур_3345-2" data-name="Контур 3345" d="M2784.072,3106.234a11.726,11.726,0,0,0,7.657-4.522,9.051,9.051,0,0,0,2.193-5.07,3.294,3.294,0,0,0-3.461-3.827,15.621,15.621,0,0,0-6.59,1.55c-.915.377-1.8.823-2.73,1.169a4.392,4.392,0,0,1-1.45.256c-.874.012-1.248-.6-.8-1.353a4.395,4.395,0,0,1,1.181-1.368c3.2-2.223,6.663-3.8,10.65-3.773,4.777.035,7.651,3.8,6.987,8.259-.927,6.222-4.92,9.812-10.713,11.608a20.274,20.274,0,0,1-3.652.639.863.863,0,0,0-.845.683c-.54,1.671-1.044,3.355-1.656,5a9.487,9.487,0,0,1-1.218,2.161,1.479,1.479,0,0,1-2.772-.9,15,15,0,0,1,.291-3.214,70.738,70.738,0,0,1,4.434-13.449,27.883,27.883,0,0,1,1.775-3.02,2.183,2.183,0,0,1,.518-.532c.461-.363.938-.775,1.582-.491a1.448,1.448,0,0,1,.834,1.506,16,16,0,0,1-.453,3.048c-.455,1.671-1.046,3.3-1.577,4.955C2784.2,3105.736,2784.154,3105.928,2784.072,3106.234Z" transform="translate(-2674.034 -3089.28)" fill="#8d98a7"/>
      <path id="Контур_3346-2" data-name="Контур 3346" d="M2819.8,3113.628c-1.015,1.115-1.972,2.289-3.058,3.329a33.072,33.072,0,0,1-3.614,3.031,3.091,3.091,0,0,1-3.55.425c-1.222-.74-1.37-2.028-1.3-3.288a16.634,16.634,0,0,1,3.37-8.706,12.483,12.483,0,0,1,5.38-4.6c2-.82,4.031-1.177,6.042,0,.34.2.539.108.8-.169.766-.817,1.554-1.073,2.137-.765s.859,1.157.531,2.263c-.671,2.265-1.436,4.5-2.135,6.759-.659,2.128-1.279,4.269-1.926,6.4a8.191,8.191,0,0,1-.472,1.263c-.271.55-.6,1.147-1.3,1.133-.729-.015-1.059-.629-1.31-1.217a4.761,4.761,0,0,1-.223-3.175c.238-.885.5-1.764.754-2.646Zm2.468-6.842-.107-.243a8.081,8.081,0,0,0-1.218-.282,4.124,4.124,0,0,0-2.865,1.02,18.506,18.506,0,0,0-6.267,9.4,2.655,2.655,0,0,0,.048.908,5.382,5.382,0,0,0,.874-.22,3.144,3.144,0,0,0,.666-.458,36.343,36.343,0,0,0,5.688-5.948C2820.186,3109.6,2821.213,3108.182,2822.271,3106.786Z" transform="translate(-2687.731 -3095.153)" fill="#8d98a7"/>
      <path id="Контур_3347-2" data-name="Контур 3347" d="M2730.667,3109.613c-.266.3-.552.584-.8.9a65.744,65.744,0,0,1-7.42,8.322,10.464,10.464,0,0,1-1.827,1.383c-1.37.789-2.446.271-2.448-1.291a14.174,14.174,0,0,1,.568-3.919c.746-2.57,1.717-5.073,2.483-7.637a38.589,38.589,0,0,0,.759-3.971c1.2-.442,2.655.616,2.866,2.247a8.917,8.917,0,0,1-.642,4.3c-.6,1.6-1.251,3.184-1.853,4.784-.187.5-.285,1.028-.424,1.544l.169.111a17.877,17.877,0,0,0,1.467-1.443c2.006-2.466,3.971-4.964,5.969-7.437.736-.911,1.479-1.824,2.3-2.657a4.311,4.311,0,0,1,1.518-.954,1.3,1.3,0,0,1,1.886,1.181,5.377,5.377,0,0,1-.212,1.923c-1.137,3.794-2.32,7.574-3.492,11.358a10.629,10.629,0,0,1-.5,1.465c-.338.708-.853.813-1.482.333a2.994,2.994,0,0,1-1.266-2.942,22.859,22.859,0,0,1,1.768-5.793c.242-.59.4-1.214.6-1.823h.094l-.005-.06Z" transform="translate(-2648.452 -3095.385)" fill="#8d98a7"/>
      <path id="Контур_3348-2" data-name="Контур 3348" d="M2758.348,3111.269a2.968,2.968,0,0,0-1.909,1.377c-.827,1.315-1.646,2.637-2.534,3.912a10.566,10.566,0,0,1-3.394,3.247,5.179,5.179,0,0,1-3.495.755,2.48,2.48,0,0,1-2.148-2.128,4.356,4.356,0,0,1,.947-3.61,2.6,2.6,0,0,1,2.787-.912.922.922,0,0,1,.779,1.3c-.16.562-.4,1.1-.574,1.657a3.648,3.648,0,0,0-.171.99c-.007.411.238.573.629.415a2.707,2.707,0,0,0,.649-.354,15.767,15.767,0,0,0,3.8-4.355,1.947,1.947,0,0,0,.123-.36c-.541-.032-1.029-.05-1.517-.089-2.782-.221-4.28-2.534-3.183-5.095a7.808,7.808,0,0,1,6.506-5.132c1.914-.226,3.158.809,3.089,2.731a20.683,20.683,0,0,1-.665,3.5,11.776,11.776,0,0,1-.4,1.178c.572-.277,1.016-.5,1.47-.708.68-.3,1.4-.691,2.1-.164a1.926,1.926,0,0,1,.57,2.165c-.535,1.927-1.161,3.829-1.792,5.727a13.3,13.3,0,0,1-.945,2.223c-.325.59-.8,1.176-1.588,1.045-.8-.133-1.073-.838-1.262-1.522a4.656,4.656,0,0,1,.236-3.1C2757.089,3114.439,2757.687,3112.913,2758.348,3111.269Zm-1.788-4.578c-.008-.089-.02-.291-.046-.49-.117-.875-.293-1.007-1.078-.624a5.184,5.184,0,0,0-2.967,4.07,1.366,1.366,0,0,0,.993,1.563,1.5,1.5,0,0,0,1.825-.611A8.428,8.428,0,0,0,2756.56,3106.691Z" transform="translate(-2660.059 -3095.192)" fill="#8d98a7"/>
    </g>
    <g id="Сгруппировать_269-2" data-name="Сгруппировать 269" transform="translate(2620.93 3035.194)">
      <path id="Контур_3342-2" data-name="Контур 3342" d="M2520.24,3123.634c.057-.04.149-.067.166-.119a12.858,12.858,0,0,1,6.837-8.271c-1.589-1.034-3.543-1.571-4.164-3.556a17.3,17.3,0,0,1-.4-2.547h4.536l.184-.215c-4.236-1.913-5.809-5.292-5.612-9.877,2.924.977,5.778,1.927,8.907,1.674-.157-3.165-2.329-5.5-3.473-8.528,4.851-.993,9.446-1.1,14.067.767a14.514,14.514,0,0,1,2.458-7.647c.551.568,1.053,1.012,1.465,1.526.658.822,1.188,1.756,1.9,2.517a11.118,11.118,0,0,0,1.916,1.333c.909-3.294,2.211-6.014,4.671-7.886,1.822,1.8,3.547,3.438,5.2,5.152a11.107,11.107,0,0,1,2.529,5.606c1.837-1.72,3.465-3.651,5.992-3.838,2.335-.172,4.693-.036,7.124-.036-1.286,2.846-3.633,5.392-2.6,9.052,2.675-1.35,5.054-.4,7.448.91-1.745,2.842-4.34,5.065-5.708,8.252.374.1.547.208.7.184a4.274,4.274,0,0,1,4.112,1.73,11.563,11.563,0,0,0,6.944,3.916c-2.293,5.473-6.056,8.858-12.044,9.764,2.547,3.3,2.861,6.885,1.665,10.8a14.282,14.282,0,0,1-6.314-1.91c-.165,1.465-.246,2.877-.492,4.259-.653,3.673-3.253,5.692-6.353,7.236-.545.272-.939.038-.944-.6s.068-1.306.085-1.959a4.486,4.486,0,0,0-2.013-4.116,12.184,12.184,0,0,1-4.615-4.939c-.688-1.452-2.224-1.651-3.712-1.43a4,4,0,0,0-3.584,2.763,21.026,21.026,0,0,0-.585,8c.044.574.1,1.147.171,1.882-.513-.128-.923-.2-1.313-.332a10.412,10.412,0,0,1-7.6-10.172,1.223,1.223,0,0,0-1.12-1.395,3.432,3.432,0,0,0-3.694,1.519c-.626.838-1.145,1.755-1.8,2.765-1.488-2.986-.279-5.677.57-8.519-2.194-.009-3.764-1.255-5.423-2.357a4.994,4.994,0,0,0-5.084-.421c-.328.147-.673.253-1.01.378Zm15.287-20.528c-1.833-.07-3.667-.1-5.5-.221-2-.127-3.992-.33-6.049-.5.029-.126-.018-.022-.013.078a2.065,2.065,0,0,0,.084.424,5.7,5.7,0,0,0,2.756,3.507c1.6.935,3.257,1.762,4.851,2.7.347.2.525.7.782,1.055-.363.2-.713.54-1.094.578a21.937,21.937,0,0,1-2.8.051c-1.258-.037-2.514-.125-4.118-.208a15.013,15.013,0,0,0,1.721,1.913,7.646,7.646,0,0,0,5.641,1.532c.742-.075,1.316.086,1.339.991.019.76.122,1.39-.967,1.706a43.574,43.574,0,0,0-5.991,2.251,3.847,3.847,0,0,0-2.378,3.111c.316-.024.558-.059.8-.061,1.941-.024,3.862-.024,5.146,1.84a3.256,3.256,0,0,0,2.63,1.324c.954.068,1.905.2,2.986.314-1.054,1.675-2.406,3.038-2.72,5.26,2.016-1.816,4.07-1.511,6.171-.98.787.2,1.027.584,1.107,1.423a26.305,26.305,0,0,0,.918,5.312,6.731,6.731,0,0,0,3.842,4.169c-.463-3.731-1.186-7.358,1.189-10.43-1.474-1.2-2.96-2.35-4.35-3.6a1.687,1.687,0,0,1-.345-1.4c.407-1.691.9-3.363,1.455-5.011a1.384,1.384,0,0,1,.938-.765,16.377,16.377,0,0,0,7.84-3.015c3.092-2.349,5.4-5.168,5.314-9.346a6.084,6.084,0,0,0-5.722-5.769c-3.54-.16-6.492,1.3-9.3,3.2a2.584,2.584,0,0,0-.856,1.1c-.39.919.139,1.549,1.105,1.329a10.616,10.616,0,0,0,1.735-.621c2.075-.876,4.124-1.8,6.462-1.735,2.411.062,3.6,1.462,2.917,3.788a10.654,10.654,0,0,1-7.749,7.541,4.969,4.969,0,0,1-1.188.012,39.065,39.065,0,0,0,1.624-4.116,12.7,12.7,0,0,0,.432-3.7c-.03-.927-.851-1.2-1.571-.574a7.693,7.693,0,0,0-1.564,1.927,58.481,58.481,0,0,0-4.908,11.965c-.111.354-.228.708-.4,1.249-.25-.432-.387-.641-.5-.863A16.188,16.188,0,0,1,2540.01,3104a16.249,16.249,0,0,1,26.283,3.676,17.021,17.021,0,0,1,1.453,11.233,10.569,10.569,0,0,1-2.366,5.418,3.1,3.1,0,0,1-2.614,1.433,10.725,10.725,0,0,1,.241-1.052c.514-1.474,1.047-2.941,1.568-4.412.7-1.983,1.442-3.954,2.081-5.957.227-.714.357-1.669-.5-2.021-.473-.194-1.175.187-1.777.289a7.152,7.152,0,0,1-1.29.157,18.715,18.715,0,0,0-3.862-.072c-2.785.567-4.7,2.483-6.266,4.743-1.85,2.671-3.214,5.52-3.053,8.894.09,1.882,1.383,2.937,3.141,2.274a11.015,11.015,0,0,0,3.1-1.946c1.461-1.233,2.791-2.621,4.179-3.947a26.634,26.634,0,0,0-.719,2.616,3.241,3.241,0,0,0,.068,1.913c.247.473.99.686,1.65,1.1l-5.187,2.512c.7,1.029,1.383,2.142,2.189,3.153a4.063,4.063,0,0,0,1.6,1.245,4.134,4.134,0,0,1,2.7,3.284c.151.75.209,1.518.309,2.277l.352.188a13.91,13.91,0,0,0,2.4-2.964,19.275,19.275,0,0,0,1.234-4.9,30.374,30.374,0,0,0,.038-4.192,2.253,2.253,0,0,1,.368.283,7.383,7.383,0,0,0,5.393,2.907c.59.076,1.191.125,1.212-.785.081-3.59-.957-6.648-4.054-8.769a8.614,8.614,0,0,1-1-1.008,5.621,5.621,0,0,1,1.46-.247c4.637.764,8.094-1.287,11.016-4.592a11.862,11.862,0,0,0,1.034-1.671,12.341,12.341,0,0,1-5.2-3.089c-1.59-1.464-2.72-1.58-4.662-.628-.284.139-.579.255-.942.414-.176-4.462.558-8.428,4.854-11-3.057-1.175-4.979.471-6.95,2.188-1.3-4.049-.483-7.724,1.531-11.334-5,.111-8.479,1.89-9.378,6.768l-4.424-1.2a5.162,5.162,0,0,1,.35-.8,5.143,5.143,0,0,0-.126-5.855c-.978-1.542-2.227-2.912-3.435-4.459a6.656,6.656,0,0,0-2.115,4.185c-.039.908,0,1.819-.012,2.729a2.073,2.073,0,0,1-1.046,2.014,1.777,1.777,0,0,1-2.22-.287,44.623,44.623,0,0,1-2.936-3.6c-.552-.734-.979-1.563-1.5-2.416a8.12,8.12,0,0,0,1.042,8.863l-2.836,1.719a10.452,10.452,0,0,0-4.648-4.351c-2.008-.823-3.99-1.432-5.96-.415.432.944.835,1.78,1.2,2.631.856,1.992,1.694,3.992,2.54,5.988Z" transform="translate(-2520.24 -3082.804)" fill="#8d98a7"/>
      <path id="Контур_3349-2" data-name="Контур 3349" d="M2535.869,3103.439c-.846-2-1.684-4-2.54-5.988-.365-.852-.769-1.687-1.2-2.631,1.97-1.017,3.952-.408,5.96.415a10.446,10.446,0,0,1,4.648,4.351l2.836-1.719a8.119,8.119,0,0,1-1.042-8.863c.524.852.951,1.681,1.5,2.416a44.446,44.446,0,0,0,2.936,3.6,1.776,1.776,0,0,0,2.22.287,2.071,2.071,0,0,0,1.046-2.013c.008-.91-.027-1.82.012-2.728a6.649,6.649,0,0,1,2.115-4.185c1.208,1.547,2.457,2.917,3.435,4.458a5.143,5.143,0,0,1,.126,5.855,5.106,5.106,0,0,0-.35.8l4.424,1.2c.9-4.878,4.377-6.657,9.378-6.768-2.014,3.61-2.834,7.285-1.531,11.334,1.97-1.717,3.892-3.364,6.949-2.189-4.3,2.577-5.03,6.542-4.854,11,.362-.158.657-.275.942-.414,1.941-.952,3.072-.835,4.662.629a12.331,12.331,0,0,0,5.2,3.088,11.784,11.784,0,0,1-1.034,1.671c-2.923,3.306-6.38,5.356-11.016,4.593a5.622,5.622,0,0,0-1.46.247,8.6,8.6,0,0,0,1,1.008c3.1,2.121,4.134,5.18,4.054,8.77-.021.91-.622.86-1.212.785a7.383,7.383,0,0,1-5.393-2.907,2.312,2.312,0,0,0-.368-.283,30.372,30.372,0,0,1-.038,4.192,19.268,19.268,0,0,1-1.234,4.9,13.91,13.91,0,0,1-2.4,2.964l-.352-.188c-.1-.759-.158-1.528-.309-2.277a4.133,4.133,0,0,0-2.7-3.284,4.065,4.065,0,0,1-1.6-1.244c-.806-1.012-1.486-2.125-2.189-3.154l5.187-2.511c-.66-.413-1.4-.626-1.65-1.1a3.241,3.241,0,0,1-.068-1.913,26.672,26.672,0,0,1,.719-2.616c-1.388,1.327-2.718,2.714-4.178,3.947a11.019,11.019,0,0,1-3.1,1.946c-1.758.663-3.051-.392-3.141-2.274-.161-3.375,1.2-6.224,3.053-8.895,1.565-2.259,3.481-4.175,6.266-4.743a18.75,18.75,0,0,1,3.862.073,7.109,7.109,0,0,0,1.29-.157c.6-.1,1.3-.483,1.777-.289.859.352.729,1.307.5,2.021-.64,2-1.378,3.974-2.081,5.957-.521,1.471-1.054,2.938-1.568,4.412a10.744,10.744,0,0,0-.241,1.052,3.1,3.1,0,0,0,2.614-1.432,10.57,10.57,0,0,0,2.366-5.419,17.018,17.018,0,0,0-1.453-11.232,16.248,16.248,0,0,0-26.283-3.677,16.187,16.187,0,0,0-2.776,17.836c.112.223.249.432.5.863.175-.541.292-.894.4-1.249a58.5,58.5,0,0,1,4.908-11.964,7.693,7.693,0,0,1,1.564-1.927c.719-.628,1.541-.353,1.571.574a12.707,12.707,0,0,1-.432,3.7,39.137,39.137,0,0,1-1.624,4.116,5,5,0,0,0,1.188-.012,10.655,10.655,0,0,0,7.749-7.542c.682-2.325-.506-3.726-2.917-3.787-2.338-.06-4.387.859-6.462,1.735a10.627,10.627,0,0,1-1.735.621c-.966.221-1.5-.409-1.105-1.329a2.591,2.591,0,0,1,.856-1.1c2.806-1.9,5.758-3.364,9.3-3.2a6.084,6.084,0,0,1,5.722,5.768c.089,4.178-2.222,7-5.314,9.346a16.382,16.382,0,0,1-7.84,3.015,1.384,1.384,0,0,0-.938.765c-.552,1.649-1.048,3.321-1.455,5.012a1.687,1.687,0,0,0,.345,1.4c1.39,1.252,2.875,2.4,4.35,3.6-2.375,3.072-1.653,6.7-1.189,10.43a6.733,6.733,0,0,1-3.842-4.169,26.312,26.312,0,0,1-.918-5.311c-.08-.839-.32-1.225-1.107-1.424-2.1-.531-4.155-.836-6.171.98.315-2.222,1.667-3.584,2.721-5.26-1.081-.117-2.032-.246-2.987-.315a3.252,3.252,0,0,1-2.629-1.324c-1.285-1.863-3.206-1.863-5.147-1.84-.242,0-.484.037-.8.061a3.847,3.847,0,0,1,2.378-3.111,43.643,43.643,0,0,1,5.991-2.251c1.088-.317.986-.946.967-1.706-.023-.906-.6-1.067-1.339-.991a7.645,7.645,0,0,1-5.641-1.533,15.008,15.008,0,0,1-1.721-1.913c1.6.084,2.86.172,4.118.208a21.759,21.759,0,0,0,2.8-.051,3.374,3.374,0,0,0,1.094-.578c-.256-.359-.435-.851-.782-1.055-1.594-.942-3.254-1.769-4.851-2.7a5.7,5.7,0,0,1-2.756-3.507,2.123,2.123,0,0,1-.084-.424c-.005-.1.042-.2.013-.077,2.057.175,4.051.377,6.049.5,1.83.115,3.665.15,5.5.22l.076.06Zm26.706,12.61a3.056,3.056,0,0,0-3.416.258,14.89,14.89,0,0,0-5.51,7.517,5.367,5.367,0,0,0-.085,1.523,5.608,5.608,0,0,0,1.419-.608A41.051,41.051,0,0,0,2562.575,3116.049Zm.56,13.485a12.262,12.262,0,0,0,.594,6.127,7.943,7.943,0,0,0,1.168,1.276C2566.537,3134.751,2565.541,3131.038,2563.135,3129.534Zm2.09-27.862c.874-1.618,1.615-2.939,2.3-4.288a1.245,1.245,0,0,0-.44-1.8c-.755-.458-1.327.025-1.822.5a1.993,1.993,0,0,0-.494.957A7.74,7.74,0,0,0,2565.225,3101.672Zm-31.264,19.636-1.763.937c.559.5,1.04,1.218,1.691,1.439,1.1.371,2.344-.219,2.41-.869S2535.29,3121.534,2533.961,3121.308Z" transform="translate(-2520.594 -3083.127)" fill="#f4f5f7"/>
      <path id="Контур_3350-2" data-name="Контур 3350" d="M2565.5,3118.957a41.032,41.032,0,0,1-7.592,8.689,5.612,5.612,0,0,1-1.419.609,5.367,5.367,0,0,1,.085-1.523,14.893,14.893,0,0,1,5.509-7.517A3.056,3.056,0,0,1,2565.5,3118.957Z" transform="translate(-2523.515 -3086.035)" fill="#8d98a7"/>
      <path id="Контур_3351-2" data-name="Контур 3351" d="M2566.993,3133.822c2.406,1.5,3.4,5.217,1.762,7.4a7.947,7.947,0,0,1-1.168-1.276A12.265,12.265,0,0,1,2566.993,3133.822Z" transform="translate(-2524.452 -3087.415)" fill="#8d98a7"/>
      <path id="Контур_3352-2" data-name="Контур 3352" d="M2569.243,3102.569a7.742,7.742,0,0,1-.454-4.63,1.993,1.993,0,0,1,.494-.957c.495-.475,1.067-.958,1.822-.5a1.245,1.245,0,0,1,.44,1.8C2570.858,3099.63,2570.117,3100.951,2569.243,3102.569Z" transform="translate(-2524.612 -3084.024)" fill="#8d98a7"/>
      <path id="Контур_3353-2" data-name="Контур 3353" d="M2534.761,3124.779c1.329.226,2.4.848,2.338,1.507s-1.313,1.24-2.41.869c-.651-.221-1.133-.943-1.691-1.439Z" transform="translate(-2521.393 -3086.598)" fill="#8d98a7"/>
      <path id="Контур_3354-2" data-name="Контур 3354" d="M2537.033,3105.134l.087.048-.075-.06Z" transform="translate(-2521.758 -3084.821)" fill="#8d98a7"/>
    </g>
  </g>
</svg>
