<svg id="Компонент_289_2" data-name="Компонент 289 – 2" xmlns="http://www.w3.org/2000/svg" width="192" height="120" viewBox="0 0 192 120">
  <rect id="Прямоугольник_42" data-name="Прямоугольник 42" width="192" height="120" fill="#f4f5f7" opacity="0"/>
  <g id="Dalimo" transform="translate(-1577.932 -451)" opacity="0">
    <path id="Контур_4632" data-name="Контур 4632" d="M1651.494,486c.048.666.714.809,1.095,1.143,2.952,2.666,3.618,5.9,1.714,9.378a18.682,18.682,0,0,1-6.9,7c1.285-6.189,2.476-11.854,3.666-17.519Z" transform="translate(-24.347)" fill="#8d98a7"/>
    <path id="Контур_4633" data-name="Контур 4633" d="M1643.768,546.994a2.78,2.78,0,0,1-.857.19,2.142,2.142,0,0,1,0-4.285h.286c-.048-.048-.143-.1-.19-.19a7.5,7.5,0,0,0-5.332-1.714,35.009,35.009,0,0,0-22.232,8.141c-2.9,2.38-2.761,4.189-.143,6.95,5.855,6.189,17.8,7.046,24.469,1.714a13.475,13.475,0,0,0,5.189-11.045A4.8,4.8,0,0,0,1643.768,546.994Zm-17.995,5.427a4.133,4.133,0,0,1-4.665,1.095h0a1.3,1.3,0,0,1-.571-.428h-.048c-1.285-1.285-1-3.666.619-5.284l.143-.143h0c1.618-1.476,3.856-1.714,5.141-.476S1627.391,550.8,1625.773,552.421Zm12.473-4.475h0a2.562,2.562,0,0,1-1.047.19h-.762a2.632,2.632,0,0,1-1.381-.428h0a2.465,2.465,0,0,1-1.476-2.142c0-1.428,1.476-2.618,3.332-2.618s3.332,1.19,3.332,2.618A2.634,2.634,0,0,1,1638.245,547.947Z" transform="translate(-6.48 -28.813)" fill="#8d98a7"/>
    <path id="Контур_4634" data-name="Контур 4634" d="M1709.554,557.167c-1.428-.666-1.285-1.761-1.285-2.952v-10a2.284,2.284,0,0,0-2.618-2.618H1699.7c-1.857,0-2.761.809-2.809,2.714-.1,3.332-.333,6.617-.524,9.95-.047.714.048,1.571-.619,1.952-2.237,1.19-1.761,3.285-1.857,5.237-.048,1.238.1,2.237,1.714,2.237,1.571,0,1.857-1,1.714-2.237-.143-1.285.381-1.666,1.619-1.619q2.856.143,5.713,0c1.619-.1,2.618.143,2.285,2.095a1.264,1.264,0,0,0,1,1.619,2.018,2.018,0,0,0,2-.333C1710.506,562.594,1710.364,557.548,1709.554,557.167Zm-7.093-.524a18.36,18.36,0,0,0-2.856-.048,55.468,55.468,0,0,0,.667-9.95c.1-2.19,1.523-1.666,2.809-1.809,1.714-.19,1.714.857,1.666,2.047-.048,2.476-.143,4.9,0,7.379C1704.889,556.072,1704.46,556.929,1702.461,556.643Z" transform="translate(-48.702 -29.131)" fill="#8d98a7"/>
    <path id="Контур_4635" data-name="Контур 4635" d="M1842.421,559.377c-2.571,1.19-3.285.762-3.285-1.952V544.143c0-.952-.428-2.19,1.047-2.523,1.428-.333,2.142.524,2.761,1.666,1.142,2.237,2.333,4.38,3.666,6.95,1.333-2.523,2.523-4.713,3.666-6.95.571-1.19,1.333-2,2.761-1.619,1.381.381,1.095,1.571,1.095,2.571V557.52c0,1.238.048,2.475-1.666,2.523-1.856.048-1.9-1.143-1.9-2.523a53.119,53.119,0,0,0-.333-7.712c-.714,1.381-1.381,2.809-2.142,4.189-.952,1.619-2,1.619-2.951,0-.667-1.143-1.238-2.38-1.809-3.57-1.19-.1-.667.809-.667,1.285C1842.469,554.236,1842.85,556.806,1842.421,559.377Z" transform="translate(-124.776 -29.104)" fill="#8d98a7"/>
    <path id="Контур_4636" data-name="Контур 4636" d="M1813.04,549.56c-1.714,2.952-3.427,5.856-5.094,8.807-.667,1.143-1.381,1.9-2.809,1.571-1.571-.381-1.19-1.666-1.19-2.714-.048-4.427,0-8.9-.048-13.33,0-1.333.143-2.38,1.857-2.333,1.619.048,1.714,1.047,1.714,2.285a64.529,64.529,0,0,0,.381,8.521c1.714-3,3.428-5.951,5.141-8.95.667-1.19,1.38-2.19,2.952-1.809,1.571.428,1.047,1.761,1.095,2.761.048,4.427,0,8.9.048,13.33,0,1.238-.1,2.285-1.666,2.285-1.619,0-1.9-.952-1.857-2.333.047-2.666,0-5.332,0-8A3.1,3.1,0,0,0,1813.04,549.56Z" transform="translate(-106.344 -29.093)" fill="#8d98a7"/>
    <path id="Контур_4637" data-name="Контур 4637" d="M1781.038,551.172c0,2.38-.047,4.761,0,7.141.048,1.238-.524,1.809-1.619,1.857-1.19.048-1.9-.476-1.9-1.857.048-3.9-.048-7.76.048-11.663.048-1.666-.714-1.809-2-1.761-1.238.048-2.333-.143-2.333,1.761,0,3.19-.19,6.332-.429,9.521-.19,2.714-1.571,4.047-3.808,3.9-.762-.048-1.428-.19-1.571-1.095-.143-.762-.143-1.571.761-1.761,1.285-.333,1.238-1.285,1.285-2.237.19-3.428.429-6.808.476-10.235.048-2.095.857-3.094,3-3.047,1.809.048,3.666,0,5.474,0,1.761,0,2.666.714,2.618,2.571C1780.991,546.554,1781.038,548.887,1781.038,551.172Z" transform="translate(-87.196 -29.182)" fill="#8d98a7"/>
    <path id="Контур_4638" data-name="Контур 4638" d="M1747.182,557.807c-1.714-4.951-3.332-9.9-4.951-14.853-.381-1.095-1-1.857-2.19-1.857-1.285-.048-1.952.762-2.333,1.952-1.619,4.9-3.285,9.759-4.856,14.615-.191.619-.714,1.523.238,1.857s2.047.524,2.856-.524a3.44,3.44,0,0,0,.571-1.285c.286-1.619.952-2.476,2.856-2.285,1.809.19,3.9-.524,4.237,2.333.143,1.19.809,2.047,2.142,1.9C1747.134,559.712,1747.658,559.283,1747.182,557.807Zm-6.046-5.57a2.926,2.926,0,0,1-2.285.048c-.952-.381-.19-1.19,0-1.809.286-.952.619-1.9,1.143-3.475.524,1.571.857,2.428,1.095,3.332C1741.231,551,1741.945,551.809,1741.136,552.237Z" transform="translate(-68.954 -28.867)" fill="#8d98a7"/>
    <path id="Контур_4639" data-name="Контур 4639" d="M1616.769,533.549c-3.427.809-6.712,1.428-10.14.619a8.514,8.514,0,0,1-5.189-3c-.428-.571-1.047-1.333.381-1.333C1607.058,529.741,1612.437,529.313,1616.769,533.549Z" transform="translate(0 -22.937)" fill="#8d98a7"/>
    <path id="Контур_4640" data-name="Контур 4640" d="M1660.17,556.057c.762,6.522-1.857,11.378-7.76,14-4.332,1.952-8.855,2.952-13.568,1.143a.411.411,0,0,1-.143-.286c.048-.1.048-.143.1-.143a39.144,39.144,0,0,0,7.093-.238c7.522-1.476,12.044-5.951,13.425-13.52C1659.742,556.723,1659.313,555.818,1660.17,556.057Z" transform="translate(-19.789 -36.685)" fill="#8d98a7"/>
    <path id="Контур_4641" data-name="Контур 4641" d="M1639.332,523.3c1.476,2.523,2.761,4.665,4,6.855.238.428.667.857-.143,1.333a4.509,4.509,0,0,1-5.951-1.095,1.993,1.993,0,0,1-.286-2.713A39.626,39.626,0,0,0,1639.332,523.3Z" transform="translate(-18.659 -19.543)" fill="#8d98a7"/>
    <path id="Контур_4642" data-name="Контур 4642" d="M1894.941,524.1c-2.476,3.57-3.047,4-7.141,5.094C1888.847,526.052,1890.99,524.481,1894.941,524.1Z" transform="translate(-150.303 -19.962)" fill="#8d98a7"/>
    <path id="Контур_4643" data-name="Контур 4643" d="M1652.319,529.5c-.143-2.142-2.856-2.856-1.523-4.951.286-.428,1-1.333,1.952-.571C1654.176,525.166,1654.128,526.927,1652.319,529.5Z" transform="translate(-25.934 -19.742)" fill="#8d98a7"/>
    <path id="Контур_4644" data-name="Контур 4644" d="M1632.631,541.525c.19-.524,0-1.428.952-1.333.714.048.857.857,1.143,1.38.428.809-.286.857-.809,1.047-.286.1-.476.381-.762.571C1632.2,542.858,1632.488,542.192,1632.631,541.525Z" transform="translate(-16.528 -28.39)" fill="#8d98a7"/>
    <path id="Контур_4645" data-name="Контур 4645" d="M1662.7,556h0Z" transform="translate(-32.311 -36.676)" fill="#8d98a7"/>
    <g id="Сгруппировать_848" data-name="Сгруппировать 848" transform="translate(1732.201 512.145)">
      <path id="Контур_4646" data-name="Контур 4646" d="M1891.111,547.052c-.524-3.761-2.666-5.76-6.379-6.094-3.856-.333-6.522,1.523-7.569,5.332a17.256,17.256,0,0,0-.286,6.808c.476,3.951,2.475,6.094,6.189,6.617,3.571.524,6-.809,7.617-4.189.048-.143.143-.238.191-.381a5.576,5.576,0,0,1,.238-.524h0v-7.569Zm-6.9,10.568c-2.238,0-4.047-3.19-4.047-7.141s1.809-7.141,4.047-7.141,4.046,3.19,4.046,7.141S1886.446,557.62,1884.208,557.62Z" transform="translate(-1876.675 -540.92)" fill="#8d98a7"/>
      <path id="Контур_4647" data-name="Контур 4647" d="M1905.832,552s1.523,5.57,0,8.95C1904.261,564.282,1905.832,552,1905.832,552Z" transform="translate(-1891.585 -546.725)" fill="#8d98a7"/>
      <path id="Контур_4648" data-name="Контур 4648" d="M1906.6,570.9Z" transform="translate(-1892.354 -556.628)" fill="#8d98a7"/>
      <path id="Контур_4649" data-name="Контур 4649" d="M1906.6,571Z" transform="translate(-1892.354 -556.68)" fill="#8d98a7"/>
    </g>
  </g>
  <g id="Dalimo-2" data-name="Dalimo" transform="translate(-1577.932 -451)">
    <path id="Контур_4632-2" data-name="Контур 4632" d="M1651.494,486c.048.666.714.809,1.095,1.143,2.952,2.666,3.618,5.9,1.714,9.378a18.682,18.682,0,0,1-6.9,7c1.285-6.189,2.476-11.854,3.666-17.519Z" transform="translate(-24.347)" fill="#ec1e25"/>
    <path id="Контур_4633-2" data-name="Контур 4633" d="M1643.768,546.994a2.78,2.78,0,0,1-.857.19,2.142,2.142,0,0,1,0-4.285h.286c-.048-.048-.143-.1-.19-.19a7.5,7.5,0,0,0-5.332-1.714,35.009,35.009,0,0,0-22.232,8.141c-2.9,2.38-2.761,4.189-.143,6.95,5.855,6.189,17.8,7.046,24.469,1.714a13.475,13.475,0,0,0,5.189-11.045A4.8,4.8,0,0,0,1643.768,546.994Zm-17.995,5.427a4.133,4.133,0,0,1-4.665,1.095h0a1.3,1.3,0,0,1-.571-.428h-.048c-1.285-1.285-1-3.666.619-5.284l.143-.143h0c1.618-1.476,3.856-1.714,5.141-.476S1627.391,550.8,1625.773,552.421Zm12.473-4.475h0a2.562,2.562,0,0,1-1.047.19h-.762a2.632,2.632,0,0,1-1.381-.428h0a2.465,2.465,0,0,1-1.476-2.142c0-1.428,1.476-2.618,3.332-2.618s3.332,1.19,3.332,2.618A2.634,2.634,0,0,1,1638.245,547.947Z" transform="translate(-6.48 -28.813)" fill="#feca06"/>
    <path id="Контур_4634-2" data-name="Контур 4634" d="M1709.554,557.167c-1.428-.666-1.285-1.761-1.285-2.952v-10a2.284,2.284,0,0,0-2.618-2.618H1699.7c-1.857,0-2.761.809-2.809,2.714-.1,3.332-.333,6.617-.524,9.95-.047.714.048,1.571-.619,1.952-2.237,1.19-1.761,3.285-1.857,5.237-.048,1.238.1,2.237,1.714,2.237,1.571,0,1.857-1,1.714-2.237-.143-1.285.381-1.666,1.619-1.619q2.856.143,5.713,0c1.619-.1,2.618.143,2.285,2.095a1.264,1.264,0,0,0,1,1.619,2.018,2.018,0,0,0,2-.333C1710.506,562.594,1710.364,557.548,1709.554,557.167Zm-7.093-.524a18.36,18.36,0,0,0-2.856-.048,55.468,55.468,0,0,0,.667-9.95c.1-2.19,1.523-1.666,2.809-1.809,1.714-.19,1.714.857,1.666,2.047-.048,2.476-.143,4.9,0,7.379C1704.889,556.072,1704.46,556.929,1702.461,556.643Z" transform="translate(-48.702 -29.131)" fill="#ec1d25"/>
    <path id="Контур_4635-2" data-name="Контур 4635" d="M1842.421,559.377c-2.571,1.19-3.285.762-3.285-1.952V544.143c0-.952-.428-2.19,1.047-2.523,1.428-.333,2.142.524,2.761,1.666,1.142,2.237,2.333,4.38,3.666,6.95,1.333-2.523,2.523-4.713,3.666-6.95.571-1.19,1.333-2,2.761-1.619,1.381.381,1.095,1.571,1.095,2.571V557.52c0,1.238.048,2.475-1.666,2.523-1.856.048-1.9-1.143-1.9-2.523a53.119,53.119,0,0,0-.333-7.712c-.714,1.381-1.381,2.809-2.142,4.189-.952,1.619-2,1.619-2.951,0-.667-1.143-1.238-2.38-1.809-3.57-1.19-.1-.667.809-.667,1.285C1842.469,554.236,1842.85,556.806,1842.421,559.377Z" transform="translate(-124.776 -29.104)" fill="#ec1e25"/>
    <path id="Контур_4636-2" data-name="Контур 4636" d="M1813.04,549.56c-1.714,2.952-3.427,5.856-5.094,8.807-.667,1.143-1.381,1.9-2.809,1.571-1.571-.381-1.19-1.666-1.19-2.714-.048-4.427,0-8.9-.048-13.33,0-1.333.143-2.38,1.857-2.333,1.619.048,1.714,1.047,1.714,2.285a64.529,64.529,0,0,0,.381,8.521c1.714-3,3.428-5.951,5.141-8.95.667-1.19,1.38-2.19,2.952-1.809,1.571.428,1.047,1.761,1.095,2.761.048,4.427,0,8.9.048,13.33,0,1.238-.1,2.285-1.666,2.285-1.619,0-1.9-.952-1.857-2.333.047-2.666,0-5.332,0-8A3.1,3.1,0,0,0,1813.04,549.56Z" transform="translate(-106.344 -29.093)" fill="#ec1d25"/>
    <path id="Контур_4637-2" data-name="Контур 4637" d="M1781.038,551.172c0,2.38-.047,4.761,0,7.141.048,1.238-.524,1.809-1.619,1.857-1.19.048-1.9-.476-1.9-1.857.048-3.9-.048-7.76.048-11.663.048-1.666-.714-1.809-2-1.761-1.238.048-2.333-.143-2.333,1.761,0,3.19-.19,6.332-.429,9.521-.19,2.714-1.571,4.047-3.808,3.9-.762-.048-1.428-.19-1.571-1.095-.143-.762-.143-1.571.761-1.761,1.285-.333,1.238-1.285,1.285-2.237.19-3.428.429-6.808.476-10.235.048-2.095.857-3.094,3-3.047,1.809.048,3.666,0,5.474,0,1.761,0,2.666.714,2.618,2.571C1780.991,546.554,1781.038,548.887,1781.038,551.172Z" transform="translate(-87.196 -29.182)" fill="#ec1d25"/>
    <path id="Контур_4638-2" data-name="Контур 4638" d="M1747.182,557.807c-1.714-4.951-3.332-9.9-4.951-14.853-.381-1.095-1-1.857-2.19-1.857-1.285-.048-1.952.762-2.333,1.952-1.619,4.9-3.285,9.759-4.856,14.615-.191.619-.714,1.523.238,1.857s2.047.524,2.856-.524a3.44,3.44,0,0,0,.571-1.285c.286-1.619.952-2.476,2.856-2.285,1.809.19,3.9-.524,4.237,2.333.143,1.19.809,2.047,2.142,1.9C1747.134,559.712,1747.658,559.283,1747.182,557.807Zm-6.046-5.57a2.926,2.926,0,0,1-2.285.048c-.952-.381-.19-1.19,0-1.809.286-.952.619-1.9,1.143-3.475.524,1.571.857,2.428,1.095,3.332C1741.231,551,1741.945,551.809,1741.136,552.237Z" transform="translate(-68.954 -28.867)" fill="#ec1e25"/>
    <path id="Контур_4639-2" data-name="Контур 4639" d="M1616.769,533.549c-3.427.809-6.712,1.428-10.14.619a8.514,8.514,0,0,1-5.189-3c-.428-.571-1.047-1.333.381-1.333C1607.058,529.741,1612.437,529.313,1616.769,533.549Z" transform="translate(0 -22.937)" fill="#feca08"/>
    <path id="Контур_4640-2" data-name="Контур 4640" d="M1660.17,556.057c.762,6.522-1.857,11.378-7.76,14-4.332,1.952-8.855,2.952-13.568,1.143a.411.411,0,0,1-.143-.286c.048-.1.048-.143.1-.143a39.144,39.144,0,0,0,7.093-.238c7.522-1.476,12.044-5.951,13.425-13.52C1659.742,556.723,1659.313,555.818,1660.17,556.057Z" transform="translate(-19.789 -36.685)" fill="#ed232a"/>
    <path id="Контур_4641-2" data-name="Контур 4641" d="M1639.332,523.3c1.476,2.523,2.761,4.665,4,6.855.238.428.667.857-.143,1.333a4.509,4.509,0,0,1-5.951-1.095,1.993,1.993,0,0,1-.286-2.713A39.626,39.626,0,0,0,1639.332,523.3Z" transform="translate(-18.659 -19.543)" fill="#feca08"/>
    <path id="Контур_4642-2" data-name="Контур 4642" d="M1894.941,524.1c-2.476,3.57-3.047,4-7.141,5.094C1888.847,526.052,1890.99,524.481,1894.941,524.1Z" transform="translate(-150.303 -19.962)" fill="#ed262e"/>
    <path id="Контур_4643-2" data-name="Контур 4643" d="M1652.319,529.5c-.143-2.142-2.856-2.856-1.523-4.951.286-.428,1-1.333,1.952-.571C1654.176,525.166,1654.128,526.927,1652.319,529.5Z" transform="translate(-25.934 -19.742)" fill="#ed262c"/>
    <path id="Контур_4644-2" data-name="Контур 4644" d="M1632.631,541.525c.19-.524,0-1.428.952-1.333.714.048.857.857,1.143,1.38.428.809-.286.857-.809,1.047-.286.1-.476.381-.762.571C1632.2,542.858,1632.488,542.192,1632.631,541.525Z" transform="translate(-16.528 -28.39)" fill="#ed2e37"/>
    <path id="Контур_4645-2" data-name="Контур 4645" d="M1662.7,556h0Z" transform="translate(-32.311 -36.676)" fill="#feca06"/>
    <g id="Сгруппировать_848-2" data-name="Сгруппировать 848" transform="translate(1732.201 512.145)">
      <path id="Контур_4646-2" data-name="Контур 4646" d="M1891.111,547.052c-.524-3.761-2.666-5.76-6.379-6.094-3.856-.333-6.522,1.523-7.569,5.332a17.256,17.256,0,0,0-.286,6.808c.476,3.951,2.475,6.094,6.189,6.617,3.571.524,6-.809,7.617-4.189.048-.143.143-.238.191-.381a5.576,5.576,0,0,1,.238-.524h0v-7.569Zm-6.9,10.568c-2.238,0-4.047-3.19-4.047-7.141s1.809-7.141,4.047-7.141,4.046,3.19,4.046,7.141S1886.446,557.62,1884.208,557.62Z" transform="translate(-1876.675 -540.92)" fill="#ec1e25"/>
      <path id="Контур_4647-2" data-name="Контур 4647" d="M1905.832,552s1.523,5.57,0,8.95C1904.261,564.282,1905.832,552,1905.832,552Z" transform="translate(-1891.585 -546.725)" fill="#ed232a"/>
      <path id="Контур_4648-2" data-name="Контур 4648" d="M1906.6,570.9Z" transform="translate(-1892.354 -556.628)" fill="#ec1e25"/>
      <path id="Контур_4649-2" data-name="Контур 4649" d="M1906.6,571Z" transform="translate(-1892.354 -556.68)" fill="#ec1e25"/>
    </g>
  </g>
</svg>
