<svg id="Компонент_290_2" data-name="Компонент 290 – 2" xmlns="http://www.w3.org/2000/svg" width="192" height="120" viewBox="0 0 192 120">
  <g id="Сгруппировать_851" data-name="Сгруппировать 851" transform="translate(-304 -3980)">
    <rect id="Прямоугольник_42" data-name="Прямоугольник 42" width="192" height="120" transform="translate(304 3980)" fill="#f4f5f7" opacity="0"/>
  </g>
  <g id="Iteco" transform="translate(-1775.299 -609.2)" opacity="0">
    <path id="Контур_4650" data-name="Контур 4650" d="M1937.937,706.926a17.021,17.021,0,0,1-4.4-.46c-3.089-.789-4.141-2.826-4.338-5.653a28.375,28.375,0,0,1,.329-4.075,36.666,36.666,0,0,1,.592-5.324,6.439,6.439,0,0,1,4.535-4.864,21.669,21.669,0,0,1,7.69-.592,11.83,11.83,0,0,1,3.023.657,4.92,4.92,0,0,1,3.352,4.009,11.117,11.117,0,0,1,0,3.615c-.263,2.1-.329,4.207-.657,6.244-.592,3.812-3.024,5.719-6.7,6.244A27.378,27.378,0,0,1,1937.937,706.926Zm.526-4.8h1.315a2.568,2.568,0,0,0,2.695-2.432c.131-.723.2-1.38.263-2.1.131-1.578.394-3.155.394-4.8a1.878,1.878,0,0,0-1.709-2.1,11.484,11.484,0,0,0-3.352-.131c-1.84.131-2.366.789-2.629,2.629-.066.592-.2,1.249-.263,1.84-.131,1.578-.394,3.155-.394,4.733a2.09,2.09,0,0,0,2.235,2.3A5.458,5.458,0,0,0,1938.463,702.128Z" transform="translate(-34.574 -15.654)" fill="#8d98a7"/>
    <path id="Контур_4651" data-name="Контур 4651" d="M1907.065,706.933a20.9,20.9,0,0,1-5.653-.46,4.774,4.774,0,0,1-3.549-4.4,32.508,32.508,0,0,1,.2-5.653c.131-1.315.2-2.695.46-4.01.723-4.141,2.695-5.784,6.7-6.31a25.343,25.343,0,0,1,6.31,0,7.163,7.163,0,0,1,2.826.92,4.355,4.355,0,0,1,2.169,3.418c.066.854,0,1.709,0,2.5,0,.46-.2.526-.592.526h-4.667c-.2,0-.46.066-.46-.329,0-1.775-.329-2.235-2.1-2.432a10.132,10.132,0,0,0-2.432.066,2.28,2.28,0,0,0-2.169,2.169,43.29,43.29,0,0,0-.526,7.164,1.834,1.834,0,0,0,1.775,2.038,12.668,12.668,0,0,0,3.155,0c1.183-.2,1.709-.789,1.84-2.432.066-.526.2-.723.723-.657,1.446.066,2.958,0,4.4,0,.394,0,.526,0,.46.526a12.721,12.721,0,0,1-.986,4.141c-.92,2.038-2.695,2.761-4.8,3.089C1908.906,706.933,1907.722,706.868,1907.065,706.933Z" transform="translate(-23.815 -15.662)" fill="#8d98a7"/>
    <path id="Контур_4652" data-name="Контур 4652" d="M1876.787,706.772h-6.836c-.526,0-.723-.066-.657-.657.2-1.972.394-3.944.526-5.916l.592-6.507c.2-2.366.46-4.732.657-7.1.066-.46.329-.394.592-.394h13.54c.592,0,.723.2.657.723-.131,1.117-.263,2.235-.329,3.352,0,.592-.394.394-.657.394h-7.953c-.657,0-.854.131-.854.789a15.155,15.155,0,0,1-.2,2.432c-.066.526.066.657.592.657h7.493c.657,0,.723.131.657.789a12.951,12.951,0,0,0-.263,2.235c0,.526-.131.723-.723.723h-7.362c-.526,0-.855,0-.855.723-.066.92-.2,1.84-.263,2.761-.066.526.131.657.657.657h8.151c.592,0,.789.066.723.723-.131,1.117-.263,2.3-.329,3.418-.066.46-.394.329-.657.329C1881.388,706.772,1879.087,706.772,1876.787,706.772Z" transform="translate(-14.045 -15.763)" fill="#8d98a7"/>
    <path id="Контур_4653" data-name="Контур 4653" d="M1851.3,686.147h7.559c.657,0,.789.263.723.789a28.805,28.805,0,0,0-.263,3.352c0,.526-.2.592-.657.592h-4.272c-.526,0-.723.131-.789.723-.394,3.681-.592,7.427-1.052,11.108-.132,1.183-.2,2.366-.329,3.549,0,.394-.2.526-.592.526h-4.338c-.46,0-.526-.2-.526-.592.263-2.629.46-5.193.723-7.822l.592-6.9c.066-.46-.131-.592-.526-.592h-4.338c-.394,0-.592-.066-.526-.526.132-1.315.263-2.629.329-3.944.066-.526.394-.329.657-.329C1846.177,686.147,1848.74,686.147,1851.3,686.147Z" transform="translate(-4.928 -15.711)" fill="#8d98a7"/>
    <path id="Контур_4654" data-name="Контур 4654" d="M1910.9,644.209c10.517-1.315,20.9-2.695,31.419-4.009a3.934,3.934,0,0,1-.526,1.315,8.98,8.98,0,0,1-7.756,4.93c-2.235.131-4.4.526-6.639.789-2.366.329-4.732.592-7.1.92-1.906.263-3.812.526-5.784.789-.592.066-.986,0-1.183-.723A12.861,12.861,0,0,0,1910.9,644.209Z" transform="translate(-28.307)" fill="#8d98a7"/>
    <path id="Контур_4655" data-name="Контур 4655" d="M1828.3,640.2c10.517,1.315,20.9,2.695,31.419,4.009a16.3,16.3,0,0,0-2.629,4.47c-.132.46-.526.263-.789.263l-6.31-.789c-2.366-.329-4.732-.592-7.1-.92-2.235-.263-4.47-.592-6.7-.854a11.656,11.656,0,0,1-2.1-.329,8.275,8.275,0,0,1-4.732-3.681A7.387,7.387,0,0,1,1828.3,640.2Z" fill="#8d98a7"/>
    <path id="Контур_4656" data-name="Контур 4656" d="M1833.129,686.2h2.235c.394,0,.46.066.46.46-.329,3.484-.592,6.967-.92,10.517-.263,2.892-.526,5.85-.789,8.742-.066.657-.263.92-.986.92a38.189,38.189,0,0,0-3.878,0c-.526,0-.723-.131-.657-.657.395-3.944.723-7.822,1.052-11.766.2-2.5.46-5.061.657-7.559.066-.526.2-.657.723-.657Z" transform="translate(-0.096 -15.765)" fill="#8d98a7"/>
    <path id="Контур_4657" data-name="Контур 4657" d="M1838.4,650.6c1.972.263,3.878.46,5.784.723,2.695.329,5.39.723,8.085,1.052,2.432.329,4.93.657,7.427.92.394.066.46.2.394.526a12.9,12.9,0,0,0-.394,4.207c0,.394-.131.329-.394.329-1.906-.263-3.812-.46-5.653-.723-2.366-.329-4.733-.592-7.1-.92a12.944,12.944,0,0,1-3.549-.592A9.126,9.126,0,0,1,1838.4,650.6Z" transform="translate(-3.461 -3.564)" fill="#8d98a7"/>
    <path id="Контур_4658" data-name="Контур 4658" d="M1937.406,650.6c-1.052,2.3-2.169,4.4-4.47,5.521a13.026,13.026,0,0,1-3.549.657c-3.089.46-6.179.789-9.268,1.183-1.249.131-2.432.263-3.681.46-.329.066-.394,0-.394-.329a12.074,12.074,0,0,0-.46-4.338c-.131-.329.2-.394.394-.394,1.578-.2,3.221-.394,4.8-.657,2.695-.329,5.39-.723,8.085-1.052C1931.754,651.323,1934.449,650.994,1937.406,650.6Z" transform="translate(-29.903 -3.564)" fill="#8d98a7"/>
    <path id="Контур_4659" data-name="Контур 4659" d="M1913.6,668.1a15.534,15.534,0,0,0,1.709-5c.066-.329.263-.329.46-.394,1.446-.2,2.958-.394,4.4-.592,2.695-.329,5.324-.723,8.019-1.052.723-.066,1.446-.2,2.3-.263a12.232,12.232,0,0,1-3.023,5.127,3.561,3.561,0,0,1-2.3.723c-3.484.46-6.967.854-10.517,1.315A1.875,1.875,0,0,1,1913.6,668.1Z" transform="translate(-29.233 -7.06)" fill="#8d98a7"/>
    <path id="Контур_4660" data-name="Контур 4660" d="M1864.846,668.2c-2.695-.329-5.324-.723-7.887-1.052-1.38-.2-2.695-.394-4.075-.526a3.913,3.913,0,0,1-3.023-1.84,15.605,15.605,0,0,1-1.709-3.286c-.263-.592.066-.592.46-.592,2.958.394,5.981.789,8.939,1.183,1.512.2,3.023.394,4.535.526.657.066,1.052.263,1.117,1.052A15.107,15.107,0,0,0,1864.846,668.2Z" transform="translate(-6.771 -7.094)" fill="#8d98a7"/>
    <path id="Контур_4661" data-name="Контур 4661" d="M1905.175,655.595a.917.917,0,0,1-.2.592,1.443,1.443,0,0,1-.986.526c-.329,0-.723-.066-.789.394v.066c-.066.46.329.46.592.592a1.435,1.435,0,0,1,.789.723v.066a1.251,1.251,0,0,1-.132,1.052c-.263.657-.592,1.315-.854,1.906-.394.92-.92,1.183-1.84.789-.263-.131-.46-.394-.789-.131-.329.394.066.592.2.789.723.986.657,1.183-.263,1.906a.9.9,0,0,1-.263.2,1.154,1.154,0,0,0-.329.263v-.131h0a3.654,3.654,0,0,0,.526-.394c.329-.263.46-.46.263-.723l-.066-.131-.066-.066-.394-.394h0l-.131-.131a.064.064,0,0,0-.066-.066h0c-.2-.394,0-.657.526-1.446a.538.538,0,0,1,.657-.263c.46.131.986.592,1.38.263.329-.263.394-.854.526-1.315,0-.066.066-.131.066-.2.131-.46.46-.92.329-1.315,0-.131-.066-.2-.131-.2h0c-.2-.329-.789-.394-1.183-.526-.2-.066-.263-.131-.263-.263V657.7a.493.493,0,0,1,.066-.329c0-.263.066-.394.066-.592v-.066c.131-.46.394-.526,1.249-.526a.492.492,0,0,0,.329-.066c.263-.066.329-.329.2-.657a8.281,8.281,0,0,1-.263-1.775q0-.493-.2-.592h0c-.2-.131-.394-.066-.723,0s-.789.329-1.052,0c-.066-.066-.066-.131-.131-.2a3.54,3.54,0,0,1-.526-1.38c-.066-.394.46-.592.789-.789.329-.263.526-.46.131-.854a8.21,8.21,0,0,1-.592-.789c-.263-.329-.46-.854-.854-.986-.46-.2-.657.46-1.052.657a.718.718,0,0,1-.986-.066,1.376,1.376,0,0,0-.395-.263,1.058,1.058,0,0,1-.46-1.709c.263-.46.2-.657-.329-.789-.263-.066-.46-.2-.723-.263-1.117-.394-1.117-.394-1.643.592-.263.592-.789.526-1.249.46-.526-.066-.92-.263-.92-.854-.066-.789-.131-.986-.592-.986a.976.976,0,0,0-.394.066h-.329v-.986h.395c.263,0,.526-.066.789-.066.789-.066,1.052.2,1.117.986v.526a.361.361,0,0,0,.2.329c.2.066.263-.066.329-.263s.2-.46.263-.657a.868.868,0,0,1,1.249-.592,19.685,19.685,0,0,1,2.5.986.95.95,0,0,1,.526,1.38c-.066.131-.066.329-.131.46-.132.263-.132.394.066.592a.516.516,0,0,0,.723,0,3.659,3.659,0,0,1,.526-.394.961.961,0,0,1,1.38.2c.526.592.92,1.183,1.38,1.775.657.854.592,1.38-.263,2.038-.2.131-.592.131-.395.657.2.46.526.329.789.263,1.117-.066,1.446.131,1.578,1.249A5.294,5.294,0,0,1,1905.175,655.595Z" transform="translate(-21.728 -1.263)" fill="#8d98a7"/>
    <path id="Контур_4662" data-name="Контур 4662" d="M1886.343,643.561v.986h-.329c-.131,0-.263-.066-.394-.066-.46,0-.526.131-.592.986a.925.925,0,0,1-.92.854c-.526.066-.986.131-1.249-.46-.526-1.052-.526-1.052-1.643-.592-.263.066-.46.263-.723.263-.526.131-.592.329-.329.789.394.723.394,1.315-.46,1.709-.132.066-.263.2-.395.263a.718.718,0,0,1-.986.066c-.329-.2-.592-.854-1.052-.657-.329.131-.592.657-.854.986-.2.263-.329.526-.526.789-.394.394-.2.592.132.854.329.2.854.394.789.789a4.592,4.592,0,0,1-.592,1.578c-.2.329-.657.066-1.052,0-.526-.131-.92-.131-.92.592a8.266,8.266,0,0,1-.263,1.775c-.131.526-.066.723.592.723,1.249.066,1.249.131,1.38,1.512.066.329,0,.46-.329.592-.46.2-1.117.263-1.249.657-.066.394.329.92.46,1.38a.242.242,0,0,1,.066.2c.2.394.329.986.657,1.249.394.263.789-.263,1.249-.394.329-.131.592-.131.723.2.132.46.92.592.592,1.315-.2.46-.855.854-.592,1.315.132.263.395.394.657.592h.066a3.673,3.673,0,0,1,.526.329c.066.066.131.066.2.131h0a1.432,1.432,0,0,1,.329.263,1.742,1.742,0,0,0,.394.329v.657l-.066-.066-1.052-.46c-.131-.066-.2-.2-.329-.263-.329-.263-.657-.46-.986-.723-.986-.657-.986-.92-.263-1.906.2-.2.526-.46.2-.789-.263-.329-.526,0-.723.131-.92.394-1.446.131-1.84-.789-.263-.657-.592-1.315-.854-1.906-.395-.854-.132-1.38.723-1.775.263-.131.657-.066.592-.592s-.46-.394-.789-.394a1.1,1.1,0,0,1-1.117-1.117c.066-.789.131-1.643.263-2.432.131-1.117.46-1.315,1.643-1.249.263,0,.592.2.789-.263s-.2-.46-.394-.657c-.854-.657-.92-1.183-.263-2.038.46-.592.92-1.249,1.38-1.775a1.02,1.02,0,0,1,1.38-.2c.2.131.329.263.526.394a.516.516,0,0,0,.723,0c.263-.2.2-.394.066-.592a1.22,1.22,0,0,1-.132-.46.95.95,0,0,1,.526-1.38c.789-.329,1.643-.723,2.5-.986a.951.951,0,0,1,1.249.592,2.749,2.749,0,0,0,.263.657c.066.131.132.329.329.263a.362.362,0,0,0,.2-.329v-.526c.066-.789.329-1.052,1.117-.986.263,0,.526.066.789.066C1886.08,643.495,1886.211,643.561,1886.343,643.561Z" transform="translate(-15.385 -1.126)" fill="#8d98a7"/>
    <path id="Контур_4663" data-name="Контур 4663" d="M1900.968,660.784c-.066.394-.394.526-1.117.723-.2.066-.46,0-.592.131-.066.066-.066.131-.066.329,0,.394.394.329.657.394a1.432,1.432,0,0,1,.854.592v.066a1.8,1.8,0,0,1,0,1.183c-.2.657-.394,1.315-.657,2.038a1.2,1.2,0,0,1-1.709.854c-.263-.066-.592-.394-.854,0-.329.46.066.592.329.854a1.143,1.143,0,0,1,.131,1.578c-.592.526-1.183,1.117-1.84,1.643-.854.723-1.249.657-2.038-.131-.2-.2-.329-.526-.789-.329s-.131.46-.131.723c.2,1.052-.131,1.512-1.183,1.709-.723.131-1.512.329-2.235.394a1.024,1.024,0,0,1-1.183-.789,1.92,1.92,0,0,1-.131-.592c-.066-.329-.2-.46-.526-.46s-.394.131-.46.394c0,.131-.131.263-.2.46a.942.942,0,0,1-1.315.657c-.854-.263-1.709-.592-2.5-.92a.86.86,0,0,1-.526-1.249,2.75,2.75,0,0,1,.263-.657c.066-.131.131-.329-.066-.394a.24.24,0,0,0-.329.131l-.394.394a1.178,1.178,0,0,1-.46.329l-.066.066-1.052-.46-.2-.066c-.066-.066-.131-.131-.131-.2l-.2-.2-.263-.263.394-.394.066-.066a3.68,3.68,0,0,1,.526.329c.066.066.131.066.2.131h0l.329.2.131-.2a2.659,2.659,0,0,0,.657-.526.913.913,0,0,1,1.249,0c.46.263.854.526.657,1.183-.263,1.117-.263,1.117.854,1.578a2.354,2.354,0,0,1,.723.263c.46.263.657.131.723-.394a1.073,1.073,0,0,1,1.512-.986h.46c.46,0,.657.263.789.657s-.131,1.052.329,1.183c.329.131.854-.131,1.315-.2a4.6,4.6,0,0,1,.92-.2c.526-.066.526-.329.46-.723s-.394-.854-.066-1.117a5.493,5.493,0,0,1,1.512-.789.289.289,0,0,1,.329.066,4.613,4.613,0,0,1,.394.592c.329.394.592.723,1.052.131a7.882,7.882,0,0,1,.789-.723h0a3.643,3.643,0,0,0,.526-.394c.329-.263.46-.46.263-.723l-.066-.131-.066-.066-.394-.394h0l-.131-.131a.064.064,0,0,0-.066-.066h0c-.2-.394,0-.657.526-1.446a.538.538,0,0,1,.657-.263c.46.131.986.592,1.38.263.329-.263.394-.854.526-1.315,0-.066.066-.131.066-.2.131-.46.46-.92.329-1.315,0-.131-.066-.2-.131-.2h0c-.263-.2-.723-.131-1.052-.263-.263-.131-.526-.263-.394-.526v-.066a.913.913,0,0,0,0-.592c0-.2-.066-.394.066-.592l.066-.066a.341.341,0,0,1,.263-.131c.46-.2,1.052-.066,1.315-.46.263-.066.329-.329.2-.657a8.273,8.273,0,0,1-.263-1.775q0-.493-.2-.592l.329-.329h0c.066.066.066.131.131.263a.833.833,0,0,1,.066.394c.131.723.329,1.512.46,2.235A.461.461,0,0,1,1900.968,660.784Z" transform="translate(-17.718 -5.86)" fill="#8d98a7"/>
    <path id="Контур_4664" data-name="Контур 4664" d="M1893.61,651.417c-1.183.986-2.169,1.906-3.287,2.695-.394.263-1.052.131-1.512.2a5.963,5.963,0,0,0-4.667,3.484,3.54,3.54,0,0,0,.394,3.681,1.2,1.2,0,0,1,.132,1.446,4.009,4.009,0,0,0-.329.789c-.329.789-.395.789-.986.2a6.929,6.929,0,0,1-.2-9.925,9.82,9.82,0,0,1,9.662-2.826C1893.018,651.351,1893.215,651.351,1893.61,651.417Z" transform="translate(-18.116 -3.658)" fill="#8d98a7"/>
    <path id="Контур_4665" data-name="Контур 4665" d="M1895.639,652.866c-.986,2.235-1.906,4.47-2.892,6.7-.066.2-.263.329-.394.46l-5.324,4.338c-.066.066-.132.066-.329.131.592-1.38,1.117-2.695,1.709-3.944.329-.854.723-1.643,1.052-2.5a2.764,2.764,0,0,1,1.117-1.183c1.643-1.38,3.286-2.695,4.93-4.075A.229.229,0,0,1,1895.639,652.866Z" transform="translate(-20.014 -4.318)" fill="#8d98a7"/>
    <path id="Контур_4666" data-name="Контур 4666" d="M1895.862,666.636c-2.038,2.563-6.9,3.221-9.662,1.249.066-.066.131-.066.2-.131.986-1.183,2.1-1.315,3.615-.986a5.371,5.371,0,0,0,6.31-3.878,4.548,4.548,0,0,0-.263-2.5c-.066-.2-.263-.329-.2-.592,1.577,1.775,1.117,4.732-1.052,6.441a6.944,6.944,0,0,1-5.521,1.38C1890.341,668.345,1893.627,668.213,1895.862,666.636Z" transform="translate(-19.843 -6.717)" fill="#8d98a7"/>
    <path id="Контур_4667" data-name="Контур 4667" d="M1954.8,726.452v-3.089c0-.131.066-.2.263-.263a.438.438,0,0,1,.46.329c.526.854,1.052,1.709,1.775,2.826v-3.089c.46,0,.329.2.329.394v2.432c0,.2.131.46-.2.46a.531.531,0,0,1-.592-.263,21.011,21.011,0,0,0-1.709-2.5v2.761Z" transform="translate(-43.352 -28.41)" fill="#8d98a7"/>
    <path id="Контур_4668" data-name="Контур 4668" d="M1891.674,726.576v-2.3c0-.394-.2-.789.2-1.117a3.454,3.454,0,0,1,2.169.263,1.089,1.089,0,0,1,0,1.38c-.263.329.131.394.131.592a3.3,3.3,0,0,1-.066,1.117c-.46-.394-.066-.986-.394-1.249a1.806,1.806,0,0,0-1.315-.131C1891.543,725.2,1892.332,726.05,1891.674,726.576Zm1.249-3.155c-.46.066-.986-.263-.986.657,0,.592.131.854.789.789.526-.066,1.183.131,1.183-.723C1893.975,723.421,1893.515,723.355,1892.923,723.421Z" transform="translate(-21.702 -28.403)" fill="#8d98a7"/>
    <path id="Контур_4669" data-name="Контур 4669" d="M1856.235,726.584c-.329-.657.2-1.446-.92-1.512-1.183-.066-1.117.592-1.052,1.446-.066-.066-.2-.066-.263-.131V723.3c0-.2.2-.2.394-.2h1.052c.92,0,1.249.329,1.052,1.249a2.026,2.026,0,0,0,0,1.249A3.7,3.7,0,0,1,1856.235,726.584Zm-1.249-3.155c-.394-.066-.855-.131-.789.657,0,.657.2.789.789.789.526-.066,1.117.066,1.117-.723S1855.578,723.429,1854.986,723.429Z" transform="translate(-8.808 -28.41)" fill="#8d98a7"/>
    <path id="Контур_4670" data-name="Контур 4670" d="M1944.951,724.78c.066,1.446-.329,1.906-1.906,1.643a.848.848,0,0,1-.789-.789,4.979,4.979,0,0,1-.066-.986,1.453,1.453,0,0,1,2.1-1.512C1945.083,723.4,1944.951,724.123,1944.951,724.78Zm-.329-.066c0-1.249-.066-1.38-1.052-1.38-.92,0-1.117.263-1.117,1.38,0,1.183.263,1.512,1.117,1.512C1944.491,726.226,1944.622,726.029,1944.622,724.715Z" transform="translate(-39.025 -28.382)" fill="#8d98a7"/>
    <path id="Контур_4671" data-name="Контур 4671" d="M1842.3,723.1c1.183,0,1.38.2,1.512,1.183a3.17,3.17,0,0,1,0,.789,1.509,1.509,0,0,1-2.3,1.315.7.7,0,0,1-.394-.46,4.837,4.837,0,0,1-.066-2.169C1841.25,723.1,1841.907,723.1,1842.3,723.1Zm-.986,1.578v.329c0,.92.263,1.249.986,1.249.854,0,1.117-.263,1.183-1.183v-.789c-.066-.592-.329-.854-.92-.854C1841.447,723.429,1841.315,723.56,1841.315,724.677Z" transform="translate(-4.339 -28.41)" fill="#8d98a7"/>
    <path id="Контур_4672" data-name="Контур 4672" d="M1879,724.839c0-1.38.329-1.709,1.643-1.643a1.02,1.02,0,0,1,1.117.854,3.29,3.29,0,0,1,.132.789c0,1.315-.329,1.775-1.446,1.775C1879.263,726.548,1879,726.219,1879,724.839Zm2.432,0v-.263c-.066-.986-.2-1.183-1.117-1.183-.854,0-.986.2-1.052,1.183v.526c0,.92.329,1.183,1.183,1.117C1881.235,726.285,1881.432,725.957,1881.432,724.839Z" transform="translate(-17.375 -28.441)" fill="#8d98a7"/>
    <path id="Контур_4673" data-name="Контур 4673" d="M1866.5,726.444v-3.221a3.36,3.36,0,0,1,1.972,0c.657.2.526.789.46,1.249-.066.592-.592.723-1.052.657-.789-.066-1.315.066-1.117,1.052C1866.829,726.246,1866.829,726.378,1866.5,726.444Zm1.183-3.024c-.46-.066-.92-.131-.854.723.066.592.132.789.723.723.526-.066,1.117.2,1.183-.723C1868.735,723.354,1868.209,723.42,1867.683,723.42Z" transform="translate(-13.091 -28.402)" fill="#8d98a7"/>
    <path id="Контур_4674" data-name="Контур 4674" d="M1906.795,726.518c-.2-.657-.723-.723-1.315-.789-.657-.066-.92.394-1.38.657.329-.986.723-2.038,1.052-3.024.066-.2.131-.263.329-.263a.36.36,0,0,1,.394.263c.329.986.723,1.972,1.052,2.958C1906.926,726.452,1906.861,726.452,1906.795,726.518Zm-1.183-3.089a3.524,3.524,0,0,0-.657,1.972c0,.2.789.066,1.249.066.066,0,.066-.066.131-.066C1906.138,724.743,1905.875,724.152,1905.612,723.429Z" transform="translate(-25.977 -28.41)" fill="#8d98a7"/>
    <path id="Контур_4675" data-name="Контур 4675" d="M1830.866,724.218c-.2-.986-.854-.854-1.446-.789-.657.066-.592.657-.592,1.117v.394c0,.526,0,1.117.657,1.315s1.052-.066,1.446-.789c.2.592.131.854-.46.986-1.315.394-1.972-.066-1.972-1.446v-.92c.066-.46.263-.854.723-.92.526-.066,1.183-.2,1.578.329C1831.063,723.692,1831.129,723.89,1830.866,724.218Z" transform="translate(-0.069 -28.411)" fill="#8d98a7"/>
    <path id="Контур_4676" data-name="Контур 4676" d="M1919.6,723.266c-1.052.394-1.052.394-1.052,1.578a7.02,7.02,0,0,1-.066,1.643c-.394-.2-.2-.526-.263-.789v-.92c0-1.183,0-1.183-1.117-1.578C1917.954,723.266,1918.809,723.266,1919.6,723.266Z" transform="translate(-30.432 -28.445)" fill="#8d98a7"/>
    <path id="Контур_4677" data-name="Контур 4677" d="M1931.76,724.809v1.315c0,.131,0,.263-.2.329-.2,0-.263-.131-.263-.329v-2.761c0-.131.066-.263.2-.263s.2.131.2.263a11.151,11.151,0,0,1,.066,1.446Z" transform="translate(-35.299 -28.41)" fill="#8d98a7"/>
    <path id="Контур_4678" data-name="Контур 4678" d="M1884.5,674.174Z" transform="translate(-19.26 -11.626)" fill="#8d98a7"/>
    <path id="Контур_4679" data-name="Контур 4679" d="M1884.5,674.174Z" transform="translate(-19.26 -11.626)" fill="#8d98a7"/>
    <path id="Контур_4680" data-name="Контур 4680" d="M1884.5,674.174v0Z" transform="translate(-19.26 -11.626)" fill="#8d98a7"/>
    <path id="Контур_4681" data-name="Контур 4681" d="M1884.5,674.1h0v0Z" transform="translate(-19.26 -11.618)" fill="#8d98a7"/>
    <path id="Контур_4682" data-name="Контур 4682" d="M1883,677.789V677" transform="translate(-18.746 -12.612)" fill="none"/>
    <path id="Контур_4683" data-name="Контур 4683" d="M1905,676.1v0" transform="translate(-26.286 -12.303)" fill="none"/>
    <path id="Контур_4684" data-name="Контур 4684" d="M1905.185,673.166h0V673.1l.592.723-.066-.066-.394-.394h0C1905.25,673.3,1905.185,673.231,1905.185,673.166Z" transform="translate(-26.339 -11.275)" fill="#8d98a7"/>
    <path id="Контур_4685" data-name="Контур 4685" d="M1903.766,675.517a3.647,3.647,0,0,0,.526-.394c.329-.263.46-.46.263-.723l.329.394-.789.657-1.709,1.446-.986-1.249.066-.066a4.617,4.617,0,0,1,.394.592c.329.394.592.723,1.117.131a3,3,0,0,1,.789-.789Z" transform="translate(-25.052 -11.721)" fill="#8d98a7"/>
    <path id="Контур_4686" data-name="Контур 4686" d="M1909.863,660.878l-1.906.066h-.066c.131-.46.394-.526,1.249-.526a.493.493,0,0,0,.329-.066c.263-.066.329-.329.2-.657a8.282,8.282,0,0,1-.263-1.775q0-.493-.2-.592h0c-.2-.131-.394-.066-.723,0s-.789.329-1.052,0c-.066-.066-.066-.131-.131-.2l2.169-.131h.2v.263Z" transform="translate(-27.074 -5.757)" fill="#8d98a7"/>
    <path id="Контур_4687" data-name="Контур 4687" d="M1881.389,675.826l-.789-.46h0V675.3h.066a3.671,3.671,0,0,1,.526.329C1881.257,675.694,1881.389,675.76,1881.389,675.826Z" transform="translate(-17.924 -12.029)" fill="#8d98a7"/>
  </g>
  <g id="Iteco-2" data-name="Iteco" transform="translate(-1775.299 -609.2)">
    <path id="Контур_4650-2" data-name="Контур 4650" d="M1937.937,706.926a17.021,17.021,0,0,1-4.4-.46c-3.089-.789-4.141-2.826-4.338-5.653a28.375,28.375,0,0,1,.329-4.075,36.666,36.666,0,0,1,.592-5.324,6.439,6.439,0,0,1,4.535-4.864,21.669,21.669,0,0,1,7.69-.592,11.83,11.83,0,0,1,3.023.657,4.92,4.92,0,0,1,3.352,4.009,11.117,11.117,0,0,1,0,3.615c-.263,2.1-.329,4.207-.657,6.244-.592,3.812-3.024,5.719-6.7,6.244A27.378,27.378,0,0,1,1937.937,706.926Zm.526-4.8h1.315a2.568,2.568,0,0,0,2.695-2.432c.131-.723.2-1.38.263-2.1.131-1.578.394-3.155.394-4.8a1.878,1.878,0,0,0-1.709-2.1,11.484,11.484,0,0,0-3.352-.131c-1.84.131-2.366.789-2.629,2.629-.066.592-.2,1.249-.263,1.84-.131,1.578-.394,3.155-.394,4.733a2.09,2.09,0,0,0,2.235,2.3A5.458,5.458,0,0,0,1938.463,702.128Z" transform="translate(-34.574 -15.654)" fill="#016f54"/>
    <path id="Контур_4651-2" data-name="Контур 4651" d="M1907.065,706.933a20.9,20.9,0,0,1-5.653-.46,4.774,4.774,0,0,1-3.549-4.4,32.508,32.508,0,0,1,.2-5.653c.131-1.315.2-2.695.46-4.01.723-4.141,2.695-5.784,6.7-6.31a25.343,25.343,0,0,1,6.31,0,7.163,7.163,0,0,1,2.826.92,4.355,4.355,0,0,1,2.169,3.418c.066.854,0,1.709,0,2.5,0,.46-.2.526-.592.526h-4.667c-.2,0-.46.066-.46-.329,0-1.775-.329-2.235-2.1-2.432a10.132,10.132,0,0,0-2.432.066,2.28,2.28,0,0,0-2.169,2.169,43.29,43.29,0,0,0-.526,7.164,1.834,1.834,0,0,0,1.775,2.038,12.668,12.668,0,0,0,3.155,0c1.183-.2,1.709-.789,1.84-2.432.066-.526.2-.723.723-.657,1.446.066,2.958,0,4.4,0,.394,0,.526,0,.46.526a12.721,12.721,0,0,1-.986,4.141c-.92,2.038-2.695,2.761-4.8,3.089C1908.906,706.933,1907.722,706.868,1907.065,706.933Z" transform="translate(-23.815 -15.662)" fill="#016f54"/>
    <path id="Контур_4652-2" data-name="Контур 4652" d="M1876.787,706.772h-6.836c-.526,0-.723-.066-.657-.657.2-1.972.394-3.944.526-5.916l.592-6.507c.2-2.366.46-4.732.657-7.1.066-.46.329-.394.592-.394h13.54c.592,0,.723.2.657.723-.131,1.117-.263,2.235-.329,3.352,0,.592-.394.394-.657.394h-7.953c-.657,0-.854.131-.854.789a15.155,15.155,0,0,1-.2,2.432c-.066.526.066.657.592.657h7.493c.657,0,.723.131.657.789a12.951,12.951,0,0,0-.263,2.235c0,.526-.131.723-.723.723h-7.362c-.526,0-.855,0-.855.723-.066.92-.2,1.84-.263,2.761-.066.526.131.657.657.657h8.151c.592,0,.789.066.723.723-.131,1.117-.263,2.3-.329,3.418-.066.46-.394.329-.657.329C1881.388,706.772,1879.087,706.772,1876.787,706.772Z" transform="translate(-14.045 -15.763)" fill="#016f54"/>
    <path id="Контур_4653-2" data-name="Контур 4653" d="M1851.3,686.147h7.559c.657,0,.789.263.723.789a28.805,28.805,0,0,0-.263,3.352c0,.526-.2.592-.657.592h-4.272c-.526,0-.723.131-.789.723-.394,3.681-.592,7.427-1.052,11.108-.132,1.183-.2,2.366-.329,3.549,0,.394-.2.526-.592.526h-4.338c-.46,0-.526-.2-.526-.592.263-2.629.46-5.193.723-7.822l.592-6.9c.066-.46-.131-.592-.526-.592h-4.338c-.394,0-.592-.066-.526-.526.132-1.315.263-2.629.329-3.944.066-.526.394-.329.657-.329C1846.177,686.147,1848.74,686.147,1851.3,686.147Z" transform="translate(-4.928 -15.711)" fill="#016f54"/>
    <path id="Контур_4654-2" data-name="Контур 4654" d="M1910.9,644.209c10.517-1.315,20.9-2.695,31.419-4.009a3.934,3.934,0,0,1-.526,1.315,8.98,8.98,0,0,1-7.756,4.93c-2.235.131-4.4.526-6.639.789-2.366.329-4.732.592-7.1.92-1.906.263-3.812.526-5.784.789-.592.066-.986,0-1.183-.723A12.861,12.861,0,0,0,1910.9,644.209Z" transform="translate(-28.307)" fill="#016f54"/>
    <path id="Контур_4655-2" data-name="Контур 4655" d="M1828.3,640.2c10.517,1.315,20.9,2.695,31.419,4.009a16.3,16.3,0,0,0-2.629,4.47c-.132.46-.526.263-.789.263l-6.31-.789c-2.366-.329-4.732-.592-7.1-.92-2.235-.263-4.47-.592-6.7-.854a11.656,11.656,0,0,1-2.1-.329,8.275,8.275,0,0,1-4.732-3.681A7.387,7.387,0,0,1,1828.3,640.2Z" fill="#016f54"/>
    <path id="Контур_4656-2" data-name="Контур 4656" d="M1833.129,686.2h2.235c.394,0,.46.066.46.46-.329,3.484-.592,6.967-.92,10.517-.263,2.892-.526,5.85-.789,8.742-.066.657-.263.92-.986.92a38.189,38.189,0,0,0-3.878,0c-.526,0-.723-.131-.657-.657.395-3.944.723-7.822,1.052-11.766.2-2.5.46-5.061.657-7.559.066-.526.2-.657.723-.657Z" transform="translate(-0.096 -15.765)" fill="#016f54"/>
    <path id="Контур_4657-2" data-name="Контур 4657" d="M1838.4,650.6c1.972.263,3.878.46,5.784.723,2.695.329,5.39.723,8.085,1.052,2.432.329,4.93.657,7.427.92.394.066.46.2.394.526a12.9,12.9,0,0,0-.394,4.207c0,.394-.131.329-.394.329-1.906-.263-3.812-.46-5.653-.723-2.366-.329-4.733-.592-7.1-.92a12.944,12.944,0,0,1-3.549-.592A9.126,9.126,0,0,1,1838.4,650.6Z" transform="translate(-3.461 -3.564)" fill="#016f54"/>
    <path id="Контур_4658-2" data-name="Контур 4658" d="M1937.406,650.6c-1.052,2.3-2.169,4.4-4.47,5.521a13.026,13.026,0,0,1-3.549.657c-3.089.46-6.179.789-9.268,1.183-1.249.131-2.432.263-3.681.46-.329.066-.394,0-.394-.329a12.074,12.074,0,0,0-.46-4.338c-.131-.329.2-.394.394-.394,1.578-.2,3.221-.394,4.8-.657,2.695-.329,5.39-.723,8.085-1.052C1931.754,651.323,1934.449,650.994,1937.406,650.6Z" transform="translate(-29.903 -3.564)" fill="#016f54"/>
    <path id="Контур_4659-2" data-name="Контур 4659" d="M1913.6,668.1a15.534,15.534,0,0,0,1.709-5c.066-.329.263-.329.46-.394,1.446-.2,2.958-.394,4.4-.592,2.695-.329,5.324-.723,8.019-1.052.723-.066,1.446-.2,2.3-.263a12.232,12.232,0,0,1-3.023,5.127,3.561,3.561,0,0,1-2.3.723c-3.484.46-6.967.854-10.517,1.315A1.875,1.875,0,0,1,1913.6,668.1Z" transform="translate(-29.233 -7.06)" fill="#016f54"/>
    <path id="Контур_4660-2" data-name="Контур 4660" d="M1864.846,668.2c-2.695-.329-5.324-.723-7.887-1.052-1.38-.2-2.695-.394-4.075-.526a3.913,3.913,0,0,1-3.023-1.84,15.605,15.605,0,0,1-1.709-3.286c-.263-.592.066-.592.46-.592,2.958.394,5.981.789,8.939,1.183,1.512.2,3.023.394,4.535.526.657.066,1.052.263,1.117,1.052A15.107,15.107,0,0,0,1864.846,668.2Z" transform="translate(-6.771 -7.094)" fill="#016f54"/>
    <path id="Контур_4661-2" data-name="Контур 4661" d="M1905.175,655.595a.917.917,0,0,1-.2.592,1.443,1.443,0,0,1-.986.526c-.329,0-.723-.066-.789.394v.066c-.066.46.329.46.592.592a1.435,1.435,0,0,1,.789.723v.066a1.251,1.251,0,0,1-.132,1.052c-.263.657-.592,1.315-.854,1.906-.394.92-.92,1.183-1.84.789-.263-.131-.46-.394-.789-.131-.329.394.066.592.2.789.723.986.657,1.183-.263,1.906a.9.9,0,0,1-.263.2,1.154,1.154,0,0,0-.329.263v-.131h0a3.654,3.654,0,0,0,.526-.394c.329-.263.46-.46.263-.723l-.066-.131-.066-.066-.394-.394h0l-.131-.131a.064.064,0,0,0-.066-.066h0c-.2-.394,0-.657.526-1.446a.538.538,0,0,1,.657-.263c.46.131.986.592,1.38.263.329-.263.394-.854.526-1.315,0-.066.066-.131.066-.2.131-.46.46-.92.329-1.315,0-.131-.066-.2-.131-.2h0c-.2-.329-.789-.394-1.183-.526-.2-.066-.263-.131-.263-.263V657.7a.493.493,0,0,1,.066-.329c0-.263.066-.394.066-.592v-.066c.131-.46.394-.526,1.249-.526a.492.492,0,0,0,.329-.066c.263-.066.329-.329.2-.657a8.281,8.281,0,0,1-.263-1.775q0-.493-.2-.592h0c-.2-.131-.394-.066-.723,0s-.789.329-1.052,0c-.066-.066-.066-.131-.131-.2a3.54,3.54,0,0,1-.526-1.38c-.066-.394.46-.592.789-.789.329-.263.526-.46.131-.854a8.21,8.21,0,0,1-.592-.789c-.263-.329-.46-.854-.854-.986-.46-.2-.657.46-1.052.657a.718.718,0,0,1-.986-.066,1.376,1.376,0,0,0-.395-.263,1.058,1.058,0,0,1-.46-1.709c.263-.46.2-.657-.329-.789-.263-.066-.46-.2-.723-.263-1.117-.394-1.117-.394-1.643.592-.263.592-.789.526-1.249.46-.526-.066-.92-.263-.92-.854-.066-.789-.131-.986-.592-.986a.976.976,0,0,0-.394.066h-.329v-.986h.395c.263,0,.526-.066.789-.066.789-.066,1.052.2,1.117.986v.526a.361.361,0,0,0,.2.329c.2.066.263-.066.329-.263s.2-.46.263-.657a.868.868,0,0,1,1.249-.592,19.685,19.685,0,0,1,2.5.986.95.95,0,0,1,.526,1.38c-.066.131-.066.329-.131.46-.132.263-.132.394.066.592a.516.516,0,0,0,.723,0,3.659,3.659,0,0,1,.526-.394.961.961,0,0,1,1.38.2c.526.592.92,1.183,1.38,1.775.657.854.592,1.38-.263,2.038-.2.131-.592.131-.395.657.2.46.526.329.789.263,1.117-.066,1.446.131,1.578,1.249A5.294,5.294,0,0,1,1905.175,655.595Z" transform="translate(-21.728 -1.263)" fill="#026f54"/>
    <path id="Контур_4662-2" data-name="Контур 4662" d="M1886.343,643.561v.986h-.329c-.131,0-.263-.066-.394-.066-.46,0-.526.131-.592.986a.925.925,0,0,1-.92.854c-.526.066-.986.131-1.249-.46-.526-1.052-.526-1.052-1.643-.592-.263.066-.46.263-.723.263-.526.131-.592.329-.329.789.394.723.394,1.315-.46,1.709-.132.066-.263.2-.395.263a.718.718,0,0,1-.986.066c-.329-.2-.592-.854-1.052-.657-.329.131-.592.657-.854.986-.2.263-.329.526-.526.789-.394.394-.2.592.132.854.329.2.854.394.789.789a4.592,4.592,0,0,1-.592,1.578c-.2.329-.657.066-1.052,0-.526-.131-.92-.131-.92.592a8.266,8.266,0,0,1-.263,1.775c-.131.526-.066.723.592.723,1.249.066,1.249.131,1.38,1.512.066.329,0,.46-.329.592-.46.2-1.117.263-1.249.657-.066.394.329.92.46,1.38a.242.242,0,0,1,.066.2c.2.394.329.986.657,1.249.394.263.789-.263,1.249-.394.329-.131.592-.131.723.2.132.46.92.592.592,1.315-.2.46-.855.854-.592,1.315.132.263.395.394.657.592h.066a3.673,3.673,0,0,1,.526.329c.066.066.131.066.2.131h0a1.432,1.432,0,0,1,.329.263,1.742,1.742,0,0,0,.394.329v.657l-.066-.066-1.052-.46c-.131-.066-.2-.2-.329-.263-.329-.263-.657-.46-.986-.723-.986-.657-.986-.92-.263-1.906.2-.2.526-.46.2-.789-.263-.329-.526,0-.723.131-.92.394-1.446.131-1.84-.789-.263-.657-.592-1.315-.854-1.906-.395-.854-.132-1.38.723-1.775.263-.131.657-.066.592-.592s-.46-.394-.789-.394a1.1,1.1,0,0,1-1.117-1.117c.066-.789.131-1.643.263-2.432.131-1.117.46-1.315,1.643-1.249.263,0,.592.2.789-.263s-.2-.46-.394-.657c-.854-.657-.92-1.183-.263-2.038.46-.592.92-1.249,1.38-1.775a1.02,1.02,0,0,1,1.38-.2c.2.131.329.263.526.394a.516.516,0,0,0,.723,0c.263-.2.2-.394.066-.592a1.22,1.22,0,0,1-.132-.46.95.95,0,0,1,.526-1.38c.789-.329,1.643-.723,2.5-.986a.951.951,0,0,1,1.249.592,2.749,2.749,0,0,0,.263.657c.066.131.132.329.329.263a.362.362,0,0,0,.2-.329v-.526c.066-.789.329-1.052,1.117-.986.263,0,.526.066.789.066C1886.08,643.495,1886.211,643.561,1886.343,643.561Z" transform="translate(-15.385 -1.126)" fill="#026f54"/>
    <path id="Контур_4663-2" data-name="Контур 4663" d="M1900.968,660.784c-.066.394-.394.526-1.117.723-.2.066-.46,0-.592.131-.066.066-.066.131-.066.329,0,.394.394.329.657.394a1.432,1.432,0,0,1,.854.592v.066a1.8,1.8,0,0,1,0,1.183c-.2.657-.394,1.315-.657,2.038a1.2,1.2,0,0,1-1.709.854c-.263-.066-.592-.394-.854,0-.329.46.066.592.329.854a1.143,1.143,0,0,1,.131,1.578c-.592.526-1.183,1.117-1.84,1.643-.854.723-1.249.657-2.038-.131-.2-.2-.329-.526-.789-.329s-.131.46-.131.723c.2,1.052-.131,1.512-1.183,1.709-.723.131-1.512.329-2.235.394a1.024,1.024,0,0,1-1.183-.789,1.92,1.92,0,0,1-.131-.592c-.066-.329-.2-.46-.526-.46s-.394.131-.46.394c0,.131-.131.263-.2.46a.942.942,0,0,1-1.315.657c-.854-.263-1.709-.592-2.5-.92a.86.86,0,0,1-.526-1.249,2.75,2.75,0,0,1,.263-.657c.066-.131.131-.329-.066-.394a.24.24,0,0,0-.329.131l-.394.394a1.178,1.178,0,0,1-.46.329l-.066.066-1.052-.46-.2-.066c-.066-.066-.131-.131-.131-.2l-.2-.2-.263-.263.394-.394.066-.066a3.68,3.68,0,0,1,.526.329c.066.066.131.066.2.131h0l.329.2.131-.2a2.659,2.659,0,0,0,.657-.526.913.913,0,0,1,1.249,0c.46.263.854.526.657,1.183-.263,1.117-.263,1.117.854,1.578a2.354,2.354,0,0,1,.723.263c.46.263.657.131.723-.394a1.073,1.073,0,0,1,1.512-.986h.46c.46,0,.657.263.789.657s-.131,1.052.329,1.183c.329.131.854-.131,1.315-.2a4.6,4.6,0,0,1,.92-.2c.526-.066.526-.329.46-.723s-.394-.854-.066-1.117a5.493,5.493,0,0,1,1.512-.789.289.289,0,0,1,.329.066,4.613,4.613,0,0,1,.394.592c.329.394.592.723,1.052.131a7.882,7.882,0,0,1,.789-.723h0a3.643,3.643,0,0,0,.526-.394c.329-.263.46-.46.263-.723l-.066-.131-.066-.066-.394-.394h0l-.131-.131a.064.064,0,0,0-.066-.066h0c-.2-.394,0-.657.526-1.446a.538.538,0,0,1,.657-.263c.46.131.986.592,1.38.263.329-.263.394-.854.526-1.315,0-.066.066-.131.066-.2.131-.46.46-.92.329-1.315,0-.131-.066-.2-.131-.2h0c-.263-.2-.723-.131-1.052-.263-.263-.131-.526-.263-.394-.526v-.066a.913.913,0,0,0,0-.592c0-.2-.066-.394.066-.592l.066-.066a.341.341,0,0,1,.263-.131c.46-.2,1.052-.066,1.315-.46.263-.066.329-.329.2-.657a8.273,8.273,0,0,1-.263-1.775q0-.493-.2-.592l.329-.329h0c.066.066.066.131.131.263a.833.833,0,0,1,.066.394c.131.723.329,1.512.46,2.235A.461.461,0,0,1,1900.968,660.784Z" transform="translate(-17.718 -5.86)" fill="#026f54"/>
    <path id="Контур_4664-2" data-name="Контур 4664" d="M1893.61,651.417c-1.183.986-2.169,1.906-3.287,2.695-.394.263-1.052.131-1.512.2a5.963,5.963,0,0,0-4.667,3.484,3.54,3.54,0,0,0,.394,3.681,1.2,1.2,0,0,1,.132,1.446,4.009,4.009,0,0,0-.329.789c-.329.789-.395.789-.986.2a6.929,6.929,0,0,1-.2-9.925,9.82,9.82,0,0,1,9.662-2.826C1893.018,651.351,1893.215,651.351,1893.61,651.417Z" transform="translate(-18.116 -3.658)" fill="#016f54"/>
    <path id="Контур_4665-2" data-name="Контур 4665" d="M1895.639,652.866c-.986,2.235-1.906,4.47-2.892,6.7-.066.2-.263.329-.394.46l-5.324,4.338c-.066.066-.132.066-.329.131.592-1.38,1.117-2.695,1.709-3.944.329-.854.723-1.643,1.052-2.5a2.764,2.764,0,0,1,1.117-1.183c1.643-1.38,3.286-2.695,4.93-4.075A.229.229,0,0,1,1895.639,652.866Z" transform="translate(-20.014 -4.318)" fill="#cea111"/>
    <path id="Контур_4666-2" data-name="Контур 4666" d="M1895.862,666.636c-2.038,2.563-6.9,3.221-9.662,1.249.066-.066.131-.066.2-.131.986-1.183,2.1-1.315,3.615-.986a5.371,5.371,0,0,0,6.31-3.878,4.548,4.548,0,0,0-.263-2.5c-.066-.2-.263-.329-.2-.592,1.577,1.775,1.117,4.732-1.052,6.441a6.944,6.944,0,0,1-5.521,1.38C1890.341,668.345,1893.627,668.213,1895.862,666.636Z" transform="translate(-19.843 -6.717)" fill="#036f55"/>
    <path id="Контур_4667-2" data-name="Контур 4667" d="M1954.8,726.452v-3.089c0-.131.066-.2.263-.263a.438.438,0,0,1,.46.329c.526.854,1.052,1.709,1.775,2.826v-3.089c.46,0,.329.2.329.394v2.432c0,.2.131.46-.2.46a.531.531,0,0,1-.592-.263,21.011,21.011,0,0,0-1.709-2.5v2.761Z" transform="translate(-43.352 -28.41)" fill="#067156"/>
    <path id="Контур_4668-2" data-name="Контур 4668" d="M1891.674,726.576v-2.3c0-.394-.2-.789.2-1.117a3.454,3.454,0,0,1,2.169.263,1.089,1.089,0,0,1,0,1.38c-.263.329.131.394.131.592a3.3,3.3,0,0,1-.066,1.117c-.46-.394-.066-.986-.394-1.249a1.806,1.806,0,0,0-1.315-.131C1891.543,725.2,1892.332,726.05,1891.674,726.576Zm1.249-3.155c-.46.066-.986-.263-.986.657,0,.592.131.854.789.789.526-.066,1.183.131,1.183-.723C1893.975,723.421,1893.515,723.355,1892.923,723.421Z" transform="translate(-21.702 -28.403)" fill="#177a62"/>
    <path id="Контур_4669-2" data-name="Контур 4669" d="M1856.235,726.584c-.329-.657.2-1.446-.92-1.512-1.183-.066-1.117.592-1.052,1.446-.066-.066-.2-.066-.263-.131V723.3c0-.2.2-.2.394-.2h1.052c.92,0,1.249.329,1.052,1.249a2.026,2.026,0,0,0,0,1.249A3.7,3.7,0,0,1,1856.235,726.584Zm-1.249-3.155c-.394-.066-.855-.131-.789.657,0,.657.2.789.789.789.526-.066,1.117.066,1.117-.723S1855.578,723.429,1854.986,723.429Z" transform="translate(-8.808 -28.41)" fill="#187a62"/>
    <path id="Контур_4670-2" data-name="Контур 4670" d="M1944.951,724.78c.066,1.446-.329,1.906-1.906,1.643a.848.848,0,0,1-.789-.789,4.979,4.979,0,0,1-.066-.986,1.453,1.453,0,0,1,2.1-1.512C1945.083,723.4,1944.951,724.123,1944.951,724.78Zm-.329-.066c0-1.249-.066-1.38-1.052-1.38-.92,0-1.117.263-1.117,1.38,0,1.183.263,1.512,1.117,1.512C1944.491,726.226,1944.622,726.029,1944.622,724.715Z" transform="translate(-39.025 -28.382)" fill="#0f765c"/>
    <path id="Контур_4671-2" data-name="Контур 4671" d="M1842.3,723.1c1.183,0,1.38.2,1.512,1.183a3.17,3.17,0,0,1,0,.789,1.509,1.509,0,0,1-2.3,1.315.7.7,0,0,1-.394-.46,4.837,4.837,0,0,1-.066-2.169C1841.25,723.1,1841.907,723.1,1842.3,723.1Zm-.986,1.578v.329c0,.92.263,1.249.986,1.249.854,0,1.117-.263,1.183-1.183v-.789c-.066-.592-.329-.854-.92-.854C1841.447,723.429,1841.315,723.56,1841.315,724.677Z" transform="translate(-4.339 -28.41)" fill="#0f755c"/>
    <path id="Контур_4672-2" data-name="Контур 4672" d="M1879,724.839c0-1.38.329-1.709,1.643-1.643a1.02,1.02,0,0,1,1.117.854,3.29,3.29,0,0,1,.132.789c0,1.315-.329,1.775-1.446,1.775C1879.263,726.548,1879,726.219,1879,724.839Zm2.432,0v-.263c-.066-.986-.2-1.183-1.117-1.183-.854,0-.986.2-1.052,1.183v.526c0,.92.329,1.183,1.183,1.117C1881.235,726.285,1881.432,725.957,1881.432,724.839Z" transform="translate(-17.375 -28.441)" fill="#0e755b"/>
    <path id="Контур_4673-2" data-name="Контур 4673" d="M1866.5,726.444v-3.221a3.36,3.36,0,0,1,1.972,0c.657.2.526.789.46,1.249-.066.592-.592.723-1.052.657-.789-.066-1.315.066-1.117,1.052C1866.829,726.246,1866.829,726.378,1866.5,726.444Zm1.183-3.024c-.46-.066-.92-.131-.854.723.066.592.132.789.723.723.526-.066,1.117.2,1.183-.723C1868.735,723.354,1868.209,723.42,1867.683,723.42Z" transform="translate(-13.091 -28.402)" fill="#14775e"/>
    <path id="Контур_4674-2" data-name="Контур 4674" d="M1906.795,726.518c-.2-.657-.723-.723-1.315-.789-.657-.066-.92.394-1.38.657.329-.986.723-2.038,1.052-3.024.066-.2.131-.263.329-.263a.36.36,0,0,1,.394.263c.329.986.723,1.972,1.052,2.958C1906.926,726.452,1906.861,726.452,1906.795,726.518Zm-1.183-3.089a3.524,3.524,0,0,0-.657,1.972c0,.2.789.066,1.249.066.066,0,.066-.066.131-.066C1906.138,724.743,1905.875,724.152,1905.612,723.429Z" transform="translate(-25.977 -28.41)" fill="#0e745b"/>
    <path id="Контур_4675-2" data-name="Контур 4675" d="M1830.866,724.218c-.2-.986-.854-.854-1.446-.789-.657.066-.592.657-.592,1.117v.394c0,.526,0,1.117.657,1.315s1.052-.066,1.446-.789c.2.592.131.854-.46.986-1.315.394-1.972-.066-1.972-1.446v-.92c.066-.46.263-.854.723-.92.526-.066,1.183-.2,1.578.329C1831.063,723.692,1831.129,723.89,1830.866,724.218Z" transform="translate(-0.069 -28.411)" fill="#0e745b"/>
    <path id="Контур_4676-2" data-name="Контур 4676" d="M1919.6,723.266c-1.052.394-1.052.394-1.052,1.578a7.02,7.02,0,0,1-.066,1.643c-.394-.2-.2-.526-.263-.789v-.92c0-1.183,0-1.183-1.117-1.578C1917.954,723.266,1918.809,723.266,1919.6,723.266Z" transform="translate(-30.432 -28.445)" fill="#0c7359"/>
    <path id="Контур_4677-2" data-name="Контур 4677" d="M1931.76,724.809v1.315c0,.131,0,.263-.2.329-.2,0-.263-.131-.263-.329v-2.761c0-.131.066-.263.2-.263s.2.131.2.263a11.151,11.151,0,0,1,.066,1.446Z" transform="translate(-35.299 -28.41)" fill="#016f54"/>
    <path id="Контур_4678-2" data-name="Контур 4678" d="M1884.5,674.174Z" transform="translate(-19.26 -11.626)" fill="#026f54"/>
    <path id="Контур_4679-2" data-name="Контур 4679" d="M1884.5,674.174Z" transform="translate(-19.26 -11.626)" fill="#026f54"/>
    <path id="Контур_4680-2" data-name="Контур 4680" d="M1884.5,674.174v0Z" transform="translate(-19.26 -11.626)" fill="#026f54"/>
    <path id="Контур_4681-2" data-name="Контур 4681" d="M1884.5,674.1h0v0Z" transform="translate(-19.26 -11.618)" fill="#026f54"/>
    <path id="Контур_4682-2" data-name="Контур 4682" d="M1883,677.789V677" transform="translate(-18.746 -12.612)" fill="none"/>
    <path id="Контур_4683-2" data-name="Контур 4683" d="M1905,676.1v0" transform="translate(-26.286 -12.303)" fill="none"/>
    <path id="Контур_4684-2" data-name="Контур 4684" d="M1905.185,673.166h0V673.1l.592.723-.066-.066-.394-.394h0C1905.25,673.3,1905.185,673.231,1905.185,673.166Z" transform="translate(-26.339 -11.275)" fill="#026f54"/>
    <path id="Контур_4685-2" data-name="Контур 4685" d="M1903.766,675.517a3.647,3.647,0,0,0,.526-.394c.329-.263.46-.46.263-.723l.329.394-.789.657-1.709,1.446-.986-1.249.066-.066a4.617,4.617,0,0,1,.394.592c.329.394.592.723,1.117.131a3,3,0,0,1,.789-.789Z" transform="translate(-25.052 -11.721)" fill="#026f54"/>
    <path id="Контур_4686-2" data-name="Контур 4686" d="M1909.863,660.878l-1.906.066h-.066c.131-.46.394-.526,1.249-.526a.493.493,0,0,0,.329-.066c.263-.066.329-.329.2-.657a8.282,8.282,0,0,1-.263-1.775q0-.493-.2-.592h0c-.2-.131-.394-.066-.723,0s-.789.329-1.052,0c-.066-.066-.066-.131-.131-.2l2.169-.131h.2v.263Z" transform="translate(-27.074 -5.757)" fill="#026f54"/>
    <path id="Контур_4687-2" data-name="Контур 4687" d="M1881.389,675.826l-.789-.46h0V675.3h.066a3.671,3.671,0,0,1,.526.329C1881.257,675.694,1881.389,675.76,1881.389,675.826Z" transform="translate(-17.924 -12.029)" fill="#026f54"/>
  </g>
</svg>
