<svg id="Компонент_298_2" data-name="Компонент 298 – 2" xmlns="http://www.w3.org/2000/svg" width="192" height="120" viewBox="0 0 192 120">
  <rect id="Прямоугольник_42" data-name="Прямоугольник 42" width="192" height="120" fill="#f4f5f7" opacity="0"/>
  <g id="lider" transform="translate(-343 -976.2)">
    <path id="Контур_5186" data-name="Контур 5186" d="M395.981,1034.253c-.653.109-.707.707-1.034,1.143-.653.925-2.231.707-2.285.326a2.005,2.005,0,0,0-3.265-1.251c-1.36,1.251-1.251,3.428-1.632,5.224-.109.435.435.49.762.49.6.054,1.143.218.707.979-.327.6-.054,1.741-1.034,1.687-3.1-.218-2.666,2.068-3.047,3.918h-4.9c-1.034-4.571,2.666-4.3,5.5-5.006a34.834,34.834,0,0,0-7.455-.327c-1.9.109-2.177-.762-1.741-2.285.49-1.9,1.034-3.809,1.578-5.985h-3.1c-2.285.054-1.524,2.068-2.068,3.21-.272.653-1.034,1.9.326,2.177,1.306.272,1.2,1.034.816,1.687a1.874,1.874,0,0,1-2.34.435c-.653-2.394-2.557-1.36-3.863-1.415-4.081-.109-4.081-.054-3.21-3.972.109-.6.707-1.306-.163-1.578-.707-.218-1.959-.49-2.177.381-.707,2.666-2.775,1.632-4.353,1.85v-1.632c.707-.218.49-1.524,1.415-1.415,1.687.163,2.394-.653,2.993-2.231.6-1.632,2.394-.653,3.591-.762,1.469-.109.816.979.707,1.687-.054.816.327,1.088,1.088,1.088,1.469-.054,2.884-.054,4.353,0,1.251.054,1.088-.979,1.36-1.687s.816-1.959,0-2.177c-2.122-.49-.871-1.687-.816-2.612h2.721c-.163,1.088-.435,2.013,1.36,2.013,3.482,0,3.482.163,2.884,3.537-.054.272-.054.544-.109.979h7.346c1.524,0,2.068-.6,1.2-1.959-.218-.326-.816-.49-.49-.979a1.073,1.073,0,0,1,1.469-.326,3.265,3.265,0,0,0,2.5.653c1.8-.163,2.993.163,1.959,2.34-.218.435-.327.979.109,1.2a1.238,1.238,0,0,0,1.687-.381c.435-.6,1.143-.925,1.578-.327C397.5,1033.709,396.8,1034.145,395.981,1034.253Z" transform="translate(0)" fill="#8d98a7"/>
    <path id="Контур_5187" data-name="Контур 5187" d="M633.861,1037.226c-2.34.218-1.959,2.993-2.177,4.68-.218,1.741,1.578.871,2.5.979,1.2.109,2.449-.109,1.959,1.8-.109.49.163.871.762.871a.935.935,0,0,0,.925-.816c.163-1.088.544-2.013,1.85-1.741,2.775.544,4.19-.707,4.68-3.265v-2.177C640.881,1036.574,637.344,1036.9,633.861,1037.226Zm3.374,2.884c-.218,1.415-1.251,1.251-2.231,1.2-.653-.054-1.578.163-1.306-1.034.272-1.251,1.2-1.36,2.068-1.251C636.691,1039.022,637.4,1038.968,637.235,1040.111Zm5.006-.109c-.109,1.251-.925,1.36-1.9,1.306-.707-.054-1.469.163-1.415-.979.054-1.306.979-1.306,1.9-1.306C641.479,1039.077,642.35,1038.8,642.241,1040Z" transform="translate(-124.754 -4.878)" fill="#8d98a7"/>
    <path id="Контур_5188" data-name="Контур 5188" d="M502.375,1038h0c-.979,1.36-2.5.871-3.809.979-1.088.109-2.5-.653-3.319.871.979.762,2.013.272,2.938.49.707.109,1.9-.544,1.9.708.054,1.2-1.088,1.088-2.013,1.2-1.252.163-2.83-.762-3.863.925,1.524.653,2.938.218,4.353.381.816.054,1.85-.327,2.122.925-1.034.816-6.8,1.524-7.836.925-.272-.163-.653-.544-.653-.762a35.865,35.865,0,0,1,1.85-6.911c.653-1.415,2.666-.816,4.027-.653C499.546,1037.241,501.4,1035.989,502.375,1038Z" transform="translate(-61.177 -4.838)" fill="#8d98a7"/>
    <path id="Контур_5189" data-name="Контур 5189" d="M483.336,1036.869c-5.985-.707-6.421-.435-7.781,5.5-.054.163,0,.381-.109.544-.979,2.068-.218,2.775,1.9,2.5a15.093,15.093,0,0,1,1.578,0c1.469-.381,3.809,1.034,4.625-1.632a50.493,50.493,0,0,0,1.2-4.952C485.023,1037.685,484.7,1037.032,483.336,1036.869Zm-3.972,6.639c-.653-.327-2.285.653-2.013-1.034.272-1.632.054-4.19,3.1-3.537.762.163,2.122-.707,2.177,1.088C482.683,1042.419,481.758,1043.507,479.364,1043.507Z" transform="translate(-53.347 -4.738)" fill="#8d98a7"/>
    <path id="Контур_5190" data-name="Контур 5190" d="M464.492,1040.451c-1.632,1.578-3.21,3.047-4.734,4.516a1.9,1.9,0,0,1-2.231.544c-.979-.49-.054-1.252.054-1.9.326-1.741.762-3.537,1.143-5.278.163-.816.6-1.415,1.469-1.2,1.143.272.163.979.218,1.524.109,1.143-.925,2.177-.381,3.591,1.578-1.469,3.1-2.884,4.571-4.353.707-.708,1.578-1.143,2.394-.6.871.544-.054,1.306-.163,1.959-.272,1.8-.707,3.537-1.143,5.278-.163.653-.49,1.2-1.306,1.088-1.143-.163-.381-.925-.381-1.469C464,1042.954,464.873,1041.975,464.492,1040.451Z" transform="translate(-45.167 -4.946)" fill="#8d98a7"/>
    <path id="Контур_5191" data-name="Контур 5191" d="M598.293,1037.2c.871.435,3.265-.925,3.319.708.054,2.177-2.394.816-3.7,1.2-1.034.327-2.5-.762-3.156,1.034-1.088,3.1-.816,3.428,2.394,3.591,1.034.055,2.83-.871,2.938.762.109,1.959-1.9,1.143-2.938,1.143-5.985.054-5.55.979-4.3-5.441C593.45,1036.763,595.518,1036.981,598.293,1037.2Z" transform="translate(-106.707 -4.958)" fill="#8d98a7"/>
    <path id="Контур_5192" data-name="Контур 5192" d="M619.469,1037.2h-2.721a1.887,1.887,0,0,0-1.959,1.524c-.49,1.9-.871,3.809-1.36,5.877-.218.326-.381.762.163,1.034.544.218,1.306.054,1.36-.435.272-3.156,2.666-1.8,4.244-2.068,1.088-.163,2.34.435,3.047-1.034C624.2,1038.288,623.55,1037.2,619.469,1037.2Zm-1.088,4.19c-.707-.054-2.013.653-2.068-.871-.054-1.9,1.524-1.2,2.612-1.415.6.435,2.122-.708,2.068.925C620.938,1041.716,619.469,1041.5,618.381,1041.39Z" transform="translate(-116.347 -5.014)" fill="#8d98a7"/>
    <path id="Контур_5193" data-name="Контур 5193" d="M549.765,1037.166q-2.693-.081-5.387,0a1.793,1.793,0,0,0-1.687,1.469l-1.469,5.714c-.109.435-.218.979.272,1.2.544.218,1.306.109,1.36-.49.272-2.612,2.177-2.013,3.809-2.013,3.483-.054,4.081-.6,4.3-4.244C551.234,1037.819,550.8,1037.22,549.765,1037.166Zm-3.428,4.19c-.816-.109-2.285.707-2.285-.871,0-1.687,1.524-1.415,2.829-1.36.544.272,1.9-.653,1.959.762C548.949,1041.519,547.534,1041.573,546.337,1041.356Z" transform="translate(-83.482 -4.98)" fill="#8d98a7"/>
    <path id="Контур_5194" data-name="Контур 5194" d="M517.765,1037.166q-2.693-.081-5.387,0a1.793,1.793,0,0,0-1.687,1.469l-1.469,5.714c-.109.435-.218.979.272,1.2.544.218,1.306.109,1.36-.49.272-2.612,2.176-2.013,3.809-2.013,3.482-.054,4.081-.6,4.3-4.244C519.234,1037.819,518.8,1037.22,517.765,1037.166Zm-3.428,4.19c-.816-.109-2.285.707-2.285-.871,0-1.687,1.524-1.415,2.829-1.36.544.272,1.9-.653,1.959.762C516.949,1041.519,515.534,1041.573,514.337,1041.356Z" transform="translate(-68.894 -4.98)" fill="#8d98a7"/>
    <path id="Контур_5195" data-name="Контур 5195" d="M579.861,1040.445c1.469.272,2.34-.326,2.449-2.122.054-.816.6-1.415,1.469-1.143.979.327.326.979.163,1.524-.435,1.85-.871,3.646-1.2,5.5-.163.762-.435,1.469-1.36,1.36-1.306-.163-.49-1.034-.435-1.632.054-.653.435-1.687-.762-1.578-1.36.163-3.21-1.034-3.972,1.143-.218.6,0,1.251-.544,1.741a1.088,1.088,0,0,1-1.252.218c-.381-.163-.381-.544-.272-.925.544-2.177.979-4.353,1.524-6.53a1.155,1.155,0,0,1,1.415-.925c.762.163.6.707.381,1.252C576.651,1040.826,578.337,1040.39,579.861,1040.445Z" transform="translate(-98.505 -4.94)" fill="#8d98a7"/>
    <path id="Контур_5196" data-name="Контур 5196" d="M434.5,1045.142c2.775-2.612,5.387-5.169,8.162-7.563a3.576,3.576,0,0,1,3.863-.327c1.469.762.109,2.068.054,3.156a25.53,25.53,0,0,1-.925,3.918c-.163.816-.544,1.415-1.469,1.2-1.088-.272-.381-.979-.272-1.524.218-1.143.49-2.285.762-3.428.109-.49.653-1.088,0-1.415a1.389,1.389,0,0,0-1.687.435c-1.687,1.632-3.428,3.21-5.115,4.843A2.542,2.542,0,0,1,434.5,1045.142Z" transform="translate(-34.873 -4.849)" fill="#8d98a7"/>
    <path id="Контур_5197" data-name="Контур 5197" d="M565.562,1044.578c-.272-1.8-.49-3.537-.762-5.333-.109-.762.054-1.741-.979-2.013-1.088-.326-1.687.381-2.177,1.2-1.306,2.231-2.666,4.462-4.244,7.074.653.054,1.143.272,1.36.109,1.85-1.306,3.537-2.34,5.5-.054C564.637,1045.992,565.725,1045.829,565.562,1044.578Zm-2.993-2.068a.86.86,0,0,1-.762-.109c-.218-.871.218-1.469,1.088-1.9C563.059,1041.313,563.658,1042.02,562.569,1042.51Z" transform="translate(-90.899 -4.992)" fill="#8d98a7"/>
    <path id="Контур_5198" data-name="Контур 5198" d="M532.471,1037.114a1.827,1.827,0,0,1,.544,0c1.034.272,2.83-.762,3.047.708.326,1.9-1.632,1.034-2.612,1.306-.871.272-.98.925-1.143,1.632-.272,1.252-.6,2.449-.925,3.646-.163.6-.272,1.306-1.2,1.143s-.653-.925-.544-1.524a22.909,22.909,0,0,1,.653-2.612c.435-1.306.871-2.557-1.36-2.394-.653.054-1.034-.218-1.034-.925,0-.871.544-1.034,1.251-1.034C530.294,1037.114,531.383,1037.114,532.471,1037.114Z" transform="translate(-77.451 -4.929)" fill="#8d98a7"/>
    <path id="Контур_5199" data-name="Контур 5199" d="M610.341,1050.134c-.054.816-.544,1.034-1.251,1.034-.49,0-.979-.163-.816-.762s.381-1.252,1.143-1.306C610.123,1049.1,610.341,1049.535,610.341,1050.134Z" transform="translate(-114.075 -10.439)" fill="#8d98a7"/>
  </g>
  <g id="lider-2" data-name="lider" transform="translate(-343 -976.2)">
    <path id="Контур_5186-2" data-name="Контур 5186" d="M395.981,1034.253c-.653.109-.707.707-1.034,1.143-.653.925-2.231.707-2.285.326a2.005,2.005,0,0,0-3.265-1.251c-1.36,1.251-1.251,3.428-1.632,5.224-.109.435.435.49.762.49.6.054,1.143.218.707.979-.327.6-.054,1.741-1.034,1.687-3.1-.218-2.666,2.068-3.047,3.918h-4.9c-1.034-4.571,2.666-4.3,5.5-5.006a34.834,34.834,0,0,0-7.455-.327c-1.9.109-2.177-.762-1.741-2.285.49-1.9,1.034-3.809,1.578-5.985h-3.1c-2.285.054-1.524,2.068-2.068,3.21-.272.653-1.034,1.9.326,2.177,1.306.272,1.2,1.034.816,1.687a1.874,1.874,0,0,1-2.34.435c-.653-2.394-2.557-1.36-3.863-1.415-4.081-.109-4.081-.054-3.21-3.972.109-.6.707-1.306-.163-1.578-.707-.218-1.959-.49-2.177.381-.707,2.666-2.775,1.632-4.353,1.85v-1.632c.707-.218.49-1.524,1.415-1.415,1.687.163,2.394-.653,2.993-2.231.6-1.632,2.394-.653,3.591-.762,1.469-.109.816.979.707,1.687-.054.816.327,1.088,1.088,1.088,1.469-.054,2.884-.054,4.353,0,1.251.054,1.088-.979,1.36-1.687s.816-1.959,0-2.177c-2.122-.49-.871-1.687-.816-2.612h2.721c-.163,1.088-.435,2.013,1.36,2.013,3.482,0,3.482.163,2.884,3.537-.054.272-.054.544-.109.979h7.346c1.524,0,2.068-.6,1.2-1.959-.218-.326-.816-.49-.49-.979a1.073,1.073,0,0,1,1.469-.326,3.265,3.265,0,0,0,2.5.653c1.8-.163,2.993.163,1.959,2.34-.218.435-.327.979.109,1.2a1.238,1.238,0,0,0,1.687-.381c.435-.6,1.143-.925,1.578-.327C397.5,1033.709,396.8,1034.145,395.981,1034.253Z" transform="translate(0)" fill="#35b150"/>
    <path id="Контур_5187-2" data-name="Контур 5187" d="M633.861,1037.226c-2.34.218-1.959,2.993-2.177,4.68-.218,1.741,1.578.871,2.5.979,1.2.109,2.449-.109,1.959,1.8-.109.49.163.871.762.871a.935.935,0,0,0,.925-.816c.163-1.088.544-2.013,1.85-1.741,2.775.544,4.19-.707,4.68-3.265v-2.177C640.881,1036.574,637.344,1036.9,633.861,1037.226Zm3.374,2.884c-.218,1.415-1.251,1.251-2.231,1.2-.653-.054-1.578.163-1.306-1.034.272-1.251,1.2-1.36,2.068-1.251C636.691,1039.022,637.4,1038.968,637.235,1040.111Zm5.006-.109c-.109,1.251-.925,1.36-1.9,1.306-.707-.054-1.469.163-1.415-.979.054-1.306.979-1.306,1.9-1.306C641.479,1039.077,642.35,1038.8,642.241,1040Z" transform="translate(-124.754 -4.878)" fill="#38b253"/>
    <path id="Контур_5188-2" data-name="Контур 5188" d="M502.375,1038h0c-.979,1.36-2.5.871-3.809.979-1.088.109-2.5-.653-3.319.871.979.762,2.013.272,2.938.49.707.109,1.9-.544,1.9.708.054,1.2-1.088,1.088-2.013,1.2-1.252.163-2.83-.762-3.863.925,1.524.653,2.938.218,4.353.381.816.054,1.85-.327,2.122.925-1.034.816-6.8,1.524-7.836.925-.272-.163-.653-.544-.653-.762a35.865,35.865,0,0,1,1.85-6.911c.653-1.415,2.666-.816,4.027-.653C499.546,1037.241,501.4,1035.989,502.375,1038Z" transform="translate(-61.177 -4.838)" fill="#42b65c"/>
    <path id="Контур_5189-2" data-name="Контур 5189" d="M483.336,1036.869c-5.985-.707-6.421-.435-7.781,5.5-.054.163,0,.381-.109.544-.979,2.068-.218,2.775,1.9,2.5a15.093,15.093,0,0,1,1.578,0c1.469-.381,3.809,1.034,4.625-1.632a50.493,50.493,0,0,0,1.2-4.952C485.023,1037.685,484.7,1037.032,483.336,1036.869Zm-3.972,6.639c-.653-.327-2.285.653-2.013-1.034.272-1.632.054-4.19,3.1-3.537.762.163,2.122-.707,2.177,1.088C482.683,1042.419,481.758,1043.507,479.364,1043.507Z" transform="translate(-53.347 -4.738)" fill="#3eb459"/>
    <path id="Контур_5190-2" data-name="Контур 5190" d="M464.492,1040.451c-1.632,1.578-3.21,3.047-4.734,4.516a1.9,1.9,0,0,1-2.231.544c-.979-.49-.054-1.252.054-1.9.326-1.741.762-3.537,1.143-5.278.163-.816.6-1.415,1.469-1.2,1.143.272.163.979.218,1.524.109,1.143-.925,2.177-.381,3.591,1.578-1.469,3.1-2.884,4.571-4.353.707-.708,1.578-1.143,2.394-.6.871.544-.054,1.306-.163,1.959-.272,1.8-.707,3.537-1.143,5.278-.163.653-.49,1.2-1.306,1.088-1.143-.163-.381-.925-.381-1.469C464,1042.954,464.873,1041.975,464.492,1040.451Z" transform="translate(-45.167 -4.946)" fill="#3ab355"/>
    <path id="Контур_5191-2" data-name="Контур 5191" d="M598.293,1037.2c.871.435,3.265-.925,3.319.708.054,2.177-2.394.816-3.7,1.2-1.034.327-2.5-.762-3.156,1.034-1.088,3.1-.816,3.428,2.394,3.591,1.034.055,2.83-.871,2.938.762.109,1.959-1.9,1.143-2.938,1.143-5.985.054-5.55.979-4.3-5.441C593.45,1036.763,595.518,1036.981,598.293,1037.2Z" transform="translate(-106.707 -4.958)" fill="#42b65b"/>
    <path id="Контур_5192-2" data-name="Контур 5192" d="M619.469,1037.2h-2.721a1.887,1.887,0,0,0-1.959,1.524c-.49,1.9-.871,3.809-1.36,5.877-.218.326-.381.762.163,1.034.544.218,1.306.054,1.36-.435.272-3.156,2.666-1.8,4.244-2.068,1.088-.163,2.34.435,3.047-1.034C624.2,1038.288,623.55,1037.2,619.469,1037.2Zm-1.088,4.19c-.707-.054-2.013.653-2.068-.871-.054-1.9,1.524-1.2,2.612-1.415.6.435,2.122-.708,2.068.925C620.938,1041.716,619.469,1041.5,618.381,1041.39Z" transform="translate(-116.347 -5.014)" fill="#3bb356"/>
    <path id="Контур_5193-2" data-name="Контур 5193" d="M549.765,1037.166q-2.693-.081-5.387,0a1.793,1.793,0,0,0-1.687,1.469l-1.469,5.714c-.109.435-.218.979.272,1.2.544.218,1.306.109,1.36-.49.272-2.612,2.177-2.013,3.809-2.013,3.483-.054,4.081-.6,4.3-4.244C551.234,1037.819,550.8,1037.22,549.765,1037.166Zm-3.428,4.19c-.816-.109-2.285.707-2.285-.871,0-1.687,1.524-1.415,2.829-1.36.544.272,1.9-.653,1.959.762C548.949,1041.519,547.534,1041.573,546.337,1041.356Z" transform="translate(-83.482 -4.98)" fill="#3bb355"/>
    <path id="Контур_5194-2" data-name="Контур 5194" d="M517.765,1037.166q-2.693-.081-5.387,0a1.793,1.793,0,0,0-1.687,1.469l-1.469,5.714c-.109.435-.218.979.272,1.2.544.218,1.306.109,1.36-.49.272-2.612,2.176-2.013,3.809-2.013,3.482-.054,4.081-.6,4.3-4.244C519.234,1037.819,518.8,1037.22,517.765,1037.166Zm-3.428,4.19c-.816-.109-2.285.707-2.285-.871,0-1.687,1.524-1.415,2.829-1.36.544.272,1.9-.653,1.959.762C516.949,1041.519,515.534,1041.573,514.337,1041.356Z" transform="translate(-68.894 -4.98)" fill="#3bb355"/>
    <path id="Контур_5195-2" data-name="Контур 5195" d="M579.861,1040.445c1.469.272,2.34-.326,2.449-2.122.054-.816.6-1.415,1.469-1.143.979.327.326.979.163,1.524-.435,1.85-.871,3.646-1.2,5.5-.163.762-.435,1.469-1.36,1.36-1.306-.163-.49-1.034-.435-1.632.054-.653.435-1.687-.762-1.578-1.36.163-3.21-1.034-3.972,1.143-.218.6,0,1.251-.544,1.741a1.088,1.088,0,0,1-1.252.218c-.381-.163-.381-.544-.272-.925.544-2.177.979-4.353,1.524-6.53a1.155,1.155,0,0,1,1.415-.925c.762.163.6.707.381,1.252C576.651,1040.826,578.337,1040.39,579.861,1040.445Z" transform="translate(-98.505 -4.94)" fill="#3eb458"/>
    <path id="Контур_5196-2" data-name="Контур 5196" d="M434.5,1045.142c2.775-2.612,5.387-5.169,8.162-7.563a3.576,3.576,0,0,1,3.863-.327c1.469.762.109,2.068.054,3.156a25.53,25.53,0,0,1-.925,3.918c-.163.816-.544,1.415-1.469,1.2-1.088-.272-.381-.979-.272-1.524.218-1.143.49-2.285.762-3.428.109-.49.653-1.088,0-1.415a1.389,1.389,0,0,0-1.687.435c-1.687,1.632-3.428,3.21-5.115,4.843A2.542,2.542,0,0,1,434.5,1045.142Z" transform="translate(-34.873 -4.849)" fill="#3db458"/>
    <path id="Контур_5197-2" data-name="Контур 5197" d="M565.562,1044.578c-.272-1.8-.49-3.537-.762-5.333-.109-.762.054-1.741-.979-2.013-1.088-.326-1.687.381-2.177,1.2-1.306,2.231-2.666,4.462-4.244,7.074.653.054,1.143.272,1.36.109,1.85-1.306,3.537-2.34,5.5-.054C564.637,1045.992,565.725,1045.829,565.562,1044.578Zm-2.993-2.068a.86.86,0,0,1-.762-.109c-.218-.871.218-1.469,1.088-1.9C563.059,1041.313,563.658,1042.02,562.569,1042.51Z" transform="translate(-90.899 -4.992)" fill="#3ab355"/>
    <path id="Контур_5198-2" data-name="Контур 5198" d="M532.471,1037.114a1.827,1.827,0,0,1,.544,0c1.034.272,2.83-.762,3.047.708.326,1.9-1.632,1.034-2.612,1.306-.871.272-.98.925-1.143,1.632-.272,1.252-.6,2.449-.925,3.646-.163.6-.272,1.306-1.2,1.143s-.653-.925-.544-1.524a22.909,22.909,0,0,1,.653-2.612c.435-1.306.871-2.557-1.36-2.394-.653.054-1.034-.218-1.034-.925,0-.871.544-1.034,1.251-1.034C530.294,1037.114,531.383,1037.114,532.471,1037.114Z" transform="translate(-77.451 -4.929)" fill="#44b75d"/>
    <path id="Контур_5199-2" data-name="Контур 5199" d="M610.341,1050.134c-.054.816-.544,1.034-1.251,1.034-.49,0-.979-.163-.816-.762s.381-1.252,1.143-1.306C610.123,1049.1,610.341,1049.535,610.341,1050.134Z" transform="translate(-114.075 -10.439)" fill="#61c275"/>
  </g>
</svg>
