<svg id="Компонент_296_2" data-name="Компонент 296 – 2" xmlns="http://www.w3.org/2000/svg" width="192" height="120" viewBox="0 0 192 120">
  <rect id="Прямоугольник_42" data-name="Прямоугольник 42" width="192" height="120" fill="#f4f5f7" opacity="0"/>
  <g id="miratorg" transform="translate(-65.1 -163.915)">
    <path id="Контур_4531" data-name="Контур 4531" d="M418.01,643.244c-.627-.853-1.279-1.681-1.894-2.546a40.96,40.96,0,0,1-5.1-9.87,18.384,18.384,0,0,1-.577-1.781c-.063-.238-.063-.69.038-.727a.748.748,0,0,1,1.066.326c.426.84.84,1.681,1.3,2.5a29.528,29.528,0,0,0,10.8,11.35c1.43.84,3.01,1.43,4.527,2.132a1.052,1.052,0,0,0,.4.025,1.733,1.733,0,0,0-.038-.451,56.214,56.214,0,0,1-2.809-10.184c-.314-1.655-.552-3.336-.8-5-.05-.288-.276-.69.3-.765.5-.063.815.05.941.627.263,1.242.539,2.483.9,3.712A26.024,26.024,0,0,0,431.455,642a5.467,5.467,0,0,0,3.938,2.3,4.619,4.619,0,0,0,3.461-1.354,16.11,16.11,0,0,0,3.75-5.869,50.325,50.325,0,0,0,2.5-8.2.794.794,0,0,1,.452-.539c.715-.163.828-.013.715.84a70.147,70.147,0,0,1-3.06,13.595c-.213.627-.439,1.242-.665,1.856.05.05.088.1.138.151.915-.364,1.844-.69,2.734-1.1a28.26,28.26,0,0,0,11.9-10.786c.79-1.254,1.455-2.583,2.157-3.888.4-.74.489-.8,1.5-.552a41.541,41.541,0,0,1-7.863,14.849c.038.038.063.088.1.125a2.551,2.551,0,0,0,.552-.151,39.486,39.486,0,0,0,9.607-6.4,37.01,37.01,0,0,0,6.672-8.1c.351-.577.715-.652,1.43-.339a38.8,38.8,0,0,1-9.82,13.733,37.868,37.868,0,0,1-21.772,9.732,38.773,38.773,0,0,1-40.082-23.44c.765-.288,1.053-.2,1.43.426a36.68,36.68,0,0,0,7.863,9.068,39.762,39.762,0,0,0,8.1,5.192c.226.113.477.176.715.276A1.26,1.26,0,0,0,418.01,643.244Z" transform="translate(-274.358 -388.585)" fill="#8d98a7"/>
    <path id="Контур_4532" data-name="Контур 4532" d="M431.794,188.729A37.811,37.811,0,0,0,410.9,204.945c.213-2.7,7.525-10.949,12.567-14.347a38.167,38.167,0,0,1,17.959-6.5c20.292-1.906,34.138,11.212,38.59,21.346-4.891-8.227-12.052-13.57-21.045-16.63a36.7,36.7,0,0,1,10.761,16.354,5.9,5.9,0,0,1-.364-.6,30.15,30.15,0,0,0-11.852-14.021,23.01,23.01,0,0,0-6.484-2.772c-.188-.05-.389-.075-.715-.138,3.048,5.581,4.264,11.526,5.117,17.583-.7-2.546-1.342-5.117-2.132-7.625a21.122,21.122,0,0,0-3.323-6.71A11.237,11.237,0,0,0,448.161,189a4.515,4.515,0,0,0-6.246.4,16.852,16.852,0,0,0-4.076,6.672c-.765,2.119-1.38,4.3-2.057,6.459a4.888,4.888,0,0,1-.263.828,45.08,45.08,0,0,1,4.691-15.652,2.966,2.966,0,0,0-.477,0,24.889,24.889,0,0,0-9.431,4.778,33.776,33.776,0,0,0-6.722,7.537,50.029,50.029,0,0,0-2.96,5.769,1.39,1.39,0,0,1-.263.4C422.676,199.4,426.213,193.407,431.794,188.729Z" transform="translate(-284.065)" fill="#8d98a7"/>
    <path id="Контур_4533" data-name="Контур 4533" d="M86.125,394.544c0-2.922.013-5.857-.013-8.779,0-.577.125-.828.765-.79.941.05,1.881-.013,2.822.038a1.471,1.471,0,0,1,.941.439c1.693,1.906,3.349,3.85,5,5.769.64.74,1.016.74,1.668-.013,1.668-1.931,3.323-3.863,5.017-5.769a1.461,1.461,0,0,1,.953-.426c.941-.063,1.881,0,2.822-.038.577-.025.765.151.752.74-.025,3.048-.013,6.1-.013,9.155,0,2.885-.013,5.769.013,8.654,0,.564-.176.727-.727.7-1.129-.038-2.257-.025-3.386,0-.514.013-.69-.163-.677-.69.025-3.048.013-6.1.025-9.155a1.672,1.672,0,0,0-.013-.5c-.088-.276-.226-.539-.339-.8-.288.125-.652.176-.84.389-1.028,1.154-2.019,2.333-3.022,3.512-.226.276-.464.539-.7.8-.514.564-.916.577-1.4,0-1.154-1.342-2.3-2.709-3.461-4.051-.276-.314-.489-.828-1.028-.665-.6.188-.426.74-.426,1.179-.013,3.1-.013,6.183.013,9.281,0,.514-.138.7-.665.69q-1.693-.056-3.386,0c-.539.013-.715-.163-.715-.715.038-2.985.025-5.97.025-8.955Z" transform="translate(0 -175.841)" fill="#8d98a7"/>
    <path id="Контур_4534" data-name="Контур 4534" d="M803.157,383a11.047,11.047,0,0,1,8.064,3.148,9.473,9.473,0,0,1-2.37,15.2,12.449,12.449,0,0,1-13.256-1.079,9.487,9.487,0,0,1,.615-15.263A12.016,12.016,0,0,1,803.157,383Zm-6.258,9.845c-.013,3.587,2.358,5.92,6.057,5.957s6.208-2.32,6.246-5.869a5.7,5.7,0,0,0-6.02-6.02C799.332,386.9,796.924,389.183,796.9,392.845Z" transform="translate(-617.403 -174.117)" fill="#8d98a7"/>
    <path id="Контур_4535" data-name="Контур 4535" d="M1145.663,388.328c-.891-.339-1.618-.652-2.358-.9a14.493,14.493,0,0,0-6.421-.715,6.009,6.009,0,0,0-5.556,5.731,5.448,5.448,0,0,0,3.236,5.343,8.039,8.039,0,0,0,6.283.213.709.709,0,0,0,.527-.74c.038-1.793.025-1.806-1.768-1.806-1.217,0-1.091.138-1.1-1.116-.012-.6.013-1.217,0-1.819-.012-.364.1-.539.5-.539,2.107.013,4.226.013,6.333.013.527,0,.74.251.74.778-.013,2.195-.013,4.39.012,6.584a1.14,1.14,0,0,1-.627,1,12.064,12.064,0,0,1-5.029,1.831,13.328,13.328,0,0,1-9.544-1.693,8.906,8.906,0,0,1-4.377-8.591,9.055,9.055,0,0,1,5.706-8.052,15.993,15.993,0,0,1,10.146-.7c.953.2,1.869.577,2.809.865a.673.673,0,0,1,.514.752C1145.65,385.932,1145.663,387.074,1145.663,388.328Z" transform="translate(-909.906 -173.814)" fill="#8d98a7"/>
    <path id="Контур_4536" data-name="Контур 4536" d="M373.171,395.146a4.581,4.581,0,0,1,.84.74,28.749,28.749,0,0,1,1.881,3.01c.8,1.58,1.5,3.223,2.245,4.828a4.155,4.155,0,0,1,.125.4h-1.217c-1.041,0-2.094-.013-3.135.025a.992.992,0,0,1-1.1-.677c-.64-1.5-1.279-3.01-2.032-4.452a9.366,9.366,0,0,0-1.655-2.245c-.715-.7-1.718-.527-2.634-.464-.1.013-.263.376-.263.589-.013,2.094-.013,4.176-.013,6.271,0,.966,0,.966-.991.966-1.028,0-2.044-.038-3.073,0-.489.013-.652-.138-.652-.64q.019-6.584.013-13.168c0-1.568.025-3.135-.013-4.7-.013-.527.125-.727.69-.727,2.734.038,5.481,0,8.215.038a5.979,5.979,0,0,1,4.841,2.232,4.965,4.965,0,0,1-1.179,7.387C373.785,394.745,373.509,394.921,373.171,395.146Zm-6.973-4.7h0c.013.564,0,1.129.013,1.693,0,.376.151.677.564.677a24.342,24.342,0,0,0,2.872-.063,2.031,2.031,0,0,0,1.831-2.283,1.9,1.9,0,0,0-1.931-2.032c-.953-.1-1.919-.075-2.872-.1-.351-.013-.489.151-.489.489C366.21,389.365,366.2,389.9,366.2,390.443Z" transform="translate(-240.856 -175.779)" fill="#8d98a7"/>
    <path id="Контур_4537" data-name="Контур 4537" d="M1003.558,395.055c2.145,1.63,2.784,4.051,3.85,6.2.439.878.815,1.768,1.292,2.809h-2.057c-.84,0-1.668-.038-2.508-.013a.866.866,0,0,1-.941-.627c-.665-1.53-1.354-3.06-2.057-4.578a8.082,8.082,0,0,0-.8-1.342,3.185,3.185,0,0,0-3.424-1.292c-.163.05-.326.4-.326.615-.013,1.881,0,3.762.013,5.644,0,1.58,0,1.593-1.593,1.58-.84,0-1.668-.038-2.508-.013-.477.013-.615-.15-.6-.615.025-2.157.013-4.3.013-6.459,0-3.8.013-7.613-.013-11.413,0-.552.125-.765.727-.753,2.721.038,5.43.013,8.152.038a6.28,6.28,0,0,1,4.427,1.756,5.029,5.029,0,0,1-.9,7.964C1004.072,394.7,1003.859,394.867,1003.558,395.055Zm-6.986-4.678h0c.013.539,0,1.091.013,1.63.013.389.15.727.6.727a22.53,22.53,0,0,0,2.759-.05,2.058,2.058,0,0,0,1.944-2.27,1.931,1.931,0,0,0-1.969-2.082c-.928-.088-1.881-.063-2.822-.1-.426-.025-.552.188-.539.577C996.585,389.324,996.573,389.851,996.573,390.377Z" transform="translate(-792.194 -175.688)" fill="#8d98a7"/>
    <path id="Контур_4538" data-name="Контур 4538" d="M520.547,404.084c-.364.025-.69.063-1.016.063-1.1,0-2.22-.025-3.323,0a.822.822,0,0,1-.928-.627c-.3-.84-.69-1.655-1.016-2.5a1.011,1.011,0,0,0-1.041-.727h-7.149a1.1,1.1,0,0,0-1.154.853c-.276.828-.589,1.655-.928,2.458-.088.2-.3.489-.464.489-1.518.038-3.035.025-4.628.025a4.344,4.344,0,0,1,.1-.5q3.649-9.03,7.287-18.072a.876.876,0,0,1,.966-.652c1.417.038,2.847.013,4.264,0a.737.737,0,0,1,.79.464q4.063,9.162,8.139,18.323C520.484,403.808,520.5,403.908,520.547,404.084Zm-11.112-14.573a3.142,3.142,0,0,0-.263.4c-.727,1.931-1.467,3.863-2.17,5.807a.918.918,0,0,0,.928,1.317c1,.025,2.007.013,3,0,1.066-.013,1.43-.552,1.016-1.543-.665-1.643-1.354-3.273-2.032-4.916C509.786,390.263,509.635,389.95,509.435,389.511Z" transform="translate(-361.029 -175.775)" fill="#8d98a7"/>
    <path id="Контур_4539" data-name="Контур 4539" d="M650.383,385.013c2.885,0,5.769.013,8.641-.013.539,0,.752.138.727.7a20.1,20.1,0,0,0,0,2.132c.025.477-.176.615-.627.6-1.605-.013-3.211,0-4.828,0-1.354,0-1.58.226-1.58,1.543,0,4.49-.013,8.98.013,13.469,0,.589-.138.815-.765.79-1.1-.05-2.22-.038-3.323-.013-.527.013-.665-.163-.665-.677.013-4.578.013-9.143,0-13.72,0-1.179-.213-1.392-1.38-1.392-1.668,0-3.336-.013-5.017.013-.451,0-.64-.125-.615-.6a20.164,20.164,0,0,0,0-2.132c-.038-.539.125-.715.69-.715,2.922.025,5.832.013,8.729.013Z" transform="translate(-485.272 -175.866)" fill="#8d98a7"/>
    <path id="Контур_4540" data-name="Контур 4540" d="M287.438,394.617c0-2.985.013-5.97-.013-8.955,0-.5.125-.7.665-.677,1.141.038,2.3.025,3.449,0,.452-.013.627.1.627.589q-.019,9.011,0,18.035c0,.464-.15.615-.615.6-1.166-.025-2.333-.038-3.512,0-.5.013-.64-.163-.64-.64q.019-4.477.013-8.955Z" transform="translate(-176.054 -175.852)" fill="#8d98a7"/>
    <path id="Контур_4541" data-name="Контур 4541" d="M153.306,579.708c.4,1.354.138,1.793-1.254,2.17-.188.05-.339.238-.514.364a1.919,1.919,0,0,0,.514.389,5.366,5.366,0,0,1,1.129.339,1.451,1.451,0,0,1,.69.9,1.225,1.225,0,0,1-.577.978,4.1,4.1,0,0,1-1.743.263,1.3,1.3,0,0,1-1.367-.978,1.023,1.023,0,0,1,.615-1.179c.1-.514.176-.89.251-1.279.038.013.075.013.113.025a.094.094,0,0,0-.013-.063c-.514-.527-.865-1.116-.464-1.844s1.1-.74,1.806-.753a8.92,8.92,0,0,1,1,.013,1.473,1.473,0,0,1,.451.213c-.138.113-.263.238-.4.351C153.456,579.657,153.394,579.67,153.306,579.708Zm-1.2,4.891c.364-.05,1,.05,1.041-.589s-.589-.652-1.041-.715c-.715-.1-1.2.176-1.217.64C150.86,584.373,151.236,584.6,152.1,584.6Zm-.05-4.916a.849.849,0,0,0-.878.778.758.758,0,0,0,.865.753c.489-.025.79-.276.778-.778A.749.749,0,0,0,152.052,579.682Z" transform="translate(-56.019 -345.566)" fill="#8d98a7"/>
    <path id="Контур_4542" data-name="Контур 4542" d="M1255.606,579.721c.389,1.367.138,1.768-1.254,2.145-.2.05-.351.238-.527.364a2.407,2.407,0,0,0,.514.389c.326.125.69.176,1.028.276a1.039,1.039,0,0,1,.84.966,1.06,1.06,0,0,1-.715,1.079,2.754,2.754,0,0,1-2.37-.025c-.928-.451-.89-1.342-.025-1.982l.213-1.317a4.759,4.759,0,0,1-.489-1.129,1.233,1.233,0,0,1,1.254-1.4,9.331,9.331,0,0,1,1.568-.025,1.749,1.749,0,0,1,.552.238c-.15.113-.3.213-.451.326A.558.558,0,0,1,1255.606,579.721Zm-1.3,3.549c-.238.013-.364-.025-.439.038-.251.2-.489.426-.727.64.226.2.426.539.677.589a2.853,2.853,0,0,0,1.217-.063.68.68,0,0,0,.389-.477.658.658,0,0,0-.351-.5A2.433,2.433,0,0,0,1254.3,583.271Zm.828-2.809a.8.8,0,0,0-.8-.778.785.785,0,0,0-.84.79.827.827,0,0,0,1.643-.013Z" transform="translate(-1020.062 -345.568)" fill="#8d98a7"/>
    <path id="Контур_4543" data-name="Контур 4543" d="M338.59,564.367a3.731,3.731,0,0,0,.477-.088,1.7,1.7,0,0,1,2.345,1.3,2.081,2.081,0,0,1-1.43,2.671,3.225,3.225,0,0,1-.5.063c-1.518.075-1.681-.088-1.681-1.58,0-1.354,0-2.721.013-4.076,0-.276-.038-.564.389-.564s.4.263.4.552C338.59,563.213,338.59,563.765,338.59,564.367Zm-.013,1.982a3.349,3.349,0,0,1,0,.5c-.1.627.238.8.79.79a1.249,1.249,0,0,0,1.267-.916,1.256,1.256,0,0,0-1.643-1.743c-.213.088-.314.514-.4.8A2.116,2.116,0,0,0,338.578,566.349Z" transform="translate(-220.133 -330.753)" fill="#8d98a7"/>
    <path id="Контур_4544" data-name="Контур 4544" d="M1070.275,564.266v-1.618c0-.276.038-.552.389-.464a.621.621,0,0,1,.351.451c.025,1.756.013,3.512.025,5.267,0,.364-.151.477-.489.464-.4-.013-.79.013-1.191-.013a2.058,2.058,0,0,1,.163-4.114C1069.71,564.229,1069.911,564.254,1070.275,564.266Zm0,2.057a6.343,6.343,0,0,1,0-.69c.075-.6-.238-.765-.765-.753a1.222,1.222,0,0,0-1.229.79,1.582,1.582,0,0,0,.176,1.656,1.485,1.485,0,0,0,1.568.339c.151-.038.188-.577.263-.9C1070.3,566.611,1070.275,566.461,1070.275,566.323Z" transform="translate(-858.221 -330.815)" fill="#8d98a7"/>
    <path id="Контур_4545" data-name="Контур 4545" d="M883.409,564.7c.326-.151.5-.251.69-.326a1.326,1.326,0,0,1,1.919,1.066,19.323,19.323,0,0,1,0,2.558c0,.125-.238.238-.376.364-.113-.138-.313-.263-.326-.4-.038-.665-.013-1.329-.025-2.007-.012-.727-.3-1.116-.815-1.116a1.056,1.056,0,0,0-1.053,1.129c-.012.627.025,1.254-.025,1.881-.013.176-.226.351-.351.527-.125-.163-.376-.326-.376-.489-.025-1.756-.025-3.512,0-5.255,0-.151.238-.288.364-.426.125.15.351.288.364.439C883.421,563.279,883.409,563.918,883.409,564.7Z" transform="translate(-696.651 -330.843)" fill="#8d98a7"/>
    <path id="Контур_4546" data-name="Контур 4546" d="M943.016,582.663a2.011,2.011,0,0,1-2.12-2.132,2.057,2.057,0,0,1,2.17-2.032,2.084,2.084,0,1,1-.05,4.164Zm1.43-2.057a1.4,1.4,0,1,0-1.4,1.43A1.356,1.356,0,0,0,944.445,580.606Z" transform="translate(-747.592 -345.098)" fill="#8d98a7"/>
    <path id="Контур_4547" data-name="Контур 4547" d="M653.748,580.731c-.752,0-1.48-.013-2.207.013-.176,0-.464.063-.489.138a.822.822,0,0,0,.125.564,1.351,1.351,0,0,0,1.543.527,8.085,8.085,0,0,0,.89-.276c.2.414.025.64-.326.8a2.144,2.144,0,0,1-2.922-2.922,1.858,1.858,0,0,1,2.17-.953C653.372,578.837,653.8,579.552,653.748,580.731ZM651,580.254h1.593c.489,0,.514-.251.314-.589a.948.948,0,0,0-1.116-.452C651.315,579.313,651.039,579.615,651,580.254Z" transform="translate(-493.303 -345.147)" fill="#8d98a7"/>
    <path id="Контур_4548" data-name="Контур 4548" d="M1191.856,580.662c0-.5-.013-1,0-1.505.012-.477.263-.6.69-.426a.908.908,0,0,0,.627.038,1.375,1.375,0,0,1,2.094,1.229,20.213,20.213,0,0,1-.013,2.308c-.013.138-.251.276-.376.4-.113-.151-.326-.3-.326-.451-.038-.7.025-1.43-.063-2.12-.038-.314-.288-.79-.539-.865a1.628,1.628,0,0,0-1.053.288c-.151.075-.226.389-.226.6-.025.69-.013,1.38-.013,2.069,0,.276-.038.564-.389.464a.665.665,0,0,1-.389-.464c-.05-.527-.025-1.053-.025-1.568Z" transform="translate(-967.073 -345.179)" fill="#8d98a7"/>
    <path id="Контур_4549" data-name="Контур 4549" d="M404.8,580.919c0,.527.013,1.041,0,1.568-.013.489-.251.6-.677.389a.77.77,0,0,0-.577-.038,1.384,1.384,0,0,1-2.107-1.279,21.351,21.351,0,0,1,.013-2.195c.013-.151.238-.288.364-.439.125.151.339.288.351.452.038.665,0,1.342.025,2.007.013.715.326,1.053.89,1.028a.956.956,0,0,0,.978-1.054c.013-.665-.025-1.342.013-2.007.013-.15.226-.3.351-.451.125.151.351.288.364.439.038.539.013,1.054.013,1.58Z" transform="translate(-275.773 -345.448)" fill="#8d98a7"/>
    <path id="Контур_4550" data-name="Контур 4550" d="M588.643,580.706c0-.5-.013-1,0-1.5.013-.477.263-.6.69-.426a.907.907,0,0,0,.627.038,1.373,1.373,0,0,1,2.082,1.3c.025.727.025,1.467-.013,2.195-.013.15-.238.3-.364.439-.125-.151-.339-.288-.339-.439-.038-.665-.013-1.342-.025-2.007-.013-.7-.351-1.091-.865-1.091a1.077,1.077,0,0,0-1.016,1.116c-.013.665.025,1.342-.025,2.007-.013.15-.238.288-.364.426-.125-.138-.364-.276-.376-.426C588.618,581.8,588.643,581.245,588.643,580.706Z" transform="translate(-439.51 -345.223)" fill="#8d98a7"/>
    <path id="Контур_4551" data-name="Контур 4551" d="M466.163,581.8a3.741,3.741,0,0,0,.978.326,2.075,2.075,0,0,0,.8-.288,2.69,2.69,0,0,0-.426-.677c-.276-.251-.69-.351-.916-.627a1.8,1.8,0,0,1-.451-1.066c.025-.514.477-.765.978-.8a3.682,3.682,0,0,1,1.041.113c.389.088.477.351.339.753a4.86,4.86,0,0,0-.966-.226,1.482,1.482,0,0,0-.6.226c.088.188.125.439.276.564a11.5,11.5,0,0,1,1.066.753,1.419,1.419,0,0,1,.439.991,1.3,1.3,0,0,1-.765.853,3.529,3.529,0,0,1-1.568-.125c-.176-.05-.263-.426-.389-.665A1.143,1.143,0,0,0,466.163,581.8Z" transform="translate(-332.255 -345.234)" fill="#8d98a7"/>
    <path id="Контур_4552" data-name="Контур 4552" d="M716.463,582.055a3.38,3.38,0,0,0,.928.314,2.453,2.453,0,0,0,.815-.288,3.054,3.054,0,0,0-.414-.677c-.314-.276-.752-.4-1.016-.715a1.414,1.414,0,0,1-.351-1.028,1.174,1.174,0,0,1,.765-.69,2.779,2.779,0,0,1,1.279.075c.188.05.3.364.439.552l-.151.151a3.228,3.228,0,0,0-.815-.2,2.665,2.665,0,0,0-.727.213,2.355,2.355,0,0,0,.364.627c.326.288.74.477,1.066.765a1,1,0,0,1-.2,1.706,1.95,1.95,0,0,1-1.856-.075c-.163-.088-.188-.426-.289-.652C716.35,582.1,716.4,582.08,716.463,582.055Z" transform="translate(-551.164 -345.468)" fill="#8d98a7"/>
    <path id="Контур_4553" data-name="Контур 4553" d="M781.233,579.7a5.491,5.491,0,0,0-1-.238c-.188-.013-.4.15-.589.238a2.075,2.075,0,0,0,.288.552c.339.276.727.489,1.079.752.389.276.665.7.426,1.129a1.735,1.735,0,0,1-.941.778,3.005,3.005,0,0,1-1.279-.1c-.451-.088-.527-.4-.364-.84a4.117,4.117,0,0,0,1,.339,2.413,2.413,0,0,0,.815-.276,2.76,2.76,0,0,0-.4-.677,9.29,9.29,0,0,0-.941-.615.99.99,0,0,1-.452-1.141,1.016,1.016,0,0,1,.978-.74,4.183,4.183,0,0,1,1.041.1C781.258,579.036,781.409,579.274,781.233,579.7Z" transform="translate(-605.801 -345.409)" fill="#8d98a7"/>
    <path id="Контур_4554" data-name="Контур 4554" d="M89.891,579.54l-.263.075c-.088.038-.176.063-.263.1l-.226.151c-.113-.025-.226-.063-.326-.088-.075-.514.3-.665.665-.815.088-.025.163-.038.251-.063h.8c.088.025.176.05.251.075l.665.552c.025.79.038,1.58.075,2.37a2.087,2.087,0,0,0,.176.539l.3.038c.013.113.025.226.038.351l-.025.013c-.088.05-.188.088-.276.138-.213-.013-.426-.025-.64-.025l-.113-.075a6.393,6.393,0,0,1-.69.05c-.351,0-.79.1-1.053-.063-.765-.477-.7-1.2.1-1.693a6.817,6.817,0,0,1,1.028-.426c.088-.025.176-.063.276-.088.075-.075.15-.138.226-.213,0-.075.013-.151.013-.226-.163-.213-.314-.414-.477-.627C90.217,579.565,90.054,579.552,89.891,579.54Zm.878,1.367a7.735,7.735,0,0,0-1.166.665.628.628,0,0,0-.088.6.955.955,0,0,0,.715.314C90.87,582.361,90.932,582.148,90.769,580.907Z" transform="translate(-2.274 -345.448)" fill="#8d98a7"/>
    <path id="Контур_4555" data-name="Контур 4555" d="M216.866,579.105c.075-.063.213-.213.376-.339a.932.932,0,0,1,1.217.013.477.477,0,0,1,.113.451.557.557,0,0,1-.477.2c-.878-.263-1.417.063-1.492.978-.05.539-.025,1.091-.05,1.63-.013.263.138.627-.351.64s-.376-.339-.389-.615c-.013-.9-.025-1.793.013-2.7a2.313,2.313,0,0,1,.263-.727C216.3,578.767,216.527,578.9,216.866,579.105Z" transform="translate(-113.434 -345.14)" fill="#8d98a7"/>
    <path id="Контур_4556" data-name="Контур 4556" d="M1017.7,565.273c0,.853.013,1.718-.013,2.571,0,.151-.226.288-.351.439-.125-.151-.364-.288-.364-.439-.025-1.781-.025-3.549,0-5.33,0-.138.251-.276.389-.414.113.138.326.276.326.414C1017.709,563.442,1017.7,564.357,1017.7,565.273Z" transform="translate(-814.108 -330.755)" fill="#8d98a7"/>
    <path id="Контур_4557" data-name="Контур 4557" d="M286.878,583.26c0-1.216-.013-2.408.013-3.6,0-.125.263-.376.339-.364.163.038.4.238.414.364.025,1.091.013,2.17.013,3.261C287.656,583.436,287.317,583.335,286.878,583.26Z" transform="translate(-175.595 -345.795)" fill="#8d98a7"/>
    <path id="Контур_4558" data-name="Контур 4558" d="M1140.443,581.107c0-.539-.025-1.079.013-1.618.012-.138.213-.263.339-.389.138.125.4.251.414.389.038,1.1.025,2.207,0,3.3,0,.125-.238.326-.376.339s-.364-.2-.364-.339C1140.418,582.235,1140.443,581.671,1140.443,581.107Z" transform="translate(-922.106 -345.623)" fill="#8d98a7"/>
    <path id="Контур_4559" data-name="Контур 4559" d="M537.443,581.144c0,.527.025,1.041-.013,1.568-.013.151-.238.288-.364.439-.125-.138-.364-.276-.364-.426q-.056-1.6,0-3.2c0-.151.238-.288.364-.426.125.138.364.276.376.426.038.539.013,1.079,0,1.618Z" transform="translate(-394.066 -345.623)" fill="#8d98a7"/>
    <path id="Контур_4560" data-name="Контур 4560" d="M1140.861,566.825c-.2-.314-.4-.5-.376-.652s.276-.389.427-.376a.607.607,0,0,1,.389.426C1141.3,566.361,1141.087,566.537,1140.861,566.825Z" transform="translate(-922.148 -333.988)" fill="#8d98a7"/>
    <path id="Контур_4561" data-name="Контур 4561" d="M537.123,563.9c.2.3.414.489.389.64a.58.58,0,0,1-.427.389c-.138,0-.376-.251-.389-.414S536.91,564.2,537.123,563.9Z" transform="translate(-394.085 -332.33)" fill="#8d98a7"/>
    <path id="Контур_4562" data-name="Контур 4562" d="M98.2,584c.163.013.326.025.489.025C98.526,584.025,98.363,584.013,98.2,584Z" transform="translate(-10.582 -349.909)" fill="#8d98a7"/>
    <path id="Контур_4563" data-name="Контур 4563" d="M112.9,610.338c.088-.05.188-.088.276-.138A2.848,2.848,0,0,1,112.9,610.338Z" transform="translate(-23.439 -372.823)" fill="#8d98a7"/>
    <path id="Контур_4564" data-name="Контур 4564" d="M102.176,592.8c-.088.025-.188.063-.276.088A1.779,1.779,0,0,1,102.176,592.8Z" transform="translate(-13.818 -357.605)" fill="#8d98a7"/>
    <path id="Контур_4565" data-name="Контур 4565" d="M105.813,589.2c0,.075-.013.151-.013.226A1.363,1.363,0,0,0,105.813,589.2Z" transform="translate(-17.229 -354.457)" fill="#8d98a7"/>
    <path id="Контур_4566" data-name="Контур 4566" d="M94,584.7c.088-.038.176-.063.263-.1C94.176,584.638,94.088,584.663,94,584.7Z" transform="translate(-6.909 -350.434)" fill="#8d98a7"/>
    <path id="Контур_4567" data-name="Контур 4567" d="M95.051,578.9c-.088.025-.163.038-.251.063C94.888,578.938,94.976,578.925,95.051,578.9Z" transform="translate(-7.609 -345.449)" fill="#8d98a7"/>
    <path id="Контур_4568" data-name="Контур 4568" d="M103.451,578.875c-.088-.025-.176-.05-.251-.075A.958.958,0,0,0,103.451,578.875Z" transform="translate(-14.955 -345.361)" fill="#8d98a7"/>
    <path id="Контур_4569" data-name="Контур 4569" d="M881.413,355.863l-.013-.063.038.013Z" transform="translate(-695.558 -150.328)" fill="#8d98a7"/>
    <path id="Контур_4570" data-name="Контур 4570" d="M106.9,610.5l.113.075A.438.438,0,0,1,106.9,610.5Z" transform="translate(-18.191 -373.085)" fill="#8d98a7"/>
  </g>
  <g id="miratorg-2" data-name="miratorg" transform="translate(-65.1 -163.915)" opacity="0.998">
    <path id="Контур_4531-2" data-name="Контур 4531" d="M418.01,643.244c-.627-.853-1.279-1.681-1.894-2.546a40.96,40.96,0,0,1-5.1-9.87,18.384,18.384,0,0,1-.577-1.781c-.063-.238-.063-.69.038-.727a.748.748,0,0,1,1.066.326c.426.84.84,1.681,1.3,2.5a29.528,29.528,0,0,0,10.8,11.35c1.43.84,3.01,1.43,4.527,2.132a1.052,1.052,0,0,0,.4.025,1.733,1.733,0,0,0-.038-.451,56.214,56.214,0,0,1-2.809-10.184c-.314-1.655-.552-3.336-.8-5-.05-.288-.276-.69.3-.765.5-.063.815.05.941.627.263,1.242.539,2.483.9,3.712A26.024,26.024,0,0,0,431.455,642a5.467,5.467,0,0,0,3.938,2.3,4.619,4.619,0,0,0,3.461-1.354,16.11,16.11,0,0,0,3.75-5.869,50.325,50.325,0,0,0,2.5-8.2.794.794,0,0,1,.452-.539c.715-.163.828-.013.715.84a70.147,70.147,0,0,1-3.06,13.595c-.213.627-.439,1.242-.665,1.856.05.05.088.1.138.151.915-.364,1.844-.69,2.734-1.1a28.26,28.26,0,0,0,11.9-10.786c.79-1.254,1.455-2.583,2.157-3.888.4-.74.489-.8,1.5-.552a41.541,41.541,0,0,1-7.863,14.849c.038.038.063.088.1.125a2.551,2.551,0,0,0,.552-.151,39.486,39.486,0,0,0,9.607-6.4,37.01,37.01,0,0,0,6.672-8.1c.351-.577.715-.652,1.43-.339a38.8,38.8,0,0,1-9.82,13.733,37.868,37.868,0,0,1-21.772,9.732,38.773,38.773,0,0,1-40.082-23.44c.765-.288,1.053-.2,1.43.426a36.68,36.68,0,0,0,7.863,9.068,39.762,39.762,0,0,0,8.1,5.192c.226.113.477.176.715.276A1.26,1.26,0,0,0,418.01,643.244Z" transform="translate(-274.358 -388.585)" fill="#908f94"/>
    <path id="Контур_4532-2" data-name="Контур 4532" d="M431.794,188.729A37.811,37.811,0,0,0,410.9,204.945c.213-2.7,7.525-10.949,12.567-14.347a38.167,38.167,0,0,1,17.959-6.5c20.292-1.906,34.138,11.212,38.59,21.346-4.891-8.227-12.052-13.57-21.045-16.63a36.7,36.7,0,0,1,10.761,16.354,5.9,5.9,0,0,1-.364-.6,30.15,30.15,0,0,0-11.852-14.021,23.01,23.01,0,0,0-6.484-2.772c-.188-.05-.389-.075-.715-.138,3.048,5.581,4.264,11.526,5.117,17.583-.7-2.546-1.342-5.117-2.132-7.625a21.122,21.122,0,0,0-3.323-6.71A11.237,11.237,0,0,0,448.161,189a4.515,4.515,0,0,0-6.246.4,16.852,16.852,0,0,0-4.076,6.672c-.765,2.119-1.38,4.3-2.057,6.459a4.888,4.888,0,0,1-.263.828,45.08,45.08,0,0,1,4.691-15.652,2.966,2.966,0,0,0-.477,0,24.889,24.889,0,0,0-9.431,4.778,33.776,33.776,0,0,0-6.722,7.537,50.029,50.029,0,0,0-2.96,5.769,1.39,1.39,0,0,1-.263.4C422.676,199.4,426.213,193.407,431.794,188.729Z" transform="translate(-284.065)" fill="#908f94"/>
    <path id="Контур_4533-2" data-name="Контур 4533" d="M86.125,394.544c0-2.922.013-5.857-.013-8.779,0-.577.125-.828.765-.79.941.05,1.881-.013,2.822.038a1.471,1.471,0,0,1,.941.439c1.693,1.906,3.349,3.85,5,5.769.64.74,1.016.74,1.668-.013,1.668-1.931,3.323-3.863,5.017-5.769a1.461,1.461,0,0,1,.953-.426c.941-.063,1.881,0,2.822-.038.577-.025.765.151.752.74-.025,3.048-.013,6.1-.013,9.155,0,2.885-.013,5.769.013,8.654,0,.564-.176.727-.727.7-1.129-.038-2.257-.025-3.386,0-.514.013-.69-.163-.677-.69.025-3.048.013-6.1.025-9.155a1.672,1.672,0,0,0-.013-.5c-.088-.276-.226-.539-.339-.8-.288.125-.652.176-.84.389-1.028,1.154-2.019,2.333-3.022,3.512-.226.276-.464.539-.7.8-.514.564-.916.577-1.4,0-1.154-1.342-2.3-2.709-3.461-4.051-.276-.314-.489-.828-1.028-.665-.6.188-.426.74-.426,1.179-.013,3.1-.013,6.183.013,9.281,0,.514-.138.7-.665.69q-1.693-.056-3.386,0c-.539.013-.715-.163-.715-.715.038-2.985.025-5.97.025-8.955Z" transform="translate(0 -175.841)" fill="#cc1344"/>
    <path id="Контур_4534-2" data-name="Контур 4534" d="M803.157,383a11.047,11.047,0,0,1,8.064,3.148,9.473,9.473,0,0,1-2.37,15.2,12.449,12.449,0,0,1-13.256-1.079,9.487,9.487,0,0,1,.615-15.263A12.016,12.016,0,0,1,803.157,383Zm-6.258,9.845c-.013,3.587,2.358,5.92,6.057,5.957s6.208-2.32,6.246-5.869a5.7,5.7,0,0,0-6.02-6.02C799.332,386.9,796.924,389.183,796.9,392.845Z" transform="translate(-617.403 -174.117)" fill="#cc1344"/>
    <path id="Контур_4535-2" data-name="Контур 4535" d="M1145.663,388.328c-.891-.339-1.618-.652-2.358-.9a14.493,14.493,0,0,0-6.421-.715,6.009,6.009,0,0,0-5.556,5.731,5.448,5.448,0,0,0,3.236,5.343,8.039,8.039,0,0,0,6.283.213.709.709,0,0,0,.527-.74c.038-1.793.025-1.806-1.768-1.806-1.217,0-1.091.138-1.1-1.116-.012-.6.013-1.217,0-1.819-.012-.364.1-.539.5-.539,2.107.013,4.226.013,6.333.013.527,0,.74.251.74.778-.013,2.195-.013,4.39.012,6.584a1.14,1.14,0,0,1-.627,1,12.064,12.064,0,0,1-5.029,1.831,13.328,13.328,0,0,1-9.544-1.693,8.906,8.906,0,0,1-4.377-8.591,9.055,9.055,0,0,1,5.706-8.052,15.993,15.993,0,0,1,10.146-.7c.953.2,1.869.577,2.809.865a.673.673,0,0,1,.514.752C1145.65,385.932,1145.663,387.074,1145.663,388.328Z" transform="translate(-909.906 -173.814)" fill="#cc1344"/>
    <path id="Контур_4536-2" data-name="Контур 4536" d="M373.171,395.146a4.581,4.581,0,0,1,.84.74,28.749,28.749,0,0,1,1.881,3.01c.8,1.58,1.5,3.223,2.245,4.828a4.155,4.155,0,0,1,.125.4h-1.217c-1.041,0-2.094-.013-3.135.025a.992.992,0,0,1-1.1-.677c-.64-1.5-1.279-3.01-2.032-4.452a9.366,9.366,0,0,0-1.655-2.245c-.715-.7-1.718-.527-2.634-.464-.1.013-.263.376-.263.589-.013,2.094-.013,4.176-.013,6.271,0,.966,0,.966-.991.966-1.028,0-2.044-.038-3.073,0-.489.013-.652-.138-.652-.64q.019-6.584.013-13.168c0-1.568.025-3.135-.013-4.7-.013-.527.125-.727.69-.727,2.734.038,5.481,0,8.215.038a5.979,5.979,0,0,1,4.841,2.232,4.965,4.965,0,0,1-1.179,7.387C373.785,394.745,373.509,394.921,373.171,395.146Zm-6.973-4.7h0c.013.564,0,1.129.013,1.693,0,.376.151.677.564.677a24.342,24.342,0,0,0,2.872-.063,2.031,2.031,0,0,0,1.831-2.283,1.9,1.9,0,0,0-1.931-2.032c-.953-.1-1.919-.075-2.872-.1-.351-.013-.489.151-.489.489C366.21,389.365,366.2,389.9,366.2,390.443Z" transform="translate(-240.856 -175.779)" fill="#cc1344"/>
    <path id="Контур_4537-2" data-name="Контур 4537" d="M1003.558,395.055c2.145,1.63,2.784,4.051,3.85,6.2.439.878.815,1.768,1.292,2.809h-2.057c-.84,0-1.668-.038-2.508-.013a.866.866,0,0,1-.941-.627c-.665-1.53-1.354-3.06-2.057-4.578a8.082,8.082,0,0,0-.8-1.342,3.185,3.185,0,0,0-3.424-1.292c-.163.05-.326.4-.326.615-.013,1.881,0,3.762.013,5.644,0,1.58,0,1.593-1.593,1.58-.84,0-1.668-.038-2.508-.013-.477.013-.615-.15-.6-.615.025-2.157.013-4.3.013-6.459,0-3.8.013-7.613-.013-11.413,0-.552.125-.765.727-.753,2.721.038,5.43.013,8.152.038a6.28,6.28,0,0,1,4.427,1.756,5.029,5.029,0,0,1-.9,7.964C1004.072,394.7,1003.859,394.867,1003.558,395.055Zm-6.986-4.678h0c.013.539,0,1.091.013,1.63.013.389.15.727.6.727a22.53,22.53,0,0,0,2.759-.05,2.058,2.058,0,0,0,1.944-2.27,1.931,1.931,0,0,0-1.969-2.082c-.928-.088-1.881-.063-2.822-.1-.426-.025-.552.188-.539.577C996.585,389.324,996.573,389.851,996.573,390.377Z" transform="translate(-792.194 -175.688)" fill="#cc1344"/>
    <path id="Контур_4538-2" data-name="Контур 4538" d="M520.547,404.084c-.364.025-.69.063-1.016.063-1.1,0-2.22-.025-3.323,0a.822.822,0,0,1-.928-.627c-.3-.84-.69-1.655-1.016-2.5a1.011,1.011,0,0,0-1.041-.727h-7.149a1.1,1.1,0,0,0-1.154.853c-.276.828-.589,1.655-.928,2.458-.088.2-.3.489-.464.489-1.518.038-3.035.025-4.628.025a4.344,4.344,0,0,1,.1-.5q3.649-9.03,7.287-18.072a.876.876,0,0,1,.966-.652c1.417.038,2.847.013,4.264,0a.737.737,0,0,1,.79.464q4.063,9.162,8.139,18.323C520.484,403.808,520.5,403.908,520.547,404.084Zm-11.112-14.573a3.142,3.142,0,0,0-.263.4c-.727,1.931-1.467,3.863-2.17,5.807a.918.918,0,0,0,.928,1.317c1,.025,2.007.013,3,0,1.066-.013,1.43-.552,1.016-1.543-.665-1.643-1.354-3.273-2.032-4.916C509.786,390.263,509.635,389.95,509.435,389.511Z" transform="translate(-361.029 -175.775)" fill="#cc1344"/>
    <path id="Контур_4539-2" data-name="Контур 4539" d="M650.383,385.013c2.885,0,5.769.013,8.641-.013.539,0,.752.138.727.7a20.1,20.1,0,0,0,0,2.132c.025.477-.176.615-.627.6-1.605-.013-3.211,0-4.828,0-1.354,0-1.58.226-1.58,1.543,0,4.49-.013,8.98.013,13.469,0,.589-.138.815-.765.79-1.1-.05-2.22-.038-3.323-.013-.527.013-.665-.163-.665-.677.013-4.578.013-9.143,0-13.72,0-1.179-.213-1.392-1.38-1.392-1.668,0-3.336-.013-5.017.013-.451,0-.64-.125-.615-.6a20.164,20.164,0,0,0,0-2.132c-.038-.539.125-.715.69-.715,2.922.025,5.832.013,8.729.013Z" transform="translate(-485.272 -175.866)" fill="#cc1344"/>
    <path id="Контур_4540-2" data-name="Контур 4540" d="M287.438,394.617c0-2.985.013-5.97-.013-8.955,0-.5.125-.7.665-.677,1.141.038,2.3.025,3.449,0,.452-.013.627.1.627.589q-.019,9.011,0,18.035c0,.464-.15.615-.615.6-1.166-.025-2.333-.038-3.512,0-.5.013-.64-.163-.64-.64q.019-4.477.013-8.955Z" transform="translate(-176.054 -175.852)" fill="#cc1344"/>
    <path id="Контур_4541-2" data-name="Контур 4541" d="M153.306,579.708c.4,1.354.138,1.793-1.254,2.17-.188.05-.339.238-.514.364a1.919,1.919,0,0,0,.514.389,5.366,5.366,0,0,1,1.129.339,1.451,1.451,0,0,1,.69.9,1.225,1.225,0,0,1-.577.978,4.1,4.1,0,0,1-1.743.263,1.3,1.3,0,0,1-1.367-.978,1.023,1.023,0,0,1,.615-1.179c.1-.514.176-.89.251-1.279.038.013.075.013.113.025a.094.094,0,0,0-.013-.063c-.514-.527-.865-1.116-.464-1.844s1.1-.74,1.806-.753a8.92,8.92,0,0,1,1,.013,1.473,1.473,0,0,1,.451.213c-.138.113-.263.238-.4.351C153.456,579.657,153.394,579.67,153.306,579.708Zm-1.2,4.891c.364-.05,1,.05,1.041-.589s-.589-.652-1.041-.715c-.715-.1-1.2.176-1.217.64C150.86,584.373,151.236,584.6,152.1,584.6Zm-.05-4.916a.849.849,0,0,0-.878.778.758.758,0,0,0,.865.753c.489-.025.79-.276.778-.778A.749.749,0,0,0,152.052,579.682Z" transform="translate(-56.019 -345.566)" fill="#cc1344"/>
    <path id="Контур_4542-2" data-name="Контур 4542" d="M1255.606,579.721c.389,1.367.138,1.768-1.254,2.145-.2.05-.351.238-.527.364a2.407,2.407,0,0,0,.514.389c.326.125.69.176,1.028.276a1.039,1.039,0,0,1,.84.966,1.06,1.06,0,0,1-.715,1.079,2.754,2.754,0,0,1-2.37-.025c-.928-.451-.89-1.342-.025-1.982l.213-1.317a4.759,4.759,0,0,1-.489-1.129,1.233,1.233,0,0,1,1.254-1.4,9.331,9.331,0,0,1,1.568-.025,1.749,1.749,0,0,1,.552.238c-.15.113-.3.213-.451.326A.558.558,0,0,1,1255.606,579.721Zm-1.3,3.549c-.238.013-.364-.025-.439.038-.251.2-.489.426-.727.64.226.2.426.539.677.589a2.853,2.853,0,0,0,1.217-.063.68.68,0,0,0,.389-.477.658.658,0,0,0-.351-.5A2.433,2.433,0,0,0,1254.3,583.271Zm.828-2.809a.8.8,0,0,0-.8-.778.785.785,0,0,0-.84.79.827.827,0,0,0,1.643-.013Z" transform="translate(-1020.062 -345.568)" fill="#cc1344"/>
    <path id="Контур_4543-2" data-name="Контур 4543" d="M338.59,564.367a3.731,3.731,0,0,0,.477-.088,1.7,1.7,0,0,1,2.345,1.3,2.081,2.081,0,0,1-1.43,2.671,3.225,3.225,0,0,1-.5.063c-1.518.075-1.681-.088-1.681-1.58,0-1.354,0-2.721.013-4.076,0-.276-.038-.564.389-.564s.4.263.4.552C338.59,563.213,338.59,563.765,338.59,564.367Zm-.013,1.982a3.349,3.349,0,0,1,0,.5c-.1.627.238.8.79.79a1.249,1.249,0,0,0,1.267-.916,1.256,1.256,0,0,0-1.643-1.743c-.213.088-.314.514-.4.8A2.116,2.116,0,0,0,338.578,566.349Z" transform="translate(-220.133 -330.753)" fill="#cc1344"/>
    <path id="Контур_4544-2" data-name="Контур 4544" d="M1070.275,564.266v-1.618c0-.276.038-.552.389-.464a.621.621,0,0,1,.351.451c.025,1.756.013,3.512.025,5.267,0,.364-.151.477-.489.464-.4-.013-.79.013-1.191-.013a2.058,2.058,0,0,1,.163-4.114C1069.71,564.229,1069.911,564.254,1070.275,564.266Zm0,2.057a6.343,6.343,0,0,1,0-.69c.075-.6-.238-.765-.765-.753a1.222,1.222,0,0,0-1.229.79,1.582,1.582,0,0,0,.176,1.656,1.485,1.485,0,0,0,1.568.339c.151-.038.188-.577.263-.9C1070.3,566.611,1070.275,566.461,1070.275,566.323Z" transform="translate(-858.221 -330.815)" fill="#cc1344"/>
    <path id="Контур_4545-2" data-name="Контур 4545" d="M883.409,564.7c.326-.151.5-.251.69-.326a1.326,1.326,0,0,1,1.919,1.066,19.323,19.323,0,0,1,0,2.558c0,.125-.238.238-.376.364-.113-.138-.313-.263-.326-.4-.038-.665-.013-1.329-.025-2.007-.012-.727-.3-1.116-.815-1.116a1.056,1.056,0,0,0-1.053,1.129c-.012.627.025,1.254-.025,1.881-.013.176-.226.351-.351.527-.125-.163-.376-.326-.376-.489-.025-1.756-.025-3.512,0-5.255,0-.151.238-.288.364-.426.125.15.351.288.364.439C883.421,563.279,883.409,563.918,883.409,564.7Z" transform="translate(-696.651 -330.843)" fill="#cc1344"/>
    <path id="Контур_4546-2" data-name="Контур 4546" d="M943.016,582.663a2.011,2.011,0,0,1-2.12-2.132,2.057,2.057,0,0,1,2.17-2.032,2.084,2.084,0,1,1-.05,4.164Zm1.43-2.057a1.4,1.4,0,1,0-1.4,1.43A1.356,1.356,0,0,0,944.445,580.606Z" transform="translate(-747.592 -345.098)" fill="#cc1344"/>
    <path id="Контур_4547-2" data-name="Контур 4547" d="M653.748,580.731c-.752,0-1.48-.013-2.207.013-.176,0-.464.063-.489.138a.822.822,0,0,0,.125.564,1.351,1.351,0,0,0,1.543.527,8.085,8.085,0,0,0,.89-.276c.2.414.025.64-.326.8a2.144,2.144,0,0,1-2.922-2.922,1.858,1.858,0,0,1,2.17-.953C653.372,578.837,653.8,579.552,653.748,580.731ZM651,580.254h1.593c.489,0,.514-.251.314-.589a.948.948,0,0,0-1.116-.452C651.315,579.313,651.039,579.615,651,580.254Z" transform="translate(-493.303 -345.147)" fill="#cc1344"/>
    <path id="Контур_4548-2" data-name="Контур 4548" d="M1191.856,580.662c0-.5-.013-1,0-1.505.012-.477.263-.6.69-.426a.908.908,0,0,0,.627.038,1.375,1.375,0,0,1,2.094,1.229,20.213,20.213,0,0,1-.013,2.308c-.013.138-.251.276-.376.4-.113-.151-.326-.3-.326-.451-.038-.7.025-1.43-.063-2.12-.038-.314-.288-.79-.539-.865a1.628,1.628,0,0,0-1.053.288c-.151.075-.226.389-.226.6-.025.69-.013,1.38-.013,2.069,0,.276-.038.564-.389.464a.665.665,0,0,1-.389-.464c-.05-.527-.025-1.053-.025-1.568Z" transform="translate(-967.073 -345.179)" fill="#cc1344"/>
    <path id="Контур_4549-2" data-name="Контур 4549" d="M404.8,580.919c0,.527.013,1.041,0,1.568-.013.489-.251.6-.677.389a.77.77,0,0,0-.577-.038,1.384,1.384,0,0,1-2.107-1.279,21.351,21.351,0,0,1,.013-2.195c.013-.151.238-.288.364-.439.125.151.339.288.351.452.038.665,0,1.342.025,2.007.013.715.326,1.053.89,1.028a.956.956,0,0,0,.978-1.054c.013-.665-.025-1.342.013-2.007.013-.15.226-.3.351-.451.125.151.351.288.364.439.038.539.013,1.054.013,1.58Z" transform="translate(-275.773 -345.448)" fill="#cc1344"/>
    <path id="Контур_4550-2" data-name="Контур 4550" d="M588.643,580.706c0-.5-.013-1,0-1.5.013-.477.263-.6.69-.426a.907.907,0,0,0,.627.038,1.373,1.373,0,0,1,2.082,1.3c.025.727.025,1.467-.013,2.195-.013.15-.238.3-.364.439-.125-.151-.339-.288-.339-.439-.038-.665-.013-1.342-.025-2.007-.013-.7-.351-1.091-.865-1.091a1.077,1.077,0,0,0-1.016,1.116c-.013.665.025,1.342-.025,2.007-.013.15-.238.288-.364.426-.125-.138-.364-.276-.376-.426C588.618,581.8,588.643,581.245,588.643,580.706Z" transform="translate(-439.51 -345.223)" fill="#cc1344"/>
    <path id="Контур_4551-2" data-name="Контур 4551" d="M466.163,581.8a3.741,3.741,0,0,0,.978.326,2.075,2.075,0,0,0,.8-.288,2.69,2.69,0,0,0-.426-.677c-.276-.251-.69-.351-.916-.627a1.8,1.8,0,0,1-.451-1.066c.025-.514.477-.765.978-.8a3.682,3.682,0,0,1,1.041.113c.389.088.477.351.339.753a4.86,4.86,0,0,0-.966-.226,1.482,1.482,0,0,0-.6.226c.088.188.125.439.276.564a11.5,11.5,0,0,1,1.066.753,1.419,1.419,0,0,1,.439.991,1.3,1.3,0,0,1-.765.853,3.529,3.529,0,0,1-1.568-.125c-.176-.05-.263-.426-.389-.665A1.143,1.143,0,0,0,466.163,581.8Z" transform="translate(-332.255 -345.234)" fill="#cc1344"/>
    <path id="Контур_4552-2" data-name="Контур 4552" d="M716.463,582.055a3.38,3.38,0,0,0,.928.314,2.453,2.453,0,0,0,.815-.288,3.054,3.054,0,0,0-.414-.677c-.314-.276-.752-.4-1.016-.715a1.414,1.414,0,0,1-.351-1.028,1.174,1.174,0,0,1,.765-.69,2.779,2.779,0,0,1,1.279.075c.188.05.3.364.439.552l-.151.151a3.228,3.228,0,0,0-.815-.2,2.665,2.665,0,0,0-.727.213,2.355,2.355,0,0,0,.364.627c.326.288.74.477,1.066.765a1,1,0,0,1-.2,1.706,1.95,1.95,0,0,1-1.856-.075c-.163-.088-.188-.426-.289-.652C716.35,582.1,716.4,582.08,716.463,582.055Z" transform="translate(-551.164 -345.468)" fill="#cc1344"/>
    <path id="Контур_4553-2" data-name="Контур 4553" d="M781.233,579.7a5.491,5.491,0,0,0-1-.238c-.188-.013-.4.15-.589.238a2.075,2.075,0,0,0,.288.552c.339.276.727.489,1.079.752.389.276.665.7.426,1.129a1.735,1.735,0,0,1-.941.778,3.005,3.005,0,0,1-1.279-.1c-.451-.088-.527-.4-.364-.84a4.117,4.117,0,0,0,1,.339,2.413,2.413,0,0,0,.815-.276,2.76,2.76,0,0,0-.4-.677,9.29,9.29,0,0,0-.941-.615.99.99,0,0,1-.452-1.141,1.016,1.016,0,0,1,.978-.74,4.183,4.183,0,0,1,1.041.1C781.258,579.036,781.409,579.274,781.233,579.7Z" transform="translate(-605.801 -345.409)" fill="#cc1344"/>
    <path id="Контур_4554-2" data-name="Контур 4554" d="M89.891,579.54l-.263.075c-.088.038-.176.063-.263.1l-.226.151c-.113-.025-.226-.063-.326-.088-.075-.514.3-.665.665-.815.088-.025.163-.038.251-.063h.8c.088.025.176.05.251.075l.665.552c.025.79.038,1.58.075,2.37a2.087,2.087,0,0,0,.176.539l.3.038c.013.113.025.226.038.351l-.025.013c-.088.05-.188.088-.276.138-.213-.013-.426-.025-.64-.025l-.113-.075a6.393,6.393,0,0,1-.69.05c-.351,0-.79.1-1.053-.063-.765-.477-.7-1.2.1-1.693a6.817,6.817,0,0,1,1.028-.426c.088-.025.176-.063.276-.088.075-.075.15-.138.226-.213,0-.075.013-.151.013-.226-.163-.213-.314-.414-.477-.627C90.217,579.565,90.054,579.552,89.891,579.54Zm.878,1.367a7.735,7.735,0,0,0-1.166.665.628.628,0,0,0-.088.6.955.955,0,0,0,.715.314C90.87,582.361,90.932,582.148,90.769,580.907Z" transform="translate(-2.274 -345.448)" fill="#cc1344"/>
    <path id="Контур_4555-2" data-name="Контур 4555" d="M216.866,579.105c.075-.063.213-.213.376-.339a.932.932,0,0,1,1.217.013.477.477,0,0,1,.113.451.557.557,0,0,1-.477.2c-.878-.263-1.417.063-1.492.978-.05.539-.025,1.091-.05,1.63-.013.263.138.627-.351.64s-.376-.339-.389-.615c-.013-.9-.025-1.793.013-2.7a2.313,2.313,0,0,1,.263-.727C216.3,578.767,216.527,578.9,216.866,579.105Z" transform="translate(-113.434 -345.14)" fill="#cc1344"/>
    <path id="Контур_4556-2" data-name="Контур 4556" d="M1017.7,565.273c0,.853.013,1.718-.013,2.571,0,.151-.226.288-.351.439-.125-.151-.364-.288-.364-.439-.025-1.781-.025-3.549,0-5.33,0-.138.251-.276.389-.414.113.138.326.276.326.414C1017.709,563.442,1017.7,564.357,1017.7,565.273Z" transform="translate(-814.108 -330.755)" fill="#cc1344"/>
    <path id="Контур_4557-2" data-name="Контур 4557" d="M286.878,583.26c0-1.216-.013-2.408.013-3.6,0-.125.263-.376.339-.364.163.038.4.238.414.364.025,1.091.013,2.17.013,3.261C287.656,583.436,287.317,583.335,286.878,583.26Z" transform="translate(-175.595 -345.795)" fill="#cc1344"/>
    <path id="Контур_4558-2" data-name="Контур 4558" d="M1140.443,581.107c0-.539-.025-1.079.013-1.618.012-.138.213-.263.339-.389.138.125.4.251.414.389.038,1.1.025,2.207,0,3.3,0,.125-.238.326-.376.339s-.364-.2-.364-.339C1140.418,582.235,1140.443,581.671,1140.443,581.107Z" transform="translate(-922.106 -345.623)" fill="#cc1344"/>
    <path id="Контур_4559-2" data-name="Контур 4559" d="M537.443,581.144c0,.527.025,1.041-.013,1.568-.013.151-.238.288-.364.439-.125-.138-.364-.276-.364-.426q-.056-1.6,0-3.2c0-.151.238-.288.364-.426.125.138.364.276.376.426.038.539.013,1.079,0,1.618Z" transform="translate(-394.066 -345.623)" fill="#cc1344"/>
    <path id="Контур_4560-2" data-name="Контур 4560" d="M1140.861,566.825c-.2-.314-.4-.5-.376-.652s.276-.389.427-.376a.607.607,0,0,1,.389.426C1141.3,566.361,1141.087,566.537,1140.861,566.825Z" transform="translate(-922.148 -333.988)" fill="#cc1344"/>
    <path id="Контур_4561-2" data-name="Контур 4561" d="M537.123,563.9c.2.3.414.489.389.64a.58.58,0,0,1-.427.389c-.138,0-.376-.251-.389-.414S536.91,564.2,537.123,563.9Z" transform="translate(-394.085 -332.33)" fill="#cc1344"/>
    <path id="Контур_4562-2" data-name="Контур 4562" d="M98.2,584c.163.013.326.025.489.025C98.526,584.025,98.363,584.013,98.2,584Z" transform="translate(-10.582 -349.909)" fill="#908f94"/>
    <path id="Контур_4563-2" data-name="Контур 4563" d="M112.9,610.338c.088-.05.188-.088.276-.138A2.848,2.848,0,0,1,112.9,610.338Z" transform="translate(-23.439 -372.823)" fill="#908f94"/>
    <path id="Контур_4564-2" data-name="Контур 4564" d="M102.176,592.8c-.088.025-.188.063-.276.088A1.779,1.779,0,0,1,102.176,592.8Z" transform="translate(-13.818 -357.605)" fill="#908f94"/>
    <path id="Контур_4565-2" data-name="Контур 4565" d="M105.813,589.2c0,.075-.013.151-.013.226A1.363,1.363,0,0,0,105.813,589.2Z" transform="translate(-17.229 -354.457)" fill="#908f94"/>
    <path id="Контур_4566-2" data-name="Контур 4566" d="M94,584.7c.088-.038.176-.063.263-.1C94.176,584.638,94.088,584.663,94,584.7Z" transform="translate(-6.909 -350.434)" fill="#908f94"/>
    <path id="Контур_4567-2" data-name="Контур 4567" d="M95.051,578.9c-.088.025-.163.038-.251.063C94.888,578.938,94.976,578.925,95.051,578.9Z" transform="translate(-7.609 -345.449)" fill="#908f94"/>
    <path id="Контур_4568-2" data-name="Контур 4568" d="M103.451,578.875c-.088-.025-.176-.05-.251-.075A.958.958,0,0,0,103.451,578.875Z" transform="translate(-14.955 -345.361)" fill="#908f94"/>
    <path id="Контур_4569-2" data-name="Контур 4569" d="M881.413,355.863l-.013-.063.038.013Z" transform="translate(-695.558 -150.328)" fill="#908f94"/>
    <path id="Контур_4570-2" data-name="Контур 4570" d="M106.9,610.5l.113.075A.438.438,0,0,1,106.9,610.5Z" transform="translate(-18.191 -373.085)" fill="#908f94"/>
  </g>
</svg>
