<svg xmlns="http://www.w3.org/2000/svg" width="192" height="120" viewBox="0 0 192 120">
  <g id="Сгруппировать_263" data-name="Сгруппировать 263" transform="translate(-304 -3980)">
    <rect id="Прямоугольник_42" data-name="Прямоугольник 42" width="192" height="120" transform="translate(304 3980)" fill="#f4f5f7" opacity="0.17"/>
    <g id="Сгруппировать_362" data-name="Сгруппировать 362" transform="translate(666.104 4198.346)">
      <path id="Объединение_14" data-name="Объединение 14" d="M28.6,19.448a7.4,7.4,0,0,1-.1-.958q0-6.656,0-13.311a1.311,1.311,0,0,1,1.421-1.488c.589-.02,1.181-.016,1.77,0a3.028,3.028,0,0,1,.61.152v.7a6.88,6.88,0,0,1,2.82-.976,4.7,4.7,0,0,1,3.552.862,5.727,5.727,0,0,1,1.963,3.185,10.684,10.684,0,0,1,.256,4.177,6.96,6.96,0,0,1-1.222,3.47,4.534,4.534,0,0,1-2.556,1.9,6.73,6.73,0,0,1-2.889.14,6.19,6.19,0,0,1-1.932-.705v.663c0,1.345,0,2.691,0,4.036,0,.6-.057.611-.642.651q-.073,0-.147,0A3.093,3.093,0,0,1,28.6,19.448ZM33.04,6.806a2.566,2.566,0,0,0-.749,1.747c-.022.635,0,1.272,0,1.908,0,.589.007,1.178,0,1.766a2.768,2.768,0,0,0,.448,1.512,1.945,1.945,0,0,0,1.818.968,1.856,1.856,0,0,0,1.689-1.04,5.237,5.237,0,0,0,.588-2.261c.025-.705.028-1.414-.007-2.119a4.613,4.613,0,0,0-.555-2.053,2.059,2.059,0,0,0-3.225-.427ZM71.571,21.78a2.516,2.516,0,0,1-1.424-1.073,3.666,3.666,0,0,1-.61-2.03c.021-4.036.01-8.072.01-12.107,0-.566-.006-1.133,0-1.7a1.086,1.086,0,0,1,.9-1.07,5.636,5.636,0,0,1,.889-.107c.448-.018.9-.008,1.345,0,.465,0,.521.057.555.506.007.09,0,.182,0,.348.568-.237,1.042-.473,1.541-.634a5.941,5.941,0,0,1,2.236-.372,4.7,4.7,0,0,1,3.61,1.826,6.1,6.1,0,0,1,1.066,2.449,10.185,10.185,0,0,1,.293,2.977,8.8,8.8,0,0,1-1.341,4.519,4.7,4.7,0,0,1-3.08,1.966,6.09,6.09,0,0,1-3.087-.162c-.349-.113-.682-.275-1.07-.434a2.57,2.57,0,0,0-.06.388c0,1.369,0,2.738-.009,4.107a4.449,4.449,0,0,1-.128.732,3.682,3.682,0,0,1-.545.041A3.85,3.85,0,0,1,71.571,21.78Zm2.093-14.5a3.8,3.8,0,0,0-.429,1.731c.01.754,0,1.507,0,2.261a5.457,5.457,0,0,0,.135,1.6,2.278,2.278,0,0,0,1.375,1.7,2.032,2.032,0,0,0,2.719-1.323,8.075,8.075,0,0,0,.477-2.734c-.06-.578-.136-1.154-.174-1.734a3.586,3.586,0,0,0-.593-1.676A1.881,1.881,0,0,0,75.534,6.2,2.093,2.093,0,0,0,73.663,7.283Zm28.269,9.931a5.289,5.289,0,0,1-4.1-2.867,8.846,8.846,0,0,1-.841-2.681A7.846,7.846,0,0,1,97.339,7.7a5.834,5.834,0,0,1,4.77-4.047,5.976,5.976,0,0,1,1.525-.111,5.259,5.259,0,0,1,4.744,3.074c.218.476.355.989.524,1.468a.673.673,0,0,1-.7.378c-.426-.018-.853-.015-1.279-.011-.21,0-.421,0-.631,0-.668,0-.8-.117-1.073-.746a2.1,2.1,0,0,0-1.36-1.376,2,2,0,0,0-2.319.89,2.834,2.834,0,0,0-.39,1.17A12.944,12.944,0,0,0,101,11.26a9.017,9.017,0,0,0,.282,1.7,2.059,2.059,0,0,0,1.577,1.642,1.8,1.8,0,0,0,1.945-.682,3.782,3.782,0,0,0,.392-.8.54.54,0,0,1,.574-.4c.353,0,.706,0,1.059,0,.567,0,1.133,0,1.7.007.121,0,.239.1.326.145a5.8,5.8,0,0,1-1.069,2.383,4.988,4.988,0,0,1-2.005,1.561,5.752,5.752,0,0,1-2.469.513A8.965,8.965,0,0,1,101.932,17.215ZM88.14,17.209a6,6,0,0,1-2.916-1.318,6.2,6.2,0,0,1-2.164-3.532,7.741,7.741,0,0,1-.093-3.181,7.48,7.48,0,0,1,1.022-2.763A5.943,5.943,0,0,1,87.47,3.82a6.677,6.677,0,0,1,2.548-.276,6.4,6.4,0,0,1,4,1.687,6.207,6.207,0,0,1,1.876,3.63c.079.517.163,1.034.23,1.553.01.079-.072.166-.089.254-.086.438-.247.59-.683.622-.117.009-.236,0-.354,0H93.045q-2.6,0-5.2,0c-.246,0-.493-.029-.76-.046-.23.159-.152.425-.112.634a4.342,4.342,0,0,0,.652,1.8,2.121,2.121,0,0,0,.832.716,2.807,2.807,0,0,0,3.041-.34,2.13,2.13,0,0,0,.544-.716.767.767,0,0,1,.729-.434c.9-.018,1.792-.014,2.689,0,.381,0,.476.177.338.538a5.752,5.752,0,0,1-4.373,3.687,7.748,7.748,0,0,1-1.77.192A12.015,12.015,0,0,1,88.14,17.209Zm-.66-9.987a2.212,2.212,0,0,0-.469,1.8H92.02a2.048,2.048,0,0,0-.111-1.215,2.452,2.452,0,0,0-1.49-1.549,2.029,2.029,0,0,0-.713-.12A2.815,2.815,0,0,0,87.48,7.222Zm34.7,8.944a6.072,6.072,0,0,1-2.1-2.626,7.708,7.708,0,0,1-.657-3.581,6.7,6.7,0,0,1,1.607-4.171,5.7,5.7,0,0,1,1.991-1.573,7.151,7.151,0,0,1,4.033-.58,6.345,6.345,0,0,1,3.489,1.68,6.438,6.438,0,0,1,1.726,2.959,7.344,7.344,0,0,1,.277,2.69c-.26,2.737-1.595,5.118-4.5,6.072a7.026,7.026,0,0,1-2.21.235q-.191.015-.381.015A5.7,5.7,0,0,1,122.181,16.166Zm2.646-9.644a2.819,2.819,0,0,0-1.036,1.461,5.45,5.45,0,0,0-.28,1.562,15.226,15.226,0,0,0,.11,2.66,4.23,4.23,0,0,0,.458,1.368,2.138,2.138,0,0,0,2.631,1,2.372,2.372,0,0,0,1.452-1.593,6.514,6.514,0,0,0,.3-2.478,10.9,10.9,0,0,0-.124-1.882,3.652,3.652,0,0,0-.886-1.852,1.981,1.981,0,0,0-1.465-.585A1.96,1.96,0,0,0,124.827,6.522ZM21.437,17.27a15.56,15.56,0,0,1-2.237-.128,5.947,5.947,0,0,1-2.489-1.134A6.417,6.417,0,0,1,14.3,11.864a7.714,7.714,0,0,1-.089-2.231A6.736,6.736,0,0,1,16.359,5.2a6.4,6.4,0,0,1,3.328-1.558,6.955,6.955,0,0,1,4,.474A5.9,5.9,0,0,1,27.03,7.9a5.559,5.559,0,0,1,.307,1.625,1.154,1.154,0,0,0,.08.4,1.339,1.339,0,0,1-.121,1c-.061.166-.354.261-.558.352a.934.934,0,0,1-.35,0H24.4q-2.65,0-5.3,0c-.223,0-.447-.032-.714-.053-.031.075-.112.179-.108.278a3.309,3.309,0,0,0,1.4,2.806,2.184,2.184,0,0,0,1.718.333,2.833,2.833,0,0,0,1.214-.458,2.078,2.078,0,0,0,.693-.755.841.841,0,0,1,.873-.546c.4,0,.791,0,1.187,0,.454,0,.907,0,1.361,0,.423,0,.52.153.378.56a5.541,5.541,0,0,1-3.757,3.509,5.381,5.381,0,0,1-1.7.311Q21.543,17.276,21.437,17.27Zm-1.4-10.933a2.6,2.6,0,0,0-1.722,2.7h4.351a2.442,2.442,0,0,0,.424-.005,2.328,2.328,0,0,0,.378-.125c-.039-.2-.067-.335-.089-.468A2.344,2.344,0,0,0,21.02,6.192,3.692,3.692,0,0,0,20.033,6.337ZM11.5,17.029a3.329,3.329,0,0,1-2.266-3.252q0-4.529-.01-9.058c0-.141.006-.283,0-.425C9.2,3.908,9.1,3.8,8.709,3.79c-.471-.013-.944,0-1.415,0-.873,0-1.746.02-2.618-.007-.638-.019-.737.159-.734.72.018,2.807.008,5.614.008,8.421,0,1.2,0,2.406,0,3.609,0,.539-.167.714-.7.7A3.439,3.439,0,0,1,1.4,16.6,3.2,3.2,0,0,1,.1,14.7a2.332,2.332,0,0,1-.082-.612Q0,11.862,0,9.633,0,5.6,0,1.566A2.162,2.162,0,0,1,.076.876,1.316,1.316,0,0,1,1.222.007a1.848,1.848,0,0,1,.283,0q5.1,0,10.191,0a1.408,1.408,0,0,1,1.474,1.471q-.005,7.643,0,15.285v.264a1.2,1.2,0,0,1-.718.235A2.841,2.841,0,0,1,11.5,17.029Zm103.884.2a3.365,3.365,0,0,1-2.931-2.644,6.551,6.551,0,0,1-.107-.816c-.009-2.053,0-4.106,0-6.159,0-.118,0-.236,0-.354-.017-.534-.1-.621-.609-.633-.306-.007-.614-.01-.92,0a2.673,2.673,0,0,1-2.473-1.5c-.223-.371-.376-.783-.617-1.295a5.69,5.69,0,0,1,.831-.137q5.8-.011,11.609-.005c.071,0,.142,0,.212,0,.367.018.563.228.413.539a3.688,3.688,0,0,1-1.755,2.131,4.194,4.194,0,0,1-1.063.256,4.367,4.367,0,0,1-.649.014c-.138,0-.275-.007-.412,0-.424.013-.62.222-.638.658-.006.141,0,.283,0,.425v9.273a.67.67,0,0,1-.588.275A2.19,2.19,0,0,1,115.381,17.231Zm28.267-.157a2.561,2.561,0,0,1-1.151-.6,6.064,6.064,0,0,1-1.568-2.108c-.329-.632-.662-1.264-1.019-1.881a2.163,2.163,0,0,0-2.517-1.138v.605c0,1.51,0,3.021,0,4.531,0,.578-.064.633-.659.639-.519.005-1.038.006-1.557,0a1.657,1.657,0,0,1-1.616-1.575c-.006-.118-.009-.236-.009-.354,0-3.4.006-6.8-.008-10.195a1.138,1.138,0,0,1,.436-.977.85.85,0,0,1,.568-.223c.919.005,1.838,0,2.849,0V8.919a9.039,9.039,0,0,0,1.156-.009,1.76,1.76,0,0,0,1.422-1.1c.389-.883.734-1.786,1.1-2.68a3.616,3.616,0,0,1,.29-.624,1.332,1.332,0,0,1,1.2-.715c.94.025,1.882.007,2.807.007a.437.437,0,0,1,.014.552A17.953,17.953,0,0,0,143.545,8.2a2.858,2.858,0,0,1-1.164,1.583c-.03.016-.035.077-.062.14a3.921,3.921,0,0,1,1.358,1.694c.812,1.507,1.638,3,2.582,4.433a3.816,3.816,0,0,1,.287.551c.115.257,0,.5-.282.5-.477.008-.955.027-1.432.027A11,11,0,0,1,143.648,17.074Zm-75.1.039c-.05,0-.1-.006-.15-.005-.213,0-.426,0-.64,0-.353,0-.706-.008-1.058.009A2.343,2.343,0,0,1,65,16.469a6.945,6.945,0,0,1-1.537-2.06,20.933,20.933,0,0,0-1.178-2.119,2.01,2.01,0,0,0-1.933-1c-.116.009-.234,0-.393,0-.012.2-.033.379-.034.56q0,2.193,0,4.387c0,.165,0,.331-.01.5a.371.371,0,0,1-.407.385h-.48c-.547,0-1.095,0-1.642-.011a1.2,1.2,0,0,1-.954-.626,2.369,2.369,0,0,1-.362-.965,15.894,15.894,0,0,1-.091-2.379c-.007-2.618,0-5.236,0-7.853a1.5,1.5,0,0,1,.4-1.144,1.437,1.437,0,0,1,1.053-.452l.542,0c.433,0,.866-.005,1.3.01a3.47,3.47,0,0,1,.659.151V8.92c.158-.007.313,0,.467,0a2.343,2.343,0,0,0,1.118-.144,1.761,1.761,0,0,0,.923-.9c.35-.8.685-1.6,1.028-2.407.117-.275.239-.548.36-.821a1.567,1.567,0,0,1,1.551-.966c.66-.006,1.321-.011,1.981,0a3.1,3.1,0,0,1,.578.119.527.527,0,0,1-.086.62,6.637,6.637,0,0,0-.989,1.825c-.35.8-.641,1.625-1.015,2.412a1.758,1.758,0,0,1-1.153,1.141,6.237,6.237,0,0,1,1.641,2.025c.757,1.532,1.656,2.984,2.551,4.439.112.183.34.368.213.625a.392.392,0,0,1-.4.218C68.642,17.119,68.6,17.116,68.548,17.113ZM54.075,7.056c-2.664,0-5.328,0-7.992-.013a4.384,4.384,0,0,1-2.634-.861,2.52,2.52,0,0,1-1.1-1.937A3.266,3.266,0,0,0,42.26,3.8h2.453c2,0,4.008.009,6.012,0a4.594,4.594,0,0,1,1.765.315,2.956,2.956,0,0,1,2.134,2.941h-.548Z" transform="translate(-339.105 -147.553)" fill="#1a4a21" stroke="rgba(0,0,0,0)" stroke-miterlimit="10" stroke-width="1"/>
      <g id="Сгруппировать_363" data-name="Сгруппировать 363" transform="translate(-288.22 -195.346)">
        <path id="Контур_3910" data-name="Контур 3910" d="M-522.246,218.505c2.229,1.911,4.146,3.942,6.141,5.892a8.369,8.369,0,0,1,2.348,4.283,8.418,8.418,0,0,1-1.56,6.969,8.267,8.267,0,0,1-3.733,2.738,5.342,5.342,0,0,1-2.263.509c-.551-.033-1.106,0-1.659-.006a7.838,7.838,0,0,1-4.408-1.608,7.829,7.829,0,0,1-3.142-4.6,7.458,7.458,0,0,1-.186-3.381,9.575,9.575,0,0,1,.973-2.962,6.559,6.559,0,0,1,.9-1.341q2.687-2.837,5.435-5.616A10.1,10.1,0,0,1-522.246,218.505Zm-.04,5.09c-.272.275-.551.55-.822.834-.947,1-1.9,1.983-2.831,3a4.345,4.345,0,0,0-.738,1.218,5.316,5.316,0,0,0-.319,2.219,4.481,4.481,0,0,0,2.892,3.982,5.517,5.517,0,0,0,3.36.168,4.3,4.3,0,0,0,2.563-1.757,4.758,4.758,0,0,0-.428-6C-519.772,226-521.038,224.831-522.286,223.595Z" transform="translate(544.532 -194.23)" fill="#32983f"/>
        <path id="Контур_3911" data-name="Контур 3911" d="M-584.741,169.721c-.661.67-1.3,1.324-1.948,1.975-.866.874-1.739,1.74-2.6,2.62-.231.236-.4.533-.631.768a10.3,10.3,0,0,1-4.164,2.768,5.951,5.951,0,0,1-1.935.349c-.461-.007-.922-.009-1.383,0a7.205,7.205,0,0,1-4.179-1.412,7.584,7.584,0,0,1-2.641-3.05,6.291,6.291,0,0,1-.872-3.257c.045-.581.007-1.168.01-1.752a7.162,7.162,0,0,1,1.756-4.515,10.676,10.676,0,0,1,1.948-1.783,7.521,7.521,0,0,1,3.211-1.247,8.515,8.515,0,0,1,5.714,1,7.134,7.134,0,0,1,1.585,1.191c1.37,1.325,2.71,2.681,4.04,4.047C-586.122,168.156-585.46,168.929-584.741,169.721Zm-5.127-.005c-.146-.161-.24-.275-.344-.379-1.043-1.043-2.095-2.076-3.127-3.128a4.237,4.237,0,0,0-1.92-1.118,4.532,4.532,0,0,0-1.646-.324,4.855,4.855,0,0,0-3.314,1.608,4.923,4.923,0,0,0-1.039,4.654,4.375,4.375,0,0,0,3.5,3.363,4.479,4.479,0,0,0,3.379-.506,8.146,8.146,0,0,0,1.7-1.351C-591.763,171.6-590.828,170.675-589.869,169.716Z" transform="translate(605.105 -147.376)" fill="#74ac36"/>
        <path id="Контур_3912" data-name="Контур 3912" d="M-473.172,169.678c.45-.509.788-.93,1.165-1.311,1.709-1.726,3.405-3.466,5.154-5.151a7.17,7.17,0,0,1,3.356-1.853,9.464,9.464,0,0,1,3.767-.157A8.19,8.19,0,0,1-455,163.814a7.887,7.887,0,0,1,1.965,3.7,9.853,9.853,0,0,1-.223,5.206A10.863,10.863,0,0,1-454.529,175a7.041,7.041,0,0,1-2.878,2.435,5.844,5.844,0,0,1-2.828.793c-.43-.01-.861,0-1.291.008a7.5,7.5,0,0,1-4.852-1.667,20.8,20.8,0,0,1-3-2.935c-.969-1.109-2.063-2.109-3.1-3.164A3.122,3.122,0,0,1-473.172,169.678Zm5.077-.027c1.143,1.163,2.275,2.333,3.43,3.482a4.709,4.709,0,0,0,3.616,1.417,4.588,4.588,0,0,0,4.491-4.084,4.825,4.825,0,0,0-1.765-4.648,4.322,4.322,0,0,0-3.116-1.021,5.441,5.441,0,0,0-3.586,1.74C-466.026,167.576-467.052,168.594-468.095,169.65Z" transform="translate(497.517 -147.405)" fill="#194921"/>
        <path id="Контур_3913" data-name="Контур 3913" d="M-522.343,107.255c-.183-.178-.4-.387-.613-.6-.959-.953-1.909-1.917-2.879-2.858-.656-.636-1.335-1.249-2.014-1.86a10.489,10.489,0,0,1-2.1-2.716,6.22,6.22,0,0,1-.816-2.616c-.023-.355-.146-.7-.162-1.059a9.1,9.1,0,0,1,.58-3.34,6.85,6.85,0,0,1,1.611-2.567,7.355,7.355,0,0,1,2.1-1.725,7.037,7.037,0,0,1,3.213-.961c.645.022,1.291.02,1.936,0a7.032,7.032,0,0,1,4.618,1.665,7.968,7.968,0,0,1,2.787,4.029,5.468,5.468,0,0,1,.31,1.761c-.017.553-.01,1.106,0,1.66a6.515,6.515,0,0,1-1.831,4.559c-2.111,2.273-4.373,4.4-6.574,6.594C-522.2,107.239-522.241,107.235-522.343,107.255Zm.073-5.07c1.22-1.226,2.412-2.37,3.536-3.579a4.325,4.325,0,0,0,1.214-2.25,4.63,4.63,0,0,0-.691-3.72,5.03,5.03,0,0,0-2.331-1.786,8.847,8.847,0,0,0-1.647-.35,4.553,4.553,0,0,0-.868.136,4.343,4.343,0,0,0-3.105,1.725,4.616,4.616,0,0,0-.938,3.023,4.539,4.539,0,0,0,1.3,3.249C-524.689,99.823-523.51,100.945-522.271,102.185Z" transform="translate(544.62 -86.952)" fill="#b1c227"/>
      </g>
      <path id="Контур_3916" data-name="Контур 3916" d="M-28.143,243.418c-2.926,0-5.711,0-8.5,0a4.63,4.63,0,0,1-2.993-1.075,2.276,2.276,0,0,1-.871-1.68,3.912,3.912,0,0,0-.081-.469,1.13,1.13,0,0,1,.367-.121c2.667-.008,5.334-.047,8,.016a4.883,4.883,0,0,1,2.842.919A3.394,3.394,0,0,1-28.143,243.418Z" transform="translate(-256.244 -373.734)" fill="#1a4921"/>
      <path id="Контур_3917" data-name="Контур 3917" d="M-40.559,204.106a1.39,1.39,0,0,1,.336-.092c1.955,0,3.914-.069,5.865.025.978.047,1.965-.015,2.934.116a3.429,3.429,0,0,1,2.982,2.02,9.418,9.418,0,0,1,.321,1.12,1.1,1.1,0,0,1-.252.081c-2.733,0-5.465.011-8.2-.01a4.926,4.926,0,0,1-2.966-1,2.523,2.523,0,0,1-.94-1.728C-40.5,204.481-40.524,204.33-40.559,204.106Z" transform="translate(-256.264 -342.777)" fill="#1a4921"/>
      <path id="Контур_3930" data-name="Контур 3930" d="M519.554,308.286h-1.569c-.211-.465.139-.865.26-1.269.125-.42.078-.93.507-1.3Z" transform="translate(-735.647 -430.101)" fill="#f4f8ef"/>
    </g>
  </g>
</svg>
