<svg xmlns="http://www.w3.org/2000/svg" width="113" height="47.564" viewBox="0 0 113 47.564">
  <path id="Объединение_1" data-name="Объединение 1" d="M4328.135,46.462c-1.672-.065-3.343-.171-5.013-.284-1.274-.087-2.549-.187-3.819-.33-1.7-.191-3.4-.413-5.1-.65-3.051-.426-6.075-1.012-9.072-1.729a74.217,74.217,0,0,1-13.45-4.483,39.816,39.816,0,0,1-8.176-4.81,20.651,20.651,0,0,1-4.315-4.426,11.9,11.9,0,0,1-1.981-4.437,10.111,10.111,0,0,1,.689-6.228,15.249,15.249,0,0,1,3.082-4.452,28.309,28.309,0,0,1,5.844-4.533,52.327,52.327,0,0,1,8.937-4.212,83.869,83.869,0,0,1,11.117-3.208q3.387-.745,6.813-1.263c1.453-.219,2.911-.4,4.371-.572q2.024-.236,4.055-.411,1.575-.137,3.158-.206c2.006-.088,4.013-.191,6.022-.218,2.049-.026,4.1.007,6.148.061,1.582.041,3.163.129,4.741.239,1.639.116,3.277.245,4.908.435,2.124.248,4.247.518,6.357.858a91.35,91.35,0,0,1,15.184,3.719A56.012,56.012,0,0,1,4378.5,9.7a29,29,0,0,1,6.565,4.984,14.837,14.837,0,0,1,3.177,4.749,10.065,10.065,0,0,1,.748,4.341,10.858,10.858,0,0,1-1.415,4.739,17.723,17.723,0,0,1-3.829,4.613,33.958,33.958,0,0,1-6.926,4.636,62.875,62.875,0,0,1-10.953,4.354,85.61,85.61,0,0,1-9.356,2.276q-2.87.525-5.755.957c-1.444.214-2.9.368-4.348.514-1.584.159-3.17.3-4.759.409-1.406.1-2.816.152-4.226.2-1.48.048-2.962.063-4.44.093C4331.361,46.532,4329.747,46.525,4328.135,46.462Zm1.651-43.988c-2.222.026-4.441.134-6.656.312-1.5.12-2.993.228-4.484.392-1.753.193-3.506.4-5.247.677q-3.164.507-6.307,1.148a77.792,77.792,0,0,0-9.732,2.641A50.431,50.431,0,0,0,4287.693,12a25.173,25.173,0,0,0-4.965,3.78,13.132,13.132,0,0,0-2.815,3.968,8.393,8.393,0,0,0-.586,5.265,10.187,10.187,0,0,0,1.729,3.786,18.441,18.441,0,0,0,4.112,4.063,37.249,37.249,0,0,0,7.246,4.113,67.422,67.422,0,0,0,9.786,3.4c2.516.679,5.051,1.261,7.617,1.712q2.468.433,4.95.8c1.424.207,2.854.379,4.285.531,1.28.137,2.564.24,3.849.328,1.619.112,3.238.219,4.861.281,1.744.066,3.49.078,5.234.113,2.4-.014,4.791-.062,7.181-.209,1.488-.091,2.978-.18,4.462-.31q2.377-.207,4.748-.492c1.509-.184,3.018-.376,4.515-.639q3.127-.547,6.234-1.212a74.692,74.692,0,0,0,9.431-2.7,49.091,49.091,0,0,0,8.774-4.051,24.967,24.967,0,0,0,5.044-3.877,13.177,13.177,0,0,0,2.693-3.832,8.524,8.524,0,0,0,.74-4.3,9.16,9.16,0,0,0-1.246-3.777,15.766,15.766,0,0,0-3.611-4.155,32.269,32.269,0,0,0-6.711-4.235,63.018,63.018,0,0,0-10.794-4,97.265,97.265,0,0,0-13.363-2.709c-1.869-.247-3.742-.47-5.618-.651-1.675-.163-3.356-.276-5.036-.368s-3.346-.154-5.02-.176q-.773-.01-1.545-.009C4332.511,2.44,4331.148,2.458,4329.786,2.474Zm-2.667,40.3q-2.552-.1-5.1-.306c-1.757-.143-3.513-.33-5.264-.531a102.394,102.394,0,0,1-13.3-2.4,66.879,66.879,0,0,1-11.079-3.733,34.129,34.129,0,0,1-7-4.05,16.009,16.009,0,0,1-3.638-3.763,8.942,8.942,0,0,1-1.428-3.45,7.622,7.622,0,0,1,.6-4.484,12.107,12.107,0,0,1,2.708-3.743,24.459,24.459,0,0,1,5.028-3.691,49.378,49.378,0,0,1,8.621-3.8,75.726,75.726,0,0,1,9.17-2.509c2.052-.426,4.117-.8,6.184-1.15,1.248-.215,2.507-.362,3.764-.519q1.827-.226,3.657-.408c.847-.086,1.7-.145,2.546-.2,1.153-.082,2.308-.154,3.462-.225.517-.031,1.033-.052,1.551-.069q4.428-.152,8.858-.054,2.251.046,4.5.18c1.519.089,3.036.214,4.552.346,1.261.11,2.523.23,3.781.389,1.537.193,3.074.4,4.6.655,1.8.3,3.594.619,5.378,1a71.338,71.338,0,0,1,14.338,4.48,33.935,33.935,0,0,1,7,4.047,16.4,16.4,0,0,1,3.5,3.557,9.041,9.041,0,0,1,1.538,3.47,7.7,7.7,0,0,1-.642,4.863,12.843,12.843,0,0,1-2.992,3.909,26.234,26.234,0,0,1-5.29,3.692,53.3,53.3,0,0,1-9.626,3.983,81.878,81.878,0,0,1-9.906,2.455q-3,.547-6.029.981c-1.575.228-3.158.4-4.741.554-1.544.152-3.092.26-4.64.372-2.308.167-4.62.239-6.934.261-.619.006-1.238,0-1.857,0v.046C4331.037,42.879,4329.077,42.855,4327.12,42.778ZM4346.736,18a.848.848,0,0,0-.433.562q-.2.722-.424,1.436c-.524,1.652-.967,3.33-1.583,4.952-.256.675-.483,1.364-.683,2.059a3.885,3.885,0,0,0-.178,1.753,1.152,1.152,0,0,0,1.3,1.115,3.487,3.487,0,0,0,1.658-.446,8.128,8.128,0,0,0,2.617-2.253,2.859,2.859,0,0,0,.3-.5,2.719,2.719,0,0,0,.158-.462.343.343,0,0,0-.111-.412c-.144-.095-.282-.011-.392.074a3.1,3.1,0,0,0-.446.413c-.2.232-.375.482-.558.728a2.624,2.624,0,0,1-.913.747c-.147.077-.339.154-.454.028a.659.659,0,0,1-.111-.451,2.745,2.745,0,0,1,.138-.656q.5-1.589,1.025-3.171c.525-1.6,1.074-3.188,1.459-4.829a.7.7,0,0,0-.6-.969,2.561,2.561,0,0,0-.5-.05A2.672,2.672,0,0,0,4346.736,18Zm9.043-.261a7.918,7.918,0,0,0-4.055,3.889,7.169,7.169,0,0,0-.84,4.437,4.094,4.094,0,0,0,2.958,3.535,4.956,4.956,0,0,0,2.792.007,8.539,8.539,0,0,0,3.7-2.369.71.71,0,0,0-.093-1.065,3.109,3.109,0,0,0-.827.538c-.4.311-.792.64-1.211.924a3.553,3.553,0,0,1-2.857.487,1.9,1.9,0,0,1-1.545-1.542,4.3,4.3,0,0,1,.005-1.672c.051-.291.052-.3.337-.3a13.452,13.452,0,0,0,2.95-.378,8.047,8.047,0,0,0,3.1-1.414,4.212,4.212,0,0,0,1.382-1.755,2.545,2.545,0,0,0-1.129-3.29,3.7,3.7,0,0,0-.9-.365,5.543,5.543,0,0,0-1.371-.173A6.251,6.251,0,0,0,4355.78,17.734ZM4304.991,12.2a13.431,13.431,0,0,0-5.265,2.126,13.772,13.772,0,0,0-4.641,4.977,7.96,7.96,0,0,0-.9,5.563,5.676,5.676,0,0,0,3.457,4.256,6.826,6.826,0,0,0,4.906.1,12.331,12.331,0,0,0,4.163-2.648c.014-.013.027-.03.042-.044a.639.639,0,0,0,.144-.708c-.047-.131-.124-.253-.21-.43-.216.148-.392.264-.565.386-.631.444-1.243.922-1.9,1.325a5.669,5.669,0,0,1-3.445.9,3.258,3.258,0,0,1-2.128-.934,4.447,4.447,0,0,1-1.218-2.991,8.733,8.733,0,0,1,.643-3.834,10.961,10.961,0,0,1,8.3-6.869,2.288,2.288,0,0,1,1.116-.022.672.672,0,0,1,.571.8c-.017.172-.088.34-.093.51a1.485,1.485,0,0,0,.066.6,1.674,1.674,0,0,0,1.86.878,1.8,1.8,0,0,0,.773-2.993,3.06,3.06,0,0,0-1.288-.727,9.116,9.116,0,0,0-2.614-.374A10.813,10.813,0,0,0,4304.991,12.2Zm28.937,17.138h2.886c.017-.057.045-.132.062-.211a29.614,29.614,0,0,1,1.419-4.549,17.493,17.493,0,0,1,1.877-3.668,4.735,4.735,0,0,1,1-1.1c.133-.1.281-.182.446-.287.1.2.175.371.259.532a1.211,1.211,0,0,0,1.518.622,2,2,0,0,0,1.29-1.8,1.211,1.211,0,0,0-.944-1.291,2.732,2.732,0,0,0-.78-.08,3.27,3.27,0,0,0-1.878.79,8.157,8.157,0,0,0-2.018,2.352c-.043.073-.088.144-.133.216a5.84,5.84,0,0,1,.116-.761,5.278,5.278,0,0,0,.1-1.584,1.059,1.059,0,0,0-.8-1.037,2.007,2.007,0,0,0-.693.015,3.613,3.613,0,0,0-1.542.691,9.4,9.4,0,0,0-2.494,2.82c-.061.1-.107.215-.168.338.095.057.168.109.247.15.311.161.367.135.456-.213a2.321,2.321,0,0,1,.519-.994,4.388,4.388,0,0,1,2.129-1.1C4335.839,22.589,4334.891,25.938,4333.928,29.341ZM4315.2,27.688a2.986,2.986,0,0,0,.182.861,1.145,1.145,0,0,0,1.133.768,2.715,2.715,0,0,0,1.178-.268,7.781,7.781,0,0,0,3.032-2.394,2.824,2.824,0,0,0,.3-.495,1.394,1.394,0,0,0,.14-.434.4.4,0,0,0-.6-.437,1.567,1.567,0,0,0-.432.375c-.157.186-.274.406-.428.595a4.9,4.9,0,0,1-.615.674,1.4,1.4,0,0,1-1.2.289c.033-.261.054-.5.095-.742a18.706,18.706,0,0,1,.793-2.886c.486-1.448.983-2.895,1.455-4.348a7.79,7.79,0,0,0,.374-1.8c-.469-.036-.92-.086-1.374-.1a1.542,1.542,0,0,0-1.206.484c-.05.051-.1.1-.166.158a3.242,3.242,0,0,0-2.141-.726,6.015,6.015,0,0,0-3.52,1.095,9.43,9.43,0,0,0-4.289,6.878,4.463,4.463,0,0,0,.331,2.309,2.709,2.709,0,0,0,2.924,1.612,4.26,4.26,0,0,0,2.128-.912c.566-.445,1.087-.95,1.62-1.436a2.079,2.079,0,0,0,.255-.341C4315.211,26.917,4315.175,27.3,4315.2,27.688Zm7.878,1.564h.379l1.645.007c.738,0,.76.01,1.012-.693.308-.853.6-1.714.85-2.585a19.589,19.589,0,0,1,1.85-4.483,6.882,6.882,0,0,1,1.1-1.5,2.162,2.162,0,0,1,.91-.576c.051.12.1.229.142.341.085.218.153.445.25.658a.742.742,0,0,0,.972.453,2.027,2.027,0,0,0,1.528-1.717,1.472,1.472,0,0,0-.738-1.61,1.908,1.908,0,0,0-1.064-.186,3.245,3.245,0,0,0-1.767.824,9.327,9.327,0,0,0-1.814,2.174l-.3.478a6.352,6.352,0,0,1,.127-.79,5.1,5.1,0,0,0,.149-1.669,1.084,1.084,0,0,0-1.028-.991,2.217,2.217,0,0,0-1.262.267,7.686,7.686,0,0,0-3.109,3.024,1.491,1.491,0,0,0-.17.487c-.039.235.056.321.292.305a.908.908,0,0,0,.688-.4c.18-.248.341-.508.511-.762a2.778,2.778,0,0,1,.869-.887,1.685,1.685,0,0,1,.847-.287C4324.986,22.519,4324.039,25.86,4323.078,29.252Zm39.638,0c.909,0,1.759,0,2.611-.008a.315.315,0,0,0,.211-.174,8.256,8.256,0,0,0,.343-.85c.332-1,.646-2,.977-2.994a21.034,21.034,0,0,1,1.554-3.753,5.687,5.687,0,0,1,1.165-1.521,2.239,2.239,0,0,1,.889-.513c.09.218.16.432.263.627a1.014,1.014,0,0,0,1.025.576,2.179,2.179,0,0,0,1.078-.389,1.447,1.447,0,0,0,.6-.957,3.292,3.292,0,0,0-.06-1.246.436.436,0,0,0-.284-.357,2.889,2.889,0,0,0-2.794.167,4.362,4.362,0,0,0-1.2,1.031c-.447.567-.855,1.167-1.279,1.751-.047.065-.091.133-.139.2a2.854,2.854,0,0,1,.062-.5,7.13,7.13,0,0,0,.219-1.849,1.124,1.124,0,0,0-1.139-1.118,2.686,2.686,0,0,0-1.6.5,7.843,7.843,0,0,0-2.543,2.635,2.725,2.725,0,0,0-.262.618c-.073.249.059.394.306.325a1.412,1.412,0,0,0,.522-.285,3.394,3.394,0,0,0,.411-.491c.23-.285.449-.579.69-.856a2.033,2.033,0,0,1,.837-.595c.117-.042.24-.065.415-.111C4364.636,22.531,4363.666,25.871,4362.716,29.256Zm-13.678-16.078a2.213,2.213,0,0,0-1.267.681,1.382,1.382,0,0,0-.309,1.581,1.353,1.353,0,0,0,1.207.886,1.7,1.7,0,0,0,1.865-1.951,1.358,1.358,0,0,0-1.291-1.214A1.164,1.164,0,0,0,4349.038,13.178Zm-37.054,13.9a.805.805,0,0,1-.709-.59,9.643,9.643,0,0,1-.205-1.042,8.639,8.639,0,0,1,.622-2.687,10.333,10.333,0,0,1,1.731-2.937,4.47,4.47,0,0,1,2.345-1.508,1.71,1.71,0,0,1,.359-.044.833.833,0,0,1,.891.709,2.924,2.924,0,0,1-.02,1.337,13.019,13.019,0,0,1-2.8,5.7,2.721,2.721,0,0,1-1.61,1.031,2.428,2.428,0,0,1-.411.038A1.735,1.735,0,0,1,4311.984,27.08Zm42.13-3.606a10.253,10.253,0,0,1,1.563-3.236,7.882,7.882,0,0,1,.938-1,2.474,2.474,0,0,1,1.266-.629.915.915,0,0,1,1.123,1.11,2.212,2.212,0,0,1-.163.619,5.357,5.357,0,0,1-3.154,2.925,4.129,4.129,0,0,1-1.31.22C4354.29,23.482,4354.2,23.479,4354.114,23.473Z" transform="translate(-4276.499 0.5)" fill="#152c73" stroke="rgba(0,0,0,0)" stroke-miterlimit="10" stroke-width="1"/>
</svg>
