<svg xmlns="http://www.w3.org/2000/svg" width="131.999" height="42" viewBox="0 0 131.999 42">
  <path id="App_Store" data-name="App Store" d="M-14814.688-7742l-113.837,0c-.322,0-.653,0-1.012-.011a14.1,14.1,0,0,1-2.092-.18,6.719,6.719,0,0,1-1.855-.6,6.065,6.065,0,0,1-1.563-1.117,5.867,5.867,0,0,1-1.144-1.533,6.277,6.277,0,0,1-.606-1.818,13.555,13.555,0,0,1-.185-2.058c-.007-.233-.019-1-.019-1v-25.364s.012-.761.019-.982a13.184,13.184,0,0,1,.185-2.055,6.262,6.262,0,0,1,.606-1.825,5.945,5.945,0,0,1,1.136-1.537,6.39,6.39,0,0,1,1.571-1.121,6.571,6.571,0,0,1,1.852-.6,14.056,14.056,0,0,1,2.1-.18l1.008-.015h115.044l1.02.015a14.293,14.293,0,0,1,2.081.176,6.646,6.646,0,0,1,1.87.6,6.17,6.17,0,0,1,2.707,2.658,6.415,6.415,0,0,1,.6,1.811,13.746,13.746,0,0,1,.191,2.069c0,.312,0,.65,0,.979.008.413.008.795.008,1.2v22.979c0,.4,0,.787-.008,1.181,0,.351,0,.682,0,1.02a13.748,13.748,0,0,1-.191,2.036,6.265,6.265,0,0,1-.6,1.833,6.06,6.06,0,0,1-1.136,1.522,6.111,6.111,0,0,1-1.571,1.121,6.57,6.57,0,0,1-1.866.6,14.03,14.03,0,0,1-2.092.18c-.346.007-.684.011-1,.011Zm-59.934-19.6v13.488h2.08v-5.02h.049a3.435,3.435,0,0,0,3.01,1.777c.059,0,.118,0,.177,0a3.842,3.842,0,0,0,3.07-1.406,5.846,5.846,0,0,0,1.162-3.768,5.822,5.822,0,0,0-1.171-3.765,3.889,3.889,0,0,0-3.1-1.408l-.123,0a3.6,3.6,0,0,0-3.1,1.79h-.037v-1.683Zm-11.156,0v13.488h2.08v-5.02h.049a3.446,3.446,0,0,0,3.014,1.777c.059,0,.118,0,.177,0a3.839,3.839,0,0,0,3.067-1.406,5.853,5.853,0,0,0,1.161-3.768,5.823,5.823,0,0,0-1.169-3.765,3.891,3.891,0,0,0-3.1-1.408l-.123,0a3.6,3.6,0,0,0-3.1,1.79h-.037v-1.683Zm25.944,6.26a3.934,3.934,0,0,0,1.544,3,6.092,6.092,0,0,0,3.757,1.109,6.27,6.27,0,0,0,3.917-1.139,3.784,3.784,0,0,0,1.447-3.09c0-2.032-1.207-3.184-4.037-3.854l-1.529-.375c-1.795-.443-2.527-1.024-2.527-2.005a1.814,1.814,0,0,1,.783-1.5,3.414,3.414,0,0,1,2.04-.578c1.692,0,2.823.853,2.95,2.227h2.1a3.791,3.791,0,0,0-1.434-2.923,5.616,5.616,0,0,0-3.586-1.125c-2.978,0-5.058,1.665-5.058,4.048,0,1.941,1.188,3.131,3.737,3.745l1.8.435c1.795.441,2.561,1.089,2.561,2.167,0,1.245-1.268,2.148-3.015,2.148-1.837,0-3.173-.917-3.325-2.283Zm39.853-6.384c-2.849,0-4.689,2.057-4.689,5.241s1.83,5.143,4.775,5.143c2.294,0,4.088-1.276,4.363-3.1h-1.976a2.281,2.281,0,0,1-2.126,1.438c-.069,0-.142,0-.213-.01h-.091a2.659,2.659,0,0,1-1.918-.823,2.633,2.633,0,0,1-.717-2.05v-.127h7.156v-.712a5.3,5.3,0,0,0-1.231-3.651A4.369,4.369,0,0,0-14819.981-7761.725Zm-16.847,0a4.624,4.624,0,0,0-3.5,1.4,5.442,5.442,0,0,0-1.306,3.792,5.458,5.458,0,0,0,1.3,3.8,4.63,4.63,0,0,0,3.508,1.4,4.63,4.63,0,0,0,3.508-1.4,5.458,5.458,0,0,0,1.3-3.8,5.458,5.458,0,0,0-1.3-3.792A4.627,4.627,0,0,0-14836.828-7761.725Zm-9.941,1.77v5.811c0,1.969.8,2.736,2.853,2.736h.105a5.807,5.807,0,0,0,1.049-.1v-1.638a5.862,5.862,0,0,1-.682.048c-.842,0-1.233-.4-1.233-1.271v-5.589h1.927v-1.646h-1.927v-2.4h-2.092v2.4h-1.474v1.646Zm-49.153,4.731h5.3l1.274,3.756h2.279l-5.016-13.9h-2.331l-5.02,13.9h2.241l1.274-3.755Zm65.617-6.376v10.132h2.081v-6.009a2.093,2.093,0,0,1,.547-1.665,2.1,2.1,0,0,1,1.531-.669l.088,0h.1a2.937,2.937,0,0,1,.841.125v-1.946a3.12,3.12,0,0,0-.666-.075h-.046l-.1,0a2.413,2.413,0,0,0-2.344,1.832h-.049v-1.724Zm-90.4-8.29h-.066a5.963,5.963,0,0,0-2.91.866,5.98,5.98,0,0,0-2.1,2.185,9.649,9.649,0,0,0-.827,6.415,15.5,15.5,0,0,0,2.353,5.874c.909,1.3,2.153,3.081,3.752,3.081h.083a4.7,4.7,0,0,0,1.758-.466,5.233,5.233,0,0,1,2.249-.524,4.931,4.931,0,0,1,2.138.506,4.234,4.234,0,0,0,1.794.447h.085c1.616-.025,2.641-1.368,3.721-2.988a12.164,12.164,0,0,0,1.7-3.46,5.347,5.347,0,0,1-3.265-4.926,5.506,5.506,0,0,1,2.635-4.648,5.685,5.685,0,0,0-4.464-2.415,3.666,3.666,0,0,0-.393-.021,7.839,7.839,0,0,0-2.81.713,4.709,4.709,0,0,1-1.462.433,4.565,4.565,0,0,1-1.514-.439l0,0A6.689,6.689,0,0,0-14920.709-7769.891Zm97.818.837h0c.075.007.146.011.218.011a2.063,2.063,0,0,0,1.968-1.469h-.96a1.207,1.207,0,0,1-1.056.619,1.231,1.231,0,0,1-.14-.008h-.014a1.333,1.333,0,0,1-.979-.427,1.344,1.344,0,0,1-.353-1.02v-.052h3.561v-.349c0-1.591-.841-2.542-2.249-2.542h-.014a2.332,2.332,0,0,0-1.748.787,2.324,2.324,0,0,0-.562,1.848,2.259,2.259,0,0,0,.563,1.837,2.3,2.3,0,0,0,1.714.765Zm-24.018-5.237a2.383,2.383,0,0,0-1.26.36,2.374,2.374,0,0,0-1.117,2.257,2.4,2.4,0,0,0,1.113,2.26,2.4,2.4,0,0,0,1.264.36,2.391,2.391,0,0,0,1.26-.36,2.4,2.4,0,0,0,1.116-2.26,2.38,2.38,0,0,0-1.116-2.257A2.388,2.388,0,0,0-14846.908-7774.291Zm-20.164,0a2.383,2.383,0,0,0-1.26.36,2.381,2.381,0,0,0-1.117,2.257,2.379,2.379,0,0,0,1.117,2.26,2.386,2.386,0,0,0,1.26.36,2.367,2.367,0,0,0,1.259-.36,2.4,2.4,0,0,0,1.117-2.26,2.371,2.371,0,0,0-1.117-2.257A2.38,2.38,0,0,0-14867.072-7774.291Zm-21.87,0a2.383,2.383,0,0,0-1.26.36,2.374,2.374,0,0,0-1.117,2.257,2.4,2.4,0,0,0,1.117,2.26,2.386,2.386,0,0,0,1.26.36,2.391,2.391,0,0,0,1.26-.36,2.4,2.4,0,0,0,1.117-2.26,2.375,2.375,0,0,0-1.117-2.257A2.388,2.388,0,0,0-14888.942-7774.291Zm27.5.862c.665,0,1.031.3,1.031.832v.435l-1.365.079c-1.208.075-1.874.609-1.874,1.5a1.506,1.506,0,0,0,.506,1.128,1.512,1.512,0,0,0,1.017.39,1.067,1.067,0,0,0,.157-.008h.074a1.694,1.694,0,0,0,1.44-.792h.078v.708h.956v-3.445c0-1.077-.72-1.694-1.976-1.694-1.149,0-1.957.558-2.058,1.42h.963C-14862.38-7773.225-14862-7773.428-14861.438-7773.428Zm5.5-.849h-.077c-1.271,0-2.092,1.021-2.092,2.6,0,1.607.8,2.6,2.092,2.6h.06a1.767,1.767,0,0,0,1.526-.881h.074v.8h.956v-7.01h-1v2.77h-.071A1.664,1.664,0,0,0-14855.94-7774.277Zm21.65.946v2.845c0,.967.447,1.361,1.544,1.361a3.29,3.29,0,0,0,.544-.049V-7770a3.26,3.26,0,0,1-.379.022c-.492,0-.712-.235-.712-.761v-2.59h1.091v-.84h-1.091v-1.278h-1v1.278h-.8v.84Zm-48.107.465h.079l1.042,3.715h1.031l1.383-5.042h-.993l-.9,3.846h-.078l-1.035-3.846h-.955l-1.035,3.846h-.075l-.9-3.846h-1.008l1.387,5.042h1.023l1.038-3.714Zm53.717-.51q.05,0,.1,0c.717,0,1.08.407,1.08,1.21v3.01h1v-3.254a1.673,1.673,0,0,0-.428-1.349,1.677,1.677,0,0,0-1.225-.535l-.088,0c-.039,0-.08,0-.123,0a1.563,1.563,0,0,0-1.413.909h-.079v-2.778h-.986v7.01h1v-2.946a1.174,1.174,0,0,1,.337-.934A1.183,1.183,0,0,1-14828.681-7773.376Zm-12.371,0h.052c.734,0,1.091.4,1.091,1.215v3.014h.993v-3.265a1.636,1.636,0,0,0-.42-1.357,1.655,1.655,0,0,0-1.2-.522c-.037,0-.077,0-.123,0s-.081,0-.125,0a1.508,1.508,0,0,0-1.382.9h-.071v-.8h-.96v5.042h.993v-2.95a1.167,1.167,0,0,1,.312-.915A1.145,1.145,0,0,1-14841.052-7773.381Zm-30.774-2.78v7.01h.993v-7.01Zm-3.722,2.78h.046c.737,0,1.093.4,1.093,1.215v3.014h1v-3.265a1.639,1.639,0,0,0-.423-1.357,1.643,1.643,0,0,0-1.2-.522c-.037,0-.078,0-.124,0s-.08,0-.124,0a1.506,1.506,0,0,0-1.38.9h-.074v-.8h-.956v5.042h.993v-2.95a1.162,1.162,0,0,1,.312-.915A1.145,1.145,0,0,1-14875.548-7773.381Zm-22.5-2.451v6.68h2.414c2,0,3.142-1.226,3.142-3.362a2.95,2.95,0,0,0-.784-2.4,2.975,2.975,0,0,0-2.146-.923c-.065,0-.137,0-.212.008Zm-14.013-.011a5.558,5.558,0,0,0-3.592,1.856,5.234,5.234,0,0,0-1.281,3.764h.048a4.557,4.557,0,0,0,3.577-1.713,5.426,5.426,0,0,0,1.248-3.906Zm75.232,22.785a2.4,2.4,0,0,1-1.977-.914,4.167,4.167,0,0,1-.711-2.561c0-2.178,1-3.479,2.688-3.479s2.688,1.3,2.688,3.479a4.167,4.167,0,0,1-.711,2.561A2.4,2.4,0,0,1-14836.828-7753.058Zm-33.063-.067c-1.593,0-2.662-1.37-2.662-3.408s1.069-3.4,2.662-3.4a2.393,2.393,0,0,1,1.944.932,3.955,3.955,0,0,1,.732,2.472C-14867.215-7754.463-14868.266-7753.125-14869.892-7753.125Zm-11.156,0c-1.59,0-2.658-1.37-2.658-3.408s1.068-3.4,2.658-3.4a2.4,2.4,0,0,1,1.947.932,3.959,3.959,0,0,1,.733,2.472C-14878.367-7754.463-14879.419-7753.125-14881.048-7753.125Zm-10.125-3.831h-4.2l2.072-6.1h.061l2.069,6.1Zm73.677-.514h-5.068a2.549,2.549,0,0,1,.757-1.822,2.583,2.583,0,0,1,1.812-.75h.067a2.447,2.447,0,0,1,1.75.743,2.454,2.454,0,0,1,.683,1.829Zm-44.1-12.429c-.039,0-.076,0-.113-.005-.569,0-.937-.283-.937-.72s.321-.678,1.013-.727l1.229-.079v.423a1.187,1.187,0,0,1-.42.825A1.18,1.18,0,0,1-14861.6-7769.9Zm14.69-.039c-.857,0-1.35-.632-1.35-1.735s.492-1.732,1.35-1.732,1.354.631,1.354,1.732S-14846.048-7769.938-14846.908-7769.938Zm-20.161,0c-.859,0-1.353-.632-1.353-1.735s.493-1.732,1.353-1.732,1.35.631,1.35,1.732S-14866.212-7769.938-14867.069-7769.938Zm-21.869,0c-.86,0-1.354-.632-1.354-1.735s.493-1.732,1.354-1.732,1.35.631,1.35,1.732S-14888.081-7769.938-14888.938-7769.938Zm33.2-.022c-.843,0-1.346-.64-1.346-1.713,0-1.055.516-1.709,1.346-1.709s1.356.656,1.356,1.713S-14854.9-7769.961-14855.736-7769.961Zm-39.889-.131c-.046,0-.087,0-.125,0h-1.26v-4.791h1.26c.038,0,.08,0,.124,0a2.105,2.105,0,0,1,1.54.678,2.086,2.086,0,0,1,.536,1.713,2.084,2.084,0,0,1-.528,1.724A2.1,2.1,0,0,1-14895.625-7770.092Zm73.964-2.046h-2.545a1.3,1.3,0,0,1,.378-.926,1.3,1.3,0,0,1,.911-.378h.043a1.225,1.225,0,0,1,.883.379,1.206,1.206,0,0,1,.33.925Z" transform="translate(14937.001 7784)"/>
</svg>
