<svg xmlns="http://www.w3.org/2000/svg" width="16" height="16" viewBox="0 0 16 16">
  <path id="external-link_2" data-name="external-link 2" d="M13.75,8h-.5a.25.25,0,0,0-.25.25V14.5a.5.5,0,0,1-.5.5H1.5a.5.5,0,0,1-.5-.5V3.5A.5.5,0,0,1,1.5,3H7.75A.25.25,0,0,0,8,2.75v-.5A.25.25,0,0,0,7.75,2H1.5A1.5,1.5,0,0,0,0,3.5v11A1.5,1.5,0,0,0,1.5,16h11A1.5,1.5,0,0,0,14,14.5V8.25A.25.25,0,0,0,13.75,8Zm1.875-8-4.25.011A.375.375,0,0,0,11,.386V.7a.375.375,0,0,0,.375.375l2.813-.011.022.022-10.1,10.1a.375.375,0,0,0,0,.531l.177.177a.375.375,0,0,0,.531,0l10.1-10.1.022.022-.011,2.812A.375.375,0,0,0,15.3,5h.313a.375.375,0,0,0,.375-.375L16,.375A.375.375,0,0,0,15.625,0Z" fill="#475569"/>
</svg>
