<svg xmlns="http://www.w3.org/2000/svg" width="36" height="48" viewBox="0 0 36 48">
  <path id="File-word" d="M34.678,9.086,26.812,1.222A4.5,4.5,0,0,0,23.634-.1H4.5A4.515,4.515,0,0,0,0,4.408V43.4a4.5,4.5,0,0,0,4.5,4.5h27A4.5,4.5,0,0,0,36,43.4V12.273A4.521,4.521,0,0,0,34.678,9.086Zm-2.119,2.128a1.475,1.475,0,0,1,.394.694H24V2.956a1.475,1.475,0,0,1,.694.394ZM31.5,44.9H4.5A1.5,1.5,0,0,1,3,43.4V4.408a1.5,1.5,0,0,1,1.5-1.5H21v9.748a2.244,2.244,0,0,0,2.25,2.25H33V43.4A1.5,1.5,0,0,1,31.5,44.9ZM26.475,21.8c-.637,3.074-3.047,13.094-3.131,14.088-.544-2.728-.066.15-3.919-14.144a1.134,1.134,0,0,0-1.087-.834h-.6a1.123,1.123,0,0,0-1.087.834c-3.591,13.338-3.506,13.179-3.694,14.5-.384-2.24.2-.272-3.225-14.472a1.124,1.124,0,0,0-1.1-.862H7.959a1.121,1.121,0,0,0-1.088,1.4c.891,3.562,3.234,12.879,3.956,15.747a1.123,1.123,0,0,0,1.088.853h1.594a1.134,1.134,0,0,0,1.087-.834C17.8,26.1,17.737,26.5,18.037,24.673c.609,2.915.019.656,3.441,13.394a1.134,1.134,0,0,0,1.087.834h1.313c.516,0,1.284-.347,1.416-.844l4.012-15.747a1.128,1.128,0,0,0-1.087-1.406h-.637a1.134,1.134,0,0,0-1.106.89Z" transform="translate(0 0.1)" fill="#152c73"/>
</svg>
