<svg xmlns="http://www.w3.org/2000/svg" xmlns:xlink="http://www.w3.org/1999/xlink" width="132.005" height="42" viewBox="0 0 132.005 42">
  <defs>
    <linearGradient id="linear-gradient" x1="0.849" y1="0.31" x2="0.361" y2="0.799" gradientUnits="objectBoundingBox">
      <stop offset="0" stop-color="#00a0ff"/>
      <stop offset="0.007" stop-color="#00a1ff"/>
      <stop offset="0.26" stop-color="#00beff"/>
      <stop offset="0.512" stop-color="#00d2ff"/>
      <stop offset="0.76" stop-color="#00dfff"/>
      <stop offset="1" stop-color="#00e3ff"/>
    </linearGradient>
    <linearGradient id="linear-gradient-2" x1="0.97" y1="0.436" x2="-1.177" y2="0.436" gradientUnits="objectBoundingBox">
      <stop offset="0" stop-color="#ffe000"/>
      <stop offset="0.409" stop-color="#ffbd00"/>
      <stop offset="0.775" stop-color="orange"/>
      <stop offset="1" stop-color="#ff9c00"/>
    </linearGradient>
    <linearGradient id="linear-gradient-3" x1="0.761" y1="0.213" x2="-0.443" y2="1.411" gradientUnits="objectBoundingBox">
      <stop offset="0" stop-color="#ff3a44"/>
      <stop offset="1" stop-color="#c31162"/>
    </linearGradient>
    <linearGradient id="linear-gradient-4" x1="-0.17" y1="-0.275" x2="0.367" y2="0.26" gradientUnits="objectBoundingBox">
      <stop offset="0" stop-color="#32a071"/>
      <stop offset="0.068" stop-color="#2da771"/>
      <stop offset="0.476" stop-color="#15cf74"/>
      <stop offset="0.801" stop-color="#06e775"/>
      <stop offset="1" stop-color="#00f076"/>
    </linearGradient>
    <linearGradient id="linear-gradient-5" x1="0.624" y1="0.038" x2="-0.364" y2="1.027" gradientUnits="objectBoundingBox">
      <stop offset="0" stop-color="#cc2e36"/>
      <stop offset="1" stop-color="#9c0e4e"/>
    </linearGradient>
    <linearGradient id="linear-gradient-6" x1="5.233" y1="-7.998" x2="-1.121" y2="-1.634" gradientUnits="objectBoundingBox">
      <stop offset="0" stop-color="#008de0"/>
      <stop offset="0.007" stop-color="#008de0"/>
      <stop offset="0.26" stop-color="#00a7e0"/>
      <stop offset="0.512" stop-color="#00b8e0"/>
      <stop offset="0.76" stop-color="#00c4e0"/>
      <stop offset="1" stop-color="#00c7e0"/>
    </linearGradient>
    <linearGradient id="linear-gradient-7" x1="0.943" y1="-0.195" x2="-2.414" y2="-0.195" gradientUnits="objectBoundingBox">
      <stop offset="0" stop-color="#e0c500"/>
      <stop offset="0.409" stop-color="#e0a600"/>
      <stop offset="0.775" stop-color="#e09100"/>
      <stop offset="1" stop-color="#e08900"/>
    </linearGradient>
    <linearGradient id="linear-gradient-8" x1="0.944" y1="0.999" x2="-2.414" y2="0.999" gradientUnits="objectBoundingBox">
      <stop offset="0" stop-color="#ffe840"/>
      <stop offset="0.409" stop-color="#ffce40"/>
      <stop offset="0.775" stop-color="#ffbc40"/>
      <stop offset="1" stop-color="#ffb540"/>
    </linearGradient>
    <linearGradient id="linear-gradient-9" x1="5.219" y1="0.865" x2="-1.113" y2="6.933" gradientUnits="objectBoundingBox">
      <stop offset="0" stop-color="#40b8ff"/>
      <stop offset="0.007" stop-color="#40b9ff"/>
      <stop offset="0.26" stop-color="#40ceff"/>
      <stop offset="0.512" stop-color="#40ddff"/>
      <stop offset="0.76" stop-color="#40e7ff"/>
      <stop offset="1" stop-color="#40eaff"/>
    </linearGradient>
    <linearGradient id="linear-gradient-10" x1="-0.137" y1="-0.184" x2="0.304" y2="0.257" gradientUnits="objectBoundingBox">
      <stop offset="0" stop-color="#65b895"/>
      <stop offset="0.068" stop-color="#62bd95"/>
      <stop offset="0.476" stop-color="#50db97"/>
      <stop offset="0.801" stop-color="#44ed98"/>
      <stop offset="1" stop-color="#40f498"/>
    </linearGradient>
  </defs>
  <g id="Google_Play-Badge-Logo.wine" transform="translate(0.003 6.225)">
    <path id="Контур_5332" data-name="Контур 5332" d="M127.111,42H4.889A5.094,5.094,0,0,1,0,36.75V5.25A5.094,5.094,0,0,1,4.889,0H127.111A5.094,5.094,0,0,1,132,5.25v31.5A5.094,5.094,0,0,1,127.111,42" transform="translate(0 -6.225)"/>
    <g id="Сгруппировать_883" data-name="Сгруппировать 883" transform="translate(9.739 1.718)">
      <path id="Контур_5334" data-name="Контур 5334" d="M924.549,156.068a2.651,2.651,0,0,1-.727,1.959,2.839,2.839,0,0,1-2.153.869,3.066,3.066,0,1,1,0-6.131,3.017,3.017,0,0,1,1.2.247,2.416,2.416,0,0,1,.916.656l-.515.516a1.977,1.977,0,0,0-1.6-.7,2.344,2.344,0,1,0,1.636,4.033,1.847,1.847,0,0,0,.491-1.189h-2.128v-.7h2.839a2.52,2.52,0,0,1,.041.443" transform="translate(-887.934 -152.666)" fill="#fff"/>
      <path id="Контур_5335" data-name="Контур 5335" d="M922.427,153.941h-.1a2.552,2.552,0,0,1-.7,1.89h0a2.741,2.741,0,0,1-2.082.838,2.968,2.968,0,1,1,0-5.936,2.923,2.923,0,0,1,1.164.238,2.321,2.321,0,0,1,.88.629l.075-.063-.069-.069-.515.517.069.069.075-.063a2.077,2.077,0,0,0-1.679-.731,2.442,2.442,0,1,0,1.706,4.2,1.947,1.947,0,0,0,.519-1.249l.009-.106h-2.137v-.5h2.742v-.1l-.1.017a2.391,2.391,0,0,1,.039.426h.2a2.6,2.6,0,0,0-.042-.46l-.014-.08h-3.019v.9h2.225v-.1l-.1-.008a1.753,1.753,0,0,1-.463,1.128,2.233,2.233,0,0,1-3.1,0,2.362,2.362,0,0,1,0-3.245,2.126,2.126,0,0,1,1.532-.624,1.879,1.879,0,0,1,1.529.661l.069.082.59-.592.063-.063-.058-.068a2.507,2.507,0,0,0-.953-.683,3.115,3.115,0,0,0-1.241-.254,3.164,3.164,0,1,0,0,6.327,2.939,2.939,0,0,0,2.223-.9l-.071-.068.069.069a2.751,2.751,0,0,0,.756-2.028h-.1m4.5-2.452H924.26v1.861h2.406v.705H924.26v1.861h2.668v.721h-3.421v-5.869h3.421v.721" transform="translate(-885.809 -150.539)" fill="#fff"/>
      <path id="Контур_5336" data-name="Контур 5336" d="M1079.269,154.349v-.1H1076.5V156.3h2.406v.509H1076.5v2.056h2.668v.525h-3.225v-5.673h3.225v.623h.2v-.819h-3.616v6.064h3.616v-.917H1076.7v-1.665h2.406v-.9H1076.7v-1.665h2.668v-.1h-.1m3.175,5.148h-.754v-5.148h-1.636v-.721h4.027v.721h-1.637V159.5" transform="translate(-1038.141 -153.399)" fill="#fff"/>
      <path id="Контур_5337" data-name="Контур 5337" d="M1173.908,159.5v-.1h-.656v-5.148h-1.637v-.525h3.831v.525h-1.636V159.5h.2v-5.05h1.636v-.917h-4.222v.917h1.636V159.6h.949v-.1h-.1m4.55,0v-5.869h.753V159.5h-.753" transform="translate(-1129.6 -153.399)" fill="#fff"/>
      <path id="Контур_5338" data-name="Контур 5338" d="M1329.384,159.5h.1v-5.771h.557V159.4h-.655v.1h0v.1h.85v-6.07h-.948v6.064h.1v-.1m4.092,0h-.753v-5.148h-1.637v-.721h4.026v.721h-1.636V159.5" transform="translate(-1280.515 -153.399)" fill="#fff"/>
      <path id="Контур_5339" data-name="Контур 5339" d="M1370.5,158.764v-.1h-.656v-5.148h-1.636v-.525h3.831v.525H1370.4v5.246h.2v-5.05h1.636V152.8h-4.222v.917h1.636v5.148h.949v-.1h-.1m5.519-1.25a2.251,2.251,0,0,0,3.183,0,2.5,2.5,0,0,0,0-3.369,2.25,2.25,0,0,0-3.183,0,2.507,2.507,0,0,0,0,3.369Zm3.74.491a3.038,3.038,0,0,1-4.3,0,3.174,3.174,0,0,1,0-4.352,3.028,3.028,0,0,1,4.292,0,3.164,3.164,0,0,1,0,4.348Z" transform="translate(-1317.533 -152.666)" fill="#fff"/>
      <path id="Контур_5340" data-name="Контур 5340" d="M1517.146,155.387l-.069.069a2.348,2.348,0,0,0,3.322,0,2.6,2.6,0,0,0,0-3.507,2.348,2.348,0,0,0-3.322,0,2.6,2.6,0,0,0,0,3.507l.069-.069.069-.069a2.41,2.41,0,0,1,0-3.232,2.153,2.153,0,0,1,3.044,0,2.407,2.407,0,0,1,0,3.232,2.153,2.153,0,0,1-3.044,0Zm3.74.491-.07-.068a2.942,2.942,0,0,1-4.156,0h0a3.077,3.077,0,0,1,0-4.216,2.931,2.931,0,0,1,4.153,0,3.067,3.067,0,0,1,0,4.212l.07.068.07.068a3.262,3.262,0,0,0,0-4.484,3.125,3.125,0,0,0-4.433,0h0a3.273,3.273,0,0,0,0,4.489h0a3.136,3.136,0,0,0,4.437,0Zm1.92.758v-5.869h.917l2.848,4.566h.032l-.032-1.131v-3.435h.753v5.869h-.786l-2.979-4.787h-.032l.032,1.131v3.655h-.752" transform="translate(-1458.65 -150.539)" fill="#fff"/>
      <path id="Контур_5341" data-name="Контур 5341" d="M945.459,159.5h.1v-5.771h.764l2.848,4.566h.187l-.035-1.23V153.73h.558v5.67h-.634l-2.979-4.787h-.187l.035,1.231V159.4h-.655v.1h0v.1h.85v-3.76l-.032-1.133h-.1v.1h.032v-.1l-.083.052,3.008,4.833h.938V153.53h-.949v3.534l.032,1.132h.1v-.1h-.032v.1l.083-.052-2.876-4.611h-1.068V159.6h.1v-.1m30.626,16.629h1.822V163.9H976.09ZM992.5,168.3l-2.089,5.3h-.062l-2.168-5.3h-1.963l3.251,7.41-1.854,4.122h1.9l5.01-11.531Zm-10.334,6.434c-.6,0-1.43-.3-1.43-1.039,0-.944,1.037-1.306,1.932-1.306a3.239,3.239,0,0,1,1.665.409,2.211,2.211,0,0,1-2.169,1.938Zm.22-6.7a3.42,3.42,0,0,0-3.251,1.872l1.617.676a1.726,1.726,0,0,1,1.665-.9,1.755,1.755,0,0,1,1.916,1.573v.126a4.025,4.025,0,0,0-1.9-.472c-1.743,0-3.519.959-3.519,2.753a2.822,2.822,0,0,0,3.031,2.69,2.571,2.571,0,0,0,2.325-1.2h.063v.944h1.759v-4.688c0-2.171-1.617-3.382-3.706-3.382Zm-11.262,1.756H968.53V165.6h2.592a2.1,2.1,0,1,1,0,4.191Zm-.047-5.893h-4.366v12.228h1.821v-4.633h2.545a3.8,3.8,0,0,0,0-7.6Zm-23.81,10.841a2.542,2.542,0,1,1,2.22-2.521,2.531,2.531,0,0,1-2.22,2.521Zm2.092-5.752H949.3a2.877,2.877,0,0,0-2.187-.93,4.164,4.164,0,0,0,0,8.32,2.831,2.831,0,0,0,2.187-.945h.063v.6c0,1.592-.849,2.443-2.218,2.443a2.3,2.3,0,0,1-2.093-1.481l-1.589.662a3.959,3.959,0,0,0,3.682,2.458c2.14,0,3.949-1.261,3.949-4.334V168.31h-1.731Zm2.989,7.138h1.825V163.9h-1.825Zm4.515-4.034a2.28,2.28,0,0,1,2.171-2.427,1.606,1.606,0,0,1,1.542.883Zm5.664-1.387a3.861,3.861,0,0,0-3.556-2.647,3.951,3.951,0,0,0-3.917,4.16,4.068,4.068,0,0,0,4.122,4.16,4.131,4.131,0,0,0,3.462-1.844l-1.416-.946a2.371,2.371,0,0,1-2.046,1.151,2.113,2.113,0,0,1-2.014-1.261l5.554-2.3Zm-44.247-1.371V171.1h4.22a3.686,3.686,0,0,1-.96,2.222,4.311,4.311,0,0,1-3.257,1.292,4.7,4.7,0,0,1,0-9.392,4.49,4.49,0,0,1,3.178,1.261l1.243-1.245a6.14,6.14,0,0,0-4.421-1.781,6.461,6.461,0,1,0,0,12.922,5.979,5.979,0,0,0,5.931-7.041Zm10.819,5.4a2.528,2.528,0,1,1,2.344-2.521,2.405,2.405,0,0,1-2.343,2.523Zm0-6.682a4.16,4.16,0,1,0,4.169,4.16,4.1,4.1,0,0,0-4.168-4.158Zm9.095,6.682a2.528,2.528,0,1,1,2.344-2.521,2.405,2.405,0,0,1-2.344,2.521Zm0-6.682a4.16,4.16,0,1,0,4.169,4.16,4.1,4.1,0,0,0-4.169-4.16Z" transform="translate(-881.23 -153.399)" fill="#fff"/>
      <path id="Контур_5342" data-name="Контур 5342" d="M222.064,162.452a1.891,1.891,0,0,0-.523,1.446v21.347a1.961,1.961,0,0,0,.452,1.374l.073.07h0a1.254,1.254,0,0,0,.863.318,2.247,2.247,0,0,0,1.094-.328l14.175-8.067,4.869-2.771a1.823,1.823,0,0,0,1.024-1.268h0a1.822,1.822,0,0,0-1.024-1.269L238.2,170.53l-14.175-8.067a2.251,2.251,0,0,0-1.1-.329,1.256,1.256,0,0,0-.862.318Z" transform="translate(-221.541 -161.624)" fill="#00c1ff"/>
      <path id="Контур_5343" data-name="Контур 5343" d="M.64-527.329l-.073-.07a1.961,1.961,0,0,1-.452-1.374V-550.12a1.891,1.891,0,0,1,.523-1.446l12.1,12.119L.64-527.329" transform="translate(-0.115 552.393)" fill="url(#linear-gradient)"/>
      <path id="Контур_5344" data-name="Контур 5344" d="M4.72-176.486.686-180.527l4.033-4.04,4.87,2.767a1.822,1.822,0,0,1,1.024,1.269h0a1.823,1.823,0,0,1-1.024,1.268L4.72-176.486" transform="translate(11.937 193.472)" fill="url(#linear-gradient-2)"/>
      <path id="Контур_5345" data-name="Контур 5345" d="M1.3-270.581a1.254,1.254,0,0,1-.86-.319h0l12.1-12.118,4.034,4.041L2.4-270.909a2.247,2.247,0,0,1-1.094.328" transform="translate(0.085 295.963)" fill="url(#linear-gradient-3)"/>
      <path id="Контур_5346" data-name="Контур 5346" d="M12.29-271.169.19-283.287a1.256,1.256,0,0,1,.862-.318,2.25,2.25,0,0,1,1.1.329l14.175,8.067-4.033,4.04" transform="translate(0.334 284.115)" fill="url(#linear-gradient-4)"/>
      <path id="Контур_5347" data-name="Контур 5347" d="M1.726-186.555a1.257,1.257,0,0,1-.863-.318h0L.8-186.938l-.006-.006.073-.073a1.254,1.254,0,0,0,.863.318,2.246,2.246,0,0,0,1.094-.328L17-195.094l.091.091-.092.052L2.819-186.884a2.331,2.331,0,0,1-1,.326H1.73" transform="translate(-0.338 212.081)" fill="url(#linear-gradient-5)"/>
      <path id="Контур_5348" data-name="Контур 5348" d="M.567-33.788a1.96,1.96,0,0,1-.452-1.374V-35.3a1.961,1.961,0,0,0,.452,1.374l.073.07-.073.073" transform="translate(-0.115 58.925)" fill="url(#linear-gradient-6)"/>
      <path id="Контур_5349" data-name="Контур 5349" d="M.733-90l-.091-.091,4.869-2.771A1.823,1.823,0,0,0,6.535-94.13a1.213,1.213,0,0,1-.113.5,2.1,2.1,0,0,1-.911.907L.733-90" transform="translate(16.014 107.075)" fill="url(#linear-gradient-7)"/>
      <path id="Контур_5350" data-name="Контур 5350" d="M6.526-90.553A1.822,1.822,0,0,0,5.5-91.822L.633-94.593l.091-.091h0L5.5-91.965a1.717,1.717,0,0,1,1.024,1.411" transform="translate(16.023 103.499)" fill="url(#linear-gradient-8)"/>
      <path id="Контур_5351" data-name="Контур 5351" d="M.115-33.24v-.307h0v-.006a1.865,1.865,0,0,1,.447-1.2l.071.072A1.891,1.891,0,0,0,.115-33.24" transform="translate(-0.115 35.514)" fill="url(#linear-gradient-9)"/>
      <path id="Контур_5352" data-name="Контур 5352" d="M16.993-186.364,2.818-194.431a2.251,2.251,0,0,0-1.1-.329,1.256,1.256,0,0,0-.862.318l-.071-.072q.033-.035.069-.068h0a1.255,1.255,0,0,1,.854-.318h.007a2.25,2.25,0,0,1,1.1.329l14.266,8.119h0l-.091.091" transform="translate(-0.337 195.269)" fill="url(#linear-gradient-10)"/>
    </g>
  </g>
</svg>
