<svg xmlns="http://www.w3.org/2000/svg" width="24" height="24" viewBox="0 0 24 24">
  <path id="Info" d="M20,9.548A10.452,10.452,0,1,1,9.548,20,10.453,10.453,0,0,1,20,9.548M20,8A12,12,0,1,0,32,20,12,12,0,0,0,20,8ZM18.258,24.645h.581V18.839h-.581a.581.581,0,0,1-.581-.581v-.387a.581.581,0,0,1,.581-.581h2.323a.581.581,0,0,1,.581.581v6.774h.581a.581.581,0,0,1,.581.581v.387a.581.581,0,0,1-.581.581H18.258a.581.581,0,0,1-.581-.581v-.387A.581.581,0,0,1,18.258,24.645ZM20,13.032a1.548,1.548,0,1,0,1.548,1.548A1.548,1.548,0,0,0,20,13.032Z" transform="translate(-8 -8)" fill="#1d4ed8"/>
</svg>
