<svg xmlns="http://www.w3.org/2000/svg" xmlns:xlink="http://www.w3.org/1999/xlink" width="49.997" height="64" viewBox="0 0 49.997 64">
  <defs>
    <filter id="Map" x="0" y="0" width="49.997" height="64" filterUnits="userSpaceOnUse">
      <feOffset dy="3" input="SourceAlpha"/>
      <feGaussianBlur stdDeviation="4" result="blur"/>
      <feFlood flood-opacity="0.161"/>
      <feComposite operator="in" in2="blur"/>
      <feComposite in="SourceGraphic"/>
    </filter>
  </defs>
  <g transform="matrix(1, 0, 0, 1, 0, 0)" filter="url(#Map)">
    <path id="Map-2" data-name="Map" d="M-14924-7744c-4.5-4.787-13-16.66-13-27.343a13.325,13.325,0,0,1,1.406-6.255,10.845,10.845,0,0,1,3.419-3.876A14.872,14.872,0,0,1-14924-7784a14.715,14.715,0,0,1,8.172,2.653,11.238,11.238,0,0,1,3.419,3.891,12.95,12.95,0,0,1,1.4,6.109c0,9.674-8.5,22.114-12.992,27.343v0Zm-9-26a9.017,9.017,0,0,0,9,9,9.009,9.009,0,0,0,8.992-9A9,9,0,0,0-14924-7779,9.009,9.009,0,0,0-14933-7770Zm3.847,1.387a7.41,7.41,0,0,1,7.04-6.308h.4a2.689,2.689,0,0,1,1.623.484,1.324,1.324,0,0,1,.439,1.049.948.948,0,0,1-.986.8.749.749,0,0,1-.791-.566.945.945,0,0,1,.071-.641c.12-.382-.277-.423-.6-.423-3.146-.049-4.461,2.744-4.971,4.085-.731,1.935-.391,3.861,1.232,4.236a3.2,3.2,0,0,0,2.167-.4,5.461,5.461,0,0,0,1.3-.922.282.282,0,0,1,.206-.075.267.267,0,0,1,.2.1.326.326,0,0,1,0,.4,5.541,5.541,0,0,1-2.036,1.387l0,.022a5.789,5.789,0,0,1-2,.393A3.183,3.183,0,0,1-14929.154-7768.618Z" transform="translate(14949 7793)" fill="#1d4ed8"/>
  </g>
</svg>
