<svg xmlns="http://www.w3.org/2000/svg" width="14.75" height="16" viewBox="0 0 14.75 16">
  <path id="paperclip" d="M24.034,16A4.035,4.035,0,0,1,21.18,9.111L29.37.922A3.152,3.152,0,1,1,33.828,5.38l-6.957,6.957a2.268,2.268,0,0,1-3.208-3.208l5.322-5.322a.375.375,0,0,1,.53,0l.177.177a.375.375,0,0,1,0,.53L24.37,9.836a1.268,1.268,0,0,0,1.793,1.793l6.957-6.957a2.152,2.152,0,1,0-3.044-3.044l-8.19,8.19a3.036,3.036,0,0,0,4.294,4.294l6.8-6.8a.375.375,0,0,1,.53,0l.177.177a.375.375,0,0,1,0,.53l-6.8,6.8A4.024,4.024,0,0,1,24.034,16Z" transform="translate(-20 0)" fill="#fff" opacity="0.69"/>
</svg>
