<svg xmlns="http://www.w3.org/2000/svg" width="16" height="16" viewBox="0 0 16 16">
  <path id="phone" d="M.75.747,3.9.019A.979.979,0,0,1,5.018.584L6.472,3.975a.98.98,0,0,1-.278,1.141L4.509,6.494A10.937,10.937,0,0,0,9.5,11.481L10.875,9.8a.98.98,0,0,1,1.141-.278L15.4,10.972a.975.975,0,0,1,.566,1.116l-.725,3.147a.976.976,0,0,1-.953.759A14.293,14.293,0,0,1-.006,1.7.97.97,0,0,1,.75.747ZM14.271,14.994l.719-3.112-3.356-1.437L9.775,12.719a12.075,12.075,0,0,1-6.5-6.5L5.547,4.356,4.109,1,1,1.719A13.289,13.289,0,0,0,14.271,14.994Z" transform="translate(0.006 0.006)" fill="#0f172a"/>
</svg>
