<svg xmlns="http://www.w3.org/2000/svg" width="14" height="14" viewBox="0 0 14 14">
  <path id="search-plus" d="M8.73,5.563v.219A.329.329,0,0,1,8.4,6.11H6.1v2.3a.329.329,0,0,1-.328.328H5.557a.329.329,0,0,1-.328-.328V6.11h-2.3A.329.329,0,0,1,2.6,5.782V5.563a.329.329,0,0,1,.328-.328h2.3v-2.3a.329.329,0,0,1,.328-.328h.219a.329.329,0,0,1,.328.328v2.3H8.4A.329.329,0,0,1,8.73,5.563Zm5.156,8.014-.309.309a.329.329,0,0,1-.465,0l-1.73-1.73-1.8-1.8a.325.325,0,0,1-.1-.232V9.893a5.688,5.688,0,1,1,.4-.4h.232a.336.336,0,0,1,.232.1l3.528,3.528A.329.329,0,0,1,13.886,13.577Zm-3.4-7.9a4.814,4.814,0,1,0-4.814,4.814A4.811,4.811,0,0,0,10.486,5.672Z" transform="translate(0.017 0.018)" fill="#fff"/>
</svg>
