<svg xmlns="http://www.w3.org/2000/svg" width="192" height="120" viewBox="0 0 192 120">
  <g id="Сгруппировать_263" data-name="Сгруппировать 263" transform="translate(-304 -3980)">
    <rect id="Прямоугольник_42" data-name="Прямоугольник 42" width="192" height="120" transform="translate(304 3980)" fill="#f4f5f7" opacity="0"/>
    <g id="Сгруппировать_783" data-name="Сгруппировать 783" transform="translate(-13343.741 -1669.046)">
      <path id="Фигура_1_копия" data-name="Фигура 1 копия" d="M489.275,318.138l-11.559-2.718-10.2,4.756,10.2,6.115,11.559-2.718.679,3.4-7.479,2.038,6.8,4.756-2.038,2.718-6.8-4.076,1.359,8.153-3.4.679-3.4-11.55-8.84-6.115V335.8l7.479,8.153-2.718,3.4-4.76-5.435v7.473h-3.385v-7.473l-4.756,5.435-2.718-3.4,7.473-8.153V323.573l-8.832,6.115-3.4,11.55-3.4-.679,1.359-8.153-6.794,4.076-2.038-2.718,6.794-4.756L439,326.97l.679-3.4,11.55,2.718,10.191-6.115-10.191-4.756-11.55,2.718-.679-3.4,7.473-2.718-6.794-3.4,2.038-3.4,6.115,4.076-1.359-7.473,3.4-1.359,3.4,12.229,9.512,5.435V305.909l-8.832-8.153,2.718-2.718,6.115,5.435V293h3.377v7.473l6.12-5.435,2.718,2.718-8.84,8.153v12.229l9.52-5.435,3.4-12.229,3.4,1.359-1.359,7.473,6.128-4.076,2.038,3.4-6.8,3.4,7.479,2.718Z" transform="translate(13278.785 5375.372)" fill="#0069da" fill-rule="evenodd"/>
      <path id="Фигура_11" data-name="Фигура 11" d="M530.211,312.234h12.11l-1.211,3.028h-3.936l-3.936,9.991H529l3.936-9.991H529Zm13.669,0-5.7,13.018h11.04l.974-2.725h-6.661l.908-2.422h5.752l1.211-2.725h-5.752l.908-2.119h6.358l1.211-3.028Zm12.671,0L551.4,325.252h3.936l4.239-10.6H562s1.581.324.908,1.514a3.2,3.2,0,0,1-2.119,1.817c-.543.013-2.119,0-2.119,0v7.266h4.239l-.3-5.752s3.588-.542,4.239-3.633-1.478-3.606-2.119-3.633S556.551,312.234,556.551,312.234Zm13.975,0h5.4l-.908,7.266,5.45-7.266h5.449l-4.844,13.018h-3.633l3.33-8.78-6.055,8.78h-3.633l.908-8.477-3.6,8.477h-3.667Zm25.988-.3s-7.715-.838-10.9,6.358c-3.118,7.048,4.516,7.24,5.752,7.266a10.962,10.962,0,0,0,10.294-6.963S604.539,312.392,596.514,311.931Zm-.606,2.725a5.772,5.772,0,0,0-6.358,4.541c-1.474,5.3,5,3.512,6.358,1.817s1.886-2.716,1.514-5.147A1.877,1.877,0,0,0,595.909,314.656Zm64.184-2.725s-7.715-.838-10.9,6.358c-3.118,7.048,4.516,7.24,5.752,7.266a10.962,10.962,0,0,0,10.294-6.963S668.117,312.392,660.093,311.931Zm-.606,2.725a5.772,5.772,0,0,0-6.358,4.541c-1.474,5.3,5,3.512,6.358,1.817s1.886-2.716,1.514-5.147A1.877,1.877,0,0,0,659.487,314.656Zm-52.908-2.422-5.6,13.018h4.311l5.484-13.018Zm8.4,0h4.844l-7.266,6.358,2.725,6.661h-5.147l-2.119-6.963Zm7,0-3.977,8.78s-1.665,4.52,5.752,4.541c6.127.018,7.872-4.239,7.872-4.239l3.673-9.083h-4.175L628,319.8a4.408,4.408,0,0,1-4.239,2.422s-1.836.092-.908-2.119,3.374-7.872,3.374-7.872Zm15.706,0-1.326,3.244h6.358l-9.578,7.05-1.154,2.725h12.356l.908-3.028H639.2l9.083-7.266.908-2.725Zm30.55,0,.3,13.018h5.45l11.547-13.018h-4.175l-8.256,9.083-.3-9.083Z" transform="translate(13136 5423.54)" fill="#7884a1" fill-rule="evenodd"/>
    </g>
  </g>
</svg>
