<svg xmlns="http://www.w3.org/2000/svg" width="192" height="120" viewBox="0 0 192 120">
  <g id="Сгруппировать_263" data-name="Сгруппировать 263" transform="translate(-304 -3980)">
    <rect id="Прямоугольник_42" data-name="Прямоугольник 42" width="192" height="120" transform="translate(304 3980)" fill="#f4f5f7" opacity="0.002"/>
    <path id="Объединение_10" data-name="Объединение 10" d="M16012.548-2347.777c-.072-.226-.084-16.507-.016-16.923h10.178v3.917h-5.878c-.04.036-.048.044-.048.052s-.017.016-.024.032-.008.04-.008.064v.093q-.012,6.354-.008,12.691c0,.016-.009.024-.009.032-.133.048-1.473.081-2.614.081C16013.4-2347.737,16012.762-2347.749,16012.548-2347.777Zm23.091-.024v-6.571h-6.357v6.612c-.892.008-1.763.008-2.638.008-.517,0-1.041,0-1.558,0-.08-.254-.1-16.568-.024-16.943h4.22v6.3h6.357c0-.424,0-.839.009-1.263v-5.026h4.211c.064.226.089,16.31.024,16.866a20.907,20.907,0,0,1-2.327.073A18.272,18.272,0,0,1,16035.639-2347.8Zm7.729.049c-.093,0-.182-.016-.282-.024v-16.915h4.244v9.427l.072.024c.068-.093.142-.19.21-.291q3.116-4.441,6.208-8.887a.593.593,0,0,1,.557-.3c.988.016,1.973,0,2.961,0h.352v16.947h-4.228v-9.544c-.174.036-.21.169-.283.266q-2.221,3.159-4.449,6.317c-.638.916-1.291,1.832-1.933,2.755a.458.458,0,0,1-.407.226C16045.381-2347.753,16044.369-2347.753,16043.368-2347.753Zm-49.183,0h-.335c.036-.323,5.994-15.805,6.515-16.939h3.938q3.268,8.423,6.563,16.915a2.919,2.919,0,0,1-.347.024h-3.7c-.306,0-.306,0-.415-.307-.226-.589-.439-1.174-.666-1.763-.032-.093-.076-.194-.116-.3h-6.656c-.218.573-.424,1.138-.642,1.7-.089.218-.189.428-.282.641-.21.008-.428.024-.649.024-.355,0-.71,0-1.069,0C15995.609-2347.749,15994.9-2347.753,15994.186-2347.753Zm6.123-5.979h3.97c-.657-1.767-1.3-3.5-1.988-5.228Q16001.268-2356.352,16000.309-2353.731Zm-25.185,5.93v-16.915h.38c1.149,0,2.308.008,3.461,0a.612.612,0,0,1,.568.282c1.279,1.747,2.578,3.485,3.869,5.232.072.093.149.194.242.311.1-.125.182-.218.254-.319,1.3-1.755,2.6-3.5,3.881-5.256a.556.556,0,0,1,.5-.25c1.182.008,2.372,0,3.554,0h.3c.076.25.109,16.181.044,16.9l-.023.024c-.009.008-.017.016-.021.016a1.612,1.612,0,0,1-.182.024c-1.3,0-2.6,0-3.9-.008a.507.507,0,0,1-.125-.041v-9.92l-.077-.032c-1.392,1.739-2.787,3.477-4.2,5.236-1.416-1.759-2.8-3.5-4.187-5.228-.04.008-.049.008-.057.016s-.016.016-.016.024q-.013,4.944-.009,9.879a23.918,23.918,0,0,1-2.477.077A17,17,0,0,1,15975.124-2347.8Zm89.612.032v-13h-4.934c-.068-.274-.093-3.352-.04-3.893.229-.065,13.809-.085,14.24-.016v3.9h-5.015v13.006Zm-57.872-36.7h-.517v-5.753h.617q12.369,0,24.745-.012a5.3,5.3,0,0,0,4.765-2.792,5.552,5.552,0,0,0,.746-2.925q0-4.5.012-8.992a5.585,5.585,0,0,1,2.279-4.639,5.563,5.563,0,0,1,2.654-1.033c.186-.024.375-.048.581-.069a1.736,1.736,0,0,1,.049.355c0,4.877.036,9.759-.013,14.64a11.249,11.249,0,0,1-8.648,10.965,10.7,10.7,0,0,1-2.425.254Zm21.033-11.336v-7.221l-.116-.044c-1.058,1.295-2.1,2.606-3.212,3.949-1.081-1.331-2.142-2.642-3.211-3.949l-.1.044c-.017,1.206-.017,2.4-.017,3.606v3.663h-4.284c-.108-.355-.137-13.869-.044-14.631.125-.008.258-.032.392-.032,1.093,0,2.2.012,3.3,0a.694.694,0,0,1,.661.323c.98,1.331,1.977,2.655,2.978,3.982.1.129.189.242.33.4.117-.149.234-.274.327-.411.992-1.311,1.977-2.606,2.953-3.941a.8.8,0,0,1,.734-.355c1.049.012,2.109,0,3.158,0h.513v14.607a18.357,18.357,0,0,1-2.315.089A16.255,16.255,0,0,1,16027.9-2395.8Zm-21.569-.492c0-4.833-.009-9.67,0-14.5a11.322,11.322,0,0,1,8.6-10.92,12.34,12.34,0,0,1,2.577-.286q12.327.018,24.648.012h.549a50.554,50.554,0,0,1,.056,5.728c-.205.012-.415.036-.629.036h-24.592a5.322,5.322,0,0,0-2.267.424,5.478,5.478,0,0,0-3.345,5.131c-.044,3.115-.044,6.225-.044,9.327a5.546,5.546,0,0,1-4.587,5.442c-.307.044-.6.081-.968.125Z" transform="translate(-15624.125 6425.004)" fill="#fe0200"/>
  </g>
</svg>
