<svg xmlns="http://www.w3.org/2000/svg" width="114.593" height="23.613" viewBox="0 0 114.593 23.613">
  <g id="logo_inverse" transform="translate(0.237 0.537)">
    <circle id="yellow" cx="11.806" cy="11.806" r="11.806" transform="translate(79.986 -0.537)" fill="#ffea05"/>
    <path id="black" d="M-9091.737-664.081a4.071,4.071,0,0,1-1.253-3.164,4.062,4.062,0,0,1,1.264-3.154,5.345,5.345,0,0,1,6.629,0v-.01a4.079,4.079,0,0,1,1.244,3.164,4.079,4.079,0,0,1-1.253,3.164,5.373,5.373,0,0,1-3.315,1.144A5.371,5.371,0,0,1-9091.737-664.081Zm-87.119.855a4.35,4.35,0,0,1-1.621-1.178l1.287-1.472a3.321,3.321,0,0,0,2.416.932,1.958,1.958,0,0,0,.981-.2.587.587,0,0,0,.355-.54q0-.628-1.376-.756a8.788,8.788,0,0,1-1.3-.206,4.167,4.167,0,0,1-1.042-.422,1.855,1.855,0,0,1-.756-.795,2.745,2.745,0,0,1-.255-1.256,2.06,2.06,0,0,1,.981-1.865,4.494,4.494,0,0,1,2.446-.638,4.854,4.854,0,0,1,3.054,1l-1.149,1.423a3.133,3.133,0,0,0-1.964-.569,1.851,1.851,0,0,0-.736.2.489.489,0,0,0-.324.461.51.51,0,0,0,.314.52,3.872,3.872,0,0,0,.991.216,6.464,6.464,0,0,1,1.229.245,4.66,4.66,0,0,1,1.051.481,2.18,2.18,0,0,1,.786.815,2.444,2.444,0,0,1,.284,1.2,2.264,2.264,0,0,1-.53,1.521,2.947,2.947,0,0,1-1.325.893,5.784,5.784,0,0,1-1.759.275c-.073,0-.146,0-.221,0a5.9,5.9,0,0,1-1.822-.289Zm105.693.022v-8.274h3.979a3.278,3.278,0,0,1,2.439.867,2.971,2.971,0,0,1,.858,2.147,2.964,2.964,0,0,1-.858,2.167,3.354,3.354,0,0,1-2.439.857h-1.658v2.236Zm2.322-4.206h1.658a.9.9,0,0,0,.712-.286,1.048,1.048,0,0,0,.254-.729,1.1,1.1,0,0,0-.254-.739.893.893,0,0,0-.712-.305h-1.658Zm-36.85-2.115h-2.4v-1.96h7.146v1.96h-2.432v6.311l-2.313.01Zm-19.5,6.321v-8.274h3.98a3.279,3.279,0,0,1,2.438.867,2.975,2.975,0,0,1,.859,2.147,2.969,2.969,0,0,1-.859,2.167,3.353,3.353,0,0,1-2.438.857h-1.658v2.236Zm2.322-4.206h1.658a.9.9,0,0,0,.713-.286,1.052,1.052,0,0,0,.253-.729,1.1,1.1,0,0,0-.253-.739.9.9,0,0,0-.713-.305h-1.658Zm-15.427,4.206-1.958-2.673h-.812v2.673h-2.289v-8.275h4.012a3.218,3.218,0,0,1,2.348.825,2.709,2.709,0,0,1,.842,2.015,2.666,2.666,0,0,1-.381,1.445,2.942,2.942,0,0,1-1.36,1.042l2.152,2.811v.138Zm-2.73-4.452h1.752a.791.791,0,0,0,.655-.275,1.052,1.052,0,0,0,.226-.678,1.148,1.148,0,0,0-.235-.727.8.8,0,0,0-.705-.285h-1.692Zm-19.624,4.452v-8.281h6.442v1.974h-4.141v1.184h3.936v1.905h-3.936v1.253l4.309-.01v1.974Z" transform="translate(9180.24 678.514)" fill="#fff"/>
    <path id="black-2" data-name="black" d="M-7869.22-663.15a4.071,4.071,0,0,1-1.253-3.164,4.066,4.066,0,0,1,1.264-3.154,5.345,5.345,0,0,1,6.629,0v-.01a4.079,4.079,0,0,1,1.244,3.164,4.077,4.077,0,0,1-1.254,3.164,5.366,5.366,0,0,1-3.314,1.144A5.369,5.369,0,0,1-7869.22-663.15Z" transform="translate(7957.723 677.583)" fill="#0f172a"/>
  </g>
</svg>
