<svg xmlns="http://www.w3.org/2000/svg" width="112" height="59.953" viewBox="0 0 112 59.953">
  <g id="Сгруппировать_382" data-name="Сгруппировать 382" transform="translate(5410.89 -3526.54)">
    <g id="Сгруппировать_382-2" data-name="Сгруппировать 382" transform="translate(-5410.89 3526.54)">
      <path id="Вычитание_4" data-name="Вычитание 4" d="M56,46.126a127.446,127.446,0,0,1-21.792-1.812,85.623,85.623,0,0,1-17.8-4.943,37.805,37.805,0,0,1-12-7.331C1.485,29.2,0,26.176,0,23.063v0c0-3.114,1.486-6.134,4.407-8.977a37.809,37.809,0,0,1,12-7.331,85.594,85.594,0,0,1,17.8-4.943A127.408,127.408,0,0,1,56,0,127.51,127.51,0,0,1,77.8,1.812,85.572,85.572,0,0,1,95.6,6.754a37.762,37.762,0,0,1,12,7.333c2.92,2.845,4.4,5.868,4.4,8.985s-1.481,6.138-4.4,8.981a37.74,37.74,0,0,1-12,7.327,85.621,85.621,0,0,1-17.8,4.936A127.667,127.667,0,0,1,56,46.126ZM56,2.6c-14.364,0-27.868,2.129-38.025,6A36.883,36.883,0,0,0,6.451,15.106c-2.8,2.523-4.225,5.2-4.225,7.967s1.422,5.443,4.225,7.967a36.878,36.878,0,0,0,11.524,6.506c10.157,3.866,23.661,6,38.025,6s27.868-2.129,38.024-6a36.868,36.868,0,0,0,11.523-6.506c2.8-2.523,4.226-5.2,4.226-7.967s-1.422-5.443-4.226-7.967A36.873,36.873,0,0,0,94.024,8.6C83.868,4.734,70.364,2.6,56,2.6Z" fill="#152c73"/>
      <path id="Вычитание_3" data-name="Вычитание 3" d="M53.2,38.778c-14.21,0-27.57-2.016-37.618-5.678a36.91,36.91,0,0,1-11.4-6.163C1.406,24.547,0,22.008,0,19.39H.02c0-2.613,1.407-5.151,4.181-7.54A36.965,36.965,0,0,1,15.6,5.686C25.656,2.019,39.016,0,53.22,0S80.785,2.017,90.828,5.678a36.888,36.888,0,0,1,11.4,6.163c2.773,2.39,4.178,4.93,4.178,7.548s-1.406,5.157-4.181,7.548a36.92,36.92,0,0,1-11.4,6.163C80.77,36.761,67.41,38.778,53.2,38.778ZM78.327,13.726c-3.983,0-7.478,3.745-7.478,8.015a3.985,3.985,0,0,0,3.977,4.281c.057,0,.117,0,.173,0a6.713,6.713,0,0,0,4.676-2.14,9.007,9.007,0,0,0,.689-.746.444.444,0,0,0-.67-.583l-.254.233-.144.124-.056.048c-.137.118-.324.281-.518.44l-.244.175-.125.087h-.117a4.5,4.5,0,0,1-1.944.749,3.756,3.756,0,0,1-.438.026,2.031,2.031,0,0,1-2.224-2.117,5.367,5.367,0,0,1,.252-1.457c.089,0,.19,0,.3,0,.305,0,7.474-.05,7.474-4.389l.086.03c0-2.352-2.181-2.721-3.119-2.77C78.526,13.728,78.426,13.726,78.327,13.726ZM27.145,8.708c-5.494.134-11.887,4.316-12.634,10.838a5.541,5.541,0,0,0,1.321,4.344,5.9,5.9,0,0,0,4.609,1.9,10.851,10.851,0,0,0,3.592-.674l-.009-.039a10.066,10.066,0,0,0,3.654-2.381.544.544,0,0,0,0-.7.486.486,0,0,0-.348-.178h-.037a.5.5,0,0,0-.334.13,9.63,9.63,0,0,1-2.342,1.584,5.961,5.961,0,0,1-3.888.681,3.4,3.4,0,0,1-2.348-1.744,6.855,6.855,0,0,1,.132-5.534,13.432,13.432,0,0,1,2.649-4.365,8.135,8.135,0,0,1,6.124-2.654h.15c.39,0,.86.031,1.036.274a.488.488,0,0,1,.032.455,1.587,1.587,0,0,0-.126,1.1,1.345,1.345,0,0,0,1.29.978c.042,0,.084,0,.128-.006s.079,0,.116,0a1.682,1.682,0,0,0,1.653-1.375,2.251,2.251,0,0,0-.786-1.807,4.954,4.954,0,0,0-2.751-.83l-.166,0ZM35.413,22.92h0a3.679,3.679,0,0,0,0,1.638,1.291,1.291,0,0,0,1.137.972c.033,0,.066,0,.1,0a2.763,2.763,0,0,0,1.33-.343A8.6,8.6,0,0,0,40.9,22.335a.394.394,0,0,0,.062-.3.4.4,0,0,0-.388-.323.4.4,0,0,0-.324.165,8.192,8.192,0,0,1-1.372,1.614.645.645,0,0,1-.359.145.187.187,0,0,1-.141-.062.641.641,0,0,1-.112-.423,11.57,11.57,0,0,1,.507-1.944l.013-.036c.275-.8,1.675-4.868,2.164-6.446l.292-.875a.177.177,0,0,0-.028-.153.17.17,0,0,0-.136-.07H38.951a.123.123,0,0,0-.115.078l.02.039-.3.688a3.045,3.045,0,0,0-1.937-.7H36.61c-1.749,0-3.9,1.437-5.131,2.857a9.853,9.853,0,0,0-2.507,6.026,2.479,2.479,0,0,0,1.875,2.839,2.17,2.17,0,0,0,.558.07C32.677,25.525,34.176,24.551,35.413,22.92Zm31.8-9.226a.363.363,0,0,0-.343.253c-.441,1.337-2.343,7.3-2.788,8.747a2.152,2.152,0,0,0,.4,2.45,2.119,2.119,0,0,0,2.217.136A7.856,7.856,0,0,0,69.7,22.363a.412.412,0,0,0,.064-.316.423.423,0,0,0-.179-.268.436.436,0,0,0-.6.108l-.147.2a5.7,5.7,0,0,1-1.584,1.545.641.641,0,0,1-.3.074.389.389,0,0,1-.327-.142.608.608,0,0,1-.014-.544c.123-.284,1.321-4.026,2.2-6.758l.01-.03.021-.065c.283-.884.53-1.655.691-2.155a.282.282,0,0,0-.039-.251.279.279,0,0,0-.225-.118l-2.05.048ZM45.8,15.151h0a.186.186,0,0,1,.157.062c.058.077.029.21,0,.318-.414,1.4-2.468,8.187-2.915,9.6a.2.2,0,0,0,.031.178.2.2,0,0,0,.162.084h2.167a.207.207,0,0,0,.2-.147c.307-.974.546-1.656.738-2.2l0-.012c.2-.561.337-.965.443-1.37a20.762,20.762,0,0,1,1.3-3.284,15.376,15.376,0,0,1,.972-1.623,2.832,2.832,0,0,1,1.342-1.34.227.227,0,0,1,.088-.02.158.158,0,0,1,.144.1c.021.041-.023.139-.071.243a1.426,1.426,0,0,0-.122.342.912.912,0,0,0,.5.844,1.775,1.775,0,0,0,2.012-.505,2.122,2.122,0,0,0,.523-1.719l.011.009a1.364,1.364,0,0,0-1.031-1.128h-.233a2.464,2.464,0,0,0-.3-.019c-1.5,0-2.934,1.36-4.274,4.042h-.077a18.006,18.006,0,0,0,.583-2.225,1.784,1.784,0,0,0-.2-1.4.935.935,0,0,0-.608-.393c-.049,0-.1,0-.157,0a2.6,2.6,0,0,0-1.495.471,10.534,10.534,0,0,0-2.566,2.721l-.173.253a.375.375,0,0,0-.057.293.382.382,0,0,0,.174.242.375.375,0,0,0,.2.06.376.376,0,0,0,.32-.178l.067-.1a10.112,10.112,0,0,1,1.175-1.469,2.21,2.21,0,0,1,.972-.719Zm11.177-.009h0a.186.186,0,0,1,.157.062.4.4,0,0,1,0,.316c-.417,1.408-2.473,8.2-2.917,9.6a.2.2,0,0,0,.194.262h2.167a.2.2,0,0,0,.194-.146c.3-.946.536-1.628.727-2.175l.007-.019c.2-.568.342-.979.451-1.391a20.506,20.506,0,0,1,1.315-3.228,15.5,15.5,0,0,1,.97-1.623,2.843,2.843,0,0,1,1.342-1.342.234.234,0,0,1,.087-.019.16.16,0,0,1,.146.1c.02.04-.022.131-.071.238l0,.007a1.392,1.392,0,0,0-.122.337.922.922,0,0,0,.5.847,1.776,1.776,0,0,0,2.01-.506,2.13,2.13,0,0,0,.526-1.72v-.039a1.357,1.357,0,0,0-1.021-1.138h-.233a2.464,2.464,0,0,0-.3-.019c-1.494,0-2.933,1.36-4.275,4.043h-.078a17.246,17.246,0,0,0,.584-2.225,1.789,1.789,0,0,0-.2-1.406.937.937,0,0,0-.608-.394c-.052,0-.1-.005-.158-.005a2.6,2.6,0,0,0-1.5.473,10.635,10.635,0,0,0-2.565,2.721l-.176.253a.381.381,0,0,0-.054.292.392.392,0,0,0,.375.3.388.388,0,0,0,.083-.01.38.38,0,0,0,.239-.167l.057-.1a10.067,10.067,0,0,1,1.177-1.469,2.19,2.19,0,0,1,.972-.719Zm28.768-.067h0a.184.184,0,0,1,.155.061c.064.085.021.242,0,.317-.388,1.313-2.445,8.152-2.916,9.6a.2.2,0,0,0,.194.263H85.35a.206.206,0,0,0,.2-.147c.309-.981.558-1.695.74-2.215l0-.009c.194-.557.334-.959.441-1.361a20.653,20.653,0,0,1,1.312-3.228,18.854,18.854,0,0,1,.973-1.625A2.829,2.829,0,0,1,90.355,15.4a.229.229,0,0,1,.088-.02.16.16,0,0,1,.146.1c.02.04-.02.128-.071.239l0,.006a1.43,1.43,0,0,0-.121.34.913.913,0,0,0,.5.844,1.777,1.777,0,0,0,2.011-.5,2.118,2.118,0,0,0,.525-1.721v.03a1.349,1.349,0,0,0-1.04-1.128h-.233a2.464,2.464,0,0,0-.3-.019c-1.495,0-2.933,1.36-4.275,4.042H87.5a16.582,16.582,0,0,0,.582-2.225,1.786,1.786,0,0,0-.2-1.4.937.937,0,0,0-.608-.394c-.05,0-.1,0-.159,0a2.593,2.593,0,0,0-1.494.471,10.549,10.549,0,0,0-2.545,2.644l-.175.253a.371.371,0,0,0-.056.292.385.385,0,0,0,.17.242.391.391,0,0,0,.207.059.377.377,0,0,0,.32-.176l.058-.1a10.242,10.242,0,0,1,1.176-1.469,2.181,2.181,0,0,1,.972-.718ZM69.322,9.582a1.762,1.762,0,0,0-1.708,1.362,1.245,1.245,0,0,0,1.237,1.378,1.266,1.266,0,0,0,.133-.008h.044a1.737,1.737,0,0,0,1.7-1.362,1.235,1.235,0,0,0-.354-1.008,1.249,1.249,0,0,0-.884-.368c-.041,0-.081,0-.121.006ZM32.89,23.6h0a.948.948,0,0,1-.321-.055,1.175,1.175,0,0,1-.742-.729c-.478-1.316.849-3.829,1.441-4.848.76-1.312,2.417-3.16,3.72-3.16H37a.974.974,0,0,1,.972.972l-.02-.011C37.763,17.926,34.833,23.6,32.89,23.6ZM74.48,19.883c-.092,0-.189,0-.287-.007.45-1.723,2.317-5.075,4.129-5.075v.019c.945,0,.973,1.318.973,1.469a3.656,3.656,0,0,1-1.867,2.828A6.088,6.088,0,0,1,74.48,19.883Z" transform="translate(2.78 3.683)" fill="#152c73"/>
    </g>
    <path id="Объединение_16" data-name="Объединение 16" d="M76.174,7.549a3.051,3.051,0,0,1-.688-2.626C75.739,2.5,77.429.006,80.346.006a3.013,3.013,0,0,1,3.138,3.625c-.272,2.663-2.147,4.947-4.762,4.947l-.038.01q-.105.007-.21.007A3.051,3.051,0,0,1,76.174,7.549Zm2.6-4.735a9.515,9.515,0,0,0-.777,2.624c0,.282-.127,1.253.9,1.253s1.371-.972,1.788-2.4a8.755,8.755,0,0,0,.253-1.108c0-.408,0-1.273-.923-1.273A1.408,1.408,0,0,0,78.77,2.815ZM66.933,8.578c-2.225,0-3.178-1.721-2.915-3.732s1.6-4.8,4.694-4.8a2.693,2.693,0,0,1,2.916,3.179L69.3,3.388c.049-.477.127-1.5-.826-1.5a1.411,1.411,0,0,0-1.215.914,9.979,9.979,0,0,0-.739,2.556c0,.262-.126,1.264.846,1.264.749,0,1.1-.545,1.448-1.39l2.09.272a5.137,5.137,0,0,1-1.245,1.944,3.7,3.7,0,0,1-2.658,1.128Zm-21.7-.855a2.578,2.578,0,0,1-.913-1.487l2.4-.466c.078.282.262.875,1.419.875.758,0,.972-.34.972-.6s-.233-.457-.8-.671l-.835-.311c-1.059-.418-1.536-.768-1.759-1.38a2.156,2.156,0,0,1-.1-.972c.078-.787.69-2.663,3.557-2.663a3.66,3.66,0,0,1,2.381.661,2.346,2.346,0,0,1,.9,1.36l-2.129.574a.691.691,0,0,0-.311-.525,1.415,1.415,0,0,0-.846-.262c-.66,0-.835.34-.855.544s.234.457.681.612l1.351.5a2.041,2.041,0,0,1,1.438,2.167C51.645,7.1,50.353,8.519,47.9,8.519q-.085,0-.17,0A4.312,4.312,0,0,1,45.231,7.723Zm55.1.661H97.334L99.559.21h2.721a3.638,3.638,0,0,1,2.741.8,3.335,3.335,0,0,1,.826,2.867,5.125,5.125,0,0,1-2.225,3.839,5.423,5.423,0,0,1-3.295.671Zm-.078-1.818h.554a2.491,2.491,0,0,0,1.526-.4,3.7,3.7,0,0,0,1.059-2.381c.1-.894-.087-1.818-1.186-1.818h-.7ZM87.07,8.393,89.287.21h2.478l-1.7,6.22h3.11l-.534,1.964Zm-31.314,0L57.973.21H60.3L58.07,8.393Zm-35.677,0L24.725.21h2.556l.408,8.174h-2.4L25.23,6.722l-2.157.01L22.1,8.393ZM23.908,5.04H25.3L25.22,2.669ZM.038,8.393,1.749,2.067H0L.515.191H6.433L5.919,2.067h-1.8L2.4,8.393Zm13.3-.01-.4-3.091h-.972l-.846,3.082H8.785L11.011.2h3.567a2.921,2.921,0,0,1,1.875.457A2.08,2.08,0,0,1,17.173,2.6a2.757,2.757,0,0,1-1.03,1.944,3.415,3.415,0,0,1-.972.476l.574,3.363Zm-.9-4.8h.913a1.685,1.685,0,0,0,.973-.194.974.974,0,0,0,.447-.7c.078-.768-.827-.768-1.04-.768h-.855ZM37.359,8.374l-1.234-3.13a9.972,9.972,0,0,1-.593-2.031,4.1,4.1,0,0,1-.194,1.166l-1.1,3.995H32.3L34.444.21H36.65l.7,1.9a21.488,21.488,0,0,1,.9,2.915V4.652a11.218,11.218,0,0,1,.311-1.331L39.4.21h1.944L39.177,8.374Z" transform="translate(-5407.1 3577.897)" fill="#152c73"/>
  </g>
</svg>
