<svg xmlns="http://www.w3.org/2000/svg" width="207" height="40" viewBox="0 0 207 40">
  <g id="Сгруппировать_358" data-name="Сгруппировать 358" transform="translate(-1.45 -192.305)">
    <path id="Контур_3895" data-name="Контур 3895" d="M69.894,204.175l.556-2.537h2.924c.821,0,1.329.338,1.329,1.063a1.67,1.67,0,0,1-1.837,1.474ZM67.84,213.5l1.112-5.075h3.672c5.582,0,7.129-3.938,7.129-6.282a4.689,4.689,0,0,0-4.736-4.761H66.511L62.959,213.5Zm18.783-6.138H83.434l2.73-5.2Zm21.128,6.138,3.552-16.118h-4.881l-1.257,5.7H99.39l1.257-5.7H95.765l-3.412,15.484-2.3-15.484H83.917l-9.5,16.118H80.2l.991-1.885h5.8l.169,1.885h9.939l1.354-6.162h5.775L102.87,213.5Zm10.591.29a8.843,8.843,0,0,0,7.346-3.7l-3.818-2.464a3.992,3.992,0,0,1-3.262,1.86,3.432,3.432,0,0,1-3.624-3.431,4.517,4.517,0,0,1,4.422-4.639,3.148,3.148,0,0,1,3.262,2.513l4.688-1.474c-.749-2.586-3.021-5.34-7.733-5.34-5.364,0-9.689,3.7-9.689,9.278C109.934,210.941,113.727,213.793,118.342,213.793Zm2.655,4.79,10.183-13.476-5.407-7.722H131.5l2.656,3.785,6.7-8.865h5.727l-9.663,12.8,5.89,8.4h-5.751l-3.116-4.451-7.194,9.531ZM198.5,205.867l.532-4.229h3.311v7.612h-5.413A5.683,5.683,0,0,0,198.5,205.867Zm-7.635,10.608h4.881V213.5h8v2.972h4.881V209.25h-1.4V197.385h-12.59l-.99,8.119c-.387,3.069-1.329,3.722-2.779,3.987Zm-7.91-6.984a4.039,4.039,0,1,1,3.866-4.035A3.815,3.815,0,0,1,182.958,209.491Zm0,4.3c4.978,0,8.82-3.383,8.82-8.337s-3.842-8.336-8.82-8.336-8.82,3.382-8.82,8.336S177.98,213.793,182.958,213.793Zm-25.815,0c3.746,0,6.862-1.571,7.636-7.926l.532-4.229h3.31V213.5H173.5V197.385H160.913l-.991,8.119c-.387,3.069-1.4,3.987-2.779,3.987Zm-7.909-4.3a4.039,4.039,0,1,1,3.866-4.035A3.815,3.815,0,0,1,149.234,209.491Zm0,4.3c4.977,0,8.819-3.383,8.819-8.337s-3.842-8.336-8.819-8.336-8.82,3.382-8.82,8.336S144.256,213.793,149.234,213.793Zm-91.213-.29,2.61-11.865h4.3l.943-4.253H52.367l-.942,4.253H55.75L53.14,213.5Z" transform="translate(-0.178)" fill="#fff"/>
    <path id="Объединение_13" data-name="Объединение 13" d="M11.015,35.184l2.823-12.715h91.094L102.1,35.184ZM19.153,32.1h3.339l-.274,1.232H24.25l.667-2.991h-.584l1.088-4.91H20.17l-1.155,3.357c-.434,1.238-.87,1.538-1.525,1.649l-.636,2.895h2.029l.267-1.232Zm54.2-2.551a3.229,3.229,0,0,0,3.489,2.67,3.863,3.863,0,0,0,4.036-3.861c0-1.758-1.472-3.038-3.5-3.038a3.915,3.915,0,0,0-3.791,2.471h-1l.522-2.359H71.071L69.6,32.1h2.036l.565-2.547v0Zm-41.212-.393c0,1.774,1.476,3.063,3.5,3.063a3.707,3.707,0,0,0,3.067-1.53l-1.592-1.021a1.664,1.664,0,0,1-1.363.77,1.417,1.417,0,0,1-1.509-1.418,1.883,1.883,0,0,1,1.841-1.92,1.32,1.32,0,0,1,1.362,1.042l1.957-.609a3.125,3.125,0,0,0-.124-.343h1.566L39.764,32.1H41.8l1.088-4.91h1.8l.388-1.759H39.436l-.316,1.427a3.193,3.193,0,0,0-2.943-1.538A3.813,3.813,0,0,0,32.137,29.152Zm63.331.393L94.9,32.1h2.037l1.482-6.669H96.387l-.531,2.359H93.45l.523-2.359H91.938L90.458,32.1H92.49l.565-2.547v0ZM80.31,32.1h9.52L91.3,25.427H89.261l-1.088,4.91H86.468l1.088-4.91H85.519l-1.084,4.91H82.729l1.088-4.91H81.781Zm-16.925,0h3.561a2.645,2.645,0,0,0,2.975-2.6,1.952,1.952,0,0,0-1.977-1.969H66.43l.463-2.1H64.86Zm-6.211,0H60.73c2.35,0,2.974-1.564,2.974-2.49,0-1.151-.926-1.894-2.359-1.894H60.178l.108-.526h3.569l.395-1.759h-5.6Zm-1.9-3.458L54.508,32.1h2.033l1.483-6.669h-2.1l-3.053,3.237.715-3.237H51.554L50.07,32.1h1.957l3.245-3.458,0,0ZM43.859,32.1h2.032l.463-2.1h1.536a2.641,2.641,0,0,0,2.97-2.6,1.951,1.951,0,0,0-1.973-1.972h-3.55ZM29.953,28.638,29.189,32.1h2.032l1.483-6.669h-2.1l-3.053,3.237.715-3.237H26.234L24.751,32.1h1.958l3.244-3.458v0Zm45.485.378a1.847,1.847,0,0,1,1.811-1.92,1.408,1.408,0,0,1,1.517,1.423,1.85,1.85,0,0,1-1.818,1.915A1.4,1.4,0,0,1,75.438,29.016ZM65.8,30.337l.23-1.054h1.223c.357,0,.554.157.554.441a.7.7,0,0,1-.768.612Zm-6.211,0,.192-.862h1.4c.264,0,.414.134.414.362,0,.3-.275.5-.686.5Zm-39.544,0a3.133,3.133,0,0,0,.956-1.4l.605-1.751H23l-.7,3.151Zm26.7-2.1.229-1.053H48.2c.361,0,.553.153.553.44a.693.693,0,0,1-.764.612ZM0,9.2C0,3.666,4.326,0,9.689,0c4.714,0,6.983,2.729,7.732,5.294L12.735,6.758A3.144,3.144,0,0,0,9.472,4.264a4.5,4.5,0,0,0-4.42,4.6,3.419,3.419,0,0,0,3.622,3.4,4,4,0,0,0,3.264-1.845l3.816,2.446A8.864,8.864,0,0,1,8.41,16.536C3.795,16.536,0,13.706,0,9.2Zm32.08,7.045L35.634.261H44.6c3.26,0,4.664,2.061,4.664,3.98A4.216,4.216,0,0,1,45.64,8.314a3.155,3.155,0,0,1,2.292,3.163c0,2.109-1.472,4.771-5.726,4.771Zm5.774-4.029H41.7c.816,0,1.374-.451,1.374-1.123a.872.872,0,0,0-.919-.912H38.314ZM39.21,6.156h3.674a1.033,1.033,0,0,0,1.183-1.079.778.778,0,0,0-.87-.787H39.669ZM25.7,16.249l1.837-8.293-7.781,8.293h-4.69L18.615.261H23.5L21.781,8.026,29.1.261h5.025L30.574,16.249Z" transform="translate(1.45 197.121)" fill="#fff" opacity="0.6"/>
  </g>
</svg>
