<svg id="Компонент_292_2" data-name="Компонент 292 – 2" xmlns="http://www.w3.org/2000/svg" width="192" height="120" viewBox="0 0 192 120">
  <rect id="Прямоугольник_42" data-name="Прямоугольник 42" width="192" height="120" fill="#f4f5f7" opacity="0"/>
  <g id="Lenta" transform="translate(-1087.4 -859.2)">
    <path id="Контур_4571" data-name="Контур 4571" d="M1136.711,901.229c.131.087.261.189.392.276a4.137,4.137,0,0,1,.855.957c.087.131.189.261.3.406a4.5,4.5,0,0,1,.493-.536,5.139,5.139,0,0,1,.9-.7,1.382,1.382,0,0,1,1.682.174,3.7,3.7,0,0,1,.957,1.349c.145.319.261.638.392.986.087-.029.159-.044.246-.073.522-.189,1.044-.377,1.581-.551a4.117,4.117,0,0,1,.71-.145.718.718,0,0,1,.725.3,2.933,2.933,0,0,1,.508,1.175c.087.435.145.87.218,1.3.029.16.058.319.087.507.232,0,.449.015.667.015a9.646,9.646,0,0,1,3.262.624,5.627,5.627,0,0,1,1.116.623,1.9,1.9,0,0,1,.508.609.524.524,0,0,1-.145.74c-.333.276-.7.536-1.059.783s-.754.478-1.189.74c.131.058.2.1.29.13a8.4,8.4,0,0,1,2.828,1.8,3.976,3.976,0,0,1,.421.551.365.365,0,0,1-.073.493,4.492,4.492,0,0,1-2.03,1.175c-.218.073-.449.116-.7.174.073.087.116.145.174.218.13.159.275.319.42.464a3.214,3.214,0,0,1,.783,2.654c-.058.522-.29.74-.827.812a5.8,5.8,0,0,1-2.335-.261c-.159-.043-.333-.087-.536-.145-.015.406-.015.769-.058,1.131-.043.464-.13.914-.2,1.378a1.41,1.41,0,0,1-.073.232c-.188.479-.261.522-.769.537a4.674,4.674,0,0,1-2.436-.711c-.363-.2-.7-.45-1.073-.7a10.56,10.56,0,0,1-1.3,1.972,8.2,8.2,0,0,1-4.147-3.147,9.886,9.886,0,0,1-1.088.58,6.26,6.26,0,0,1-3.886.3,3.718,3.718,0,0,1-.914-.421.552.552,0,0,1-.232-.783,8.638,8.638,0,0,0,.493-1.842h-.363a5,5,0,0,1-3.06-.87.656.656,0,0,1-.319-.609,4.684,4.684,0,0,1,.333-1.6c.145-.391.319-.769.493-1.174-.1-.058-.2-.131-.3-.189a8.389,8.389,0,0,1-1.929-1.421,2.034,2.034,0,0,1-.551-.87.651.651,0,0,1,.174-.725,4.651,4.651,0,0,1,1.508-1.029c.087-.044.174-.073.261-.116-.348-.333-.7-.624-1.015-.972a7.3,7.3,0,0,1-.638-.827,1.036,1.036,0,0,1-.131-.29c-.116-.333-.1-.406.218-.551a11.377,11.377,0,0,1,1.334-.493c.363-.1.754-.13,1.16-.2a7.973,7.973,0,0,1-.855-1.929,7.07,7.07,0,0,1,3.016.16c.029-.145.043-.276.058-.406.043-.392.087-.783.145-1.175.058-.319.13-.363.449-.348a4.321,4.321,0,0,1,1.885.566c.275.145.551.3.812.45.449-.537.885-1.059,1.305-1.581A.079.079,0,0,0,1136.711,901.229Zm-2.16,6.815c-.348.087-.653.16-.986.232.087.319.159.594.232.9-.261.16-.493.319-.754.493.2.3.391.595.565.885-.159.246-.29.449-.449.682.232.2.435.406.653.594a.441.441,0,0,1,.188.508,3.339,3.339,0,0,0-.043.536c.13.072.247.145.363.2a1.236,1.236,0,0,1,.913,1.088c.015.159.116.232.276.276.218.058.421.13.638.174a.717.717,0,0,1,.537.392,1.016,1.016,0,0,0,1.16.652.787.787,0,0,1,.71.29,1.047,1.047,0,0,0,1.348.348.568.568,0,0,1,.522.087c.261.159.551.29.827.449a5.565,5.565,0,0,0,.58-.348.445.445,0,0,1,.421-.058c.319.1.638.188.957.276a2.148,2.148,0,0,0,.261-.406.461.461,0,0,1,.566-.276,7.1,7.1,0,0,0,.783.043c.043-.3.087-.551.13-.812.333-.087.653-.16.986-.247-.073-.3-.145-.594-.232-.9.261-.174.493-.319.74-.493-.2-.3-.392-.58-.58-.87.145-.232.276-.45.435-.711-.232-.2-.464-.421-.7-.609a.411.411,0,0,1-.16-.392c.029-.2.044-.406.073-.623l-.9-.493a.442.442,0,0,1-.232-.276,1.662,1.662,0,0,0-.261-.7,1.39,1.39,0,0,0-.71-.246,1.039,1.039,0,0,1-.7-.507c-.333-.522-.348-.537-.971-.537a1.045,1.045,0,0,1-.9-.363.972.972,0,0,0-1.233-.3.669.669,0,0,1-.594-.073c-.188-.13-.406-.218-.609-.333a.3.3,0,0,0-.377,0c-.131.087-.276.16-.421.247a.383.383,0,0,1-.392.043c-.319-.1-.638-.189-.971-.276-.116.159-.218.3-.3.449a.418.418,0,0,1-.449.232c-.275-.029-.551-.043-.841-.058A5.154,5.154,0,0,1,1134.55,908.044Z" transform="translate(-11.551 0)" fill="#8d98a7"/>
    <path id="Контур_4572" data-name="Контур 4572" d="M1113.4,1037.261a4.413,4.413,0,0,1,1.189-1.131,5.342,5.342,0,0,1,2.393-.971,4.292,4.292,0,0,1,2.407.392,10.831,10.831,0,0,1,4.046,3.321,6,6,0,0,1,.855,1.7c.507-1.334.885-2.639,1.291-3.93a17.578,17.578,0,0,0,.855-3.944.378.378,0,0,1,.435.3,3.805,3.805,0,0,1,.145.812,12.805,12.805,0,0,1-.159,2.465c-.246,1.928-.725,3.828-1.117,5.728-.015.073-.029.159-.043.29.261-.261.493-.493.725-.711a12.1,12.1,0,0,1,2.625-1.812,5.026,5.026,0,0,1,5.046.188,7.929,7.929,0,0,1,.914.638,1.9,1.9,0,0,1,.333.348.538.538,0,0,1-.116.8,3.18,3.18,0,0,1-.464.3,2.394,2.394,0,0,0-1.059,1.2,3.8,3.8,0,0,1-2.828,2.291,14.786,14.786,0,0,1-1.609.218c-.682.087-1.363.174-2.03.276a2.9,2.9,0,0,0-1.334.623c-.174.145-.377.276-.594.435a8.625,8.625,0,0,0,.855,3.031,1.008,1.008,0,0,1-.275.087c-.145.014-.3,0-.45,0-.043-.014-.087-.014-.13-.029a2.73,2.73,0,0,1-1.6-1.856,6.866,6.866,0,0,1-.275-2.16c0-.8.044-1.6.073-2.407-.1-.087-.246-.174-.363-.29a2.972,2.972,0,0,0-1.363-.725,12.1,12.1,0,0,0-1.218-.246c-.624-.087-1.247-.116-1.856-.218a4.127,4.127,0,0,1-3.538-2.828,1.942,1.942,0,0,0-.682-.942,5.793,5.793,0,0,1-1.058-.827A2.121,2.121,0,0,1,1113.4,1037.261Zm12.6,6.96c.087-.073.189-.13.276-.2a9.111,9.111,0,0,1,2.117-1.32,20.162,20.162,0,0,1,5.017-1.479c.072-.015.159-.043.232-.058a9.267,9.267,0,0,0-3.234.073,6.563,6.563,0,0,0-4.22,2.7,1.994,1.994,0,0,0-.189.29.325.325,0,0,0-.058.073.051.051,0,0,0,.029.015A.206.206,0,0,1,1126,1044.222Zm-3.2-3.422c0,.043.015.072.015.116.014,0,.029-.015.043-.015a.235.235,0,0,1-.058-.1,1.361,1.361,0,0,0-.087-.218,7.369,7.369,0,0,0-3.219-2.77,7.129,7.129,0,0,0-2.944-.594c-.464,0-.913.073-1.406.1.71.131,1.392.232,2.045.391a12.47,12.47,0,0,1,5.336,2.886A1.224,1.224,0,0,0,1122.8,1040.8Z" transform="translate(0 -112.426)" fill="#8d98a7"/>
    <path id="Контур_4573" data-name="Контур 4573" d="M1196.4,1152.959v-.072c.145,0,.3.015.449,0a1.537,1.537,0,0,0,.276-.087c.014.058.029.1.043.159Z" transform="translate(-70.965 -215.117)" fill="#8d98a7"/>
    <path id="Контур_4574" data-name="Контур 4574" d="M1501.508,949.8v2.451c.145,0,.275.014.406.014h11.035v6.1c-.957.014-1.9,0-2.842,0h-8.584v3.553h12.151c.014,2.044,0,4.06-.014,6.09h-18.241c-.073-.232-.087-23.737-.029-24.317h17.865c.073.246.1,5.278.029,6.076-.377.029-.769.015-1.16.015h-9.469C1502.32,949.8,1501.929,949.8,1501.508,949.8Z" transform="translate(-326.569 -36.338)" fill="#8d98a7"/>
    <path id="Контур_4575" data-name="Контур 4575" d="M1650.458,952.153v-8.5c.261-.087,5.67-.1,6.1-.029V967.9c-.232.073-5.612.1-6.09.014V958.3h-8.57v9.585c-.261.087-5.655.1-6.119.029v-9.628H1634v-6.119h1.755V943.6h6.1v8.5C1642.149,952.2,1649.719,952.24,1650.458,952.153Z" transform="translate(-445.111 -36.235)" fill="#8d98a7"/>
    <path id="Контур_4576" data-name="Контур 4576" d="M1328.117,949.9h-4.9q-3.089,9.114-6.192,18.227h-6.38l-.029-.029a.051.051,0,0,0-.015-.029c.015-.058.015-.116.029-.174q4.068-12.05,8.149-24.1h15.747v24.332H1328.1C1328.117,962.071,1328.117,956.009,1328.117,949.9Z" transform="translate(-168.605 -36.423)" fill="#8d98a7"/>
    <path id="Контур_4577" data-name="Контур 4577" d="M1933.876,943.714q4.111,12.137,8.222,24.332h-6.1c-.812-2.393-1.61-4.771-2.422-7.149h-6.96q-1.2,3.545-2.407,7.134h-6.1c.8-2.393,1.61-4.742,2.407-7.149h-2c-.087-.276-.1-5.684-.014-6.076h4.089q1.892-5.568,3.756-11.107C1928.845,943.714,1931.339,943.714,1933.876,943.714Zm-3.726,7.047a.109.109,0,0,1-.073-.015c-.449,1.349-.913,2.7-1.377,4.06h2.828C1931.049,953.444,1930.6,952.1,1930.15,950.762Z" transform="translate(-688.015 -36.337)" fill="#8d98a7"/>
    <path id="Контур_4578" data-name="Контур 4578" d="M1819.384,949.976v18.2c-.261.087-5.641.1-6.119.029V949.99H1807V943.9h18.619v6.09C1823.545,949.976,1821.486,949.976,1819.384,949.976Z" transform="translate(-593.025 -36.509)" fill="#8d98a7"/>
    <path id="Контур_4579" data-name="Контур 4579" d="M1170.964,939.38c.043-.29.087-.551.145-.827.3.014.58.029.841.058a.392.392,0,0,0,.449-.232c.087-.145.189-.29.3-.45.334.087.652.174.972.276a.419.419,0,0,0,.391-.043c.131-.087.276-.16.421-.247a.305.305,0,0,1,.377,0c.2.116.421.2.609.333a.59.59,0,0,0,.594.073.971.971,0,0,1,1.232.3,1.087,1.087,0,0,0,.9.363c.624,0,.638.015.972.536a1.038,1.038,0,0,0,.7.508,1.436,1.436,0,0,1,.71.246,1.658,1.658,0,0,1,.261.7.442.442,0,0,0,.232.276c.29.16.595.319.9.493-.029.218-.043.421-.072.624a.383.383,0,0,0,.159.392c.232.188.45.391.7.609-.159.246-.29.479-.435.71.188.29.377.566.58.87-.246.159-.478.319-.74.493.072.29.145.58.232.9-.334.087-.653.16-.986.247-.044.261-.087.522-.131.812a7.074,7.074,0,0,1-.783-.043.468.468,0,0,0-.566.276c-.072.13-.159.246-.261.406-.319-.087-.638-.174-.957-.276a.435.435,0,0,0-.421.058,5.554,5.554,0,0,1-.58.348c-.276-.145-.551-.29-.827-.449a.574.574,0,0,0-.522-.087,1.072,1.072,0,0,1-1.349-.348.773.773,0,0,0-.71-.29,1.016,1.016,0,0,1-1.16-.652.717.717,0,0,0-.536-.391c-.218-.058-.421-.13-.638-.174-.145-.044-.261-.116-.276-.276a1.237,1.237,0,0,0-.914-1.088,2.4,2.4,0,0,1-.362-.2,3.328,3.328,0,0,1,.044-.536.441.441,0,0,0-.189-.508c-.217-.174-.42-.377-.652-.594.145-.232.29-.449.45-.682-.189-.276-.363-.565-.566-.885.261-.159.493-.319.754-.493-.072-.29-.159-.58-.232-.9C1170.312,939.539,1170.63,939.467,1170.964,939.38Z" transform="translate(-47.965 -31.336)" fill="#6c7581"/>
    <path id="Контур_4580" data-name="Контур 4580" d="M1200.489,1110.2l.087.087c-.087.073-.189.131-.276.2h0A1.972,1.972,0,0,1,1200.489,1110.2Z" transform="translate(-74.299 -178.694)" fill="#8d98a7"/>
    <path id="Контур_4581" data-name="Контур 4581" d="M1178.1,1088.662c.015.029.043.058.058.087-.015,0-.029.015-.044.015a.119.119,0,0,0-.015-.1Z" transform="translate(-55.318 -160.274)" fill="#8d98a7"/>
    <path id="Контур_4582" data-name="Контур 4582" d="M1199.958,1112.2c-.014.029-.014.058-.029.087a.05.05,0,0,1-.029-.014.145.145,0,0,1,.058-.073Z" transform="translate(-73.957 -180.404)" fill="#8d98a7"/>
  </g>
  <g id="Lenta-2" data-name="Lenta" transform="translate(-1087.4 -859.2)" opacity="0.004">
    <path id="Контур_4571-2" data-name="Контур 4571" d="M1136.711,901.229c.131.087.261.189.392.276a4.137,4.137,0,0,1,.855.957c.087.131.189.261.3.406a4.5,4.5,0,0,1,.493-.536,5.139,5.139,0,0,1,.9-.7,1.382,1.382,0,0,1,1.682.174,3.7,3.7,0,0,1,.957,1.349c.145.319.261.638.392.986.087-.029.159-.044.246-.073.522-.189,1.044-.377,1.581-.551a4.117,4.117,0,0,1,.71-.145.718.718,0,0,1,.725.3,2.933,2.933,0,0,1,.508,1.175c.087.435.145.87.218,1.3.029.16.058.319.087.507.232,0,.449.015.667.015a9.646,9.646,0,0,1,3.262.624,5.627,5.627,0,0,1,1.116.623,1.9,1.9,0,0,1,.508.609.524.524,0,0,1-.145.74c-.333.276-.7.536-1.059.783s-.754.478-1.189.74c.131.058.2.1.29.13a8.4,8.4,0,0,1,2.828,1.8,3.976,3.976,0,0,1,.421.551.365.365,0,0,1-.073.493,4.492,4.492,0,0,1-2.03,1.175c-.218.073-.449.116-.7.174.073.087.116.145.174.218.13.159.275.319.42.464a3.214,3.214,0,0,1,.783,2.654c-.058.522-.29.74-.827.812a5.8,5.8,0,0,1-2.335-.261c-.159-.043-.333-.087-.536-.145-.015.406-.015.769-.058,1.131-.043.464-.13.914-.2,1.378a1.41,1.41,0,0,1-.073.232c-.188.479-.261.522-.769.537a4.674,4.674,0,0,1-2.436-.711c-.363-.2-.7-.45-1.073-.7a10.56,10.56,0,0,1-1.3,1.972,8.2,8.2,0,0,1-4.147-3.147,9.886,9.886,0,0,1-1.088.58,6.26,6.26,0,0,1-3.886.3,3.718,3.718,0,0,1-.914-.421.552.552,0,0,1-.232-.783,8.638,8.638,0,0,0,.493-1.842h-.363a5,5,0,0,1-3.06-.87.656.656,0,0,1-.319-.609,4.684,4.684,0,0,1,.333-1.6c.145-.391.319-.769.493-1.174-.1-.058-.2-.131-.3-.189a8.389,8.389,0,0,1-1.929-1.421,2.034,2.034,0,0,1-.551-.87.651.651,0,0,1,.174-.725,4.651,4.651,0,0,1,1.508-1.029c.087-.044.174-.073.261-.116-.348-.333-.7-.624-1.015-.972a7.3,7.3,0,0,1-.638-.827,1.036,1.036,0,0,1-.131-.29c-.116-.333-.1-.406.218-.551a11.377,11.377,0,0,1,1.334-.493c.363-.1.754-.13,1.16-.2a7.973,7.973,0,0,1-.855-1.929,7.07,7.07,0,0,1,3.016.16c.029-.145.043-.276.058-.406.043-.392.087-.783.145-1.175.058-.319.13-.363.449-.348a4.321,4.321,0,0,1,1.885.566c.275.145.551.3.812.45.449-.537.885-1.059,1.305-1.581A.079.079,0,0,0,1136.711,901.229Zm-2.16,6.815c-.348.087-.653.16-.986.232.087.319.159.594.232.9-.261.16-.493.319-.754.493.2.3.391.595.565.885-.159.246-.29.449-.449.682.232.2.435.406.653.594a.441.441,0,0,1,.188.508,3.339,3.339,0,0,0-.043.536c.13.072.247.145.363.2a1.236,1.236,0,0,1,.913,1.088c.015.159.116.232.276.276.218.058.421.13.638.174a.717.717,0,0,1,.537.392,1.016,1.016,0,0,0,1.16.652.787.787,0,0,1,.71.29,1.047,1.047,0,0,0,1.348.348.568.568,0,0,1,.522.087c.261.159.551.29.827.449a5.565,5.565,0,0,0,.58-.348.445.445,0,0,1,.421-.058c.319.1.638.188.957.276a2.148,2.148,0,0,0,.261-.406.461.461,0,0,1,.566-.276,7.1,7.1,0,0,0,.783.043c.043-.3.087-.551.13-.812.333-.087.653-.16.986-.247-.073-.3-.145-.594-.232-.9.261-.174.493-.319.74-.493-.2-.3-.392-.58-.58-.87.145-.232.276-.45.435-.711-.232-.2-.464-.421-.7-.609a.411.411,0,0,1-.16-.392c.029-.2.044-.406.073-.623l-.9-.493a.442.442,0,0,1-.232-.276,1.662,1.662,0,0,0-.261-.7,1.39,1.39,0,0,0-.71-.246,1.039,1.039,0,0,1-.7-.507c-.333-.522-.348-.537-.971-.537a1.045,1.045,0,0,1-.9-.363.972.972,0,0,0-1.233-.3.669.669,0,0,1-.594-.073c-.188-.13-.406-.218-.609-.333a.3.3,0,0,0-.377,0c-.131.087-.276.16-.421.247a.383.383,0,0,1-.392.043c-.319-.1-.638-.189-.971-.276-.116.159-.218.3-.3.449a.418.418,0,0,1-.449.232c-.275-.029-.551-.043-.841-.058A5.154,5.154,0,0,1,1134.55,908.044Z" transform="translate(-11.551 0)" fill="#ffd603"/>
    <path id="Контур_4572-2" data-name="Контур 4572" d="M1113.4,1037.261a4.413,4.413,0,0,1,1.189-1.131,5.342,5.342,0,0,1,2.393-.971,4.292,4.292,0,0,1,2.407.392,10.831,10.831,0,0,1,4.046,3.321,6,6,0,0,1,.855,1.7c.507-1.334.885-2.639,1.291-3.93a17.578,17.578,0,0,0,.855-3.944.378.378,0,0,1,.435.3,3.805,3.805,0,0,1,.145.812,12.805,12.805,0,0,1-.159,2.465c-.246,1.928-.725,3.828-1.117,5.728-.015.073-.029.159-.043.29.261-.261.493-.493.725-.711a12.1,12.1,0,0,1,2.625-1.812,5.026,5.026,0,0,1,5.046.188,7.929,7.929,0,0,1,.914.638,1.9,1.9,0,0,1,.333.348.538.538,0,0,1-.116.8,3.18,3.18,0,0,1-.464.3,2.394,2.394,0,0,0-1.059,1.2,3.8,3.8,0,0,1-2.828,2.291,14.786,14.786,0,0,1-1.609.218c-.682.087-1.363.174-2.03.276a2.9,2.9,0,0,0-1.334.623c-.174.145-.377.276-.594.435a8.625,8.625,0,0,0,.855,3.031,1.008,1.008,0,0,1-.275.087c-.145.014-.3,0-.45,0-.043-.014-.087-.014-.13-.029a2.73,2.73,0,0,1-1.6-1.856,6.866,6.866,0,0,1-.275-2.16c0-.8.044-1.6.073-2.407-.1-.087-.246-.174-.363-.29a2.972,2.972,0,0,0-1.363-.725,12.1,12.1,0,0,0-1.218-.246c-.624-.087-1.247-.116-1.856-.218a4.127,4.127,0,0,1-3.538-2.828,1.942,1.942,0,0,0-.682-.942,5.793,5.793,0,0,1-1.058-.827A2.121,2.121,0,0,1,1113.4,1037.261Zm12.6,6.96c.087-.073.189-.13.276-.2a9.111,9.111,0,0,1,2.117-1.32,20.162,20.162,0,0,1,5.017-1.479c.072-.015.159-.043.232-.058a9.267,9.267,0,0,0-3.234.073,6.563,6.563,0,0,0-4.22,2.7,1.994,1.994,0,0,0-.189.29.325.325,0,0,0-.058.073.051.051,0,0,0,.029.015A.206.206,0,0,1,1126,1044.222Zm-3.2-3.422c0,.043.015.072.015.116.014,0,.029-.015.043-.015a.235.235,0,0,1-.058-.1,1.361,1.361,0,0,0-.087-.218,7.369,7.369,0,0,0-3.219-2.77,7.129,7.129,0,0,0-2.944-.594c-.464,0-.913.073-1.406.1.71.131,1.392.232,2.045.391a12.47,12.47,0,0,1,5.336,2.886A1.224,1.224,0,0,0,1122.8,1040.8Z" transform="translate(0 -112.426)" fill="#2db14c"/>
    <path id="Контур_4573-2" data-name="Контур 4573" d="M1196.4,1152.959v-.072c.145,0,.3.015.449,0a1.537,1.537,0,0,0,.276-.087c.014.058.029.1.043.159Z" transform="translate(-70.965 -215.117)" fill="#73ca87"/>
    <path id="Контур_4574-2" data-name="Контур 4574" d="M1501.508,949.8v2.451c.145,0,.275.014.406.014h11.035v6.1c-.957.014-1.9,0-2.842,0h-8.584v3.553h12.151c.014,2.044,0,4.06-.014,6.09h-18.241c-.073-.232-.087-23.737-.029-24.317h17.865c.073.246.1,5.278.029,6.076-.377.029-.769.015-1.16.015h-9.469C1502.32,949.8,1501.929,949.8,1501.508,949.8Z" transform="translate(-326.569 -36.338)" fill="#ffd603"/>
    <path id="Контур_4575-2" data-name="Контур 4575" d="M1650.458,952.153v-8.5c.261-.087,5.67-.1,6.1-.029V967.9c-.232.073-5.612.1-6.09.014V958.3h-8.57v9.585c-.261.087-5.655.1-6.119.029v-9.628H1634v-6.119h1.755V943.6h6.1v8.5C1642.149,952.2,1649.719,952.24,1650.458,952.153Z" transform="translate(-445.111 -36.235)" fill="#ffd603"/>
    <path id="Контур_4576-2" data-name="Контур 4576" d="M1328.117,949.9h-4.9q-3.089,9.114-6.192,18.227h-6.38l-.029-.029a.051.051,0,0,0-.015-.029c.015-.058.015-.116.029-.174q4.068-12.05,8.149-24.1h15.747v24.332H1328.1C1328.117,962.071,1328.117,956.009,1328.117,949.9Z" transform="translate(-168.605 -36.423)" fill="#ffd603"/>
    <path id="Контур_4577-2" data-name="Контур 4577" d="M1933.876,943.714q4.111,12.137,8.222,24.332h-6.1c-.812-2.393-1.61-4.771-2.422-7.149h-6.96q-1.2,3.545-2.407,7.134h-6.1c.8-2.393,1.61-4.742,2.407-7.149h-2c-.087-.276-.1-5.684-.014-6.076h4.089q1.892-5.568,3.756-11.107C1928.845,943.714,1931.339,943.714,1933.876,943.714Zm-3.726,7.047a.109.109,0,0,1-.073-.015c-.449,1.349-.913,2.7-1.377,4.06h2.828C1931.049,953.444,1930.6,952.1,1930.15,950.762Z" transform="translate(-688.015 -36.337)" fill="#ffd603"/>
    <path id="Контур_4578-2" data-name="Контур 4578" d="M1819.384,949.976v18.2c-.261.087-5.641.1-6.119.029V949.99H1807V943.9h18.619v6.09C1823.545,949.976,1821.486,949.976,1819.384,949.976Z" transform="translate(-593.025 -36.509)" fill="#ffd603"/>
    <path id="Контур_4579-2" data-name="Контур 4579" d="M1170.964,939.38c.043-.29.087-.551.145-.827.3.014.58.029.841.058a.392.392,0,0,0,.449-.232c.087-.145.189-.29.3-.45.334.087.652.174.972.276a.419.419,0,0,0,.391-.043c.131-.087.276-.16.421-.247a.305.305,0,0,1,.377,0c.2.116.421.2.609.333a.59.59,0,0,0,.594.073.971.971,0,0,1,1.232.3,1.087,1.087,0,0,0,.9.363c.624,0,.638.015.972.536a1.038,1.038,0,0,0,.7.508,1.436,1.436,0,0,1,.71.246,1.658,1.658,0,0,1,.261.7.442.442,0,0,0,.232.276c.29.16.595.319.9.493-.029.218-.043.421-.072.624a.383.383,0,0,0,.159.392c.232.188.45.391.7.609-.159.246-.29.479-.435.71.188.29.377.566.58.87-.246.159-.478.319-.74.493.072.29.145.58.232.9-.334.087-.653.16-.986.247-.044.261-.087.522-.131.812a7.074,7.074,0,0,1-.783-.043.468.468,0,0,0-.566.276c-.072.13-.159.246-.261.406-.319-.087-.638-.174-.957-.276a.435.435,0,0,0-.421.058,5.554,5.554,0,0,1-.58.348c-.276-.145-.551-.29-.827-.449a.574.574,0,0,0-.522-.087,1.072,1.072,0,0,1-1.349-.348.773.773,0,0,0-.71-.29,1.016,1.016,0,0,1-1.16-.652.717.717,0,0,0-.536-.391c-.218-.058-.421-.13-.638-.174-.145-.044-.261-.116-.276-.276a1.237,1.237,0,0,0-.914-1.088,2.4,2.4,0,0,1-.362-.2,3.328,3.328,0,0,1,.044-.536.441.441,0,0,0-.189-.508c-.217-.174-.42-.377-.652-.594.145-.232.29-.449.45-.682-.189-.276-.363-.565-.566-.885.261-.159.493-.319.754-.493-.072-.29-.159-.58-.232-.9C1170.312,939.539,1170.63,939.467,1170.964,939.38Z" transform="translate(-47.965 -31.336)" fill="#1d388b"/>
    <path id="Контур_4580-2" data-name="Контур 4580" d="M1200.489,1110.2l.087.087c-.087.073-.189.131-.276.2h0A1.972,1.972,0,0,1,1200.489,1110.2Z" transform="translate(-74.299 -178.694)" fill="#a9deb5"/>
    <path id="Контур_4581-2" data-name="Контур 4581" d="M1178.1,1088.662c.015.029.043.058.058.087-.015,0-.029.015-.044.015a.119.119,0,0,0-.015-.1Z" transform="translate(-55.318 -160.274)" fill="#f5fbf6"/>
    <path id="Контур_4582-2" data-name="Контур 4582" d="M1199.958,1112.2c-.014.029-.014.058-.029.087a.05.05,0,0,1-.029-.014.145.145,0,0,1,.058-.073Z" transform="translate(-73.957 -180.404)" fill="#a9deb5"/>
  </g>
</svg>
